<svg id="Layer_1" data-name="Layer 1" xmlns="http://www.w3.org/2000/svg" viewBox="0 0 1500 280"><defs><style>.cls-1{fill:#fafafa;}</style></defs><path class="cls-1" d="M679.57,198.15V169.31c-4.48,5.84-7.07,9.38-9.83,12.79C652.55,203.35,627.06,206,607,187.51c-32.64-30.1-30-93.76,15.87-115.24a72.49,72.49,0,0,1,16.58-5.1,58.39,58.39,0,0,1,26.12,2,57,57,0,0,1,14.62,7.09c-.22-5.24-.57-13.55-1.06-23.87-.66-13.89-.93-17.88-3.34-22.63-3.63-7.18-9.72-11.31-13.92-13.57,15.21,0,27.38,0,39.55,0,7.49,0,6.15,5.5,6.17,9.86.09,27.85,0,55.7,0,83.55,0,25.85-1.92,51.8.19,77.57.11,1.38.54,6-2.26,8.71a9.08,9.08,0,0,1-6.18,2.23Zm.14-72.95c0-11.28.15-22.57-.11-33.84-.07-2.76-.74-6.12-2.43-8.13-12-14.3-40.52-14-52.68.37-16.13,19-18.32,64.21-4.1,84.85,7.85,11.39,22.58,15.86,37.3,11.33s22-14,22-28.69Q679.74,138.15,679.71,125.2Z"/><path class="cls-1" d="M765.39,132.17c0,10.33-.88,19.31.19,28.05a38.65,38.65,0,0,0,33.11,33.64c19,2.72,41-6.9,48.23-21.08,6.49-12.79,2.39-28.15-12.12-36.78-16.17-9.61-33.55-17.16-50.28-25.84a219.89,219.89,0,0,1-20.55-12c-15-10-22.84-23.54-20.27-42.14,2.53-18.24,12.66-30.59,29.82-36.2,25.76-8.43,51.52-8.58,76,4.59,9.51,5.11,16.09,13.24,15.29,24.83-.77,11.06-8.31,17.29-18.94,23.19-.25-5.14-.14-9-.67-12.67-2.3-16.25-8.62-30.42-24.72-36.89-15.69-6.32-31.36-4.87-45,6.07-15.3,12.31-15.71,31.08.42,42,15.57,10.51,32.93,18.32,49.25,27.76,10.56,6.11,21.28,12.23,30.84,19.73,24.37,19.1,19.31,44.66-.25,63.22-25.38,24.08-74.85,21.11-99.4,7-12.18-7-16.76-18.89-14.34-32.41C744.25,144,752.56,136.29,765.39,132.17Z"/><path class="cls-1" d="M98.13,204.2c-2.06-4-3.45-5.89-4-8-5.33-19.26-21.29-28.54-41.23-23.85-18.25,4.29-30.88,23.58-27.2,41.56C30.52,237.7,52,256.13,74.82,257.56c33,2.07,53.39-16.73,60.78-43.1a66.87,66.87,0,0,0,2.12-17.63c.16-50.44-.18-100.88.29-151.32.12-12.31-3.9-21.17-14.45-28.89,12.16,0,24.35-.38,36.47.32,2.35.14,4.71,4.27,6.65,6.87q28.55,38.16,57,76.43c1.72,2.32,3.67,4.47,6.38,7.73,9.78-17.92,19.12-34.92,28.37-52,5.67-10.47,11.5-20.87,16.68-31.58a14.94,14.94,0,0,1,5.29-6.48A15.33,15.33,0,0,1,289,16c6.62,0,13.47,0,21,.05V91H282V21c-8.08,13.51-13.94,25-17.81,32.9-10.27,21.15-22.31,41.39-33.35,62.15-7.68,14.43-11.82,14.83-21.44,1.9q-30.21-40.64-60.52-81.19c-1.17-1.57-2.56-3-5.53-6.39-.25,5.41-.54,8.75-.54,12.08,0,51.1-.86,102.23.22,153.31.93,43.72-42,77.66-77.81,74.32-25.81-2.41-46.31-23.46-48.13-52-1.56-24.56,16.83-47.63,41.42-51.92C79.12,162.53,101,181.84,98.13,204.2Z"/><path class="cls-1" d="M1008.07,78.15c-20.17-17.23-44.13-14-61.23,6.55-2.66,3.2-5.45,6.3-10.16,11.74,0-7.87-.31-13,.08-18.14.5-6.7-1.77-9.7-8.92-9.44-11.43.41-22.9.11-37.51.11,16.7,6.62,20,17.72,19.94,31.48-.28,40.36,0,80.72-.22,121.08h26.38c0-10.57.26-21.42.26-33,17.1,9.6,32.74,13.59,49.69,8.15,24.11-7.75,38.45-25.2,43.3-48.91C1035.07,121.41,1029.51,96.47,1008.07,78.15Zm-10.52,97.24c-10.53,21.09-39.74,25.47-56.72,9.1-2.46-2.37-3.73-6.92-3.91-10.54-.51-10.57-.18-21.19-.18-31.8,0-9.61,0-19.22,0-28.83,0-13.46,14.6-31.91,27.65-35.08,12.86-3.13,27,3.29,33.21,17.52C1009.12,122.05,1010.66,149.15,997.55,175.39Z"/><path class="cls-1" d="M554.49,114.06c-.23-18.15-5.32-34.37-23.24-42.86-18.34-8.69-35.58-4.84-51.33,6.78-5.72,4.22-10.65,9.51-17.71,15.91,0-6.34.21-10.81.07-15.25C462,70.76,459.75,68.05,452,68.4c-11.58.51-23.2.13-34.81.13,14.4,6.65,17.68,18.39,17.41,32.9-.09,4.66-.13,9.33-.18,14h27.4c.93-17,10.77-27.8,24.4-37.13,13.86-9.5,28.17-6.06,35.39,9.16A51.71,51.71,0,0,1,526,107.54c.59,18.89.21,37.82.21,56.73v33h28.34C554.58,169,554.84,141.53,554.49,114.06Z"/><path class="cls-1" d="M1290.36,76.44c10.84-8.8,21.85-10.76,26.47-6.49.92.85,2.45,2.73,2.68,6.88,1.65,29.53.35,102.16.2,113.48,0,3.78,0,6.78,0,7.66-3.49-.06-6.19-.08-7.65-.09-8.54-.06-11,0-14-1.61a11.15,11.15,0,0,1-3.9-3.22c-2.15-2.9-1.89-5.83-2-13.22,0-2.3-.08-5.91-.29-10.45a67.82,67.82,0,0,1-6.07,8.25c-3.76,4.37-18.39,21.38-37.15,21.81-18.91.43-32.37-16.27-33.79-18-32.63-39.14-15.38-98.08,28-111.58C1259.55,64.72,1275,68.05,1290.36,76.44Zm2.42,48.45c0-11,.35-21.91-.21-32.83-.18-3.5-1.85-7.9-4.38-10.16-18.85-16.78-45.85-11.64-56.74,11a69.73,69.73,0,0,0-6.78,22.61c-2,19.89-2.89,40,11.61,56.56,8.8,10.05,22.42,12.43,36.56,7,13.84-5.34,19.94-14,19.94-28.26Q1292.8,137.83,1292.78,124.89Z"/><path class="cls-1" d="M1171.58,166.24a53.25,53.25,0,0,1-7,11.31A63.53,63.53,0,0,1,1142,194c-13.4,5.66-40.34,10.41-61.54-6.1-22.89-17.81-22-47-21.56-56.62,1.1-25.24,11.48-46.63,35.8-57.73,18.46-8.43,37.81-9.52,56.73-.55,12.78,6,22.21,23.23,19.88,37.08-.39,2.28-5.24,5.35-8.08,5.41-21.1.46-43.55-.19-64.69.05-2.11,0-6.68.15-9.7,3.27-2.76,2.86-3,6.93-2.92,9.86.28,27.61,13.55,42.77,13.55,42.77a40,40,0,0,0,59.58,4.69C1162.56,172.77,1166.7,170.05,1171.58,166.24Zm-82.35-55.65h56c-1.71-9.28-2.46-17.75-4.93-25.69-3.15-10.11-11.76-14.32-21.8-12.12C1103.7,76,1089.79,93.59,1089.23,110.59Z"/><path class="cls-1" d="M1358.63,53.35a46.94,46.94,0,0,0-3-18.44,46,46,0,0,0-9.26-14.66,23.62,23.62,0,0,0-6.29-3.92l6.57,0c4.09-.11,16-.4,28.67-.23,1.93,0,5.41.13,7.77,2.5,2.54,2.56,2.48,6.43,2.46,7.78-.18,12.3-.6,92.36-.13,113.41.11,4.83,0,16-.07,35.81-.06,9.49-.12,17.12-.16,21.54l-26.64.07-.11-9.61c.15-15.39.17-28,.15-37.35"/><path class="cls-1" d="M339.93,68.56c20.32-.43,35.42-.25,39.85.25A8.48,8.48,0,0,1,385,71a7.61,7.61,0,0,1,2,4l.18,122.29H358.92v-20q0-38.82,0-77.64C358.91,82.72,356.1,77.88,339.93,68.56Z"/><path class="cls-1" d="M1484,196.9c-17.1,1.91-31.38,1.44-43.28-9.86-17.75-16.85-35.51-33.69-53.76-51,21.32-22.13,41.48-43.2,61.9-64,2-2,8.34-3.54,8.34-3.54s2.41-.33,2.65,0-1.09,2.18-1.09,2.18l-50.49,52.9L1484,196.9"/><path class="cls-1" d="M372.7,49c-9.88-.24-18-8.28-17.67-17.5a18.08,18.08,0,0,1,18.18-17.14c9.28.06,17.61,8.4,17.7,17.72S382.48,49.22,372.7,49Z"/><path class="cls-1" d="M281.36,197.29h28.41q.12-42.64.23-85.29c-.26-1.39-2-9.85-10-14.68a21.62,21.62,0,0,0-13.12-2.89,7,7,0,0,0-5.45,7Z"/><path class="cls-1" d="M462,198.27l-28.13,0,.48-84.58,27.5-.28Z"/><polygon class="cls-1" points="936.53 210.85 936.53 254.46 910.32 254.46 910.03 210.85 936.53 210.85"/></svg>