<?xml version="1.0" encoding="UTF-8" standalone="no"?> <svg width="64" height="64" viewBox="0 0 64 64" fill="none" xmlns="http://www.w3.org/2000/svg">
<path d="M51.3 44.6197C51.1429 44.5002 50.9637 44.4132 50.7726 44.3635C50.5816 44.3139 50.3826 44.3027 50.1873 44.3307C49.9919 44.3586 49.804 44.425 49.6345 44.5261C49.4651 44.6273 49.3173 44.761 49.2 44.9197C48.77 45.4797 48.31 46.0197 47.83 46.5397C43.7602 46.3222 39.8365 44.9503 36.5179 42.5845C33.1993 40.2186 30.623 36.9567 29.0904 33.1803C27.5578 29.4038 27.1323 25.269 27.8636 21.2596C28.5949 17.2502 30.4528 13.5319 33.22 10.5397C33.93 10.5397 34.64 10.6397 35.34 10.7497H35.57C35.9678 10.7802 36.3615 10.6514 36.6643 10.3917C36.9672 10.132 37.1545 9.76255 37.185 9.36473C37.2155 8.9669 37.0867 8.57326 36.827 8.27038C36.5672 7.96751 36.1978 7.78023 35.8 7.74973C34.7468 7.59066 33.6848 7.49715 32.62 7.46973H32C25.5022 7.46973 19.2705 10.051 14.6759 14.6456C10.0812 19.2403 7.5 25.4719 7.5 31.9697C7.5 38.4675 10.0812 44.6992 14.6759 49.2938C19.2705 53.8885 25.5022 56.4697 32 56.4697C35.2635 56.4827 38.496 55.8376 41.5046 54.573C44.5131 53.3084 47.2358 51.4503 49.51 49.1097C50.2568 48.3506 50.9517 47.5421 51.59 46.6897C51.8204 46.3748 51.9191 45.9824 51.8649 45.5959C51.8108 45.2094 51.6081 44.8592 51.3 44.6197V44.6197ZM32 53.4997C26.5366 53.5058 21.2758 51.4317 17.2864 47.6988C13.2971 43.966 10.8785 38.8544 10.522 33.4026C10.1655 27.9508 11.8979 22.5678 15.3671 18.3473C18.8364 14.1267 23.7823 11.3852 29.2 10.6797C26.7523 14.0494 25.2033 17.9871 24.699 22.1213C24.1947 26.2555 24.7518 30.45 26.3177 34.3093C27.8837 38.1685 30.4068 41.5653 33.6492 44.1793C36.8916 46.7933 40.7464 48.5383 44.85 49.2497C41.1413 52.0232 36.631 53.5149 32 53.4997V53.4997Z" fill="black"/>
<path d="M52.9001 26.9299C52.9788 27.2578 53.1657 27.5496 53.4306 27.7582C53.6955 27.9669 54.0229 28.0802 54.3601 28.0799C54.4764 28.094 54.5939 28.094 54.7101 28.0799C55.0962 27.985 55.4292 27.7418 55.637 27.4029C55.8448 27.0641 55.9106 26.657 55.8201 26.2699C55.2538 23.9288 54.3439 21.6845 53.1201 19.6099C53.0215 19.4368 52.8895 19.2852 52.7316 19.1637C52.5738 19.0423 52.3933 18.9535 52.2008 18.9025C52.0082 18.8515 51.8075 18.8394 51.6102 18.8668C51.4129 18.8943 51.2231 18.9608 51.0518 19.0623C50.8805 19.1639 50.7311 19.2986 50.6124 19.4586C50.4937 19.6185 50.408 19.8005 50.3604 19.9939C50.3128 20.1872 50.3041 20.3882 50.335 20.5849C50.3659 20.7817 50.4356 20.9704 50.5401 21.1399C51.608 22.943 52.4033 24.8941 52.9001 26.9299V26.9299Z" fill="black"/>
<path d="M55.0501 31.7894C54.853 31.7786 54.6558 31.8068 54.4697 31.8723C54.2835 31.9379 54.1122 32.0396 53.9654 32.1715C53.8186 32.3034 53.6993 32.463 53.6143 32.6411C53.5293 32.8192 53.4803 33.0123 53.4701 33.2094C53.3507 35.317 52.9228 37.3958 52.2001 39.3794C52.065 39.7533 52.0839 40.1656 52.2527 40.5256C52.4214 40.8857 52.7262 41.164 53.1001 41.2994C53.2618 41.3662 53.4351 41.4001 53.6101 41.3994C53.9195 41.3985 54.2212 41.3019 54.4736 41.1229C54.726 40.9439 54.9169 40.6911 55.0201 40.3994C55.8405 38.1492 56.3257 35.7906 56.4601 33.3994C56.475 33.2007 56.4502 33.001 56.3871 32.812C56.3241 32.6231 56.224 32.4485 56.0927 32.2986C55.9615 32.1488 55.8017 32.0265 55.6226 31.9391C55.4436 31.8516 55.249 31.8007 55.0501 31.7894V31.7894Z" fill="black"/>
<path d="M41.3701 12.6396C43.2722 13.5598 45.0278 14.7561 46.5801 16.1896C46.8498 16.4463 47.2078 16.5896 47.5801 16.5896C47.88 16.5856 48.1717 16.4919 48.4178 16.3206C48.6638 16.1492 48.8529 15.908 48.9605 15.6282C49.0681 15.3483 49.0894 15.0426 49.0216 14.7505C48.9538 14.4585 48.8001 14.1934 48.5801 13.9896C46.8137 12.355 44.8154 10.9902 42.6501 9.93957C42.4729 9.85355 42.2804 9.8033 42.0837 9.79168C41.887 9.78005 41.6899 9.80728 41.5037 9.87182C41.3175 9.93636 41.1459 10.0369 40.9986 10.1678C40.8512 10.2987 40.7312 10.4573 40.6451 10.6346C40.5591 10.8119 40.5089 11.0043 40.4972 11.2011C40.4856 11.3978 40.5129 11.5948 40.5774 11.781C40.6419 11.9672 40.7425 12.1388 40.8734 12.2862C41.0042 12.4335 41.1629 12.5536 41.3401 12.6396H41.3701Z" fill="black"/>
</svg>
