<svg id="Layer_1" data-name="Layer 1" xmlns="http://www.w3.org/2000/svg" viewBox="0 0 6250 6250"><defs><style>.cls-1{opacity:0.58;}.cls-2{fill:#f3f6ff;}.cls-2,.cls-3,.cls-4,.cls-6,.cls-8,.cls-9{fill-rule:evenodd;}.cls-3{fill:#eaf0ff;}.cls-4{fill:#fff;}.cls-5,.cls-7{fill:none;stroke-linecap:round;stroke-linejoin:round;stroke-width:17.9px;}.cls-5{stroke:#1b3c87;}.cls-6{fill:#a308f7;}.cls-7{stroke:#b6c6fc;}.cls-8{fill:#1b3c87;}.cls-9{fill:#fb5d64;}</style></defs><g id="Vector"><path class="cls-2" d="M4848.19,4177.92c0-309.05,250.53-559.59,559.58-559.59s559.59,250.54,559.59,559.59-250.54,559.58-559.59,559.58S4848.19,4487,4848.19,4177.92Z"/><path class="cls-3" d="M1767.37,2983.34c0-774.85,628.14-1403,1403-1403s1403,628.13,1403,1403-628.14,1403-1403,1403S1767.37,3758.19,1767.37,2983.34Z"/><path class="cls-4" d="M1860.51,3474.81c39.48-36.45,178-163.59,206.67-176.55s361.16,357.95,328.32,384.49-206.64,186.6-272,227.3C1992.94,3768,1902.16,3604.76,1860.51,3474.81Z"/><path class="cls-5" d="M1847.22,3442.56c39.48-36.45,173.1-159.7,201.81-172.66s363.59,385.4,330.75,411.93-207.14,196.66-258.65,229.28"/><path class="cls-6" d="M2721.82,3055.85c190.52,289.76-277.38,653.4-349,674.29s-380-401.64-357.66-457.23S2491.75,2705.94,2721.82,3055.85Z"/><path class="cls-5" d="M2233.52,3001c151.27-104.94,339.54-165.49,463.12,22.46,190.52,289.76-277.38,653.4-349,674.29s-380-401.64-357.66-457.23c4.33-10.76,24.85-38.63,56.81-74"/><path class="cls-6" d="M3104.62,2810.09c-214.59-1.29-425.74,40-529.81,120.85-169,131.32-281.4,943.08-232.93,1184.65,232.16,170.17,518.55,270.72,828.46,270.72,244.65,0,474.63-62.7,674.88-172.78,35.45-301.63-51.93-1163.91-190.13-1268.81C3537.26,2855.27,3319.22,2811.38,3104.62,2810.09Z"/><path class="cls-5" d="M2383.74,3276.93c40.66-178.5,95.1-327.36,159.6-377.46,208.14-161.7,844.6-165.14,1080.27,13.76,146.61,111.29,242.54,1076.83,182.34,1317.65"/><path class="cls-5" d="M2311.12,4088.11c-9.73-61.46-10.34-161.13-3-277.54"/><path class="cls-7" d="M1352.43,607.5l641,242L1718.33,1578l-641-242Z"/><path class="cls-7" d="M4226.91,4405.58l136.17,1238.31,876.61-1493.63Z"/><path class="cls-7" d="M1333.25,1637.45c0-208,168.61-376.6,376.6-376.6s376.6,168.61,376.6,376.6-168.61,376.6-376.6,376.6S1333.25,1845.44,1333.25,1637.45Z"/><path class="cls-4" d="M4006.4,4122.59c-29.9-29.9-236-311-259.22-337.46s417.42-391.85,444.52-359.9,135.75,184,186.41,267.6C4337.37,3766.16,4112.31,4050.28,4006.4,4122.59Z"/><path class="cls-5" d="M4016.44,4100.28c-25-34.09-248.37-341.81-271.6-368.28s417.43-391.85,444.53-359.9,156.89,209.58,201.59,296.5"/><path class="cls-6" d="M3532.91,2901.51c222.55-152.64,759.56,371.73,758.22,528.07s-478.84,440.34-558.38,399.32C3645.08,3783.7,3191.48,3135.69,3532.91,2901.51Z"/><path class="cls-5" d="M3398.83,3242.79c-30-145.34-10.74-284.76,113.13-369.71,222.55-152.64,759.56,371.72,758.21,528.07s-478.83,440.33-558.38,399.32c-25.45-13.13-81.75-77.06-140.48-166.93"/><path class="cls-5" d="M1767.37,2983.34c0-774.85,628.14-1403,1403-1403s1403,628.13,1403,1403-628.14,1403-1403,1403S1767.37,3758.19,1767.37,2983.34Z"/><path class="cls-4" d="M4376.39,3216.85c1.38-40.31,79.93-56.66,175.45-36.53s171.84,69.12,170.47,109.42-79.94,56.65-175.46,36.52S4375,3257.15,4376.39,3216.85Z"/><path class="cls-4" d="M4404.75,3062.66c1.38-40.3,79.93-56.66,175.45-36.53s171.85,69.12,170.47,109.42-79.94,56.66-175.46,36.53S4403.37,3103,4404.75,3062.66Z"/><path class="cls-4" d="M4401.09,2903.31c1.38-40.3,79.93-56.65,175.46-36.53S4748.39,2935.9,4747,2976.2s-79.94,56.66-175.46,36.53S4399.71,2943.61,4401.09,2903.31Z"/><path class="cls-5" d="M4440.35,2844.83c31.39-5.8,73.41-4.56,119.36,5.12,95.52,20.13,171.84,69.12,170.46,109.42-.93,27.21-37.05,43.51-89.83,45"/><path class="cls-5" d="M4416.81,3012.1c31.48-13.63,85.56-15.66,146.56-2.8,95.52,20.13,171.84,69.12,170.46,109.42-1,29.38-43,46-102.77,45.1"/><path class="cls-5" d="M4436.43,3155.68c28.16-2.24,62.13.13,98.58,7.81,95.52,20.13,171.84,69.11,170.46,109.42-.86,25.18-31.87,41-78.33,44.44"/><path class="cls-4" d="M1585.32,2961.81c1.38-40.3,79.94-56.65,175.46-36.52s171.84,69.11,170.46,109.42-79.93,56.65-175.46,36.52S1583.94,3002.11,1585.32,2961.81Z"/><path class="cls-4" d="M1613.68,2807.62c1.38-40.3,79.94-56.65,175.46-36.52s171.84,69.12,170.46,109.42-79.93,56.65-175.45,36.52S1612.3,2847.93,1613.68,2807.62Z"/><path class="cls-4" d="M1610,2648.27c1.38-40.3,79.94-56.65,175.46-36.52s171.84,69.12,170.46,109.42-79.93,56.65-175.45,36.52S1608.65,2688.58,1610,2648.27Z"/><path class="cls-5" d="M1629.79,2686.38c-29.4-19.4-47.13-41.08-46.46-60.69,1.38-40.3,79.94-56.65,175.46-36.52,42.79,9,81.72,23.82,111.55,41"/><path class="cls-5" d="M1670.23,2866c-50.66-23.45-84.16-54.12-83.24-80.94,1.38-40.3,79.94-56.65,175.46-36.53,39.8,8.39,76.27,21.79,105.17,37.48"/><path class="cls-5" d="M1696.81,3040.56c-79.85-23.26-139.4-65.69-138.18-101.33,1.38-40.3,79.94-56.66,175.46-36.53,55.87,11.78,105.18,33.42,136.2,57.43"/><path class="cls-4" d="M3319.3,2501.8c-9.09,51.74-51,260.07-18.88,485.89-37.05,28-253.08,48.23-312.5,0,2.1-91.59,4.19-274.76-4.19-321.6S3328.39,2450.07,3319.3,2501.8Z"/><path class="cls-5" d="M2963.66,2957.65c2.09-91.59,4.19-274.76-4.2-321.6s344.66-216,335.58-164.29-51,260.07-18.88,485.89c-16.77,12.65-70.2,23.73-129.19,27.6"/><path class="cls-4" d="M2613.83,2202c20.56-252.22,209.85-442.89,422.78-425.88s368.89,235.26,348.32,487.48-209.85,442.89-422.78,425.88S2593.26,2454.24,2613.83,2202Z"/><path class="cls-5" d="M3165.74,2603c-65.84,44.91-142.86,68.08-223.24,61.66-99.16-7.92-186-59.49-248.34-137.8"/><path class="cls-5" d="M2611.41,2362.6c-16.1-57.63-22.53-120.39-17.23-185.4C2614.74,1925,2804,1734.31,3017,1751.32s368.88,235.26,348.32,487.48c-6.2,76-27.71,146.4-60.58,207.22"/><path class="cls-8" d="M2988.17,2109.9c2.94-27.26,15.33-48.28,27.67-47s19.95,24.52,17,51.77-15.34,48.28-27.67,46.94S2985.22,2137.15,2988.17,2109.9Z"/><path class="cls-5" d="M2818.5,2132.74c-9.79,42.2-36.92,90.42-69.32,116"/><path class="cls-5" d="M2897.62,2395.33a44.83,44.83,0,1,1,44.83,44.83A44.84,44.84,0,0,1,2897.62,2395.33Z"/><path class="cls-9" d="M3272.52,2270.81c-27.07-1.93-104.77-112.79-25.06-189-39.11-38.1-269.18-210.31-545.59-103.51-35.91-36.52-133.93-183.36-49.32-246.67s119.95,13.25,130.91,43.68c-25.56-80.34-11.17-296.44,204-298.83S3434,2102.78,3424.62,2215.6,3414.8,2343.65,3272.52,2270.81Z"/><path class="cls-5" d="M3263.18,1768.84c81.4,168.73,135.11,349.25,130.51,404.78-9.36,112.82-9.82,128.06-152.1,55.22-27.06-1.93-104.77-112.79-25.06-189-30.94-30.15-181.48-144.29-379.92-137.68"/><path class="cls-5" d="M2670.94,1936.34C2635,1899.82,2537,1753,2621.62,1689.67s120,13.24,130.91,43.68c-25.56-80.35-11.16-296.44,204-298.84,54-.6,109.07,38.59,161.07,99.4"/><path class="cls-4" d="M3211.05,2324.37a98.57,98.57,0,1,1,98.57,98.57A98.57,98.57,0,0,1,3211.05,2324.37Z"/><path class="cls-5" d="M3259.49,2221.47a98.57,98.57,0,1,1-5.4,176.41"/></g></svg>