<svg id="Layer_1" data-name="Layer 1" xmlns="http://www.w3.org/2000/svg" viewBox="0 0 6250 6250"><defs><style>.cls-1{fill:#f0f0f0;}.cls-2{opacity:0.58;}.cls-3,.cls-7,.cls-9{fill:none;stroke-linecap:round;stroke-linejoin:round;}.cls-3{stroke:#edcefd;}.cls-3,.cls-7{stroke-width:35.31px;}.cls-4{fill:#a308f7;}.cls-10,.cls-11,.cls-12,.cls-13,.cls-4,.cls-5,.cls-6,.cls-8{fill-rule:evenodd;}.cls-5{fill:#edcefd;}.cls-6{fill:#f4f7ff;}.cls-7{stroke:#618cff;}.cls-8{fill:#1c059e;}.cls-9{stroke:#1b3c87;stroke-width:21.13px;}.cls-10{fill:#fff;}.cls-11{fill:#1b3c87;}.cls-12{fill:#edca55;}.cls-13{fill:#3c3744;}</style></defs><path class="cls-1" d="M4379.82,1248.25c314.27,350.23,478.1,792.39,524.07,1228.7C4949,2913.27,4876.31,3344.56,4700,3780,4524.42,4214.68,4245.24,4653.5,3834.84,4860c-411.24,206.45-954.54,179.71-1360.76-45.14-405.39-224.84-674.53-648.62-951.2-1087.44S961.19,2834.7,1058.15,2476.12s575.07-621,985.47-954.54c410.4-332.67,752.26-736.39,1155.14-809.1C3601.64,640.59,4065.54,898,4379.82,1248.25Z"/><path class="cls-3" d="M1446.12,4199.25l-272.86-754.38L900.4,2690.48l789.75,140.89,789.75,140.88L1963,3585.75Z"/><path class="cls-4" d="M1184.89,1345.69H3739.3V3805H1184.89Z"/><path class="cls-5" d="M1925.79,1749.76H3349.24V1848H1925.79Z"/><path class="cls-5" d="M1925.79,2187.79H3349.24V2286H1925.79Z"/><path class="cls-5" d="M1925.79,2625.81H3349.24v98.26H1925.79Z"/><path class="cls-3" d="M1701.28,1704.71l-165.09,156-79-74.6"/><path class="cls-3" d="M1701.28,2163.48l-165.09,156-79-74.6"/><path class="cls-3" d="M1701.28,2622.25l-165.09,156-79-74.6"/><path class="cls-6" d="M1925.79,3063.85H3349.24v98.25H1925.79Z"/><path class="cls-6" d="M1925.79,3501.88H3349.24v98.26H1925.79Z"/><path class="cls-7" d="M4458,3325.31c0-337.86,273.89-611.75,611.76-611.75s611.75,273.89,611.75,611.75-273.89,611.76-611.75,611.76S4458,3663.18,4458,3325.31Z"/><path class="cls-8" d="M3555.42,2427.1c-157.15-31.37-352.48,163.83-338.81,451.92l189.6,39.37S3569.11,2429.83,3555.42,2427.1Z"/><path class="cls-9" d="M3195.49,2745.32a579.59,579.59,0,0,0-4.39,105"/><path class="cls-9" d="M3529.91,2398.4c-99.53-19.86-214.35,51.13-281.72,179"/><path class="cls-8" d="M3920,2309.26c593.31,0,708.1,686,629.27,1641.63C4292,4058.77,3660,4114.09,3380.6,3944,3249.21,3576.1,3172.89,2309.26,3920,2309.26Z"/><path class="cls-10" d="M3492.44,1693.73c0-251.74,152-455.82,339.51-455.82s339.5,204.08,339.5,455.82-152,455.83-339.5,455.83S3492.44,1945.48,3492.44,1693.73Z"/><path class="cls-11" d="M3768.5,1694.05c0-22,9.12-39.78,20.37-39.78s20.38,17.81,20.38,39.78-9.12,39.77-20.38,39.77S3768.5,1716,3768.5,1694.05Z"/><path class="cls-9" d="M3674.7,1768.12c-.65,24.57-7.77,77.62-42.06,111.91"/><path class="cls-9" d="M3752.33,1979c28.45-3.87,64-14.87,86.67-48.51"/><path class="cls-9" d="M4390.48,3040.8c19.2,54.83,61.5,200.85,61.5,200.85s-299.57-153.77-440.39-224.84"/><path class="cls-9" d="M3660.76,3067.67,3625,3185.58"/><path class="cls-9" d="M3774.19,2693.78l-47.59,156.88"/><path class="cls-9" d="M4013.47,4014.25c-250.46,16-518.53-8.42-675.39-103.93-98.12-274.69-165.52-1050.58,117.64-1426.05"/><path class="cls-9" d="M3625.67,2335.32c71.08-38.22,154.44-59.72,251.77-59.72,593.32,0,708.11,686,629.28,1641.64-39.15,16.4-87,31.6-140.88,45"/><path class="cls-9" d="M4494.5,3904.5c0,63.79-9.89,1018.51-9.89,1018.51"/><path class="cls-10" d="M3764.21,2894.69c-35.76,0-190.42,19.7-102.86,162.72,50.17,81.94,70.88,58.37,91.91,32.45,16.38,8.53,41.65,28.66,57.94,42.16-.12.27-.21.54-.33.81,44.23,34.5,628.07,544.2,748.13,574.76s255.11-88.19,307.05-177.51c57.3-98.5-51.34-498.12-70.52-542.19s-370.62,97.63-370.62,97.63,56.91,170.24,71.92,240.61c-33.12-18.63-555.27-273.84-623.27-352.3-.11.23-.25.63-.37.85C3848.27,2949.23,3791.75,2894.69,3764.21,2894.69Z"/><path class="cls-9" d="M3330,3895.2l-.72,923"/><path class="cls-9" d="M3772.3,4481c32.48,138.85,68.1,292.75,102.47,442"/><path class="cls-10" d="M4122.81,1882.48c-1.92,23.19-52.18,414.27-34.14,553.43C4045.51,2472.64,3746.85,2478,3753,2423c10.32-92.14,32.22-235.16,13.53-308"/><path class="cls-9" d="M3726.62,2382.45c10.32-92.13,25.58-191.78,15.38-273.86"/><path class="cls-9" d="M4092.39,1897.78c-1.93,23.19-48.14,358.39-30.1,497.55-17,14.49-73.8,24.1-135.94,27.05"/><path class="cls-9" d="M3954.37,2067.56c-44.95,29.5-95.47,46-148.86,46-118.27,0-222.41-81.18-283.2-204.31"/><path class="cls-9" d="M3476.16,1768.89A606.6,606.6,0,0,1,3466,1657.78C3466,1406,3618,1202,3805.51,1202S4145,1406,4145,1657.78c0,112.06-30.12,214.67-80.08,294"/><path class="cls-12" d="M4142.32,1944.79c38.07,6.9,102.43-198.83,115.56-322.92,23.38-221-208.46-502.31-381.65-519.69-34-3.42-72.41,31.57-51.55,90.12-42-44.06-152.11-102.33-247.21-114.56-144.48-18.56-214.29,77.45-214.29,120.22s25.94,176.64,77.79,218c-41.9-.52-79.18,3.33-83.85,37.26-14.37,104.67,44.93,199.15,145.29,189.54,7-58.94,19.61-116,40.27-154.4,16.77,151.06,400.81,100.43,400.05,125.65-2.9,97.15,112.39,97.16,116.39,99.57C4148.17,1766.93,4081.6,1933.76,4142.32,1944.79Z"/><path class="cls-9" d="M3331.36,1194.56c9,57.7,33.61,145.82,73.94,178-41.89-.52-79.18,3.33-83.84,37.26-12.37,90.12,29.88,172.69,105.92,187.77"/><path class="cls-9" d="M4116.48,1257.53c-77.83-107.73-185-189.63-275.91-198.76-34-3.41-72.41,31.57-51.56,90.12-41.94-44.06-152.09-102.33-247.21-114.55-62.57-8-111.15,5.4-146.11,26.72"/><path class="cls-9" d="M4077.45,1842.6c2.12,31.22,7.62,54.85,29.2,58.77,38.08,6.91,102.44-198.82,115.57-322.91,3.85-36.31.8-74.25-7.74-112.36"/><path class="cls-9" d="M3489.9,1486a254.78,254.78,0,0,1,17.12-41.07c16.77,151.07,400.8,100.43,400.06,125.66-.46,15.39,2,28.34,6.61,39.26"/><path class="cls-10" d="M3978.88,1668.4A86,86,0,1,1,4027.81,1825a86.45,86.45,0,0,1-15.54-1.4"/><path class="cls-9" d="M3971.07,1650.44a85.92,85.92,0,1,1,33.4,155.25"/><path class="cls-5" d="M2958.13,2868.06l624.21,99.68-150.93,945.12-624.22-99.68Z"/><path class="cls-9" d="M2778.21,3753.26l150.92-945.12,624.23,99.7-48.65,304.61"/><path class="cls-9" d="M3449.12,3560.53,3402.42,3853l-425.71-68"/><path class="cls-10" d="M2778.82,3633.17c-28.41-214.81-6.55-355.36,115.78-395.41,49.38-16.16.73,297.83-18.93,349.54S2802.12,3580,2778.82,3633.17Z"/><path class="cls-9" d="M2759,3402c-13.56-44.55-5.82-140.39,147.16-194.62"/><path class="cls-9" d="M2749.35,3533.63c-13.55-44.53-5.8-140.38,147.17-194.6"/><path class="cls-9" d="M2758.07,3646.92c-13.56-44.54-5.82-140.4,147.16-194.62"/><path class="cls-9" d="M3940.71,1687.89a86.37,86.37,0,0,1,30.36-37.45"/><path class="cls-9" d="M4854.44,3426.46c-2.58,18.55-7,34.06-13.65,45.51-51.94,89.31-187,208.07-307,177.51S3837,3097.2,3785.61,3074.71"/><path class="cls-9" d="M4770.26,2929.78c9.87,22.69,43.46,139.62,65.9,261.17"/><path class="cls-9" d="M3841.42,2934.52c-42.48-119.28-134.06-86.58-223.21-8.81"/><path class="cls-9" d="M3742.92,2949.89c-25-1.83-86.91,21.64-115.19,45.9"/><path class="cls-9" d="M3761,3024.28c-27-.59-71,21.12-104.8,37.68"/><path class="cls-8" d="M4333.18,2383.8c278.73-94.75,546.75,507.36,533.62,570.48S4415,3144.71,4364.37,3104.84,4171.7,2438.68,4333.18,2383.8Z"/><path class="cls-9" d="M4439.26,3065.48c-54.35,9.09-96.41,10.54-110.09-.24C4307,3047.72,4267,2916.91,4243,2771.13"/><path class="cls-9" d="M4386.11,2336.11c244.37,35.17,457.22,522.16,445.49,578.56-7.17,34.43-141,88-269.34,123"/><polygon class="cls-13" points="4514.31 4923.01 4515.23 3959.22 3361.59 3951.87 3357.51 4923.01 4514.31 4923.01"/></svg>