<svg xmlns="http://www.w3.org/2000/svg" version="1.1" xmlns:xlink="http://www.w3.org/1999/xlink" xmlns:svgjs="http://svgjs.dev/svgjs" width="1000" height="308" viewBox="0 0 1000 308"><g transform="matrix(1,0,0,1,-0.6060606060606233,-0.22235935154697017)"><svg viewBox="0 0 396 122" data-background-color="#ffffff" preserveAspectRatio="xMidYMid meet" height="308" width="1000" xmlns="http://www.w3.org/2000/svg" xmlns:xlink="http://www.w3.org/1999/xlink"><g id="tight-bounds" transform="matrix(1,0,0,1,0.2400000000000091,0.08807740548289189)"><svg viewBox="0 0 395.52 121.82384518903422" height="121.82384518903422" width="395.52"><g><svg viewBox="0 0 395.52 121.82384518903422" height="121.82384518903422" width="395.52"><g><svg viewBox="0 0 395.52 121.82384518903422" height="121.82384518903422" width="395.52"><g id="textblocktransform"><svg viewBox="0 0 395.52 121.82384518903422" height="121.82384518903422" width="395.52" id="textblock"><g><svg viewBox="0 0 395.52 121.82384518903422" height="121.82384518903422" width="395.52"><g transform="matrix(1,0,0,1,0,0)"><svg width="395.52" viewBox="2.08 -39.84 136.23999999999998 41.96" height="121.82384518903422" data-palette-color="#1c059e"><path d="M8.74 0.88L8.74 0.78Q8.86-1 8.98-2.66 9.11-4.32 9.2-5.88L9.2-5.88 10.08-17.41Q10.23-18.73 10.33-19.81 10.42-20.9 10.49-21.94 10.55-22.97 10.61-24.04 10.67-25.1 10.74-26.39L10.74-26.39Q9.94-26.42 9.05-26.42 8.15-26.42 7.18-26.42L7.18-26.42 2.47-26.42Q2.2-26.42 2.14-26.62 2.08-26.83 2.08-27L2.08-27 2.08-27.17 4.76-34.23 4.74-34.33Q4.74-34.45 4.9-34.53 5.05-34.62 5.62-34.67L5.62-34.67Q8.98-34.86 12.15-35.05 15.31-35.23 18.4-35.38 21.48-35.52 24.57-35.67 27.66-35.82 30.93-35.94L30.93-35.94Q31.23-35.94 31.56-35.86 31.88-35.79 31.88-35.33L31.88-35.33Q31.88-35.28 31.86-35.23 31.84-35.18 31.84-35.13L31.84-35.13Q31.45-34.13 31.12-33.23 30.79-32.32 30.47-31.45 30.15-30.57 29.82-29.66 29.49-28.76 29.1-27.76L29.1-27.76Q29.08-27.73 29-27.53 28.93-27.32 28.78-27.06 28.64-26.81 28.39-26.59 28.15-26.37 27.78-26.34L27.78-26.34Q27.66-26.37 27.54-26.37 27.42-26.37 27.27-26.37L27.27-26.37 20.75-26.37Q20.63-25.12 20.52-23.73 20.41-22.34 20.26-21.02L20.26-21.02 18.48-1.95Q18.46-1.73 18.4-1.51 18.33-1.29 18.07-1.2L18.07-1.2 11.16 1.29Q10.89 1.39 10.45 1.54 10.01 1.68 9.59 1.68L9.59 1.68Q9.25 1.68 9 1.51 8.74 1.34 8.74 0.88L8.74 0.88ZM31.86-10.35L31.86-10.35Q32.18-13.7 32.49-16.97 32.81-20.24 33.05-23.68L33.05-23.68Q33.1-24.49 33.21-24.79 33.32-25.1 33.76-25.2L33.76-25.2Q35.84-25.61 38.11-26.06 40.38-26.51 42.5-27.22L42.5-27.22Q42.58-27.25 42.72-27.25L42.72-27.25Q42.99-27.25 42.99-27.05L42.99-27.05 40.79-3.27Q40.72-2.47 40.62-2.16 40.52-1.86 40.09-1.76L40.09-1.76Q38.01-1.12 35.89-0.34 33.76 0.44 31.39 1.25L31.39 1.25Q31.32 1.27 31.17 1.27L31.17 1.27Q30.91 1.27 30.91 1.03L30.91 1.03Q30.91 1 30.95 0.37 31-0.27 31.09-1.27 31.17-2.27 31.27-3.52 31.37-4.76 31.48-6.01 31.59-7.25 31.69-8.4 31.78-9.55 31.86-10.35ZM33.69-29.83L33.69-29.83Q33.76-30.88 33.8-31.45 33.84-32.01 33.86-32.29 33.88-32.57 33.88-32.64 33.88-32.71 33.9-32.75 33.91-32.79 33.92-32.9 33.93-33.01 33.96-33.36 33.98-33.72 34.03-34.4 34.08-35.08 34.18-36.28L34.18-36.28Q34.23-37.08 34.34-37.39 34.45-37.7 34.89-37.79L34.89-37.79Q36.96-38.21 39.23-38.66 41.5-39.11 43.63-39.82L43.63-39.82Q43.7-39.84 43.85-39.84L43.85-39.84Q43.92-39.7 44.04-39.65L44.04-39.65 44.11-39.6 43.58-32.91Q43.5-32.1 43.39-31.79 43.28-31.47 42.87-31.4L42.87-31.4Q40.79-31.01 38.67-30.54 36.55-30.08 34.18-29.61L34.18-29.61Q34.1-29.59 33.96-29.59L33.96-29.59Q33.69-29.59 33.69-29.83ZM45.67-11.91L45.67-11.91Q45.67-15.11 46.86-17.91 48.04-20.7 50.13-22.78 52.22-24.85 55.06-26.05 57.91-27.25 61.25-27.25L61.25-27.25Q63.52-27.25 65.13-26.88 66.74-26.51 67.77-26.06 68.79-25.61 69.27-25.23 69.75-24.85 69.75-24.83L69.75-24.83Q69.75-24.68 69.64-24.01 69.53-23.34 69.39-22.45 69.26-21.56 69.15-20.62 69.04-19.68 69.04-18.99L69.04-18.99Q69.04-18.87 68.96-18.73 68.89-18.58 68.57-18.58L68.57-18.58Q68.28-18.58 67.72-18.79 67.16-18.99 66.34-19.24 65.52-19.48 64.46-19.69 63.4-19.9 62.1-19.9L62.1-19.9Q60.49-19.9 59.2-19.32 57.91-18.75 56.98-17.74 56.05-16.72 55.55-15.33 55.05-13.94 55.05-12.33L55.05-12.33Q55.05-10.64 55.57-9.46 56.1-8.28 56.98-7.53 57.86-6.79 59-6.45 60.15-6.1 61.42-6.1L61.42-6.1Q62.89-6.1 64.37-6.51 65.86-6.91 67.18-7.64L67.18-7.64Q67.23-7.67 67.38-7.67L67.38-7.67Q67.5-7.67 67.56-7.54 67.62-7.42 67.62-7.08L67.62-7.08Q67.62-6.3 67.62-5.19 67.62-4.08 67.61-3.06 67.6-2.05 67.57-1.34 67.55-0.63 67.52-0.63L67.52-0.63Q66.65-0.05 65.62 0.32 64.59 0.68 63.51 0.9 62.42 1.12 61.32 1.2 60.22 1.27 59.2 1.27L59.2 1.27Q56.34 1.27 53.88 0.32 51.41-0.63 49.59-2.37 47.77-4.1 46.72-6.53 45.67-8.96 45.67-11.91ZM85.03-37.06L85.03-37.06 84.15-28.59Q83.98-26.88 83.79-25.12 83.61-23.36 83.44-21.75 83.27-20.14 83.12-18.77 82.98-17.41 82.88-16.53L82.88-16.53 84.56-18.38 87.3-21.58Q87.81-22.17 88.3-22.75 88.79-23.34 89.18-23.79 89.57-24.24 89.81-24.55 90.06-24.85 90.1-24.9L90.1-24.9 99.92-25.59Q99.99-25.61 100.08-25.61 100.16-25.61 100.24-25.61L100.24-25.61Q100.65-25.61 100.65-25.39L100.65-25.39Q100.65-25.22 100.14-24.63L100.14-24.63 92.5-16.09Q91.98-15.53 91.29-14.78 90.59-14.04 89.74-13.13L89.74-13.13 93.3-8.89 99.46-2.27Q99.53-2.15 99.68-2.09 99.82-2.03 99.96-1.98 100.09-1.93 100.2-1.87 100.31-1.81 100.31-1.68L100.31-1.68Q100.31-1.59 100.27-1.54 100.24-1.49 100.04-1.34L100.04-1.34Q99.82-1.17 99.27-0.85 98.72-0.54 97.99-0.15 97.26 0.24 96.43 0.65 95.6 1.05 94.82 1.38 94.04 1.71 93.38 1.92 92.72 2.12 92.35 2.12L92.35 2.12Q92.06 2.12 91.78 1.98 91.5 1.83 91.15 1.44L91.15 1.44Q90.69 0.9 89.99 0.04 89.3-0.83 88.49-1.87 87.69-2.91 86.85-4.02 86-5.13 85.23-6.14 84.47-7.15 83.84-7.97 83.22-8.79 82.88-9.28L82.88-9.28Q82.76-9.16 82.63-9.09 82.51-9.03 82.4-8.94 82.29-8.84 82.22-8.7 82.15-8.57 82.15-8.33L82.15-8.33Q82.15-8.23 82.1-7.78 82.05-7.32 81.99-6.7 81.93-6.08 81.85-5.37 81.78-4.66 81.72-4.04 81.66-3.42 81.61-2.97 81.56-2.51 81.56-2.42L81.56-2.42Q81.56-2.25 81.57-2.14 81.58-2.03 81.58-1.93L81.58-1.93Q81.58-1.66 81.4-1.53 81.22-1.39 80.51-1.2L80.51-1.2 74.11 0.88Q73.85 0.98 73.41 1.12 72.97 1.27 72.55 1.27L72.55 1.27Q72.21 1.27 71.95 1.1 71.7 0.93 71.7 0.46L71.7 0.46 74.77-34.72Q74.77-34.84 74.75-34.95 74.72-35.06 74.72-35.18L74.72-35.18Q74.72-35.4 74.91-35.58 75.09-35.77 75.75-35.94L75.75-35.94 82.61-37.57Q82.88-37.62 83.32-37.79 83.76-37.96 84.17-37.96L84.17-37.96Q84.49-37.96 84.77-37.82 85.05-37.67 85.05-37.26L85.05-37.26Q85.05-37.21 85.04-37.16 85.03-37.11 85.03-37.06ZM103.21-10.35L103.21-10.35Q103.53-13.7 103.85-16.97 104.16-20.24 104.41-23.68L104.41-23.68Q104.46-24.49 104.57-24.79 104.68-25.1 105.12-25.2L105.12-25.2Q107.19-25.61 109.46-26.06 111.73-26.51 113.86-27.22L113.86-27.22Q113.93-27.25 114.08-27.25L114.08-27.25Q114.35-27.25 114.35-27.05L114.35-27.05 112.15-3.27Q112.07-2.47 111.98-2.16 111.88-1.86 111.44-1.76L111.44-1.76Q109.37-1.12 107.24-0.34 105.12 0.44 102.75 1.25L102.75 1.25Q102.68 1.27 102.53 1.27L102.53 1.27Q102.26 1.27 102.26 1.03L102.26 1.03Q102.26 1 102.31 0.37 102.36-0.27 102.44-1.27 102.53-2.27 102.63-3.52 102.72-4.76 102.83-6.01 102.94-7.25 103.04-8.4 103.14-9.55 103.21-10.35ZM105.04-29.83L105.04-29.83Q105.12-30.88 105.15-31.45 105.19-32.01 105.21-32.29 105.24-32.57 105.24-32.64 105.24-32.71 105.25-32.75 105.26-32.79 105.28-32.9 105.29-33.01 105.31-33.36 105.34-33.72 105.39-34.4 105.43-35.08 105.53-36.28L105.53-36.28Q105.58-37.08 105.69-37.39 105.8-37.7 106.24-37.79L106.24-37.79Q108.32-38.21 110.59-38.66 112.86-39.11 114.98-39.82L114.98-39.82Q115.05-39.84 115.2-39.84L115.2-39.84Q115.27-39.7 115.4-39.65L115.4-39.65 115.47-39.6 114.93-32.91Q114.86-32.1 114.75-31.79 114.64-31.47 114.22-31.4L114.22-31.4Q112.15-31.01 110.02-30.54 107.9-30.08 105.53-29.61L105.53-29.61Q105.46-29.59 105.31-29.59L105.31-29.59Q105.04-29.59 105.04-29.83ZM135.22-18.82L130.68-18.82Q130.33-16.26 130.03-13.71 129.72-11.16 129.65-8.94L129.65-8.94Q129.65-7.98 129.8-7.35 129.94-6.71 130.22-6.35 130.51-5.98 130.9-5.82 131.29-5.66 131.77-5.66L131.77-5.66Q132.56-5.66 133.48-5.9 134.41-6.13 135.34-6.49L135.34-6.49Q135.63-6.62 135.84-6.68 136.05-6.74 136.19-6.74L136.19-6.74Q136.44-6.74 136.52-6.52 136.61-6.3 136.69-5.75 136.78-5.2 136.95-4.27 137.12-3.34 137.51-1.93L137.51-1.93Q137.54-1.81 137.55-1.72 137.56-1.64 137.56-1.56L137.56-1.56Q137.56-1.22 137.3-1.07 137.05-0.93 136.46-0.73L136.46-0.73Q135.46-0.39 134.35-0.04 133.24 0.32 132.15 0.61 131.07 0.9 130.07 1.09 129.06 1.27 128.31 1.27L128.31 1.27Q124.23 1.27 122.36-0.76 120.5-2.78 120.5-6.93L120.5-6.93Q120.5-7.64 120.54-8.39 120.59-9.13 120.67-9.94L120.67-9.94Q120.91-12.38 121.09-14.56 121.28-16.75 121.47-18.75L121.47-18.75 118.91-18.75Q117.59-18.75 117-18.86 116.42-18.97 116.42-19.31L116.42-19.31Q116.42-19.41 116.66-19.84 116.91-20.26 117.28-20.86 117.66-21.46 118.1-22.14 118.54-22.83 118.95-23.43 119.35-24.02 119.64-24.46 119.93-24.9 120.01-25L120.01-25 121.74-25Q121.96-26.86 122.09-28.11 122.23-29.37 122.31-30.2 122.4-31.03 122.47-31.48 122.55-31.93 122.63-32.15 122.72-32.37 122.85-32.43 122.99-32.5 123.21-32.54L123.21-32.54Q124.3-32.76 125.33-32.95 126.35-33.13 127.38-33.33 128.41-33.52 129.47-33.78 130.53-34.03 131.68-34.38L131.68-34.38Q131.75-34.38 131.77-34.39 131.8-34.4 131.87-34.4L131.87-34.4Q132.17-34.4 132.17-34.2L132.17-34.2 132.17-34.16Q132.04-32.81 131.79-30.42 131.53-28.03 131.21-25L131.21-25 137.76-25Q137.95-25 138.13-24.87 138.32-24.73 138.32-24.41L138.32-24.41Q138.32-24.29 138.02-23.54 137.73-22.78 137.19-21.56L137.19-21.56 136.32-19.58Q136.14-19.21 135.96-19.04 135.78-18.87 135.22-18.82L135.22-18.82Z" opacity="1" transform="matrix(1,0,0,1,0,0)" fill="#1c059e" class="wordmark-text-0" data-fill-palette-color="primary" id="text-0"></path></svg></g></svg></g></svg></g></svg></g></svg></g><defs></defs></svg><rect width="395.52" height="121.82384518903422" fill="none" stroke="none" visibility="hidden"></rect></g></svg></g></svg>