<svg id="Illustration" xmlns="http://www.w3.org/2000/svg" viewBox="0 0 5700 3000"><defs><style>.cls-1{fill:#d5f0ff;}.cls-1,.cls-10,.cls-11,.cls-12,.cls-13,.cls-14,.cls-15,.cls-16,.cls-17,.cls-18,.cls-19,.cls-2,.cls-20,.cls-22,.cls-23,.cls-24,.cls-25,.cls-26,.cls-3,.cls-6{fill-rule:evenodd;}.cls-2{fill:#dfe6ff;}.cls-3,.cls-4{fill:#38c551;}.cls-20,.cls-5{fill:#fff;}.cls-6,.cls-7{fill:#61ea75;}.cls-18,.cls-8{fill:#0643a3;}.cls-19,.cls-9{fill:#2c7efe;}.cls-10{fill:#db3a55;}.cls-11{fill:#16888c;}.cls-12{fill:#ea718b;}.cls-13{fill:#ff9866;}.cls-14{fill:#42c5a0;}.cls-15{fill:#feb542;}.cls-16{fill:#ffaa81;}.cls-17{fill:#060352;}.cls-21,.cls-22{fill:#84b2fe;}.cls-23{fill:#6767fd;}.cls-24{fill:#ff4d8a;}.cls-25{fill:#8183f1;}.cls-26{fill:#9999fe;}</style></defs><path class="cls-1" d="M4238,1946c-219.21,362.12-848.93,608.61-1579.74,582.1-895.89-32.65-1604.14-462.78-1582-961.17,10.87-243.05,193.57-457.38,482.09-609.59,219.2-362.13,849.13-608.62,1579.94-581.86C4034,407.86,4742.27,838.24,4720.12,1336.37,4709.25,1579.43,4526.55,1794,4238,1946Z"/><path class="cls-2" d="M2959.76,2749c936.39,0,1700-23.2,1700-51.71s-763.57-51.71-1700-51.71-1700.16,23.2-1700.16,51.71S2023.37,2749,2959.76,2749Z"/><path class="cls-3" d="M1916.51,654.5c143.39,108.16,244.55,299.18,257.29,521.62s-66,423.65-196.07,547.57c-143.4-108.26-244.55-299.18-257.29-521.62s66-423.76,196.07-547.57Z"/><path class="cls-4" d="M1978,1727.76l-2.11-1.59c-149.55-112.91-246.19-308.77-258.51-523.92s61.33-420.87,197-550l1.91-1.81,2.11,1.58c149.55,112.81,246.19,308.67,258.51,523.93s-61.34,420.76-197,550ZM1916.75,658.58c-133.17,128-205.36,330.87-193.2,543.31s107,405.64,253.94,517.72c133.17-128.11,205.36-331,193.2-543.32S2063.66,770.55,1916.75,658.58Z"/><path class="cls-5" d="M1977.91,1726.8a3.13,3.13,0,0,1-3.29-2.93L1913.41,654.68a3.11,3.11,0,1,1,6.21-.36l61.21,1069.19A3.11,3.11,0,0,1,1977.91,1726.8Z"/><path class="cls-5" d="M1927.34,843.6a3,3,0,0,1-1.67-.37,3.12,3.12,0,0,1-1.24-4.22l64.25-117.81a3.11,3.11,0,0,1,5.46,3L1929.89,842A3.07,3.07,0,0,1,1927.34,843.6Z"/><path class="cls-5" d="M1935.1,979.19a3.12,3.12,0,0,1-2.41-.94L1789.28,830.56a3.11,3.11,0,1,1,4.46-4.33l143.42,147.69a3.11,3.11,0,0,1-.07,4.39A3.07,3.07,0,0,1,1935.1,979.19Z"/><path class="cls-5" d="M1943.31,1122.5a3.07,3.07,0,0,1-2.24-.78,3.11,3.11,0,0,1-.27-4.39L2115,921.17a3.11,3.11,0,0,1,4.65,4.13l-174.21,196.16A3.09,3.09,0,0,1,1943.31,1122.5Z"/><path class="cls-5" d="M1956.06,1345.15a3.09,3.09,0,0,1-2.47-1l-234-254.19a3.11,3.11,0,1,1,4.57-4.21l234,254.19a3.11,3.11,0,0,1-2.11,5.21Z"/><path class="cls-5" d="M1965.13,1503.72a3.07,3.07,0,0,1-2.24-.78,3.11,3.11,0,0,1-.26-4.39l209-234.5a3.11,3.11,0,0,1,4.65,4.14l-209,234.5A3.08,3.08,0,0,1,1965.13,1503.72Z"/><path class="cls-5" d="M1971.73,1618.86a3.15,3.15,0,0,1-2.19-.73l-197-166.62a3.11,3.11,0,1,1,4-4.75l197,166.62a3.11,3.11,0,0,1-1.83,5.48Z"/><path class="cls-6" d="M1183.21,1081.61c175.3-39.09,386.33,7.68,564,142.16S2027,1548.6,2037.08,1728c-175.38,39-386.33-7.69-564-142.16s-279.95-324.9-289.9-504.22Z"/><path class="cls-7" d="M2040.34,1730.45l-2.58.57c-182.92,40.71-394.71-12.65-566.53-142.71s-280.74-319.5-291.13-506.53l-.15-2.64,2.58-.57c182.83-40.77,394.62,12.58,566.53,142.72s280.65,319.42,291.13,506.53Zm-853.88-646.38c11.16,184.38,118.86,370.84,288.52,499.28s378.27,181.41,558.84,142.17c-11.24-184.44-118.94-370.9-288.51-499.27S1367,1044.77,1186.46,1084.07Z"/><path class="cls-5" d="M2039.56,1729.87a3.1,3.1,0,0,1-4.35.6l-853.88-646.39a3.11,3.11,0,1,1,3.75-4.95L2039,1725.51A3.11,3.11,0,0,1,2039.56,1729.87Z"/><path class="cls-5" d="M1334.23,1195.93a3.11,3.11,0,0,1-5.38-.76l-48.08-125.29a3.11,3.11,0,0,1,5.81-2.22l48.07,125.28A3.09,3.09,0,0,1,1334.23,1195.93Z"/><path class="cls-5" d="M1442.51,1277.9a3.12,3.12,0,0,1-2.28,1.22l-205.42,13.49a3.11,3.11,0,1,1-.41-6.2l205.42-13.49a3.1,3.1,0,0,1,3.31,2.9A3.15,3.15,0,0,1,1442.51,1277.9Z"/><path class="cls-5" d="M1557,1364.54a3.11,3.11,0,0,1-5.56-1.45l-36.46-259.8a3.11,3.11,0,0,1,6.16-.87l36.46,259.81A3.12,3.12,0,0,1,1557,1364.54Z"/><path class="cls-5" d="M1734.78,1499.14a3.08,3.08,0,0,1-2.36,1.23l-345.24,13.44a3.11,3.11,0,1,1-.25-6.21l345.25-13.44a3.1,3.1,0,0,1,3.22,3A3.07,3.07,0,0,1,1734.78,1499.14Z"/><path class="cls-5" d="M1861.41,1595a3.11,3.11,0,0,1-5.56-1.45l-43.11-311.15a3.11,3.11,0,1,1,6.16-.85L1862,1592.7A3.12,3.12,0,0,1,1861.41,1595Z"/><path class="cls-5" d="M1953.36,1664.61a3,3,0,0,1-2,1.19l-254.57,42a3.11,3.11,0,0,1-1-6.14l254.57-42a3.1,3.1,0,0,1,3.57,2.56A3,3,0,0,1,1953.36,1664.61Z"/><path class="cls-3" d="M4679.29,2291.34c-42.1,88.85-133.3,164.25-251.14,195.71s-234.43,11.57-315.27-44.45c42.15-88.87,133.3-164.24,251.14-195.71s234.48-11.58,315.27,44.45Z"/><path class="cls-4" d="M4110.72,2443.18l.62-1.31c44-92.69,138.26-166.19,252.24-196.63s232.42-13.74,316.68,44.7l1.19.83-.62,1.3c-43.91,92.67-138.2,166.18-252.24,196.63s-232.36,13.73-316.68-44.7Zm566.41-151.26c-83.38-57.21-200.13-73.44-312.67-43.39S4158.85,2350.85,4115,2442c83.43,57.2,200.19,73.43,312.67,43.39S4633.38,2383.08,4677.13,2291.92Z"/><path class="cls-5" d="M4111.23,2443a1.71,1.71,0,0,1,1.21-2.09l566.41-151.25a1.7,1.7,0,0,1,.88,3.29l-566.41,151.25A1.7,1.7,0,0,1,4111.23,2443Z"/><path class="cls-5" d="M4579.11,2318.09a1.64,1.64,0,0,1,0-.93,1.69,1.69,0,0,1,2.12-1.13l70.28,21.39a1.7,1.7,0,0,1-1,3.26l-70.27-21.4A1.68,1.68,0,0,1,4579.11,2318.09Z"/><path class="cls-5" d="M4507.28,2337.28a1.72,1.72,0,0,1,.24-1.4l63.29-93.25a1.71,1.71,0,0,1,2.82,1.92l-63.29,93.24a1.71,1.71,0,0,1-3.06-.51Z"/><path class="cls-5" d="M4431.36,2357.55a1.73,1.73,0,0,1,.17-1.29,1.71,1.71,0,0,1,2.33-.62l124.46,71.66a1.7,1.7,0,0,1-1.7,2.95l-124.46-71.66A1.72,1.72,0,0,1,4431.36,2357.55Z"/><path class="cls-5" d="M4313.41,2389.05a1.68,1.68,0,0,1,.26-1.43L4424,2234a1.71,1.71,0,1,1,2.77,2l-110.35,153.6a1.7,1.7,0,0,1-3-.55Z"/><path class="cls-5" d="M4229.41,2411.48a1.7,1.7,0,0,1,2.5-1.91l148.86,86.07a1.7,1.7,0,0,1-1.7,2.94l-148.87-86.06A1.7,1.7,0,0,1,4229.41,2411.48Z"/><path class="cls-5" d="M4168.41,2427.77a1.71,1.71,0,0,1,.15-1.25l67.5-124.07a1.7,1.7,0,0,1,3,1.62l-67.5,124.07a1.7,1.7,0,0,1-2.31.68A1.73,1.73,0,0,1,4168.41,2427.77Z"/><path class="cls-6" d="M4369.09,1945.53c40.37,89.65,38.67,208-13.74,318.1s-143.14,186-238.2,211.27c-40.35-89.7-38.68-208,13.74-318.1s143.16-186.07,238.2-211.27Z"/><path class="cls-7" d="M4116.19,2476.91l-.59-1.32c-42.09-93.55-37-213,13.75-319.52s140.18-185.9,239.3-212.19l1.4-.37.59,1.32c42.11,93.5,37,213-13.76,319.53s-140.15,185.84-239.29,212.18Zm251.93-529.36c-97.6,26.41-185.64,104.8-235.7,210s-55.35,222.89-14.31,315.35c97.63-26.47,185.67-104.86,235.7-210S4409.19,2040,4368.12,1947.55Z"/><path class="cls-5" d="M4116.42,2476.43a1.71,1.71,0,0,1-.81-2.27l251.94-529.36a1.7,1.7,0,1,1,3.07,1.46l-251.93,529.37A1.7,1.7,0,0,1,4116.42,2476.43Z"/><path class="cls-5" d="M4324.53,2039.16a1.61,1.61,0,0,1-.7-.62,1.7,1.7,0,0,1,.51-2.35l61.84-39.65a1.7,1.7,0,0,1,1.84,2.86l-61.84,39.65A1.71,1.71,0,0,1,4324.53,2039.16Z"/><path class="cls-5" d="M4292.58,2106.29a1.72,1.72,0,0,1-.91-1.09l-30-108.63a1.7,1.7,0,1,1,3.28-.91l30,108.64a1.7,1.7,0,0,1-2.37,2Z"/><path class="cls-5" d="M4258.81,2177.24a1.7,1.7,0,0,1,.16-3.14l135.24-48.33a1.7,1.7,0,1,1,1.15,3.21l-135.25,48.33A1.67,1.67,0,0,1,4258.81,2177.24Z"/><path class="cls-5" d="M4206.35,2287.48a1.69,1.69,0,0,1-.93-1.13L4160,2102.76a1.71,1.71,0,1,1,3.31-.82l45.45,183.59a1.7,1.7,0,0,1-2.38,1.95Z"/><path class="cls-5" d="M4169,2366a1.74,1.74,0,0,1-.87-1,1.69,1.69,0,0,1,1-2.17l162-57.58a1.7,1.7,0,1,1,1.14,3.21l-162,57.57A1.71,1.71,0,0,1,4169,2366Z"/><path class="cls-5" d="M4141.85,2423a1.73,1.73,0,0,1-.86-.92l-50.73-131.82a1.7,1.7,0,1,1,3.18-1.22l50.73,131.81a1.7,1.7,0,0,1-1,2.2A1.64,1.64,0,0,1,4141.85,2423Z"/><path class="cls-8" d="M2195,1581.6V2689.2H1907V2224h-86.2V2689.2h-288V1581.6h288v396.11H1907V1581.6Z"/><path class="cls-8" d="M2892.14,1581.6v221.66h-171V2689.2h-288V1803.26H2262.77V1581.6Z"/><path class="cls-8" d="M3849.27,1581.6V2689.2H3597.52l-.34-747.75L3497,2689.2H3318.41l-105.7-730.65-.34,730.65H2960.62V1581.6h372.66q16.59,99.9,34.19,235.47l40.9,281.73,66.18-517.2Z"/><path class="cls-8" d="M4251.49,1581.6v885.94h175.13V2689.2H3963.48V1581.6Z"/><path class="cls-9" d="M2130.23,1581.6V2689.2h-288V2224H1756V2689.2H1468V1581.6h288v396.11h86.2V1581.6Z"/><path class="cls-9" d="M2827.36,1581.6v221.66h-171V2689.2h-288V1803.26H2198V1581.6Z"/><path class="cls-9" d="M3784.49,1581.6V2689.2H3532.74l-.34-747.75L3432.18,2689.2H3253.63l-105.7-730.65-.34,730.65H2895.84V1581.6H3268.5q16.59,99.9,34.19,235.47l40.9,281.73,66.18-517.2Z"/><path class="cls-9" d="M4186.71,1581.6v885.94h175.13V2689.2H3898.7V1581.6Z"/><path class="cls-10" d="M3314.23,1770.52l-29.09-3.73c-26.35-6.49-55.84-64.49-80.62-25.56q39.83,47.19,79.44,94.57c11.4-8.26,25.36-19.27,34-36.18Z"/><polygon class="cls-11" points="3526.97 1525.94 3639.82 1542.65 3323.87 1809.45 3293.98 1762.46 3526.97 1525.94"/><path class="cls-12" d="M3509.67,1768.16l-21,20.45c-21.43,16.52-85.33,3.34-70.39,47.19,41.29-1.18,82.38-2.36,123.67-3.34.59-14,.59-31.85-7.27-49.16Z"/><polygon class="cls-13" points="3565.51 1315.37 3521.86 1316.55 3519.69 1357.24 3486.86 1477.57 3515.37 1485.24 3558.23 1372.19 3565.51 1315.37"/><path class="cls-14" d="M3632.16,1420.36l-54.27,44.43c-30.28,12-143.92,17.3-190.12,33-31.66,9.64-44.63,14.94-42.47,40.5l133.89,248.13,62.33.59-76.68-206c68.42,3.34,214.5,13.17,247.14-37.36,18.09-29.1,7.87-53.87-1.18-78.05Z"/><path class="cls-15" d="M3577.89,1464.79c43.06,25.76,88.48.39,132.91.79l2.16-161c1.77,13,10.23,28.71,12,41.68,15.33,7.67,50.92,7.28,59.38,2.36l-36-106.76c-1.18-7.47-6.1-20.84-17.9-25.16l-91-34.61-85.13,37.36c-9.44,5.31-24.18,15.33-26,26.74-3.74,30.08-11.41,57.6-14.95,87.49,10.23,5.9,35.39,9,50.53,2.56l2-27.14Z"/><path class="cls-13" d="M3625.47,1160.24l43.26,2.55-3.15,37.36c-20.45,15.14-37.75,14.16-47.58,3.74Z"/><path class="cls-16" d="M3679.34,1071.57l-90,2.94c-7.08,18.88,3.34,92.61,21.43,108.73,22.41,20.25,56.82.2,63.9-22.41,7.66-21,12.78-72,4.71-89.26Z"/><path class="cls-17" d="M3653,1094.57c-21.83-20.25-45.62,11.4-61.94,9.63-13.76-7.08-33.81-32.63-22.21-63.7,5.5-18.48,29.69-.79,44.24-3.74,11-3.93,14.94-18.48,32.83-12l21.82,13.57c7.87-6.69,22.61,11.79,25.17,19.66,12.19,22.81-6.29,52.1-12.58,79.23-12.39.59-22.61-40.7-27.33-42.66Z"/><path class="cls-16" d="M3669.51,1128.19c-17.89-2-18.28-9.24-10.22-21.82,2.36-5.9,8.26-11.41,13.76-5.9,4.33,5.7-.59,20.84-3.54,27.72Z"/><path class="cls-18" d="M3435.74,1477.37h201.14a4.62,4.62,0,0,1,4.71,4.53V1489a4.78,4.78,0,0,1-4.71,4.72H3435.74A4.78,4.78,0,0,1,3431,1489v-7.07a4.62,4.62,0,0,1,4.72-4.53Z"/><path class="cls-19" d="M3318.76,1344.07h185.6c5.11,0,10.42,4.13,11.8,9.44l17.1,65.47c5.7,21.82,11.21,43.65,16.91,65.47,1.38,5.11-1.77,9.24-6.88,9.24H3358.47c-5.11,0-10.42-4.13-11.79-9.24-5.71-21.82-11.6-43.65-17.31-65.47-5.9-21.82-11.6-43.65-17.5-65.47-1.37-5.31,1.77-9.44,6.89-9.44Z"/><path class="cls-20" d="M3431,1400.3c6.88,0,6.88,1,10,2.56-4.72,3.14-6.88,9.24-5.11,16.12s7.08,13,13.56,16.32c-2.36,1.57-1.77,2.36-8.65,2.36s-21-8.26-23.79-18.68c-2.55-10.22,7.08-18.68,14-18.68Z"/><path class="cls-13" d="M3777.45,1350c3.15,10.62,8.46,21.43,6.69,33.62,2.16,9-89.07,74.91-134.68,112.27l-22.41-15.73,112.26-107.75-5.5-23c14.94,3.54,33.42,3.14,43.64.59Z"/><path class="cls-13" d="M3624.88,1478c-8.26,6.69-33.42-3.14-33.23,5.12.79,8.25,19.86,6.29,20.06,9.43,3.54,11.8-27.92,26.15-23.79,35.39,10.22,23.4,48.76,5.51,60-37.16l-12-15.33c-1.77-1.58-1.18-4.72-11,2.55Z"/><path class="cls-21" d="M3385.37,718a28.15,28.15,0,0,1-23.19-12.14c-39.94-57.63-118.16-94.94-204.13-97.35s-166.3,30.54-209.21,85.82a28.19,28.19,0,0,1-44.54-34.58c26.31-33.88,63.65-61.76,108-80.63,44.79-19,95.72-28.38,147.32-27s101.88,13.6,145.56,35.14c43.17,21.29,78.91,51.19,103.35,86.45A28.2,28.2,0,0,1,3385.37,718Z"/><path class="cls-21" d="M3317.19,779A28.16,28.16,0,0,1,3294,766.84c-26.59-38.33-79-63.15-136.84-64.78S3045.65,722.3,3017,759.13a28.2,28.2,0,0,1-44.52-34.61c19.38-24.92,46.77-45.4,79.22-59.22,32.6-13.88,69.62-20.65,107-19.6s74,9.89,105.75,25.55,57.85,37.52,75.84,63.45A28.2,28.2,0,0,1,3317.19,779Z"/><path class="cls-22" d="M3157.24,837.43a49.12,49.12,0,1,0,47.69,50.51,49.25,49.25,0,0,0-47.69-50.51Z"/><path class="cls-21" d="M3250.22,842.52A28.15,28.15,0,0,1,3227,830.36c-13.45-19.43-40.52-32-70.67-32.88s-57.94,10.21-72.43,28.86a28.2,28.2,0,0,1-44.53-34.6c12.56-16.16,30.2-29.38,51-38.24a164.9,164.9,0,0,1,134.18,3.76c20.28,10,37.15,24.19,48.8,41a28.21,28.21,0,0,1-23.16,44.24Z"/><path class="cls-10" d="M3851,294.62,4142.16,299c26.17.36,47.25,22.17,46.89,48.71l-4.37,290.78c-.72,26.53-22.53,47.61-48.7,47.25L3844.83,681a47.78,47.78,0,0,1-46.89-48.34l4.73-291.14c.36-26.17,22.17-47.62,48.34-46.89Z"/><path class="cls-12" d="M3837.56,284.08l291.15,4.36c26.17.36,47.25,22.17,46.89,48.7l-4.36,290.79c-.73,26.53-22.54,47.61-48.71,47.25l-291.15-4.73a47.77,47.77,0,0,1-46.88-48.34L3789.22,331c.36-26.18,22.17-47.62,48.34-46.89Z"/><path class="cls-20" d="M4044.11,501a18.07,18.07,0,0,0,.53-31.33l-47.87-28.58-47.68-28.61a18.07,18.07,0,0,0-27.36,15.2l-.93,55.57-.93,55.82a18.07,18.07,0,0,0,26.89,16.07L3995.31,528Z"/><path class="cls-18" d="M2367.08,585.43l151.8-112.22,87.89-64.64a21,21,0,0,0-16.71-8.35h-446a21.54,21.54,0,0,0-16.71,8.35l87.89,64.64Z"/><path class="cls-19" d="M2367.08,231.71l151.8,112.22,87.89,64.64a21,21,0,0,1-16.71,8.35h-446a21.51,21.51,0,0,1-16.71-8.35l87.89-64.64Z"/><rect class="cls-5" x="2178.24" y="287.64" width="377.69" height="380.23"/><path class="cls-19" d="M2606.77,408.57a20.39,20.39,0,0,1,4.36,12.35V697.65a20.78,20.78,0,0,1-21.07,20.7h-446a20.69,20.69,0,0,1-20.7-20.7V420.92a20.13,20.13,0,0,1,4-12.35l87.89,64.64,151.8,112.22,151.8-112.22Z"/><path class="cls-18" d="M2367.08,533.14,2215.28,645l-87.89,65a20.48,20.48,0,0,0,16.71,8.35h446a20.48,20.48,0,0,0,16.71-8.35l-87.89-65Z"/><path class="cls-9" d="M2434.9,408.71a77.42,77.42,0,0,1-3.86,25.38A56.44,56.44,0,0,1,2420.42,453a45,45,0,0,1-16.1,11.8,50.29,50.29,0,0,1-20.26,4.06q-7.32,0-11.51-3.86a14.9,14.9,0,0,1-4.68-10.21q-9.91,14.07-25.94,14.07a30.18,30.18,0,0,1-12.2-2.44,27.88,27.88,0,0,1-9.68-6.91,31.65,31.65,0,0,1-6.35-10.86,42.23,42.23,0,0,1-2.28-14.28,59.88,59.88,0,0,1,3.87-21.31,67.61,67.61,0,0,1,10.08-18.14,54.16,54.16,0,0,1,14-12.69,29.81,29.81,0,0,1,15.83-4.8q18.14,0,26.51,10.82l2-8.38h15l-13,56.54a70.29,70.29,0,0,0-1.67,8.13,47.26,47.26,0,0,0-.45,6.1q0,5.94,4.56,5.94a27.71,27.71,0,0,0,13.34-3.37,33.37,33.37,0,0,0,10.94-9.68,49.16,49.16,0,0,0,7.36-15.17,69.32,69.32,0,0,0,2.68-20.1,51.13,51.13,0,0,0-4.39-21.23,52,52,0,0,0-12.24-17,56.13,56.13,0,0,0-18.87-11.3,70,70,0,0,0-24.44-4.07,68.37,68.37,0,0,0-51,22,72.76,72.76,0,0,0-14.52,23.8,80.48,80.48,0,0,0-5.17,28.83q0,15.3,4.92,27.13A53.74,53.74,0,0,0,2311,476.47a62.33,62.33,0,0,0,22.81,12.45,101.85,101.85,0,0,0,30.55,4.23q21.39,0,35.46-6.51L2406,497q-18.37,8.05-41.56,8-19.85,0-35.63-5.24a75.35,75.35,0,0,1-26.76-15,65.18,65.18,0,0,1-16.84-23.84,81.42,81.42,0,0,1-5.85-31.6q0-37,23.58-61.9,23.84-24.48,59.79-24.49a84.35,84.35,0,0,1,29.85,5,67.06,67.06,0,0,1,22.74,13.83,60.65,60.65,0,0,1,14.48,20.86A66.61,66.61,0,0,1,2434.9,408.71Zm-56.13-8.21q-6.9-10.5-22.45-10.5a18.33,18.33,0,0,0-11.06,3.91,38.85,38.85,0,0,0-9.35,10.12,56,56,0,0,0-6.51,14.08,52.65,52.65,0,0,0-2.44,15.74q0,22.69,18,22.69a20.45,20.45,0,0,0,8.74-2,29.06,29.06,0,0,0,7.93-5.53,37,37,0,0,0,6.47-8.54,41.44,41.44,0,0,0,4.19-11.19Z"/><path class="cls-17" d="M2493.65,1045.09c-20.39-10.64-30.35-12.23-39,.68-5.43,8.38-7.25,23.56-17.89,28.54-9.74,4.53-5.66,42.81-5.66,50.74,0,13.59,17.66,35.78,2.49,55.26-8.38,10.65,3.17,44.62-8.38,58.21-2,2.27-3.63,16.31,13.59,17.9,28.08,2.49,40.54,6.57,66.36-4.31,9.74-4.07,91.28,10.42,94.9-.22,6.35-19.71-17.44-39.19-8.15-61.61,0-.45-2.94-27.41-2.94-31.71,0-16.76-7.25-21.74.22-45.53,7.48-24.23-3.62-55.72-34.2-58.89-6.11-.45-20.61-21.06-41.9-14.72Z"/><path class="cls-23" d="M2461.49,1461h102.37a31.85,31.85,0,0,1,31.71,31.93h0a32,32,0,0,1-31.71,31.94H2461.49a32,32,0,0,1-31.94-31.94h0a31.9,31.9,0,0,1,31.94-31.93Z"/><path class="cls-24" d="M2514.26,1217.91h-3.17c-14,0-28.54,0-43,1.36h0c-15.41,1.36-30.58,4.3-44.63,10-35.56,24-81.08,131.82-73.83,173,8.6,24.69,72,22.2,118.46,28.09v5.89h79.72v-4.53c46.89-7.7,118.69-3,128-29.45,7-41.22-38.51-149-73.84-173-27.41-11.1-58.89-11.33-87.66-11.33Z"/><path class="cls-25" d="M2367.26,1608.62l-10.64-29.44c-4.08-3.62-16.08-5.89-21.75-6.34-19.25,1.36-54.36,1.13-55.26,14.27-1.14,18.34,44.84,26.72,59.57,25.59Z"/><path class="cls-13" d="M2393.76,1601.15l-10.87-31.94-25.82,10.42c-3.85,12,1.36,22.65,10.19,29Z"/><path class="cls-25" d="M2389.91,1607.94c-9.06-11.55-16.76-25.36-17.21-41,64.32-22.43,325.48-165.57,367.38-119.82,51.42,70.44-260.25,129.1-350.17,160.81Z"/><path class="cls-23" d="M2658.09,1608.62l10.42-29.44c4.3-3.62,16.31-5.89,21.74-6.34,19.25,1.36,54.36,1.13,55.49,14.27.91,18.34-45.07,26.72-59.57,25.59Z"/><path class="cls-13" d="M2631.36,1601.15l11.1-31.94,25.59,10.42c4.08,12-1.35,22.65-10,29Z"/><path class="cls-26" d="M2635.44,1607.94c9.06-11.55,16.53-25.36,17-41-64.33-22.43-325.26-165.57-367.16-119.82-51.42,70.44,260,129.1,350.17,160.81Z"/><path class="cls-22" d="M2408,1327.09h209.29a12,12,0,0,1,11.78,11.77v140.21a11.84,11.84,0,0,1-11.78,11.77H2408a11.69,11.69,0,0,1-11.78-11.77V1338.86a11.84,11.84,0,0,1,11.78-11.77Z"/><path class="cls-20" d="M2512.68,1388.47h.67a23,23,0,0,0-.45,3.85,16.63,16.63,0,0,0,16.54,16.53,17.3,17.3,0,0,0,3.62-.45v.68a20.5,20.5,0,0,1-41,0,20.69,20.69,0,0,1,20.62-20.61Z"/><path class="cls-13" d="M2486.4,1172.16q.34,27.18.68,54.36c14.5,20.84,42.58,17,54.81,0l-2-57.53Z"/><path class="cls-16" d="M2514.26,1090.17l-56.62-.68c9.51,59.34.22,118.46,55.94,122.76v.23h1.36v-.23c55.49-4.3,46.43-63.42,55.72-122.76Z"/><path class="cls-17" d="M2447,1088.81c7.7,2.26-5.89,14.49,15.18,18.8,2.49.45,3.85,1.13,20.15,1.58,11.1.23,2.27-6.34,22.43-.68,15.85,4.53,17.89-12,32.61,8.84,2.27,3.39,26.28,10.87,30.13,11.09,7.7.23,16.31,11.33,16.31-10.87,0-8.38,2.71-27.4-.91-30.8-11.55-11.1-32.62-5.89-47.34-11.1-14.27-5-16.08-11.78-39.86-11.32-15.18.22-19.48,18.57-42.81,20.83-1.81,0-6.57,3.4-5.89,3.63Z"/></svg>