<svg xmlns="http://www.w3.org/2000/svg" xmlns:xlink="http://www.w3.org/1999/xlink" viewBox="0 0 5700 3000"><defs><style>.cls-1{isolation:isolate;}.cls-2{fill:#f4f7fa;}.cls-3{fill:url(#linear-gradient);}.cls-4{fill:url(#linear-gradient-2);}.cls-25,.cls-26,.cls-47,.cls-5,.cls-65{fill:#fff;}.cls-5{opacity:0.74;}.cls-6{fill:url(#linear-gradient-3);}.cls-7{fill:url(#linear-gradient-4);}.cls-8{fill:url(#linear-gradient-5);}.cls-9{fill:url(#linear-gradient-6);}.cls-10,.cls-11,.cls-13,.cls-14{opacity:0.25;}.cls-10{fill:url(#linear-gradient-7);}.cls-11{fill:url(#linear-gradient-8);}.cls-12{fill:url(#linear-gradient-9);}.cls-13{fill:url(#linear-gradient-10);}.cls-14{fill:url(#linear-gradient-11);}.cls-15{fill:url(#linear-gradient-12);}.cls-16{fill:url(#linear-gradient-13);}.cls-17{fill:url(#linear-gradient-14);}.cls-18{fill:url(#linear-gradient-15);}.cls-19{fill:url(#linear-gradient-16);}.cls-20{fill:url(#linear-gradient-17);}.cls-21{fill:url(#linear-gradient-18);}.cls-22{fill:url(#linear-gradient-19);}.cls-23{fill:#d8dee8;}.cls-23,.cls-66{opacity:0.3;mix-blend-mode:multiply;}.cls-24{fill:url(#linear-gradient-20);}.cls-25{opacity:0.6;}.cls-25,.cls-26,.cls-47{mix-blend-mode:soft-light;}.cls-26{opacity:0.36;}.cls-27{fill:url(#linear-gradient-21);}.cls-28,.cls-29,.cls-30,.cls-32,.cls-33,.cls-34,.cls-35,.cls-37,.cls-38,.cls-39,.cls-40,.cls-41,.cls-43,.cls-44,.cls-45{opacity:0.5;}.cls-28{fill:url(#linear-gradient-22);}.cls-29{fill:url(#linear-gradient-23);}.cls-30{fill:url(#linear-gradient-24);}.cls-31{fill:url(#linear-gradient-25);}.cls-32{fill:url(#linear-gradient-26);}.cls-33{fill:url(#linear-gradient-27);}.cls-34{fill:url(#linear-gradient-28);}.cls-35{fill:url(#linear-gradient-29);}.cls-36{fill:url(#linear-gradient-30);}.cls-37{fill:url(#linear-gradient-31);}.cls-38{fill:url(#linear-gradient-32);}.cls-39{fill:url(#linear-gradient-33);}.cls-40{fill:url(#linear-gradient-34);}.cls-41{fill:url(#linear-gradient-35);}.cls-42{fill:url(#linear-gradient-36);}.cls-43{fill:url(#linear-gradient-37);}.cls-44{fill:url(#linear-gradient-38);}.cls-45{fill:url(#linear-gradient-39);}.cls-46{fill:url(#linear-gradient-40);}.cls-48{fill:url(#linear-gradient-41);}.cls-49{fill:url(#linear-gradient-42);}.cls-50{fill:url(#linear-gradient-43);}.cls-51{fill:url(#linear-gradient-44);}.cls-52{fill:url(#linear-gradient-45);}.cls-53{fill:url(#linear-gradient-46);}.cls-54{fill:url(#linear-gradient-47);}.cls-55{fill:url(#linear-gradient-48);}.cls-56{fill:url(#linear-gradient-49);}.cls-57{fill:url(#linear-gradient-50);}.cls-58{fill:url(#linear-gradient-51);}.cls-59{fill:url(#linear-gradient-52);}.cls-60{fill:url(#linear-gradient-53);}.cls-61{fill:#323099;}.cls-62{fill:url(#linear-gradient-54);}.cls-63{fill:url(#linear-gradient-55);}.cls-64{fill:url(#linear-gradient-56);}.cls-67{fill:url(#linear-gradient-57);}</style><linearGradient id="linear-gradient" x1="2424.81" y1="1939.87" x2="918.65" y2="1027.38" gradientUnits="userSpaceOnUse"><stop offset="0" stop-color="#fff688"/><stop offset="1" stop-color="#7572f7"/></linearGradient><linearGradient id="linear-gradient-2" x1="2556.98" y1="360.16" x2="2333.46" y2="1659.38" xlink:href="#linear-gradient"/><linearGradient id="linear-gradient-3" x1="1874.93" y1="77.27" x2="2164.58" y2="1549.23" gradientUnits="userSpaceOnUse"><stop offset="0" stop-color="#ffc444"/><stop offset="1" stop-color="#f36f56"/></linearGradient><linearGradient id="linear-gradient-4" x1="2791.01" y1="-54.85" x2="3074.21" y2="1384.36" xlink:href="#linear-gradient-3"/><linearGradient id="linear-gradient-5" x1="2043.04" y1="57.63" x2="2325.85" y2="1494.86" xlink:href="#linear-gradient-3"/><linearGradient id="linear-gradient-6" x1="1788.9" y1="80.09" x2="2081.6" y2="1567.59" xlink:href="#linear-gradient-3"/><linearGradient id="linear-gradient-7" x1="2848.23" y1="-56.68" x2="3127.78" y2="1363.96" xlink:href="#linear-gradient-3"/><linearGradient id="linear-gradient-8" x1="2685.4" y1="-21.06" x2="2963.37" y2="1391.59" xlink:href="#linear-gradient-3"/><linearGradient id="linear-gradient-9" x1="2882.11" y1="-60.35" x2="3162.13" y2="1362.67" xlink:href="#linear-gradient-3"/><linearGradient id="linear-gradient-10" x1="2089.64" y1="41.75" x2="2378.25" y2="1508.47" xlink:href="#linear-gradient-3"/><linearGradient id="linear-gradient-11" x1="2408.09" y1="25.67" x2="2687.36" y2="1444.91" xlink:href="#linear-gradient-3"/><linearGradient id="linear-gradient-12" x1="2312.94" y1="16.31" x2="2591.83" y2="1433.62" xlink:href="#linear-gradient-3"/><linearGradient id="linear-gradient-13" x1="1856.52" y1="73.72" x2="2148.91" y2="1559.66" xlink:href="#linear-gradient-3"/><linearGradient id="linear-gradient-14" x1="2593.48" y1="-37.89" x2="2888.57" y2="1461.78" xlink:href="#linear-gradient-3"/><linearGradient id="linear-gradient-15" x1="1684.16" y1="825.54" x2="1576.55" y2="1450.98" xlink:href="#linear-gradient-3"/><linearGradient id="linear-gradient-16" x1="2832.98" y1="2481.19" x2="3606.26" y2="2481.19" gradientUnits="userSpaceOnUse"><stop offset="0" stop-color="#444b8c"/><stop offset="1" stop-color="#26264f"/></linearGradient><linearGradient id="linear-gradient-17" x1="3219.5" y1="3246.08" x2="3225.9" y2="2702.16" gradientUnits="userSpaceOnUse"><stop offset="0" stop-color="#8f8fe2"/><stop offset="1" stop-color="#9571f6"/></linearGradient><linearGradient id="linear-gradient-18" x1="1893.07" y1="1606.05" x2="4273.67" y2="1606.05" xlink:href="#linear-gradient-16"/><linearGradient id="linear-gradient-19" x1="1913.1" y1="1606.05" x2="4293.7" y2="1606.05" xlink:href="#linear-gradient-17"/><linearGradient id="linear-gradient-20" x1="2548.03" y1="556.1" x2="3601.5" y2="2488.3" xlink:href="#linear-gradient-16"/><linearGradient id="linear-gradient-21" x1="3109.81" y1="732.64" x2="3298.92" y2="1885.28" xlink:href="#linear-gradient-17"/><linearGradient id="linear-gradient-22" x1="3011.44" y1="1068.52" x2="3454.86" y2="1068.52" xlink:href="#linear-gradient"/><linearGradient id="linear-gradient-23" x1="3011.44" y1="1112.18" x2="3454.86" y2="1112.18" xlink:href="#linear-gradient"/><linearGradient id="linear-gradient-24" x1="2933.54" y1="1241.25" x2="3248.6" y2="1241.25" xlink:href="#linear-gradient"/><linearGradient id="linear-gradient-25" x1="3113.84" y1="733.34" x2="3286.87" y2="1787.99" xlink:href="#linear-gradient-17"/><linearGradient id="linear-gradient-26" x1="2830.52" y1="973.59" x2="3145.36" y2="973.59" xlink:href="#linear-gradient"/><linearGradient id="linear-gradient-27" x1="3011.44" y1="1942.19" x2="3454.86" y2="1942.19" xlink:href="#linear-gradient"/><linearGradient id="linear-gradient-28" x1="3011.44" y1="1985.85" x2="3454.86" y2="1985.85" xlink:href="#linear-gradient"/><linearGradient id="linear-gradient-29" x1="3214" y1="2022" x2="3645.94" y2="2022" xlink:href="#linear-gradient"/><linearGradient id="linear-gradient-30" x1="3248.3" y1="957.76" x2="3383.45" y2="1781.55" xlink:href="#linear-gradient-17"/><linearGradient id="linear-gradient-31" x1="2830.52" y1="1861.3" x2="3145.36" y2="1861.3" xlink:href="#linear-gradient"/><linearGradient id="linear-gradient-32" x1="2933.54" y1="1417.62" x2="3381.42" y2="1417.62" xlink:href="#linear-gradient"/><linearGradient id="linear-gradient-33" x1="3011.44" y1="1505.58" x2="3454.86" y2="1505.58" xlink:href="#linear-gradient"/><linearGradient id="linear-gradient-34" x1="3011.44" y1="1549.24" x2="3454.86" y2="1549.24" xlink:href="#linear-gradient"/><linearGradient id="linear-gradient-35" x1="2831.3" y1="1595.2" x2="3115.46" y2="1595.2" xlink:href="#linear-gradient"/><linearGradient id="linear-gradient-36" x1="3067.91" y1="803.14" x2="3224.98" y2="1760.51" xlink:href="#linear-gradient-17"/><linearGradient id="linear-gradient-37" x1="3011.44" y1="1724.24" x2="3412.27" y2="1724.24" xlink:href="#linear-gradient"/><linearGradient id="linear-gradient-38" x1="3105.12" y1="1766.07" x2="3501.13" y2="1766.07" xlink:href="#linear-gradient"/><linearGradient id="linear-gradient-39" x1="3105.12" y1="1809.53" x2="3501.13" y2="1809.53" xlink:href="#linear-gradient"/><linearGradient id="linear-gradient-40" x1="2887.65" y1="761.93" x2="3061.71" y2="1822.87" xlink:href="#linear-gradient-17"/><linearGradient id="linear-gradient-41" x1="2869.86" y1="1367.99" x2="3034.23" y2="1574.79" gradientTransform="translate(365.49)" xlink:href="#linear-gradient-3"/><linearGradient id="linear-gradient-42" x1="3590.05" y1="1690.54" x2="3701.97" y2="1242.86" gradientTransform="translate(365.49)" xlink:href="#linear-gradient-3"/><linearGradient id="linear-gradient-43" x1="3369.45" y1="2884.82" x2="3422.54" y2="2932.05" gradientTransform="translate(322.1 342.76) rotate(-8.05)" xlink:href="#linear-gradient-16"/><linearGradient id="linear-gradient-44" x1="2495.32" y1="2932.12" x2="2495.32" y2="2839.63" gradientTransform="translate(1238.3 213.24) rotate(-8.05)" xlink:href="#linear-gradient-3"/><linearGradient id="linear-gradient-45" x1="3374.78" y1="2878.83" x2="3427.87" y2="2926.05" gradientTransform="translate(322.1 342.76) rotate(-8.05)" xlink:href="#linear-gradient-16"/><linearGradient id="linear-gradient-46" x1="3321.14" y1="2756.95" x2="3374.23" y2="2804.17" gradientTransform="translate(365.49)" xlink:href="#linear-gradient-16"/><linearGradient id="linear-gradient-47" x1="2446.97" y1="2804.26" x2="2446.97" y2="2711.77" gradientTransform="translate(1290.8)" xlink:href="#linear-gradient-3"/><linearGradient id="linear-gradient-48" x1="623.6" y1="2315.03" x2="-67.86" y2="2144.41" gradientTransform="matrix(-1, 0, 0, 1, 4133.21, 0)" xlink:href="#linear-gradient"/><linearGradient id="linear-gradient-49" x1="3835.25" y1="1765.41" x2="3092.11" y2="1248.59" gradientTransform="translate(365.49)" xlink:href="#linear-gradient-3"/><linearGradient id="linear-gradient-50" x1="3326.47" y1="2750.95" x2="3379.57" y2="2798.17" gradientTransform="translate(365.49)" xlink:href="#linear-gradient-16"/><linearGradient id="linear-gradient-51" x1="256.98" y1="1246.73" x2="367.39" y2="1031.08" gradientTransform="matrix(-1, 0, 0, 1, 4133.21, 0)" xlink:href="#linear-gradient-3"/><linearGradient id="linear-gradient-52" x1="3845.69" y1="1029.33" x2="3858.68" y2="1480.11" gradientUnits="userSpaceOnUse"><stop offset="0" stop-color="#4533aa"/><stop offset="1" stop-color="#2d3177"/></linearGradient><linearGradient id="linear-gradient-53" x1="3385.48" y1="1062.78" x2="3672.99" y2="1424.51" gradientTransform="translate(365.49)" xlink:href="#linear-gradient-3"/><linearGradient id="linear-gradient-54" x1="3799.96" y1="1030.64" x2="3812.95" y2="1481.43" xlink:href="#linear-gradient-52"/><linearGradient id="linear-gradient-55" x1="3827.47" y1="1853.08" x2="2990.86" y2="1271.24" gradientTransform="translate(365.49)" xlink:href="#linear-gradient-3"/><linearGradient id="linear-gradient-56" x1="2845.68" y1="562.3" x2="4293.7" y2="562.3" gradientUnits="userSpaceOnUse"><stop offset="0" stop-color="#aa80f9"/><stop offset="1" stop-color="#6165d7"/></linearGradient><linearGradient id="linear-gradient-57" x1="3635.45" y1="175.38" x2="3423.61" y2="1406.69" xlink:href="#linear-gradient-56"/></defs><g class="cls-1"><g id="Illustration"><path class="cls-2" d="M2148.08,194.89C2052.32,332,2164.6,554.21,2022.51,657.31,1884.2,757.66,1714.3,593.17,1584,679.55c-193.37,128.15-158,714.53,124.65,1078.86,85,109.56,156.06,152.2,187.52,276.11,67.56,266.08-169.87,424.35-124.69,555.95,101.74,296.31,1666.41,544.94,2294.22-345.56,293.21-415.9,337.09-1016.46,75.11-1472.6C3667.37-51.91,2362.94-112.69,2148.08,194.89Z"/><path class="cls-3" d="M2359.05,1597.66l-45.52-.38a353.28,353.28,0,0,0-16.07-59.88l39.48-22.37a22.34,22.34,0,0,0,8.25-30.65l-38.93-67.79a22.79,22.79,0,0,0-30.84-8.64l-40,22.52a365.06,365.06,0,0,0-43.88-44.13l23.2-39.7a22.74,22.74,0,0,0-8.3-31l-67.91-40.07a22.64,22.64,0,0,0-31.09,7.79l-23.35,39.82a362.93,362.93,0,0,0-60.25-16.75v-46.64a23.24,23.24,0,0,0-22.88-23.06l-79.21-1.34a22.41,22.41,0,0,0-23,22.36v46.78a358.72,358.72,0,0,0-60.78,15l-23.66-40.79a23.51,23.51,0,0,0-31.56-8.85l-69.29,38.34a22.42,22.42,0,0,0-8.49,31.07l23.74,40.81a356.25,356.25,0,0,0-45,43.52l-41.14-23.87a23.36,23.36,0,0,0-31.82,8l-40.3,68a22.82,22.82,0,0,0,8.55,31.39l40.84,23.56a350.59,350.59,0,0,0-16.6,60.58l-47.17-.4a23,23,0,0,0-23.39,22.74v79.22a23.33,23.33,0,0,0,23.39,23.06l46.79.26a353.93,353.93,0,0,0,16.37,61.15L1579.07,1800a22.63,22.63,0,0,0-8.55,31.27l40.3,68.59a23.54,23.54,0,0,0,31.82,8.41l39.93-22.61a365.06,365.06,0,0,0,45.35,44.82L1705,1969.6a22.63,22.63,0,0,0,8.49,31.2l69.29,39.29a23.31,23.31,0,0,0,31.56-8.41l22.65-38.75a364,364,0,0,0,61.79,16.18v44.73a22.78,22.78,0,0,0,23,22.67l79.21-.23a22.87,22.87,0,0,0,22.88-22.75v-44.6a359.34,359.34,0,0,0,61.24-16.25l22.36,38.44a22.81,22.81,0,0,0,31.09,8.21l67.91-39.12a22.55,22.55,0,0,0,8.3-30.85l-22.42-38.66a357.6,357.6,0,0,0,44.28-44.2l38.82,22.39a22.6,22.6,0,0,0,30.84-8.21l38.93-67.26a22.52,22.52,0,0,0-8.25-30.76l-38.89-22.57a348.93,348.93,0,0,0,15.84-60l45.16.25a22.35,22.35,0,0,0,22.49-22.36v-77.65A22.72,22.72,0,0,0,2359.05,1597.66ZM1961.39,1428c127.52,1.57,230.34,104.94,230.34,230.89s-102.82,227.89-230.34,227.7c-128.29-.19-232.86-103.57-232.86-230.9S1833.1,1426.39,1961.39,1428Z"/><path class="cls-4" d="M2858.22,701,2817,699.87a310.5,310.5,0,0,0-14.55-53.09l35.74-19a19.17,19.17,0,0,0,7.46-26.86l-35.23-60.5a21.26,21.26,0,0,0-27.95-8.23l-36.27,19.1a336.7,336.7,0,0,0-39.84-39.82l21.07-34.59c5.68-9.32,2.31-21.62-7.53-27.49l-61.72-36.81c-9.9-5.9-22.57-3.12-28.29,6.23l-21.27,34.71a344.22,344.22,0,0,0-54.92-16.06V396.18c0-11.08-9.34-20.43-20.87-20.9l-72.37-2.89c-11.62-.47-21,8.18-21,19.31v41.46a333.12,333.12,0,0,0-55.66,12l-21.69-36.69a22.31,22.31,0,0,0-29-8.52l-63.65,32.57a19.31,19.31,0,0,0-7.81,27.44l21.83,36.74a313.35,313.35,0,0,0-41.34,37.77l-37.87-22c-10.27-6-23.4-3.09-29.33,6.45l-37.18,59.75c-6,9.57-2.42,22.16,7.89,28.1l37.67,21.72A298.24,298.24,0,0,0,2168,682.09l-43.52-1.19c-11.93-.33-21.6,8.55-21.6,19.83v70.54c0,11.28,9.67,20.65,21.6,20.92l43.17,1a310.28,310.28,0,0,0,15.1,54.66l-37.11,19.53a19.57,19.57,0,0,0-7.89,27.7L2175,956.71a22.35,22.35,0,0,0,29.33,7.93l36.76-19.53a337.32,337.32,0,0,0,41.71,40.46L2261.67,1020c-5.9,9.63-2.4,22.09,7.81,27.83l63.65,35.78c10.15,5.71,23.12,2.54,29-7.06l20.77-34.09a344.76,344.76,0,0,0,56.58,15.15v39.65c0,11.13,9.42,20.25,21,20.37l72.37.75c11.53.12,20.87-8.76,20.87-19.84v-39.47a332.08,332.08,0,0,0,55.82-13.59l20.37,34.27a21.27,21.27,0,0,0,28.29,7.66l61.72-33.7a19.43,19.43,0,0,0,7.53-27.12l-20.36-34.44a313.5,313.5,0,0,0,40.2-38.4l35.2,20.31c9.79,5.64,22.3,2.59,27.95-6.82l35.23-58.72c5.63-9.38,2.29-21.57-7.46-27.24L2803,860.8a298.8,298.8,0,0,0,14.35-52.66l40.86.94c11.24.26,20.34-8.39,20.34-19.33v-68.4C2878.56,710.42,2869.46,701.3,2858.22,701Zm-361.5-157.23c116.33,3.87,209.84,97.14,209.84,208.35s-93.51,199.78-209.84,197.79c-117.41-2-213.4-95.33-213.4-208.44S2379.31,539.86,2496.72,543.76Z"/><path class="cls-5" d="M2496.72,130.6c-359.19-17.86-658,250-658,598.74s298.81,631.67,658,631.92c349.2.24,625.24-268.2,625.24-599.57S2845.92,148,2496.72,130.6Zm0,1083.52c-272.37-1.79-497.54-217-497.54-480.73s225.17-467.6,497.54-455.65C2763.31,289.43,2975.3,504.34,2975.3,758S2763.31,1215.87,2496.72,1214.12Z"/><path class="cls-6" d="M2060.36,962.11l-138.22,73c53.84,92.23,130.87,170.32,223.14,227L2224,1133.37C2156.23,1089.91,2099.76,1031.11,2060.36,962.11Z"/><path class="cls-7" d="M2890.32,492l128.46-67.7C2966.1,345.12,2895.44,277.41,2812.21,227l-75.06,122.86A500.92,500.92,0,0,1,2890.32,492Z"/><path class="cls-8" d="M2090.38,463.26A466.65,466.65,0,0,1,2251.6,329.74l-78.5-132.46c-88.17,44-164,107.69-221.08,185.57Z"/><path class="cls-9" d="M1999.18,733.39c0-5.64.25-11.22.45-16.81L1839,712.43q-.24,8.43-.24,16.91c0,100.28,25,195.52,69.33,280.28l138.8-73.15A458.21,458.21,0,0,1,1999.18,733.39Z"/><path class="cls-10" d="M2975.3,758A443.34,443.34,0,0,1,2931,951.77l128,74.38A582.67,582.67,0,0,0,3122,761.69q0-8.07-.22-16.09l-146.86-3.8C2975.07,747.19,2975.3,752.56,2975.3,758Z"/><path class="cls-11" d="M2918.43,976.11c-36.91,65.65-90.2,121.43-154.8,162.48l75,126.67c86.7-53.9,158.14-127.89,207.56-215.09Z"/><path class="cls-12" d="M2905.85,515.45c36.72,59.58,60.4,127.16,67.29,198.95l147.23,4c-7.06-97.54-37.72-189.54-86.6-270.49Z"/><path class="cls-13" d="M2482.19,1213.67a510.6,510.6,0,0,1-232.94-65.21l-78.49,128.48a671.39,671.39,0,0,0,311.43,84.13Z"/><path class="cls-14" d="M2739.41,1152.91c-67,37.18-144.65,59.15-228.16,60.95v147.23c111.2-2.29,214.49-31.81,303.19-81.57Z"/><path class="cls-15" d="M2277.69,317.5c62.24-26.89,131.55-41.19,204.5-40.05V130.05C2381.09,127.18,2285,147,2199.26,185Z"/><path class="cls-16" d="M2001.51,688.19a442.49,442.49,0,0,1,72.3-201.82l-138.14-80.09a581.38,581.38,0,0,0-95.19,277.57Z"/><path class="cls-17" d="M2511.25,278.73a511,511,0,0,1,200.75,57l75.3-123.08a672.08,672.08,0,0,0-276.05-81.12Z"/><path class="cls-18" d="M1828.78,983.39l-20.09.17a144.42,144.42,0,0,0-7.09-25.38l17.42-9.81a9.42,9.42,0,0,0,3.64-13.11l-17.18-28.57a10.14,10.14,0,0,0-13.6-3.44l-17.64,9.89a154.21,154.21,0,0,0-19.35-18.44l10.23-17.07a9.38,9.38,0,0,0-3.66-13.1L1731.54,848a10.26,10.26,0,0,0-13.68,3.56l-10.28,17.11a162.17,162.17,0,0,0-26.51-6.64V842.24a9.83,9.83,0,0,0-10.06-9.61l-34.8.07a9.92,9.92,0,0,0-10.09,9.68v19.86a164.11,164.11,0,0,0-26.68,6.86L1589.07,852a10.39,10.39,0,0,0-13.85-3.5l-30.36,16.81a9.46,9.46,0,0,0-3.72,13.25l10.4,17.12a158.51,158.51,0,0,0-19.69,18.8l-18-9.8a10.51,10.51,0,0,0-13.93,3.62l-17.62,29.13a9.41,9.41,0,0,0,3.73,13.24l17.87,9.69a146.11,146.11,0,0,0-7.26,25.8l-20.63.17a10.08,10.08,0,0,0-10.23,9.8v33.56a9.86,9.86,0,0,0,10.23,9.61l20.46-.21a144.66,144.66,0,0,0,7.16,25.81l-17.6,9.86a9.52,9.52,0,0,0-3.73,13.31l17.62,28.81a10.4,10.4,0,0,0,13.93,3.36l17.48-9.84a153.92,153.92,0,0,0,19.87,18.73l-10,16.73a9.34,9.34,0,0,0,3.72,13.17l30.36,16.26a10.52,10.52,0,0,0,13.85-3.76l9.93-16.59a161.75,161.75,0,0,0,27.12,6.49v19a9.69,9.69,0,0,0,10.09,9.49l34.8-.57a10,10,0,0,0,10.06-9.8v-19a163.71,163.71,0,0,0,26.94-7.29l9.85,16.21a10.15,10.15,0,0,0,13.68,3.3l29.92-17a9.48,9.48,0,0,0,3.66-13.17l-9.88-16.31a158.66,158.66,0,0,0,19.52-19.09l17.12,9.28a10.25,10.25,0,0,0,13.6-3.69l17.18-28.88a9.32,9.32,0,0,0-3.64-13.05l-17.16-9.35a145.58,145.58,0,0,0,7-25.65l19.93-.2a9.89,9.89,0,0,0,9.94-9.68V992.89A9.67,9.67,0,0,0,1828.78,983.39Zm-175.15-69.22c56.07-.3,101.35,42.88,101.35,96.46s-45.28,97.6-101.35,98.34c-56.33.74-102.18-42.44-102.18-96.45S1597.3,914.47,1653.63,914.17Z"/><path class="cls-19" d="M3455.17,2586.69a105.4,105.4,0,0,1-69.9-79.37l-52-257.15L2888.86,2266l-54.69,267.89c-7.66,37.51,23,75.15,58.32,89l186,72.76a241.76,241.76,0,0,0,108.71,15.76l393-33.62a24.37,24.37,0,0,0,22-21.6c1.34-11.58,9.39-24.59-1.57-28.23Z"/><path class="cls-20" d="M3459.57,2571.05a104.48,104.48,0,0,1-69.83-78.37l-51.9-253.92-433.62,15.6-54.64,264.53a77.39,77.39,0,0,0,47.87,87.84l185.76,71.84a244.13,244.13,0,0,0,108.61,15.56l392.57-33.2a24.22,24.22,0,0,0,5.51-47.15Z"/><path class="cls-21" d="M1980.69,2421.09c-48.19,2.87-87.62-28.4-87.62-69.72V862.07c0-41.32,39.43-73.23,87.62-71.14l2238.61,155c35.38,1.54,54.37-27,54.37,8.12V2220.66c0,35.14-28.65,65.44-64,67.55Z"/><path class="cls-22" d="M2000.73,2421.09c-48.2,2.87-87.63-28.4-87.63-69.72V862.07c0-41.32,39.43-73.23,87.63-71.14l2228.93,96.58c35.39,1.53,64,31.36,64,66.51V2220.66c0,35.14-28.65,65.44-64,67.55Z"/><path class="cls-23" d="M4229.66,917.32l-2228.93-91.7c-25.77-1.06-46.72,16-46.72,38V2349.12c0,22.07,21,38.75,46.72,37.27l2228.93-128c19-1.09,34.31-17.26,34.31-36.11V952.87A36,36,0,0,0,4229.66,917.32Z"/><path class="cls-24" d="M4213.1,2151.22l-2188.22,108c-23,1.13-41.63-14-41.63-33.92V883.16c0-19.87,18.67-35.28,41.63-34.42L4213.1,930a32.45,32.45,0,0,1,31.07,32.15V2118.69A32.94,32.94,0,0,1,4213.1,2151.22Z"/><polygon class="cls-25" points="2570.76 990.48 2071.03 975.78 2071.03 928.13 2570.76 944.3 2570.76 990.48"/><polygon class="cls-26" points="2806.11 984.22 2690.66 980.73 2690.66 948.17 2806.11 951.91 2806.11 984.22"/><polygon class="cls-26" points="2806.11 1029.12 2690.66 1025.95 2690.66 993.4 2806.11 996.8 2806.11 1029.12"/><polygon class="cls-27" points="3381.42 1044.86 2933.54 1032.6 2933.54 1000.56 3381.42 1013.75 3381.42 1044.86"/><polygon class="cls-28" points="3454.86 1089.89 3011.44 1079.04 3011.44 1047.15 3454.86 1058.93 3454.86 1089.89"/><polygon class="cls-29" points="3454.86 1132.91 3011.44 1123.34 3011.44 1091.45 3454.86 1101.95 3454.86 1132.91"/><polygon class="cls-25" points="3454.86 1175.93 3011.44 1167.64 3011.44 1135.75 3454.86 1144.97 3454.86 1175.93"/><polygon class="cls-26" points="2806.11 1074.01 2690.66 1071.18 2690.66 1038.63 2806.11 1041.7 2806.11 1074.01"/><polygon class="cls-26" points="2806.11 1118.9 2690.66 1116.41 2690.66 1083.86 2806.11 1086.59 2806.11 1118.9"/><polygon class="cls-26" points="2806.11 1163.8 2690.66 1161.64 2690.66 1129.09 2806.11 1131.49 2806.11 1163.8"/><polygon class="cls-26" points="2806.11 1208.69 2690.66 1206.87 2690.66 1174.32 2806.11 1176.38 2806.11 1208.69"/><polygon class="cls-25" points="3115.46 1213.58 2831.3 1209.09 2831.3 1176.83 3115.46 1181.91 3115.46 1213.58"/><polygon class="cls-26" points="2806.11 1253.59 2690.66 1252.1 2690.66 1219.55 2806.11 1221.28 2806.11 1253.59"/><polygon class="cls-26" points="2806.11 1298.48 2690.66 1297.33 2690.66 1264.77 2806.11 1266.17 2806.11 1298.48"/><polygon class="cls-26" points="2806.11 1343.38 2690.66 1342.56 2690.66 1310 2806.11 1311.07 2806.11 1343.38"/><polygon class="cls-30" points="3248.59 1259.3 2933.54 1255.23 2933.54 1223.19 3248.59 1227.91 3248.59 1259.3"/><polygon class="cls-25" points="3412.27 1304.56 3011.44 1300.54 3011.44 1268.66 3412.27 1273.51 3412.27 1304.56"/><polygon class="cls-31" points="3412.27 1347.7 3011.44 1344.84 3011.44 1312.96 3412.27 1316.65 3412.27 1347.7"/><polygon class="cls-26" points="2806.11 1388.27 2690.66 1387.78 2690.66 1355.23 2806.11 1355.96 2806.11 1388.27"/><polygon class="cls-26" points="2806.11 1433.17 2690.66 1433.01 2690.66 1400.46 2806.11 1400.86 2806.11 1433.17"/><polygon class="cls-26" points="2806.11 1478.06 2690.66 1478.24 2690.66 1445.69 2806.11 1445.75 2806.11 1478.06"/><polygon class="cls-26" points="2806.11 1522.96 2690.66 1523.47 2690.66 1490.92 2806.11 1490.64 2806.11 1522.96"/><polygon class="cls-26" points="2806.11 1567.85 2690.66 1568.7 2690.66 1536.14 2806.11 1535.54 2806.11 1567.85"/><polygon class="cls-26" points="2806.11 1612.75 2690.66 1613.93 2690.66 1581.37 2806.11 1580.43 2806.11 1612.75"/><polygon class="cls-26" points="2806.11 1657.64 2690.66 1659.15 2690.66 1626.6 2806.11 1625.33 2806.11 1657.64"/><polygon class="cls-26" points="2806.11 1702.54 2690.66 1704.38 2690.66 1671.83 2806.11 1670.22 2806.11 1702.54"/><polygon class="cls-26" points="2806.11 1747.43 2690.66 1749.61 2690.66 1717.06 2806.11 1715.12 2806.11 1747.43"/><polygon class="cls-26" points="2806.11 1792.33 2690.66 1794.84 2690.66 1762.29 2806.11 1760.01 2806.11 1792.33"/><polygon class="cls-26" points="2806.11 1837.22 2690.66 1840.07 2690.66 1807.52 2806.11 1804.91 2806.11 1837.22"/><polygon class="cls-26" points="2806.11 1882.12 2690.66 1885.3 2690.66 1852.74 2806.11 1849.8 2806.11 1882.12"/><polygon class="cls-26" points="2806.11 1927.01 2690.66 1930.53 2690.66 1897.97 2806.11 1894.7 2806.11 1927.01"/><polygon class="cls-26" points="2806.11 1971.9 2690.66 1975.75 2690.66 1943.2 2806.11 1939.59 2806.11 1971.9"/><polygon class="cls-26" points="2806.11 2016.8 2690.66 2020.98 2690.66 1988.43 2806.11 1984.49 2806.11 2016.8"/><polygon class="cls-26" points="2806.11 2061.7 2690.66 2066.21 2690.66 2033.66 2806.11 2029.38 2806.11 2061.7"/><polygon class="cls-26" points="2806.11 2106.59 2690.66 2111.44 2690.66 2078.89 2806.11 2074.28 2806.11 2106.59"/><polygon class="cls-26" points="2806.11 2151.48 2690.66 2156.67 2690.66 2124.12 2806.11 2119.17 2806.11 2151.48"/><polygon class="cls-32" points="3145.36 994.49 2830.52 984.96 2830.52 952.7 3145.36 962.88 3145.36 994.49"/><polygon class="cls-25" points="3381.42 1909.49 2933.54 1923.13 2933.54 1891.08 3381.42 1878.38 3381.42 1909.49"/><polygon class="cls-33" points="3454.86 1950.27 3011.44 1965.06 3011.44 1933.17 3454.86 1919.31 3454.86 1950.27"/><polygon class="cls-34" points="3454.86 1993.29 3011.44 2009.36 3011.44 1977.47 3454.86 1962.33 3454.86 1993.29"/><polygon class="cls-35" points="3645.94 2028.84 3214 2045.74 3214 2014.27 3645.94 1998.27 3645.94 2028.84"/><polygon class="cls-36" points="3645.94 2071.3 3214 2089.45 3214 2057.99 3645.94 2040.74 3645.94 2071.3"/><polygon class="cls-25" points="3645.94 2113.77 3214 2133.17 3214 2101.7 3645.94 2083.2 3645.94 2113.77"/><polygon class="cls-37" points="3145.36 1872.77 2830.52 1881.44 2830.52 1849.18 3145.36 1841.16 3145.36 1872.77"/><polygon class="cls-38" points="3381.42 1433.94 2933.54 1433.34 2933.54 1401.29 3381.42 1402.83 3381.42 1433.94"/><polygon class="cls-25" points="3454.86 1477.06 3011.44 1477.75 3011.44 1445.86 3454.86 1446.1 3454.86 1477.06"/><polygon class="cls-39" points="3454.86 1520.08 3011.44 1522.05 3011.44 1490.16 3454.86 1489.12 3454.86 1520.08"/><polygon class="cls-40" points="3454.86 1563.1 3011.44 1566.35 3011.44 1534.46 3454.86 1532.14 3454.86 1563.1"/><polygon class="cls-41" points="3115.46 1609.59 2831.3 1612.49 2831.3 1580.23 3115.46 1577.92 3115.46 1609.59"/><polygon class="cls-25" points="3248.59 1651.84 2933.54 1655.97 2933.54 1623.92 3248.59 1620.45 3248.59 1651.84"/><polygon class="cls-42" points="3412.27 1692.84 3011.44 1699.25 3011.44 1667.37 3412.27 1661.79 3412.27 1692.84"/><polygon class="cls-43" points="3412.27 1735.98 3011.44 1743.55 3011.44 1711.67 3412.27 1704.93 3412.27 1735.98"/><polygon class="cls-44" points="3501.13 1777.19 3105.12 1785.81 3105.12 1754.12 3501.13 1746.32 3501.13 1777.19"/><polygon class="cls-45" points="3501.13 1820.08 3105.12 1829.84 3105.12 1798.15 3501.13 1789.21 3501.13 1820.08"/><polygon class="cls-46" points="3145.36 1389.71 2830.52 1388.38 2830.52 1356.12 3145.36 1358.11 3145.36 1389.71"/><polygon class="cls-47" points="2570.76 1062.64 2284.72 1055.54 2284.72 1008.51 2570.76 1016.46 2570.76 1062.64"/><polygon class="cls-25" points="2210.74 1053.7 2264.61 1055.04 2264.61 1007.96 2210.74 1006.46 2210.74 1053.7"/><polygon class="cls-25" points="2570.76 1129.03 2284.72 1123.13 2284.72 1076.11 2570.76 1082.85 2570.76 1129.03"/><polygon class="cls-25" points="2210.74 1121.6 2264.61 1122.71 2264.61 1075.63 2210.74 1074.37 2210.74 1121.6"/><polygon class="cls-25" points="2570.76 1195.42 2284.72 1190.72 2284.72 1143.7 2570.76 1149.23 2570.76 1195.42"/><polygon class="cls-25" points="2210.74 1189.51 2264.61 1190.39 2264.61 1143.31 2210.74 1142.27 2210.74 1189.51"/><polygon class="cls-47" points="2570.76 1666.65 2071.03 1673.39 2071.03 1625.74 2570.76 1620.47 2570.76 1666.65"/><polygon class="cls-25" points="2570.76 1738.81 2284.72 1743.98 2284.72 1696.96 2570.76 1692.63 2570.76 1738.81"/><polygon class="cls-25" points="2210.74 1745.32 2264.61 1744.34 2264.61 1697.26 2210.74 1698.08 2210.74 1745.32"/><polygon class="cls-25" points="2570.76 1805.2 2284.72 1811.57 2284.72 1764.55 2570.76 1759.02 2570.76 1805.2"/><polygon class="cls-25" points="2210.74 1813.22 2264.61 1812.02 2264.61 1764.94 2210.74 1765.98 2210.74 1813.22"/><polygon class="cls-25" points="2570.76 1871.59 2284.72 1879.16 2284.72 1832.14 2570.76 1825.41 2570.76 1871.59"/><polygon class="cls-25" points="2210.74 1881.12 2264.61 1879.7 2264.61 1832.62 2210.74 1833.89 2210.74 1881.12"/><polygon class="cls-47" points="2570.76 1262.25 2071.03 1256.17 2071.03 1208.52 2570.76 1216.07 2570.76 1262.25"/><polygon class="cls-25" points="2570.76 1334.41 2284.72 1332.24 2284.72 1285.22 2570.76 1288.23 2570.76 1334.41"/><polygon class="cls-25" points="2210.74 1331.68 2264.61 1332.09 2264.61 1285.01 2210.74 1284.44 2210.74 1331.68"/><polygon class="cls-25" points="2570.76 1400.8 2284.72 1399.83 2284.72 1352.81 2570.76 1354.62 2570.76 1400.8"/><polygon class="cls-25" points="2210.74 1399.58 2264.61 1399.77 2264.61 1352.69 2210.74 1352.35 2210.74 1399.58"/><polygon class="cls-25" points="2570.76 1534.44 2284.72 1535.9 2284.72 1488.88 2570.76 1488.26 2570.76 1534.44"/><polygon class="cls-25" points="2210.74 1536.27 2264.61 1536 2264.61 1488.92 2210.74 1489.04 2210.74 1536.27"/><polygon class="cls-25" points="2570.76 1600.83 2284.72 1603.49 2284.72 1556.47 2570.76 1554.64 2570.76 1600.83"/><polygon class="cls-25" points="2210.74 1604.18 2264.61 1603.68 2264.61 1556.6 2210.74 1556.94 2210.74 1604.18"/><polygon class="cls-25" points="2570.76 1467.19 2284.72 1467.43 2284.72 1420.41 2570.76 1421.01 2570.76 1467.19"/><polygon class="cls-25" points="2210.74 1467.49 2264.61 1467.44 2264.61 1420.36 2210.74 1420.25 2210.74 1467.49"/><polygon class="cls-47" points="2570.76 1937.95 2071.03 1953.29 2071.03 1905.64 2570.76 1891.77 2570.76 1937.95"/><polygon class="cls-25" points="2570.76 2010.12 2284.72 2020.2 2284.72 1973.18 2570.76 1963.93 2570.76 2010.12"/><polygon class="cls-25" points="2210.74 2022.81 2264.61 2020.91 2264.61 1973.83 2210.74 1975.58 2210.74 2022.81"/><polygon class="cls-25" points="2570.76 2076.5 2284.72 2087.8 2284.72 2040.78 2570.76 2030.32 2570.76 2076.5"/><polygon class="cls-25" points="2210.74 2090.72 2264.61 2088.59 2264.61 2041.51 2210.74 2043.48 2210.74 2090.72"/><polygon class="cls-25" points="2570.76 2142.89 2284.72 2155.39 2284.72 2108.37 2570.76 2096.71 2570.76 2142.89"/><polygon class="cls-25" points="2210.74 2158.62 2264.61 2156.27 2264.61 2109.19 2210.74 2111.38 2210.74 2158.62"/><polygon class="cls-25" points="2631.49 2140.47 2620.49 2140.95 2620.49 945.9 2631.49 946.26 2631.49 2140.47"/><path class="cls-25" d="M3997,2196c-485.21,10.15-594.32,79.43-732.19-3.58-189.45-114.07-103.17-317-287.76-423.41-232.05-133.81-499.61,111.25-620.72-8.22-120.61-119,107.23-399-24.66-711.16C2278.7,924.38,2188.58,843,2126.32,796.37l-125.59-5.44c-48.2-2.09-87.63,29.82-87.63,71.14v1489.3c0,41.32,39.43,72.59,87.63,69.72l2228.93-132.88c35.39-2.11,64-32.41,64-67.56v-22.51C4226.9,2195.77,4123.42,2193.38,3997,2196Z"/><path class="cls-48" d="M3358.83,1476.84l-31.28-34.12a115.68,115.68,0,0,0-27.81-24c-25.16-15.43-59.78-23-65-14.19-5.88,10,27,39.61,38.21,49.38l46.39,33.69Z"/><path class="cls-49" d="M4026.86,1244.92c8.49,3.21,138,54.72,164.65,189.91,2.15,10.93,23,127.08-55.81,209.13-88.33,92-258.41,89.74-325.92,12.81-15.75-17.93-24.05-37.81-28.71-54.52h0l17.79-47.26c21.71-26.2,51.26-32.41,67-36.3,38.91-9.59,68.29,7.74,90.57-11,12.33-10.38,14.78-25.32,17-38.67,7.45-45.46-18.21-73.44-20.07-101.48-1.4-21-8.74-66.87,18.62-96.82C3989.31,1251.74,4013.3,1246.58,4026.86,1244.92Z"/><path class="cls-50" d="M4077.33,2751.61c1.51-8.32,28.39-15.86,41.7-4.71,6.61,5.54,11.16,16.76,7.33,21.82-1.39,1.85,4.31,5.09-1.15,5.15C4107.1,2774.09,4075.83,2759.88,4077.33,2751.61Z"/><path class="cls-51" d="M4105.5,2754.64l27.64-3.91c-12.8-15.42-10.43-64.52-10.43-64.52l-29.4,6.56s3.35,13.48,9,33.36C4104.31,2732.94,4105.18,2743.59,4105.5,2754.64Z"/><path class="cls-52" d="M4103.05,2751.23s33.28-7.66,36.88-1.06,6.39,24.27-14.72,23.7S4101.18,2756.83,4103.05,2751.23Z"/><path class="cls-53" d="M3698.05,2782.82c2.66-8,30.33-11.73,41.94,1.17,5.77,6.41,8.71,18.16,4.21,22.64-1.63,1.63,3.55,5.64-1.86,4.94C3724.38,2809.24,3695.4,2790.8,3698.05,2782.82Z"/><path class="cls-54" d="M3725.52,2789.76h27.91c-10.52-17.06-1.3-65.34-1.3-65.34l-30,2.38s1.43,13.81,4.29,34.29C3727.37,2768.11,3726.75,2778.77,3725.52,2789.76Z"/><path class="cls-55" d="M3653.17,1734.05a1292.39,1292.39,0,0,0-43.29,198.11C3576,2178.83,3648,2186.69,3634.58,2460c-4.29,87.25,75.59,288.44,82.63,292.88a86.66,86.66,0,0,0,11.05.43,110,110,0,0,0,28.14-4.69c12.65-2.18,58.27-125.75,47.7-199.23-7.49-52-5.32-107.8-1-219.42.71-18.09,47-351.86,47-351.86h0c14.07,123.54,30.26,228.52,44.29,309.91,45.09,261.48,191.69,419.75,199.33,422.29,1.52.61,15.27,5.6,26.52-1.81A18.35,18.35,0,0,0,4127,2701c3.92-3.07-1.16-261.06-45.87-455.22-64.91-281.83-36.65-347.77-57.21-473.65C4006.08,1663.18,3653.17,1734.05,3653.17,1734.05Z"/><path class="cls-56" d="M3915.32,1222.92c-43.09-1.27-142.13-16.48-196.69,32.61-1,.85,10.23,6.82,4.73,13.27a357,357,0,0,0-38.52,55.26c-11.51,20.52-21.89,44.43-32.37,80.08a687.56,687.56,0,0,0-25.55,139.7c-10,131.14-.09,191.65,8.88,232.79,39,20,139.35,55.82,259,38a404.17,404.17,0,0,0,129.1-42.53c-31-94-6.69-144.26,4.8-190.61,16.39-66.09,16.65-61.1,30.14-113.6,22.25-86.63,25.9-175.15,10.61-193.26C4028.19,1225.82,3953.9,1224.06,3915.32,1222.92Z"/><path class="cls-57" d="M3723.57,2786.05s34-2.94,36.66,4.1,2.94,24.94-17.89,21.42S3720.93,2791.33,3723.57,2786.05Z"/><path class="cls-58" d="M3794.05,1173.52c-13.35-22.57-7.4-48.35-6.06-53.92,5.61-23.32,7.7-26.86,12-31.79l6.12-6.48.78-.56c4.26-2.92,20.15-7.68,23.58-7.85,11-.55,33.27,38.75,46,99.31,1,2.16,2.06,4.35,3.08,6.55,6.33,13.74,11.77,27.26,16.43,40.43,74.07,6.27,84.35,15,84.68,20,.69,10.57-41.51,22.77-73.25,27.42-69.21,10.13-140.36-8.12-140-21,.15-5.62,13.9-12.94,72.58-20.62q-2.05-14.57-4.12-29.13C3831.13,1194.76,3803.88,1190.14,3794.05,1173.52Z"/><path class="cls-59" d="M3780.13,1070.1c5,18.48,19,35.92,24.26,37.91a31.78,31.78,0,0,1,8.66,5.54,10.07,10.07,0,0,1,1.64,1.9c7.16,10.58-7.72,29.24-2.75,33.51,3.6,3.1,14.85-5.33,17.22-2.46,2.23,2.71-6.54,11.87-3.95,15.13,1.95,2.46,7.71-1.8,12.92,1.38,2.59,1.58,2.44,3.42,6.32,9.34a61,61,0,0,0,6.87,8.8c9.29,9.16,28.46,8.3,30.79,3,.64-1.47-.46-2.27-.55-6.6a33.53,33.53,0,0,1,1.37-9.07c2.09-7.22,9.94-14.08,17.32-23.09,13.65-16.67,15.48-28.27,15.92-32.14.16-1.38.22-2.4.25-3.14.76-14.81-4.56-34.85-14-45.53-15.78-17.9-36.33-1.93-60.75-17.32-28.17-17.76-23.74-53.48-36.56-53.87C3791,993,3770.89,1035.91,3780.13,1070.1Z"/><path class="cls-60" d="M3817.43,1142.84c2.87-7.44,12.4-3.71,14.6,4.34s-3.38,18.51-11.39,18.94S3813.56,1152.85,3817.43,1142.84Z"/><path class="cls-61" d="M4010.15,1712.42a1,1,0,0,1-1-.89c-5.14-46.29,4.42-79.82,12.85-109.39,2.06-7.22,4-14.05,5.7-20.86,9.31-37.57,13.39-52.07,17.7-67.42,2.8-10,5.7-20.28,10.19-37.5a1,1,0,1,1,1.94.51c-4.49,17.24-7.39,27.55-10.2,37.53-4.31,15.34-8.38,29.83-17.68,67.36-1.7,6.85-3.65,13.69-5.71,20.93-8.39,29.4-17.89,62.72-12.79,108.62a1,1,0,0,1-.89,1.11Z"/><path class="cls-62" d="M3817.51,1128.37l-6.87,16.49s-6.87,19.79-15.94,12.37c-7.41-6.06-8.77-5.52-9-5.12,0,.08,0,.18-.06.18s-.2-4-.27-7.43a63.72,63.72,0,0,0-3.85,21.72c0,9.13,0,18.9,7.15,26.39.41.43,8.2,8.35,18.69,8,0,0,4.13-.15,19.79-7.42,0,0-21.44-8.25-22.54-11.27-3-8.22,7.48-15.89,11.55-35.46A71.88,71.88,0,0,0,3817.51,1128.37Z"/><path class="cls-63" d="M3341.52,1452.46c-15.58,10.9-23.94,25.71-28.27,35.16,11.45,26.89,37.44,76.82,91.22,113.62,88.18,60.34,217.48,62.37,307.53-6.44,107.6-82.2,125.58-239.84,80.39-307.34-5.21-7.77-22.31-33.32-48.86-36.26-16.77-1.85-39.6,5.07-75.66,47.29-75.14,88-48.6,142.91-93,168.64C3508.31,1505.73,3409.39,1405,3341.52,1452.46Z"/><path class="cls-61" d="M3644.41,1631.79a1,1,0,0,1-.21-2c1.05-.23,105.44-24.27,152.45-154a1,1,0,1,1,1.89.68c-24.77,68.32-65.27,106.88-94.88,127.2-32.11,22-58.77,28-59,28A.86.86,0,0,1,3644.41,1631.79Z"/><path class="cls-64" d="M4199,356.28,2950.05,290.94c-57.54-3-104.37,40.47-104.37,97.13V684.14c0,56.66,46.83,104.22,104.37,106.22L4199,833.76c52.4,1.82,94.72-40.31,94.72-94.09v-281C4293.7,404.84,4251.38,359,4199,356.28Z"/><path class="cls-25" d="M2950.05,762c-41.49-1.48-75.34-35.92-75.34-76.75V389.48c0-40.83,33.85-72.32,75.34-70.19L4199,383.39c37.82,1.94,68.51,35.12,68.51,74V738.66c0,38.84-30.69,69.34-68.51,68Z"/><path class="cls-65" d="M3236.19,670.72l-51.89-2V561.49l-101.75-4.39V664.68l-52.47-2.07V411.14l52.47,2.53V515.38l101.75,4.55V418.58l51.89,2.5Z"/><path class="cls-65" d="M3463.81,473.39l-76-3.56V676.69l-51.34-2V467.43l-75.64-3.53V422.27l202.95,9.79Z"/><path class="cls-65" d="M3559.13,436.66l63,181.61,62.34-175.57,65.72,3.17V691L3700,689V621.86l5-115.62-65.77,180.34-34.6-1.36-66.09-186.46,5.07,116.57v67.49l-50.77-2V433.46Z"/><path class="cls-65" d="M3843.37,654.19l104.9,4.28v40.28l-154.58-6.09V448l49.68,2.39Z"/><path class="cls-65" d="M3978.42,580.41l13.74-122.87,132.78,6.4v40l-94.08-4.4L4025,551.45a71.13,71.13,0,0,1,35.67-7.56q33.81,1.53,52.94,23.82t19.11,60.78q0,23.4-9.63,41.52a65.05,65.05,0,0,1-27.64,27.63q-18,9.52-42.59,8.55a92.89,92.89,0,0,1-39.94-10.48,75.77,75.77,0,0,1-29.18-26.28,71.78,71.78,0,0,1-11.37-37.36l46.75,2q1.47,15.22,10.36,24t23.22,9.36q15.95.65,24.56-10.73t8.61-32.82q0-20.61-9.91-32t-28.15-12.22q-16.77-.74-27.22,7.81l-4.57,4.13Z"/><g class="cls-66"><path class="cls-67" d="M3628.2,729.19c-189.49-54.81-198.73-234-412.51-349-107.92-58-221.94-75.29-325.55-73.76a96,96,0,0,0-44.46,81.62V684.14c0,56.66,46.83,104.22,104.37,106.22L4199,833.76c39.78,1.38,73.72-22.57,87.78-57.68-61.27-60.91-121.77-92-178.17-105.74C3919.11,624.28,3823.33,785.62,3628.2,729.19Z"/></g></g></g></svg>