<svg xmlns="http://www.w3.org/2000/svg" xmlns:xlink="http://www.w3.org/1999/xlink" viewBox="0 0 5700 3000"><defs><style>.cls-1{fill:none;}.cls-2{fill:#ebebeb;}.cls-3{fill:#e0e0e0;}.cls-4{fill:#f5f5f5;}.cls-5{fill:#fafafa;}.cls-6{fill:#263238;}.cls-7{fill:#516ae5;}.cls-8{clip-path:url(#clip-path);}.cls-9{opacity:0.8;}.cls-10{opacity:0.7;}.cls-11{opacity:0.5;}.cls-12{opacity:0.3;}.cls-13{opacity:0.1;}.cls-14{fill:#455a64;}.cls-15{opacity:0.6;}.cls-16{fill:#fff;}.cls-17{fill:#ffbe9d;}</style><clipPath id="clip-path"><path class="cls-1" d="M3153.89,1296.26A447.82,447.82,0,0,1,3031.3,987.91c0-248.26,201.26-449.52,449.52-449.52s449.52,201.26,449.52,449.52A448.13,448.13,0,0,1,3798.45,1306l226.18,220.86C4163.17,1389.24,4249,1198.62,4249,987.91c0-419.55-340.12-759.67-759.67-759.67s-759.67,340.12-759.67,759.67c0,207.17,83,394.87,217.49,531.92Z"/></clipPath></defs><g id="Background_Complete" data-name="Background Complete"><path class="cls-2" d="M4901.11,1986.65s-41.56-18-71,79S4792.55,2217,4792.55,2217s-8.66,20.76-23.63,10.87-38.65-41.33-59.29-31.23c-21.41,10.46-24.36,37-13.47,73.2s31.84,116.49,33.71,123.75-.41,18.52-11.69,13.41-80.54-59.19-104.24-24.78,23.24,130.35,28.16,140.94,3.6,15.72-1.18,19.41-26.36-16.68-46.69-31.25-46.46-27.91-58.47-6.92-3.38,97.73,90.76,208.09l47,48.28,65.85-15.53c138.89-41.83,187.68-101.68,188.95-125.83s-27.91-27.09-52.9-25.84-54.14,6.7-56.17,1-.37-10.73,9.51-17,101.27-61.51,100-103.26-88.81-33.78-101.05-35.59-8-12.59-2.57-17.6,66.56-61.24,95.33-85.8,40.64-48.45,28.3-68.84c-11.89-19.67-48.81-6.06-66.76-5.84s-14-21.93-14-21.93,22.66-50,50.38-147.55-18.11-104.87-18.11-104.87"/><path class="cls-3" d="M4874.55,2073.47s-.12.71-.46,2.08-.92,3.45-1.6,6l-6.36,23.12c-5.55,20.07-13.79,49-24.11,84.81-20.62,71.54-49.94,170.12-82.69,278.89S4697,2675.7,4676,2747.11c-10.46,35.65-18.93,64.52-24.81,84.6l-6.78,23c-.77,2.55-1.38,4.53-1.81,6s-.7,2-.7,2,.12-.72.47-2.08.91-3.45,1.6-6c1.48-5.39,3.61-13.16,6.35-23.12,5.55-20.06,13.79-49,24.11-84.8,20.62-71.54,49.95-170.13,82.71-278.94s62.32-207.26,83.34-278.68l24.81-84.6c2.92-9.9,5.19-17.63,6.77-23l1.82-6C4874.28,2074.14,4874.55,2073.47,4874.55,2073.47Z"/><path class="cls-3" d="M4741,2242c.14-.07,1,1.42,2.51,4.18s3.53,6.8,6,11.83c4.91,10.06,11.32,24.13,18.11,39.79l17.19,40.17,5.26,12.14c1.25,2.87,1.87,4.49,1.73,4.56s-1-1.41-2.54-4.17-3.53-6.8-5.94-11.86c-4.81-10.11-11-24.26-17.82-39.92-6.71-15.37-12.77-29.27-17.47-40l-5.32-12.13C4741.46,2243.65,4740.84,2242,4741,2242Z"/><path class="cls-3" d="M4798.08,2354.71c-.28-.57,28.14-15.09,63.47-32.43s64.21-30.93,64.49-30.35-28.13,15.09-63.47,32.43S4798.36,2355.28,4798.08,2354.71Z"/><path class="cls-3" d="M4740.25,2519.5c0-.16,1.71-.56,4.85-1.14l13.31-2.36c11.23-2,26.73-4.8,43.73-8.52s32.29-7.52,43.33-10.39l13.09-3.37c3.1-.77,4.84-1.13,4.88-1s-1.6.8-4.62,1.84-7.43,2.46-12.91,4.09c-10.95,3.27-26.22,7.38-43.28,11.07s-32.65,6.29-44,7.87c-5.66.78-10.25,1.34-13.44,1.64S4740.27,2519.66,4740.25,2519.5Z"/><path class="cls-3" d="M4666.15,2428.87c.13-.1,1.29,1.05,3.29,3.22s4.85,5.36,8.32,9.34c6.94,8,16.41,19,26.75,31.36s19.62,23.58,26.25,31.8c3.31,4.11,6,7.46,7.75,9.8s2.72,3.7,2.6,3.8-1.29-1.05-3.29-3.22-4.84-5.36-8.31-9.33c-6.94-7.95-16.41-19-26.76-31.37s-19.62-23.58-26.24-31.79c-3.31-4.11-6-7.46-7.75-9.81S4666,2429,4666.15,2428.87Z"/><path class="cls-3" d="M4596.62,2567.86c.12-.1,1.59,1.39,4.15,4.17l10.69,11.93c8.95,10.14,21.2,24.25,34.61,39.93s25.46,30,34.09,40.37l10.14,12.41c2.35,3,3.59,4.65,3.47,4.75s-1.59-1.39-4.16-4.17l-10.68-11.93c-9-10.14-21.2-24.25-34.61-39.93s-25.46-30-34.1-40.37l-10.13-12.41C4597.74,2569.65,4596.49,2568,4596.62,2567.86Z"/><path class="cls-3" d="M4692.21,2678.05c0-.16,2.15-.71,6.11-1.59l16.77-3.58c14.15-3,33.69-7.29,55.13-12.58s40.75-10.53,54.69-14.42l16.52-4.59c3.91-1.07,6.1-1.59,6.14-1.43s-2,.95-5.87,2.28-9.4,3.16-16.33,5.3c-13.84,4.3-33.1,9.82-54.6,15.1s-41.11,9.31-55.36,11.94c-7.13,1.29-12.92,2.28-16.93,2.87S4692.24,2678.21,4692.21,2678.05Z"/><rect class="cls-4" x="2135.85" y="2240.88" width="829.41" height="382.51"/><path class="cls-3" d="M2945.52,2605.36H2154.83V2261h790.69ZM2160,2600.2h780.37v-334H2160Z"/><rect class="cls-3" x="2965.26" y="2240.88" width="202.62" height="382.51"/><path class="cls-3" d="M2157.41,2367.57h785.53a1,1,0,0,0,0-2.08H2157.41a1,1,0,0,0,0,2.08Z"/><path class="cls-3" d="M2552.74,2366.53c2.35-34,2.1-69.91.27-103.9a1.06,1.06,0,0,0-2.12,0c-1.83,34-2.08,69.95.27,103.9a.79.79,0,0,0,1.58,0Z"/><path class="cls-3" d="M2764.18,2314.58a10.71,10.71,0,1,1-10.71-10.7A10.71,10.71,0,0,1,2764.18,2314.58Z"/><path class="cls-3" d="M2351.93,2314.58a10.7,10.7,0,1,1-10.7-10.7A10.7,10.7,0,0,1,2351.93,2314.58Z"/><path class="cls-3" d="M2560.88,2433.18a10.71,10.71,0,1,1-10.71-10.7A10.71,10.71,0,0,1,2560.88,2433.18Z"/><polygon class="cls-3" points="2235.01 2623.39 2192.31 2863.54 2216.33 2863.54 2295.06 2623.39 2235.01 2623.39"/><polygon class="cls-3" points="2906.58 2623.39 2942.29 2863.96 2918.27 2863.96 2846.53 2623.39 2906.58 2623.39"/><polygon class="cls-3" points="3066.92 2623.39 3107.38 2863.96 3083.36 2863.96 3006.87 2623.39 3066.92 2623.39"/><path class="cls-3" d="M2560.16,2541.44a10.71,10.71,0,1,1-10.7-10.7A10.7,10.7,0,0,1,2560.16,2541.44Z"/><path class="cls-3" d="M2157.41,2486h785.53a1,1,0,0,0,0-2.08H2157.41a1,1,0,0,0,0,2.08Z"/><rect class="cls-2" x="4188.48" y="379.6" width="524.39" height="703.32"/><rect class="cls-5" x="4215.77" y="407.24" width="469.79" height="648.04"/><rect class="cls-2" x="4368.01" y="631.4" width="179.35" height="204.94"/><rect class="cls-2" x="4542.59" y="1191.56" width="340.54" height="456.74" transform="translate(3292.93 6132.79) rotate(-90)"/><rect class="cls-5" x="4502.44" y="1267.38" width="420.84" height="305.09"/><rect class="cls-2" x="4656.32" y="1348.82" width="116.47" height="133.09" transform="translate(3299.19 6129.93) rotate(-90)"/><rect class="cls-2" x="828.93" y="651.2" width="332.72" height="446.25"/><rect class="cls-5" x="846.25" y="668.74" width="298.08" height="411.17"/><rect class="cls-2" x="942.84" y="810.97" width="113.8" height="130.03"/><polygon class="cls-2" points="2680.84 2023.52 2658.16 2233.97 2948.72 2233.97 2972.82 2023.52 2680.84 2023.52"/><polygon class="cls-5" points="2692.78 2038.64 2670.72 2222.79 2932.95 2222.79 2954.17 2038.64 2692.78 2038.64"/><polygon class="cls-3" points="2736.91 2069.61 2723.33 2191.82 2888.82 2191.82 2897.31 2069.61 2736.91 2069.61"/><polyline class="cls-4" points="2962.44 2114.15 3022.46 2234.82 2948.72 2233.97 2963.34 2106.28"/></g><g id="Floor"><path class="cls-6" d="M4827.52,2862.34c0,.91-898.09,1.66-2005.68,1.66-1108,0-2005.87-.75-2005.87-1.66s897.89-1.66,2005.87-1.66C3929.43,2860.68,4827.52,2861.42,4827.52,2862.34Z"/></g><g id="Loading"><rect class="cls-2" x="1340.62" y="332.43" width="2398.72" height="1578.92"/><path class="cls-6" d="M3739.34,1911.35c0-10.78-.51-615.81-1.32-1578.91l1.32,1.32-2398.53.33h-.19l1.66-1.65c0,561.68-.09,1096.13-.13,1578.91l-1.53-1.52,2398.72,1.52-2398.72,1.52h-1.52v-1.52c0-482.78-.09-1017.23-.14-1578.91v-1.67h1.85l2398.53.34h1.33v1.33C3739.86,1295.54,3739.35,1900.58,3739.34,1911.35Z"/><path class="cls-6" d="M3739.34,472.92c0,.92-537,1.66-1199.3,1.66-662.52,0-1199.42-.74-1199.42-1.66s536.9-1.66,1199.42-1.66C3202.33,471.26,3739.34,472,3739.34,472.92Z"/><rect class="cls-3" x="1564.12" y="706.52" width="2010.92" height="275.2"/><rect class="cls-3" x="1529.72" y="1463.03" width="446.44" height="446.44"/><rect class="cls-3" x="2057.47" y="1463.03" width="446.44" height="446.44"/><rect class="cls-3" x="2569.45" y="1463.03" width="446.44" height="446.44"/><path class="cls-7" d="M2328,1273.84H1844.09a73.75,73.75,0,0,1-73.75-73.75h0a73.75,73.75,0,0,1,73.75-73.75H2328a73.75,73.75,0,0,1,73.75,73.75h0A73.75,73.75,0,0,1,2328,1273.84Z"/><path class="cls-6" d="M2893.72,1273.84s2.24-.23,6.59-.5c2.18-.17,4.84-.75,8-1.22a81.45,81.45,0,0,0,10.74-3.21A73.26,73.26,0,0,0,2965.3,1215a74,74,0,0,0-8.56-51.53c-9.75-16.73-27.81-31.34-50.45-35-11.18-1.84-23.22-.87-35.49-1.1l-38,.07-82.69.11-905.92.49a72.05,72.05,0,0,0-4.8,144c10.3.49,20.93.14,31.31.25l240.53.1,407.28.36,274.57.52,74.65.31,19.42.17c4.37.06,6.61.17,6.61.17s-2.24.11-6.61.17l-19.42.16-74.65.32-274.57.52-407.28.36-240.53.1c-10.47-.11-20.8.25-31.52-.25a75.55,75.55,0,0,1-30.9-8.8,75.42,75.42,0,0,1,35.91-141.74l905.92.49,82.69.11,38,.07c12.27.27,24.22-.68,35.81,1.25,23.2,3.87,41.62,18.92,51.5,36.05a74,74,0,0,1-38.8,106.89,79.85,79.85,0,0,1-10.87,3.08c-3.22.42-5.91.94-8.1,1.05C2896,1273.84,2893.72,1273.84,2893.72,1273.84Z"/><path class="cls-6" d="M2248.08,1325.38h5.51l-6.77,33.75h20.92l-.94,4.79h-26.42Z"/><path class="cls-6" d="M2271.9,1351.64c0-9.85,7.16-17.17,17.12-17.17,8.31,0,13.65,4.9,13.65,12.55,0,9.91-7.1,17.23-17.07,17.23C2277.29,1364.25,2271.9,1359.24,2271.9,1351.64Zm25.43-4.35c0-5.17-3.13-8.2-8.7-8.2-6.55,0-11.39,5.12-11.39,12.33,0,5.12,3.14,8.21,8.69,8.21C2292.54,1359.63,2297.33,1354.51,2297.33,1347.29Z"/><path class="cls-6" d="M2340.14,1334.74l-5.79,29.18h-5.06l.72-3.58a14.55,14.55,0,0,1-10.3,3.91c-7.43,0-12.88-4.74-12.88-12.61,0-10,7-17.17,16.51-17.17,5,0,8.65,1.81,10.52,5.23l1-5Zm-7.88,12.55c0-5.17-3.14-8.2-8.7-8.2-6.55,0-11.39,5.12-11.39,12.33,0,5.12,3.13,8.21,8.69,8.21C2327.47,1359.63,2332.26,1354.51,2332.26,1347.29Z"/><path class="cls-6" d="M2380,1323.07l-8.15,40.85h-5.06l.71-3.58a14.54,14.54,0,0,1-10.3,3.91c-7.43,0-12.88-4.74-12.88-12.61,0-10,7-17.17,16.52-17.17,5,0,8.7,1.81,10.57,5.28l3.3-16.68Zm-10.24,24.22c0-5.17-3.14-8.2-8.7-8.2-6.55,0-11.4,5.12-11.4,12.33,0,5.12,3.14,8.21,8.7,8.21C2365,1359.63,2369.78,1354.51,2369.78,1347.29Z"/><path class="cls-6" d="M2387.7,1334.74H2393l-5.78,29.18h-5.28Zm.88-8.81a3.65,3.65,0,0,1,3.79-3.69,3.22,3.22,0,0,1,3.36,3.09,3.66,3.66,0,0,1-3.85,3.8A3.19,3.19,0,0,1,2388.58,1325.93Z"/><path class="cls-6" d="M2428.53,1344.15a19.33,19.33,0,0,1-.33,3.42l-3.24,16.35h-5.29l3.25-16.35a14.08,14.08,0,0,0,.27-2.43c0-3.79-2.2-5.94-6.77-5.94-5.67,0-9.52,3-10.79,9.31l-3.08,15.41h-5.29l5.78-29.18h5.07l-.72,3.74a14.33,14.33,0,0,1,10.57-4C2424.57,1334.47,2428.53,1337.94,2428.53,1344.15Z"/><path class="cls-6" d="M2468.58,1334.74l-5,25.22c-2.09,10.57-7.76,15-17.45,15-5.56,0-10.19-1.48-13.33-4.13l2.92-4.07c2.26,2.09,6.22,3.52,10.79,3.52,6.89,0,10.35-3.14,11.62-9.47l.44-2.09a14.83,14.83,0,0,1-10.57,4c-7.71,0-13-4.52-13-11.89,0-9.26,6.89-16.35,16.63-16.35,4.79,0,9,1.76,10.9,5.61l1.05-5.34Zm-8.09,11.89c0-4.68-3.2-7.54-8.7-7.54a11,11,0,0,0-11.45,11.4c0,4.73,3.24,7.6,8.69,7.6A11.06,11.06,0,0,0,2460.49,1346.63Z"/><path class="cls-6" d="M2485.82,1360.73a3.89,3.89,0,0,1,3.91-4,3.41,3.41,0,0,1,3.47,3.58,3.85,3.85,0,0,1-3.85,4A3.48,3.48,0,0,1,2485.82,1360.73Z"/><path class="cls-6" d="M2498.31,1360.73a3.88,3.88,0,0,1,3.91-4,3.41,3.41,0,0,1,3.47,3.58,3.85,3.85,0,0,1-3.86,4A3.47,3.47,0,0,1,2498.31,1360.73Z"/><path class="cls-6" d="M2510.79,1360.73a3.89,3.89,0,0,1,3.91-4,3.41,3.41,0,0,1,3.47,3.58,3.85,3.85,0,0,1-3.85,4A3.48,3.48,0,0,1,2510.79,1360.73Z"/><path class="cls-6" d="M1432.25,409.48a17.58,17.58,0,1,1-17.58-17.58A17.58,17.58,0,0,1,1432.25,409.48Z"/><path class="cls-6" d="M1507,409.48a17.59,17.59,0,1,1-17.59-17.58A17.59,17.59,0,0,1,1507,409.48Z"/><path class="cls-6" d="M1581.7,409.48a17.59,17.59,0,1,1-17.58-17.58A17.58,17.58,0,0,1,1581.7,409.48Z"/></g><g id="Character"><circle class="cls-4" cx="3489.33" cy="1004.01" r="837.2"/><path class="cls-6" d="M4326.52,1004s-.23-4.59-.51-13.57q-.21-6.75-.51-16.72c-.16-6.65-.34-14.36-1.19-23.08q-1-13.1-2.3-29.27c-1.1-10.75-2.82-22.45-4.4-35.15a881.61,881.61,0,0,0-17-86.69c-8.53-32.11-18.88-67.69-34.3-105.11-15.11-37.49-33.73-77.48-58.23-117.87a846,846,0,0,0-212.46-237.69,817.7,817.7,0,0,0-159.72-95.49c-59-26.8-123.48-48.33-192.26-60.72C3575,170,3502.32,165,3428.11,170.75c-37.16,2.2-74.52,8.23-112,15.65a892.31,892.31,0,0,0-111.74,31.86c-36.74,13.81-73.32,29.55-108.74,48.62-35.27,19.26-69.93,40.7-103,65.19a915.89,915.89,0,0,0-94.3,81.22,901.26,901.26,0,0,0-82.55,96.35c-25.56,34.25-47.93,71.24-68.13,109.67-4.81,9.74-10.24,19.2-14.56,29.22l-13.5,29.86c-8.06,20.36-16.4,40.7-23.05,61.75-13.7,41.9-25,85-31.83,129.27a903.06,903.06,0,0,0-10.94,134.48,904.92,904.92,0,0,0,10.9,134.52c6.8,44.26,18.11,87.41,31.82,129.32l5.29,15.66,2.65,7.82,3,7.68,12.08,30.61q6.76,15,13.51,29.88c4.3,10,9.75,19.48,14.55,29.22,20.2,38.44,42.57,75.46,68.14,109.71a900.54,900.54,0,0,0,82.56,96.38,915.14,915.14,0,0,0,94.31,81.24c33,24.5,67.69,45.94,103,65.21,35.43,19.07,72,34.82,108.76,48.63a892.12,892.12,0,0,0,111.76,31.86c37.5,7.42,74.87,13.45,112,15.65,74.22,5.78,146.89.77,215.54-11.91,68.78-12.4,133.26-33.94,192.26-60.73a818.26,818.26,0,0,0,159.72-95.51,846.28,846.28,0,0,0,212.44-237.7c24.49-40.39,43.11-80.37,58.21-117.86,15.42-37.42,25.78-73,34.3-105.11a881,881,0,0,0,17-86.67c1.58-12.7,3.31-24.4,4.4-35.15l2.31-29.26c.84-8.72,1-16.43,1.18-23.08s.37-12.22.51-16.72c.28-9,.51-13.57.51-13.57s0,4.6-.17,13.58q-.14,6.75-.34,16.73c-.11,6.65-.23,14.37-1,23.1q-1,13.11-2.14,29.3c-1.05,10.77-2.72,22.48-4.25,35.2a874.72,874.72,0,0,1-16.73,86.86c-8.44,32.18-18.72,67.85-34.08,105.38-15,37.59-33.62,77.69-58.08,118.22A847.29,847.29,0,0,1,3997.09,1671,819.92,819.92,0,0,1,3837,1767c-59.16,26.94-123.83,48.61-192.82,61.11-68.87,12.78-141.78,17.86-216.27,12.11-37.29-2.18-74.78-8.21-112.43-15.63a894,894,0,0,1-112.19-31.92c-36.88-13.83-73.61-29.62-109.18-48.75-35.42-19.32-70.22-40.83-103.39-65.41A919.67,919.67,0,0,1,2896,1597a903.06,903.06,0,0,1-82.9-96.72c-25.68-34.39-48.15-71.53-68.43-110.12-4.83-9.78-10.29-19.28-14.62-29.34l-13.56-30q-6.06-15.33-12.14-30.73l-3-7.71-2.66-7.85-5.32-15.72c-13.76-42.07-25.12-85.4-31.95-129.83a908,908,0,0,1-11-135.05,904.74,904.74,0,0,1,11-135c6.82-44.41,18.2-87.72,32-129.78,6.68-21.13,15.05-41.56,23.15-62l13.56-30c4.34-10.06,9.79-19.56,14.62-29.33,20.28-38.58,42.76-75.71,68.42-110.09a904.84,904.84,0,0,1,82.9-96.69,919.53,919.53,0,0,1,94.69-81.5c33.15-24.57,67.95-46.07,103.37-65.39,35.56-19.12,72.28-34.91,109.16-48.75a895.85,895.85,0,0,1,112.17-31.91c37.65-7.42,75.14-13.45,112.42-15.63,74.48-5.75,147.39-.68,216.25,12.1,69,12.5,133.66,34.16,192.81,61.1A819.75,819.75,0,0,1,3997,337,847.07,847.07,0,0,1,4209.67,575.6c24.47,40.53,43.05,80.64,58.1,118.23,15.36,37.53,25.64,73.2,34.08,105.39a875,875,0,0,1,16.74,86.86c1.52,12.73,3.2,24.45,4.24,35.21q1.2,16.17,2.15,29.31c.8,8.73.92,16.45,1,23.11s.25,12.22.34,16.72C4326.52,999.42,4326.52,1004,4326.52,1004Z"/><g class="cls-8"><path class="cls-7" d="M3153.89,1296.26A447.82,447.82,0,0,1,3031.3,987.91c0-248.26,201.26-449.52,449.52-449.52s449.52,201.26,449.52,449.52A448.13,448.13,0,0,1,3798.45,1306l226.18,220.86C4163.17,1389.24,4249,1198.62,4249,987.91c0-419.55-340.12-759.67-759.67-759.67s-759.67,340.12-759.67,759.67c0,207.17,83,394.87,217.49,531.92Z"/><g class="cls-9"><path d="M3886.88,984h408.57s-41.32,332.59-49.58,338.79-250,285.08-250,285.08l-274.75-326.39Z"/></g><g class="cls-10"><polygon points="3776.65 708.89 4065.8 425.12 4269.32 728.79 4296.46 983.99 3891.79 984.01 3818.09 821.76 3776.65 708.89"/></g><g class="cls-11"><path d="M3507.14,606c-5-8.26,0-409,0-409l249.14,31.3,306.72,198L3768.31,715.46,3582.75,688.6Z"/></g><g class="cls-12"><path d="M2913.7,440.7c6.2,2.07,274.76,289.22,274.76,289.22l239.63-95L3504.94,539l2.2-342.09-285.63,31.3Z"/></g><g class="cls-13"><path d="M2702.72,984c6.19,4.13,454.47,0,454.47,0l-7.9-295L2932.9,459.45,2785.35,634.89Z"/></g></g><circle class="cls-3" cx="3497.85" cy="1004.01" r="174.44"/><path class="cls-14" d="M3446.47,1015.66h0a49.53,49.53,0,0,0,61.06,33.76l606.61-172.18L3488.09,952.6A49.53,49.53,0,0,0,3446.47,1015.66Z"/><path class="cls-6" d="M3404.71,1381.29l-33.38,169.28h-44.25l17.41-89.23-56.34,72.54h-21l-30.71-72.54-17.9,89.23h-44l33.86-169.28h38.92l39.67,97.94,76.9-97.94Z"/><path class="cls-6" d="M3567.69,1419.5l-26.12,131.07H3498l2.66-12.34c-10.16,9.44-22.74,14.52-38,14.52-28.29,0-55.38-21.53-55.38-59.74,0-43.53,31.92-75.69,71.1-75.69,17.66,0,31.93,5.32,40.14,17.9l3.15-15.72Zm-57.8,59.73c0-15.24-9.19-25.15-24.91-25.15-18.13,0-31.2,14.75-31.2,36.76,0,15.23,9.19,24.9,24.91,24.9C3497.07,1515.74,3509.89,1501,3509.89,1479.23Z"/><path class="cls-6" d="M3669.73,1485.52l35.54,65h-48.84l-17.9-34.34-31.68,34.34h-52l65.53-67.23-34.58-63.84h48.12l17.42,33.37,31.19-33.37h50.54Z"/><path class="cls-6" d="M3717.36,1527.6c0-17.66,13.3-29.27,29.5-29.27,15.48,0,25.88,10.16,25.88,25.16,0,17.65-13.55,29.26-29.27,29.26C3728.24,1552.75,3717.36,1542.1,3717.36,1527.6Z"/><path class="cls-6" d="M3413.49,1677.17h52.85l-2.57,13.13h-75.94L3390,1680l51.48-41.22c14.18-11.47,18.41-18.42,18.41-27,0-9.21-6.49-15.25-20.68-15.25a37.58,37.58,0,0,0-27.32,11.77l-10.12-8.75c8.76-9.82,23.25-16.16,39.55-16.16,21.44,0,33.67,10.87,33.67,26.43,0,12.22-5.28,22.79-23.4,37.13Z"/><path class="cls-6" d="M3516.33,1597.76l-8.75,29h10.27c27,0,39.25,11.17,39.25,28.23,0,21.9-18,36.54-45,36.54-16,0-29.59-5-37-13.29l8-11.62c5.74,6.64,16.61,11.47,30,11.47,18.27,0,28.84-8,28.84-21.44,0-10.41-7.55-16.75-26.87-16.75h-25.67l16.46-55.26h59.63l-2.57,13.14Z"/><path class="cls-6" d="M3571.92,1652.71c0-36.69,20.68-69.3,53.44-69.3,22.19,0,35.63,14.35,35.63,38.8,0,36.69-20.84,69.3-53.3,69.3C3585.35,1691.51,3571.92,1677.17,3571.92,1652.71Zm74-30.19c0-16.76-8.15-25.67-21.74-25.67-23.85,0-37.14,31-37.14,55.56,0,16.76,8.15,25.66,21.89,25.66C3632.6,1678.07,3645.89,1647.13,3645.89,1622.52Z"/><polygon class="cls-7" points="4402.35 2730.1 4429.44 2773.88 4498.47 2694.15 4462.11 2655.63 4402.35 2730.1"/><path class="cls-6" d="M4492.34,2686c.35.29-3.16,5-9.28,12.29s-14.86,17-24.73,27.62l-25.45,26.91c-6.57,6.83-10.72,11-11.07,10.68s3.18-5,9.31-12.27,14.9-17,24.76-27.6l25.42-26.92C4487.86,2689.86,4492,2685.68,4492.34,2686Z"/><path class="cls-6" d="M4428.85,2690.12c.65-.66,8.23,5.8,16.93,14.43s15.24,16.14,14.59,16.8-8.24-5.8-16.94-14.43S4428.2,2690.78,4428.85,2690.12Z"/><g class="cls-15"><polyline class="cls-16" points="4429.44 2773.88 4498.47 2694.15 4491.59 2686.86 4421.18 2764.21 4428.55 2773.1"/></g><path class="cls-7" d="M3858.16,2834.58l.19-10.76,108.94.85-.19,35.47-6.73.36c-29.94,1.37-152.34,5-172.29-.73C3765.83,2853.35,3858.16,2834.58,3858.16,2834.58Z"/><g class="cls-15"><path class="cls-16" d="M3927.78,2859.12a34.8,34.8,0,0,1,14.06-21.42,38.55,38.55,0,0,1,25.42-7.19l-.26,28.18Z"/></g><g class="cls-15"><path class="cls-16" d="M3813,2845.24s-32.38,8.48-28.4,13.45,127.81,5.61,182.47,1.45l-.15-2.26-144.45.4S3819.34,2845.52,3813,2845.24Z"/></g><path class="cls-6" d="M3968.65,2857.83a11.48,11.48,0,0,1-1.87.18l-5.36.27-19.71.69c-16.66.47-39.68.83-65.1.72s-48.44-.69-65.08-1.31l-19.71-.86-5.35-.32a12,12,0,0,1-1.86-.19,10,10,0,0,1,1.87-.06l5.37.1,19.71.47c16.65.4,39.65.83,65.06.95s48.42-.12,65.07-.37l19.72-.3,5.36,0A10.49,10.49,0,0,1,3968.65,2857.83Z"/><path class="cls-6" d="M3822.51,2859.85c-.4,0-.67-4.34-3.6-8.77s-6.88-6.74-6.65-7c.08-.31,4.71,1.62,7.78,6.42S3822.84,2859.92,3822.51,2859.85Z"/><path class="cls-6" d="M3854.65,2844.92c-.3.18-1.82-1.56-3.38-3.89s-2.58-4.36-2.27-4.54,1.83,1.56,3.39,3.89S3855,2844.74,3854.65,2844.92Z"/><path class="cls-6" d="M3863.48,2840.64c-.25.25-1.95-.82-3.8-2.39s-3.16-3-2.92-3.29,1.95.82,3.8,2.39S3863.72,2840.39,3863.48,2840.64Z"/><path class="cls-6" d="M3869.12,2831.16c0,.33-2.54.62-5.67.64s-5.67-.25-5.67-.58,2.54-.63,5.67-.64S3869.12,2830.82,3869.12,2831.16Z"/><path class="cls-6" d="M3871.08,2824.45c.12.31-2.65,1.45-6.33,1.68s-6.58-.53-6.51-.84,2.93-.14,6.43-.38S3871,2824.12,3871.08,2824.45Z"/><path class="cls-6" d="M3851.06,2836.1c0,.14-2.67.43-7-.08a43.38,43.38,0,0,1-7.41-1.55,21.91,21.91,0,0,1-4.23-1.65,3.58,3.58,0,0,1-1.7-2,2.46,2.46,0,0,1,1.07-2.58,13.34,13.34,0,0,1,15.78,3.56,11.26,11.26,0,0,1,2.23,4.33c.27,1.11.24,1.74.16,1.75-.24.09-.44-2.55-3.12-5.54a12.54,12.54,0,0,0-5.92-3.63c-2.45-.69-5.95-.89-8.31.48-1.11.76-.69,2,.53,2.66a21.51,21.51,0,0,0,3.9,1.58,49.78,49.78,0,0,0,7.16,1.77C3848.4,2835.88,3851.06,2835.9,3851.06,2836.1Z"/><path class="cls-6" d="M3849.25,2836.41c-.1.07-1.11-1.59-.76-4.5a10.19,10.19,0,0,1,1.94-4.72c1.25-1.44,2.85-3.41,5.84-3.28a2.59,2.59,0,0,1,2.12,3,6.9,6.9,0,0,1-1.21,2.88,20.37,20.37,0,0,1-3.33,3.91c-2.21,2-3.94,2.72-4,2.6s1.39-1.16,3.34-3.2a23,23,0,0,0,3-3.87c1-1.36,1.65-3.82-.1-4.12s-3.54,1.44-4.62,2.72a10.49,10.49,0,0,0-2,4.21C3848.85,2834.68,3849.48,2836.37,3849.25,2836.41Z"/><path class="cls-6" d="M3966.69,2830.23c0,.22-3.1-.3-8,.22a36.53,36.53,0,0,0-17.54,6.61,32.8,32.8,0,0,0-11.06,14.29c-1.7,4.32-1.88,7.22-2.13,7.19a5.41,5.41,0,0,1,0-2,24.45,24.45,0,0,1,1.23-5.44,31.25,31.25,0,0,1,11.13-15,35.12,35.12,0,0,1,18.27-6.51,30.47,30.47,0,0,1,6,.17A6.26,6.26,0,0,1,3966.69,2830.23Z"/><path class="cls-6" d="M3914.23,2849.22c0,.31-7,1.35-15.85,1.38s-15.89-.95-15.85-1.27,7.12.09,15.85,0S3914.19,2848.86,3914.23,2849.22Z"/><path class="cls-6" d="M3935.48,2849.3c.26.24-.59,1.39-1.33,2.9s-1.14,2.84-1.52,2.82-.54-1.6.33-3.33S3935.25,2849.05,3935.48,2849.3Z"/><path class="cls-6" d="M3943.58,2840.07c.25.24-.46,1.28-1.59,2.33s-2.25,1.72-2.51,1.48.45-1.29,1.59-2.34S3943.32,2839.83,3943.58,2840.07Z"/><path class="cls-6" d="M3955.08,2835.89c-.08.34-1.52.33-3.12.84s-2.75,1.29-3,1.06.63-1.61,2.62-2.22S3955.19,2835.58,3955.08,2835.89Z"/><path class="cls-6" d="M3963.26,2833.94c.13.31-.5.83-1.4,1.15s-1.74.32-1.87,0,.5-.83,1.4-1.15S3963.13,2833.62,3963.26,2833.94Z"/><path class="cls-17" d="M3813.41,1418.65l-168.28-170.49,21.37-222,3.85-4.41c2.09-2.43,4.46-5.09,7.24-8a42.15,42.15,0,0,1,11.14-8.28c5-2.59,11.84-5.76,16.09-6.37,5.26-.75,7-7.4,2.8-9.63s-18.75-.5-33.27,8.67-5.71-16.05-2.67-25.29,11.11-38.23,9-41.34c-3.11-4.56-8.71-2-11.53,7.28s-13.27,36.62-18.11,34.9,11.38-48.53,11.38-48.53,5.08-9.5-.44-11.66c-10-3.91-23.42,47-24.58,51.93-.81,3.4-6.13,1.72-5.07-1.88s17.19-46.38,7.1-50.45c-7.75-3.13-11.47,41.83-19.76,49s6.33-33.89-1.2-36.57c-2.8-1-5-1.36-10,23.31-2.42,12-7.67,32-9.62,51.49l0,0-52.9,265.3,165.6,219.24Z"/><path class="cls-17" d="M3899.17,930.57c-6.92,4,14.8,41.72,5.37,36.19s-21.14-49.09-28.2-44.63c-9.2,5.81,14.28,44.92,16,48.37s-3.25,6-4.66,2.75c-2-4.59-24.38-52.31-33.47-46.69-5.05,3.12,1.65,11.55,1.65,11.55s24.27,43.2,19.88,45.72-19.56-22.36-24.06-31.1-10.41-10.14-12.65-5.1c-1.53,3.44,11.6,30.52,16.25,39.07s17.82,31.77,1.9,25.35-30.54-5.51-34.28-2.57-.84,9.17,4.47,9c4.3-.16,11.57,1.74,17,3.39a42.14,42.14,0,0,1,12.44,6.15c3.25,2.37,6.06,4.56,8.55,6.58l4.58,3.65,90.91,224.11-82.6,192.22,128,47.66L4063.8,1248l-131.89-247.39,0,0c-5.41-18.87-14.16-37.58-18.68-48.93C3903.89,928.33,3901.75,929.09,3899.17,930.57Z"/><path class="cls-14" d="M4184.73,2292.5l-83.16-427.77-117.41,10.09,0-1-214.49,19.41s-10,491.28-13.61,491.28l58.75,447.84v.08l169.34-7.73-65.45-445.78,24.15-357.75s1.91-2.61,4.82-6.56l98,365.74,333.61,377.56L4488,2652.83Z"/><path class="cls-6" d="M3923.29,2311.33a15.56,15.56,0,0,1-.09-3.66c.1-2.76.22-6.21.38-10.45.5-9.53,1.18-22.54,2-38.42,2-32.83,4.83-77.41,7.9-126.66,3.11-44.71,6-85.56,8.13-116.78l0-.41.26-.3,29.38-34.92,8.17-9.41a20.74,20.74,0,0,1,3-3.13c.09.08-.76,1.32-2.48,3.6-2,2.55-4.52,5.81-7.64,9.83l-28.53,35.62.28-.71c-2,31.23-4.52,72.1-7.33,116.83-3.45,49.23-6.57,93.78-8.87,126.59-1.26,15.85-2.3,28.84-3.06,38.35-.41,4.22-.74,7.67-1,10.42A15.39,15.39,0,0,1,3923.29,2311.33Z"/><path class="cls-6" d="M3984.18,1873.84c.91,0,1.66,18.32,1.66,40.91s-.75,40.91-1.66,40.91-1.66-18.32-1.66-40.91S3983.26,1873.84,3984.18,1873.84Z"/><path class="cls-6" d="M3839.56,1911c-.12-.1,1.73-.4,5.29-.86l15.64-1.88c13.56-1.57,33.13-3.75,56.62-6.13l1.6-.16v1.62c.06,20.11.13,43.28.2,67.91v1l-.93.46-1.21.6-40.94,20.13-.77.38-.73-.43-35.44-21-.68-.4v-.76c.28-18.16.52-33.27.69-44.44.14-4.85.25-8.83.34-12,.11-2.73.21-4.12.31-4a30.42,30.42,0,0,1,.31,4.53c.09,3.28.2,7.36.34,12.32.18,11,.41,25.81.69,43.65l-.66-1.15,35.68,20.59-1.49,0,40.87-20.28,1.21-.6-.92,1.49c.07-24.63.14-47.8.2-67.91l1.6,1.45c-22.91,2-42.18,3.58-55.87,4.61l-16,1.14A42,42,0,0,1,3839.56,1911Z"/><path class="cls-6" d="M4004.69,1894.74c-.12-.1,1.72-.39,5.29-.86l15.64-1.88c13.55-1.57,33.13-3.75,56.62-6.13l1.59-.16v1.62c.06,20.11.12,43.29.2,67.91v1l-.93.46-1.21.6-41,20.13-.77.38-.72-.43-35.45-21-.67-.4v-.76c.28-18.16.51-33.27.68-44.44.14-4.85.26-8.83.35-12,.11-2.73.2-4.12.31-4a30,30,0,0,1,.3,4.54c.1,3.27.21,7.35.35,12.31.17,11,.4,25.82.69,43.65l-.67-1.15,35.69,20.59-1.5,0,40.88-20.28,1.21-.6-.92,1.49c.07-24.62.13-47.8.19-67.91l1.6,1.45c-22.9,2-42.17,3.58-55.86,4.61l-16,1.14A41.87,41.87,0,0,1,4004.69,1894.74Z"/><path class="cls-6" d="M3918.77,1920.37c.05.92-17.65,2.48-39.53,3.49s-39.64,1.09-39.68.17,17.65-2.47,39.53-3.48S3918.73,1919.46,3918.77,1920.37Z"/><path class="cls-6" d="M4082.38,1905.32c.08.92-17.26,3-38.74,4.61s-38.93,2.21-39,1.29,17.31-3,38.74-4.6S4082.29,1904.41,4082.38,1905.32Z"/><path class="cls-6" d="M3905.31,2375.1c.11.91-17,3.76-38.3,6.36s-38.6,4-38.71,3.07,17-3.76,38.31-6.36S3905.2,2374.19,3905.31,2375.1Z"/><path class="cls-6" d="M4174,2301.7c.34,1-18.31,7.47-39.41,19.33s-36.51,24.19-37.15,23.4c-.28-.32,3.22-3.86,9.47-8.89a196,196,0,0,1,54.55-30.44C4169,2302.41,4173.85,2301.3,4174,2301.7Z"/><path class="cls-6" d="M3813.41,820.56a16.53,16.53,0,0,1-1.26-2.36l-3.4-7c-1.51-3.08-3.18-7-5.5-11.43s-5.19-9.49-8.29-15.19-7.23-11.69-11.36-18.44c-4.42-6.56-9.41-13.58-14.91-21a404.71,404.71,0,0,0-42.14-46.41c-34-31.42-81.07-63.14-139.87-81.43A337.43,337.43,0,0,0,3492,601.92a367.82,367.82,0,0,0-197.25,52.52,337.63,337.63,0,0,0-74.55,60.45c-41.93,45.12-67,96-80.85,140.23a403.14,403.14,0,0,0-13.47,61.22c-1.09,9.16-1.93,17.73-2.5,25.62-.23,7.91-.72,15.14-.68,21.65s.26,12.26.36,17.3.69,9.22.91,12.65.42,5.87.55,7.78a15.35,15.35,0,0,1,.08,2.67,14.52,14.52,0,0,1-.41-2.63c-.22-1.9-.51-4.47-.89-7.76S3122.33,986,3122,981s-.42-10.84-.67-17.34.26-13.79.39-21.74c.48-7.94,1.23-16.55,2.24-25.78a396.65,396.65,0,0,1,13.07-61.67c13.7-44.56,38.67-96,80.85-141.62A339,339,0,0,1,3293,651.66a369.34,369.34,0,0,1,199-53,339.09,339.09,0,0,1,95.57,15.69c59.27,18.61,106.52,50.8,140.56,82.64a398.13,398.13,0,0,1,42,47c5.46,7.5,10.4,14.61,14.75,21.25,4.08,6.83,8,12.93,11.16,18.67l8.05,15.38c2.23,4.51,3.81,8.46,5.23,11.59l3.1,7.18A16.06,16.06,0,0,1,3813.41,820.56Z"/><path class="cls-6" d="M3741.27,803.11a28.08,28.08,0,0,1-3-3.82c-1.94-2.52-4.42-6.49-8.18-11.19a321.92,321.92,0,0,0-93.72-83.38A304.16,304.16,0,0,0,3459.58,663a321.59,321.59,0,0,0-121.12,32.66c-5.47,2.53-9.46,5-12.32,6.35a27,27,0,0,1-4.38,2.08,25.82,25.82,0,0,1,4-2.66c2.75-1.58,6.66-4.21,12.06-6.92a289.29,289.29,0,0,1,47.07-20,308.18,308.18,0,0,1,313,73.91,289.56,289.56,0,0,1,33.18,38.91c3.61,4.84,5.93,8.94,7.69,11.58A26,26,0,0,1,3741.27,803.11Z"/><path class="cls-7" d="M4063.83,1550.86l-29.61,154.08c61.75,86,67.38,159.66,67.38,159.66l-331.88,28.52c6.19-52,38.27-164.7,38.27-164.7l-48.18-164.51-96.55-125.72,95.82-86.36c-1.84,4.86,89.83,57.91,89.83,57.91l131.66,1.12a110.78,110.78,0,0,1,18.93,3.76l64.33-166.74s49.75,73.18,33.08,163c-11.87,63.93-9.62,78.88-33.08,140"/><path class="cls-6" d="M3823.11,1433.79c.14-.11,2,1.83,4.85,5.8a93.45,93.45,0,0,1,9.95,18.09,88.23,88.23,0,0,1,6.66,30,75.94,75.94,0,0,1-7.87,36.77c-6.06,12.08-15.23,21.88-25.48,27.67a60.6,60.6,0,0,1-29.68,8,52.61,52.61,0,0,1-20.34-3.92,35,35,0,0,1-5-2.58c-1.09-.67-1.63-1.08-1.58-1.18.21-.78,9.67,5.84,26.88,5.33a60.29,60.29,0,0,0,28.19-8.27c9.62-5.62,18.26-15,24.05-26.51a75,75,0,0,0,7.78-35.2,90.59,90.59,0,0,0-5.78-29.2C3829.59,1442.51,3822.52,1434.16,3823.11,1433.79Z"/><path class="cls-6" d="M4052.43,1546c-.53-.25,2.33-6.27,5.12-16.5a119.9,119.9,0,0,0-6.45-80.8c-4.39-9.66-8.17-15.14-7.68-15.48.19-.13,1.27,1.13,3.09,3.55a75.3,75.3,0,0,1,6.7,10.91,108.73,108.73,0,0,1,6.59,82.49,74.81,74.81,0,0,1-4.88,11.84C4053.51,1544.72,4052.64,1546.14,4052.43,1546Z"/><g class="cls-12"><path d="M4008,1695.72c-3.12-3.5-8.69-2.93-13.25-1.79-7.38,1.85-14.69,4.43-22.3,4.59-14.2.3-27-7.72-40.12-13.19s-29.82-7.9-40.2,1.79c-7.58,7.07-9.08,19.76-3.34,28.4a22.27,22.27,0,0,0,13.84,9.1h0c33.16,9.35,61.68,2.47,94.14-10.53,3.94-1.57,8-3.4,10.64-6.7S4010.8,1698.88,4008,1695.72Z"/></g><g class="cls-12"><path d="M3764.39,1350.57c-13.6,17.66-22.61,39.83-20.45,62s17.21,43.74,38.76,49.46c14.78,3.92,30.92.41,45.4,5.3,26.73,9,40.89,44,69,46.49,25.43,2.28,43.92-23.39,67.63-32.87,12.27-4.9,25.79-5.33,38.83-7.47,27-4.45,53.5-17.42,69.24-39.76s18.29-54.8,1.89-76.67c-17.51-23.35-50-29.06-79.19-29.07a332.66,332.66,0,0,0-128.85,26c-8.78,3.7-17.55,7.88-24.54,14.35s-12,15.6-11.61,25.11"/></g><path class="cls-6" d="M4143.92,1332.94a33.14,33.14,0,0,0-20.64-26.37c-12.8-4.88-27.79-1.38-40.32-7-15.6-6.94-22.2-25.26-26.13-41.88s-7.73-35-21.16-45.52c-9.27-7.29-21.6-9.45-31.63-15.64-14.85-9.17-22.92-25.85-33.07-40a77.55,77.55,0,0,0-13.57-14.74c-.22-.26-.39-.56-.6-.82-21.59-26-79.15-29.42-104-6.54l.95-.84c-46.4,3.48-75.84,78.44-76.33,125.94-.3,29.55,9.25,60.49-2,87.85-6.51,15.91-19.51,28.77-24.49,45.23-6.77,22.39,4.56,48.84,25.43,59.4s48.89,4,62.92-14.71c-.73,12,9.21,22.65,20.56,26.75s23.81,3.17,35.83,2.19c25.76-2.11,55.46-6.55,68.67-28.76,8.87,13.28,26.28,18.73,42.21,17.55s30.84-2.66,45.39-9.27a19.09,19.09,0,0,1-1.68-2.62,40.89,40.89,0,0,0,6.87-3.3c12.23-7.51,19.82-23.69,14.11-36.86l13.87,16.09c24.06-12.71,34.95-45.6,23.22-70.15a66.54,66.54,0,0,1,21.88,14.58A33.13,33.13,0,0,0,4143.92,1332.94Z"/><path class="cls-14" d="M4138.05,1352.65c-.5.13,2.14-6.09-3-15a30.52,30.52,0,0,0-13.42-11.9c-6.46-3.07-14.6-4.54-23.66-5.5s-19.39-1.65-29.62-6.26a35.63,35.63,0,0,1-13.5-10.66,52.6,52.6,0,0,1-8.2-16.17c-4-11.73-4.84-24.66-8.76-37a55.34,55.34,0,0,0-8.63-17.4,28.39,28.39,0,0,0-16.06-10.56c-6.51-1.62-13.51-1.49-20.42-2.85a33.46,33.46,0,0,1-18.24-9.92c-9.66-10-13.54-22.87-17.77-34-4-11.38-9.63-21.3-17.19-28.8a68.2,68.2,0,0,0-66.47-18.29c-9.85,2.6-14.74,5.67-14.9,5.34a16.57,16.57,0,0,1,3.53-2.17,62.48,62.48,0,0,1,11-4.42,69.11,69.11,0,0,1,43.26,1.27,70.67,70.67,0,0,1,25.52,16.34c7.92,7.64,14,18.18,18.09,29.64,4.33,11.27,8.24,23.64,17.24,32.83a30.12,30.12,0,0,0,16.55,9c6.46,1.29,13.47,1.13,20.58,2.86a31.76,31.76,0,0,1,17.86,11.75,58.2,58.2,0,0,1,9.13,18.46c4,12.88,4.78,25.71,8.57,37,3.42,11.35,10.27,21.07,20,25.29,9.53,4.44,19.67,5.21,28.73,6.42s17.5,2.78,24.18,6.16a31.41,31.41,0,0,1,13.74,12.93,21.81,21.81,0,0,1,2.79,11.6A12,12,0,0,1,4138.05,1352.65Z"/><path class="cls-14" d="M4056.58,1444.51c-.08-.19,1.35-.54,3.53-2.07a17.9,17.9,0,0,0,6.44-9.32,24.61,24.61,0,0,0-1.12-17.69c-3.06-6.43-9.11-12.26-16.85-17s-17.12-8.51-26.44-14.41a49.64,49.64,0,0,1-12.9-11.33,47.44,47.44,0,0,1-7.91-16.43c-3.42-12-3.26-25.11-4.89-38-1.63-12.71-5.59-26.74-16.9-34.53-11-7.78-25.77-10.12-35.63-20.41-9.7-10.08-13.38-23.34-15.49-35.3s-2.84-23.64-5.57-34a78,78,0,0,0-12.79-26.51,84.05,84.05,0,0,0-33.42-26.43c-9.44-3.93-15.16-4.71-15.07-5.07a19.66,19.66,0,0,1,4.11.55,71.69,71.69,0,0,1,11.45,3.33,82.55,82.55,0,0,1,34.8,26.21,79.23,79.23,0,0,1,13.58,27.21c2.92,10.62,3.84,22.28,5.92,34.14,2.12,11.7,5.84,24.34,14.79,33.55,8.88,9.4,23.22,11.67,35.25,20a38.41,38.41,0,0,1,13.21,16.86,75.29,75.29,0,0,1,5,20c1.62,13.32,1.41,26.1,4.62,37.63a44.51,44.51,0,0,0,7.28,15.47,47.35,47.35,0,0,0,12.07,10.8c8.92,5.8,18.39,9.61,26.21,14.74,7.86,5,14.18,11.24,17.28,18.18a25.7,25.7,0,0,1,.65,18.89,18,18,0,0,1-7.29,9.46A10,10,0,0,1,4056.58,1444.51Z"/><path class="cls-14" d="M3902.61,1458.5c-.45-.17,4-3.68,4.21-12.46a36.68,36.68,0,0,0-3.28-15.18c-2.41-5.64-6.33-11.57-9.69-18.82a37.66,37.66,0,0,1-2.69-25.83c2.24-9.27,7.18-18.06,11.73-27.28s8.64-19.29,8.32-30.35a52.9,52.9,0,0,0-11.11-31.44c-7-9.46-15.71-17.43-22.55-26.69a60.64,60.64,0,0,1-8.25-14.89,58,58,0,0,1-3.25-16c-.69-10.6.8-20.55,2.3-29.65s3.09-17.54,3.64-25.29c1.4-15.52-2.25-28-6.78-35.38s-8.93-10-8.63-10.31a11.07,11.07,0,0,1,3,2,32.77,32.77,0,0,1,6.77,7.64c5,7.33,9.18,20.3,8,36.21-.42,7.93-1.85,16.48-3.27,25.57s-2.72,18.84-2,29a55.59,55.59,0,0,0,3.17,15.12,58,58,0,0,0,7.89,14c6.62,8.92,15.33,16.85,22.61,26.66a56,56,0,0,1,11.7,33.37c.29,11.76-4.13,22.56-8.84,31.75s-9.58,17.85-11.8,26.58a35.31,35.31,0,0,0,2.17,24.22c3.1,7.07,6.91,13.15,9.25,19.06a36.7,36.7,0,0,1,2.86,15.95,19.64,19.64,0,0,1-3.09,9.77A9.66,9.66,0,0,1,3902.61,1458.5Z"/><path class="cls-14" d="M3790.94,1453.27a7.88,7.88,0,0,1-1.86-3.09,15.69,15.69,0,0,1,.14-10.32c1.28-4.38,4.69-9.17,9.69-13.14,4.86-4.13,11.23-7.67,16.32-13.45a44.1,44.1,0,0,0,10.48-22.5c1.6-9-.66-18.59-4.53-28.24-3.63-9.56-8.4-20.54-6.71-32.53,1.41-11.82,7.09-22.64,12.09-33.5s9.21-21.92,8.56-33c-.5-11.11-4.1-21.55-6.88-31.65-6.12-20.22-6.4-40.19-1.55-55.58a62.53,62.53,0,0,1,20.79-31.19,48.2,48.2,0,0,1,8.69-5.48,13,13,0,0,1,3.35-1.29c.17.32-4.52,2.09-11.22,7.77a63.19,63.19,0,0,0-19.36,30.85c-4.4,15-3.92,34.25,2.24,54.08,2.82,10,6.6,20.58,7.19,32.35.74,11.89-3.66,23.7-8.79,34.57s-10.55,21.49-11.88,32.49c-1.62,11,2.71,21.3,6.35,31.08a82.57,82.57,0,0,1,4.35,14.92,44.22,44.22,0,0,1,0,14.83,46.16,46.16,0,0,1-11.46,23.63c-5.57,6.06-12.09,9.44-16.89,13.33-5,3.73-8.22,8-9.64,12.11a15.83,15.83,0,0,0-.73,9.7C3790.33,1452.17,3791.08,1453.18,3790.94,1453.27Z"/></g><g id="Plants"><path class="cls-6" d="M1157.85,2687.78A16.83,16.83,0,0,1,1159,2685c.93-2,2.18-4.66,3.78-8.06a202.73,202.73,0,0,0,11.1-32.25c7.35-28.68,9.91-72.51-1-124.57-5-26.07-13.17-54-23.1-83.67-9.78-29.69-21.14-61.2-30.41-95.25s-16.42-70.87-15-109.53,12.87-77.41,25.49-115.9,25.6-76.24,29.5-114.14a173.9,173.9,0,0,0-20.92-105.42c-16.7-30.76-37.7-57.06-53.42-84.31a293,293,0,0,1-32.11-81.06,301.78,301.78,0,0,1-2-125.58c6.19-29.23,13.1-44.34,13.1-44.34a17.8,17.8,0,0,1-.78,2.94c-.65,2.1-1.53,4.92-2.65,8.5a323.59,323.59,0,0,0-8.14,33.2,305.82,305.82,0,0,0,3.25,124.63,292.12,292.12,0,0,0,32.22,80c15.68,26.93,36.78,53.12,53.8,84.24,17.6,30.78,26.07,69.13,21.58,107.56-3.92,38.55-17,76.48-29.6,115s-23.94,76.72-25.37,114.81,5.63,74.6,14.66,108.41,20.34,65.41,30,95.19,17.84,57.91,22.73,84.16c10.57,52.44,7.56,96.71-.32,125.49a186.32,186.32,0,0,1-11.88,32.21c-1.75,3.34-3.13,5.95-4.15,7.91A17.05,17.05,0,0,1,1157.85,2687.78Z"/><path class="cls-7" d="M1106.42,1838.75s-31.92-102.07,25.34-161.84a3.54,3.54,0,0,1,6.07,1.76C1140.88,1695.52,1144.7,1746.86,1106.42,1838.75Z"/><path class="cls-6" d="M1125.54,1710.92c.55.11-.37,7.29-2.15,18.83l-7.28,45c-2.67,16.83-5.09,32-7.14,45-1.75,11.53-2.8,18.68-3.39,18.63s-.46-7.3.58-19,3.11-27.71,6-45.32,6-33.47,8.45-44.89S1125,1710.82,1125.54,1710.92Z"/><path class="cls-7" d="M1143.92,2079.49s19.52-105.15,98.08-131.2a3.54,3.54,0,0,1,4.54,4.39C1241.36,1969,1220.73,2016.18,1143.92,2079.49Z"/><path class="cls-6" d="M1220.6,1975.45c.43.35-3.74,6.27-10.71,15.64l-27.49,36.39L1155,2063.93c-6.94,9.37-11.21,15.2-11.7,14.88s3-6.67,9.38-16.5,15.71-23,26.5-37.25,20.91-26.8,28.47-35.73S1220.17,1975.1,1220.6,1975.45Z"/><path class="cls-7" d="M1122.69,2343.28s-11.86-106.28,55.74-154a3.55,3.55,0,0,1,5.63,2.88C1183.84,2209.26,1177.8,2260.39,1122.69,2343.28Z"/><path class="cls-6" d="M1165.84,2221.45c.52.21-1.75,7.09-5.7,18.08-4.53,12.33-9.86,26.81-15.74,42.8s-11.1,30.49-15.6,42.83c-3.91,11-6.31,17.8-6.87,17.64s.94-7.25,4.18-18.51,8.34-26.6,14.54-43.34,12.23-31.72,16.86-42.46S1165.33,2221.24,1165.84,2221.45Z"/><path class="cls-7" d="M1181.86,2608.62s-8-106.65,61.23-151.94a3.54,3.54,0,0,1,5.52,3.08C1247.78,2476.87,1239.91,2527.75,1181.86,2608.62Z"/><path class="cls-6" d="M1229.36,2488.41c.5.23-2,7-6.35,17.86l-17.26,42.21-17.12,42.25c-4.31,10.83-6.94,17.56-7.5,17.38s1.19-7.21,4.84-18.35,9.29-26.29,16.08-42.79,13.36-31.26,18.37-41.83S1228.86,2488.18,1229.36,2488.41Z"/><path class="cls-7" d="M1060.55,1749.07s-94.8-49.51-96.66-132.26a3.54,3.54,0,0,1,5.53-3C983.51,1623.5,1022.55,1657.06,1060.55,1749.07Z"/><path class="cls-6" d="M983.57,1645.24c.46-.31,4.9,5.41,11.81,14.82l26.73,37,26.82,36.86c6.92,9.38,11.24,15.17,10.8,15.55s-5.5-4.83-13-13.81-17.41-21.77-27.84-36.26-19.48-27.86-25.81-37.69S983.11,1645.55,983.57,1645.24Z"/><path class="cls-7" d="M1162.34,1968.28s-97.63-43.66-104.51-126.14a3.54,3.54,0,0,1,5.33-3.39C1077.82,1847.62,1118.83,1878.75,1162.34,1968.28Z"/><path class="cls-6" d="M1079.2,1869.32c.44-.34,5.22,5.1,12.69,14.08,8.34,10.16,18.12,22.08,28.92,35.26l29,35.16c7.48,8.94,12.15,14.46,11.72,14.87s-5.77-4.49-13.83-13-18.71-20.68-30-34.51-21.15-26.62-28-36S1078.77,1869.65,1079.2,1869.32Z"/><path class="cls-7" d="M1106.17,2212.8s-67-83.33-35.6-159.9a3.54,3.54,0,0,1,6.29-.58C1085.87,2066.89,1108.2,2113.28,1106.17,2212.8Z"/><path class="cls-6" d="M1077.22,2086.83c.55-.1,2.32,6.92,4.89,18.32,2.79,12.84,6.06,27.91,9.68,44.56s7,31.69,9.81,44.52c2.59,11.37,4.23,18.4,3.67,18.57s-3.1-6.63-6.4-17.87-7.24-26.92-11-44.37-6.69-33.33-8.55-44.88S1076.68,2086.93,1077.22,2086.83Z"/><path class="cls-7" d="M1172.57,2500.54s-96.89-45.29-102.38-127.87a3.54,3.54,0,0,1,5.38-3.3C1090.08,2378.48,1130.56,2410.3,1172.57,2500.54Z"/><path class="cls-6" d="M1091.1,2400.2c.45-.33,5.13,5.19,12.45,14.29l28.33,35.74,28.41,35.65c7.33,9.07,11.9,14.66,11.47,15.06s-5.7-4.58-13.62-13.22-18.35-21-29.4-35-20.69-27-27.44-36.52S1090.66,2400.53,1091.1,2400.2Z"/><path class="cls-6" d="M1365.54,2080.06a8,8,0,0,1,.12,2.36c0,1.86-.1,4.11-.17,6.84-.28,6.42-.66,15.1-1.14,25.93-1.25,22.8-3,54.58-5.08,92.6v.09l0,.13c-6.92,38.7-26.63,81.6-53.1,123.24-19.42,30.68-39.78,58.57-57.34,84.51s-32.58,49.82-43,71.06a301,301,0,0,0-20.11,52.14c-1.7,6.39-3,11.37-3.72,14.78s-1.28,5.17-1.42,5.15.09-1.85.63-5.31,1.52-8.53,3-15a275.58,275.58,0,0,1,19.07-53c10.16-21.57,24.94-45.84,42.48-71.88s37.68-54.06,57-84.58c26.34-41.44,45.94-83.68,53.12-121.76l0,.22c2.67-38,4.9-69.74,6.5-92.52.87-10.8,1.57-19.46,2.09-25.87.28-2.72.5-5,.69-6.8A8.05,8.05,0,0,1,1365.54,2080.06Z"/><path class="cls-7" d="M1307.85,2323.29s41-98.76-10.58-163.46a3.53,3.53,0,0,0-6.2,1.19C1286.5,2177.53,1278.05,2228.32,1307.85,2323.29Z"/><path class="cls-6" d="M1300.38,2194.26c.55-.06,1.81,7.08,3.25,18.69s3.08,27.67,4.35,45.47,1.89,34,1.88,45.68-.63,19-1.15,19-1-7.22-1.68-18.86c-.87-13.11-1.9-28.49-3-45.49s-2.26-32.38-3.17-45.49C1300.09,2201.55,1299.83,2194.32,1300.38,2194.26Z"/><g class="cls-12"><path d="M1307.85,2323.29s41-98.76-10.58-163.46a3.53,3.53,0,0,0-6.2,1.19C1286.5,2177.53,1278.05,2228.32,1307.85,2323.29Z"/></g><path class="cls-7" d="M1180.77,2561.29s32.88-101.76-23.8-162.07a3.55,3.55,0,0,0-6.09,1.7C1147.66,2417.74,1143.36,2469.05,1180.77,2561.29Z"/><path class="cls-6" d="M1162.86,2433.29c.54-.1,2.37,6.91,4.75,18.36s5.32,27.34,8,45,4.63,33.71,5.57,45.38.91,18.94.39,19-1.56-7.12-3.2-18.66c-1.93-13-4.21-28.24-6.72-45.09s-4.88-32.1-6.85-45.09C1163.16,2440.58,1162.31,2433.39,1162.86,2433.29Z"/><g class="cls-12"><path d="M1180.77,2561.29s32.88-101.76-23.8-162.07a3.55,3.55,0,0,0-6.09,1.7C1147.66,2417.74,1143.36,2469.05,1180.77,2561.29Z"/></g><path class="cls-7" d="M1360.11,2202.59s87.61-61.33,78.77-143.62a3.54,3.54,0,0,0-5.88-2.32C1420.29,2068.13,1385.91,2106.45,1360.11,2202.59Z"/><g class="cls-12"><path d="M1360.11,2202.59s87.61-61.33,78.77-143.62a3.54,3.54,0,0,0-5.88-2.32C1420.29,2068.13,1385.91,2106.45,1360.11,2202.59Z"/></g><path class="cls-6" d="M1423,2089.69c.49.25-2.28,6.95-7.28,17.52s-12.25,25-20.73,40.71-16.63,29.67-22.92,39.55-10.7,15.66-11.13,15.38,3-6.62,8.7-16.82l21.83-40,21.73-40.1C1418.87,2095.69,1422.54,2089.45,1423,2089.69Z"/><path class="cls-7" d="M1216.1,2460.4s105.67-16.47,134-94.25a3.54,3.54,0,0,0-4.25-4.67C1329.35,2366.19,1281.6,2385.45,1216.1,2460.4Z"/><g class="cls-12"><path d="M1216.1,2460.4s105.67-16.47,134-94.25a3.54,3.54,0,0,0-4.25-4.67C1329.35,2366.19,1281.6,2385.45,1216.1,2460.4Z"/></g><path class="cls-6" d="M1322.31,2386.76c.34.44-5.1,5.23-14.25,12.52s-22,17-36.54,27.42-28,19.31-38,25.41-16.5,9.35-16.76,8.9,5.65-4.6,15.21-11.27l37.23-26.3,37.17-26.43C1315.94,2390.31,1322,2386.32,1322.31,2386.76Z"/><polygon class="cls-14" points="1115.29 2654.87 1084.46 2862.34 1276.56 2862.34 1251.65 2654.87 1115.29 2654.87"/><path class="cls-6" d="M1259.33,2719.16c0,1.1-34.68,2-77.45,2s-77.47-.9-77.47-2,34.68-2,77.47-2S1259.33,2718.06,1259.33,2719.16Z"/><path class="cls-6" d="M1263.14,2735.67c0,1.1-35.82,2-80,2s-80-.9-80-2,35.82-2,80-2S1263.14,2734.56,1263.14,2735.67Z"/><path class="cls-7" d="M4683.5,2584.65c-13.7,3.35-25.1,13.53-32.05,25.81s-9.82,26.49-10.62,40.58c-1.55,27.24,9,56.83,21.71,81,25.88-15.79,36.93-49.17,41.47-66.46,7.17-27.32,3.55-81.06-20.51-80.92"/><path class="cls-7" d="M4628.82,2771.67c6.19-14.5,2.74-32.14-7.08-44.46s-25.28-19.47-41-20.94c-7.26-.68-15.35.08-20.46,5.28-4.78,4.85-5.67,12.62-3.58,19.1s6.72,11.85,11.79,16.4c17.41,15.58,37.11,27.46,60.3,24.62"/><path class="cls-6" d="M4643.65,2858.57c.14,0,.16-2,.14-5.62-.05-4-.11-9.13-.18-15.31-.37-12.83-.52-31.15-7.2-50s-17.71-33.79-27.84-42a65.08,65.08,0,0,0-12.82-8.52,39,39,0,0,0-3.83-1.7,4.1,4.1,0,0,0-1.39-.44c-.23.41,7.48,3.2,17.13,11.72,9.71,8.32,20.43,23.07,26.88,41.59s6.95,36.61,7.67,49.43c.3,6.46.54,11.69.81,15.3S4643.52,2858.58,4643.65,2858.57Z"/><path class="cls-6" d="M4682.64,2625.81a12.1,12.1,0,0,0-.68,2.35c-.41,1.77-.94,4-1.59,6.82-1.34,5.93-3.18,14.54-5.36,25.19-4.36,21.3-10,50.81-15.44,83.53s-9.73,62.47-12.52,84c-1.39,10.78-2.45,19.51-3.1,25.55-.29,2.86-.53,5.17-.71,7a11.51,11.51,0,0,0-.12,2.44,11.15,11.15,0,0,0,.51-2.39c.28-1.79.64-4.08,1.08-6.92.92-6.26,2.18-14.89,3.73-25.46,3.14-21.51,7.63-51.19,13.08-83.91s10.85-62.23,14.86-83.58c2-10.5,3.58-19.09,4.74-25.3.51-2.83.91-5.12,1.23-6.9A10.71,10.71,0,0,0,4682.64,2625.81Z"/><path class="cls-7" d="M4665,2794.61c10.66-31.47,37.46-57,69.42-66.06,8.14-2.31,18.36-3,23.59,3.67s2.12,16.48-2.24,23.75c-18.16,30.22-55.94,47.29-90.62,40.93"/><path class="cls-6" d="M4726.41,2753.28c0-.13-1.86.32-5.13,1.26a49.15,49.15,0,0,0-5.89,2,82,82,0,0,0-7.61,3.13,91,91,0,0,0-8.88,4.57,102.42,102.42,0,0,0-9.67,6.17,116.51,116.51,0,0,0-19.39,17.7,114.46,114.46,0,0,0-14.53,21.88,101,101,0,0,0-4.53,10.54,86.46,86.46,0,0,0-3,9.52,80.21,80.21,0,0,0-1.76,8,46.89,46.89,0,0,0-.87,6.15c-.33,3.39-.44,5.26-.31,5.28.45.05,1-7.49,4.29-19.09a90,90,0,0,1,3.2-9.31,104.34,104.34,0,0,1,4.63-10.3,118.07,118.07,0,0,1,14.4-21.42,121.06,121.06,0,0,1,19-17.52,110.6,110.6,0,0,1,9.42-6.23c3-1.91,6-3.34,8.65-4.72C4719.23,2755.62,4726.54,2753.69,4726.41,2753.28Z"/></g></svg>