<svg xmlns="http://www.w3.org/2000/svg" xmlns:xlink="http://www.w3.org/1999/xlink" viewBox="0 0 5700 3000"><defs><style>.cls-1{fill:none;}.cls-2{isolation:isolate;}.cls-3{fill:#f4f7fa;}.cls-4{fill:#26264f;}.cls-5{fill:url(#linear-gradient);}.cls-6{fill:url(#linear-gradient-2);}.cls-46,.cls-51,.cls-7,.cls-8{fill:#fff;}.cls-8{opacity:0.48;}.cls-50,.cls-51,.cls-8{mix-blend-mode:soft-light;}.cls-9{fill:url(#linear-gradient-3);}.cls-10{fill:url(#linear-gradient-4);}.cls-11{fill:url(#linear-gradient-5);}.cls-12,.cls-13{fill:#d8dee8;}.cls-13,.cls-27,.cls-46{opacity:0.3;}.cls-13,.cls-27,.cls-40{mix-blend-mode:multiply;}.cls-14{fill:url(#linear-gradient-6);}.cls-15{fill:url(#linear-gradient-7);}.cls-16{fill:url(#linear-gradient-8);}.cls-17{fill:url(#linear-gradient-9);}.cls-18{fill:url(#linear-gradient-10);}.cls-19{fill:url(#linear-gradient-11);}.cls-20{fill:url(#linear-gradient-12);}.cls-21{fill:url(#linear-gradient-13);}.cls-22,.cls-27{fill:#a2a7ae;}.cls-23{clip-path:url(#clip-path);}.cls-24{fill:url(#linear-gradient-14);}.cls-25{fill:url(#linear-gradient-15);}.cls-26{fill:#97a6b7;}.cls-28{fill:url(#linear-gradient-16);}.cls-29{fill:url(#linear-gradient-17);}.cls-30{fill:url(#linear-gradient-18);}.cls-31{fill:url(#linear-gradient-19);}.cls-32{fill:url(#linear-gradient-20);}.cls-33{fill:url(#linear-gradient-21);}.cls-34{fill:url(#linear-gradient-22);}.cls-35{fill:url(#linear-gradient-23);}.cls-36{fill:url(#linear-gradient-24);}.cls-37{fill:url(#linear-gradient-25);}.cls-38{fill:url(#linear-gradient-26);}.cls-39{fill:url(#linear-gradient-27);}.cls-40{opacity:0.1;fill:url(#linear-gradient-28);}.cls-41{fill:url(#linear-gradient-29);}.cls-42{fill:url(#linear-gradient-30);}.cls-43{fill:url(#linear-gradient-31);}.cls-44{fill:#fc77ae;}.cls-45{fill:url(#linear-gradient-32);}.cls-47{fill:url(#linear-gradient-33);}.cls-48{fill:url(#linear-gradient-34);}.cls-49{fill:url(#linear-gradient-35);}.cls-50,.cls-51,.cls-55{opacity:0.5;}.cls-52{fill:url(#linear-gradient-36);}.cls-53{fill:url(#linear-gradient-37);}.cls-54{fill:url(#linear-gradient-38);}.cls-56{fill:url(#linear-gradient-39);}</style><linearGradient id="linear-gradient" x1="1453.32" y1="1786.82" x2="3327.09" y2="1786.82" gradientUnits="userSpaceOnUse"><stop offset="0" stop-color="#444b8c"/><stop offset="1" stop-color="#26264f"/></linearGradient><linearGradient id="linear-gradient-2" x1="1530.28" y1="1774.51" x2="3263.73" y2="1774.51" gradientUnits="userSpaceOnUse"><stop offset="0" stop-color="#e38ddd"/><stop offset="1" stop-color="#9571f6"/></linearGradient><linearGradient id="linear-gradient-3" x1="1453.32" y1="2507.29" x2="4276.08" y2="2507.29" xlink:href="#linear-gradient"/><linearGradient id="linear-gradient-4" x1="1636.79" y1="1326.93" x2="3778.5" y2="1326.93" gradientUnits="userSpaceOnUse"><stop offset="0" stop-color="#ab316d"/><stop offset="1" stop-color="#792d3d"/></linearGradient><linearGradient id="linear-gradient-5" x1="2898.98" y1="408.25" x2="2005.13" y2="1869.5" gradientUnits="userSpaceOnUse"><stop offset="0" stop-color="#ff9085"/><stop offset="1" stop-color="#fb6fbb"/></linearGradient><linearGradient id="linear-gradient-6" x1="2293.73" y1="762.72" x2="1978.84" y2="3439.28" gradientUnits="userSpaceOnUse"><stop offset="0" stop-color="#f36f56"/><stop offset="1" stop-color="#ffc444"/></linearGradient><linearGradient id="linear-gradient-7" x1="2222.81" y1="1092.33" x2="2004.84" y2="2945.11" gradientUnits="userSpaceOnUse"><stop offset="0" stop-color="#ffc444"/><stop offset="1" stop-color="#f36f56"/></linearGradient><linearGradient id="linear-gradient-8" x1="2350.52" y1="1178.27" x2="2129.45" y2="3057.33" xlink:href="#linear-gradient-7"/><linearGradient id="linear-gradient-9" x1="1432.17" y1="437.25" x2="1002.05" y2="959.42" gradientTransform="translate(953.95 1152.43) rotate(-19.24)" xlink:href="#linear-gradient-6"/><linearGradient id="linear-gradient-10" x1="4848.13" y1="1286.63" x2="4418.01" y2="1808.8" gradientTransform="matrix(0.8, 0.6, -0.6, 0.8, -545.93, -2817.02)" xlink:href="#linear-gradient-6"/><linearGradient id="linear-gradient-11" x1="7590.34" y1="-2333.62" x2="7160.22" y2="-1811.45" gradientTransform="translate(3582.97 -6710.63) rotate(114.13)" xlink:href="#linear-gradient-6"/><linearGradient id="linear-gradient-12" x1="4666.93" y1="1532.1" x2="5022.18" y2="1532.1" gradientTransform="matrix(-1, 0, 0, 1, 8338.52, 0)" gradientUnits="userSpaceOnUse"><stop offset="0" stop-color="#aa80f9"/><stop offset="1" stop-color="#6165d7"/></linearGradient><linearGradient id="linear-gradient-13" x1="4666.93" y1="1532.07" x2="4997.69" y2="1532.07" xlink:href="#linear-gradient-12"/><clipPath id="clip-path"><path class="cls-1" d="M2963.32,2352.26l153.89-3.38,149.62,91.41c3.72,2.28,2.42,9-1.77,9.05l-137.89,3Z"/></clipPath><linearGradient id="linear-gradient-14" x1="4175.51" y1="1708.49" x2="4353.43" y2="1708.49" gradientTransform="matrix(-1, 0, 0, 1, 8338.52, 0)" gradientUnits="userSpaceOnUse"><stop offset="0" stop-color="#6b3976"/><stop offset="1" stop-color="#311944"/></linearGradient><linearGradient id="linear-gradient-15" x1="4361.23" y1="1717.84" x2="5128.48" y2="2033.35" gradientTransform="matrix(-1, 0, 0, 1, 8338.52, 0)" xlink:href="#linear-gradient-5"/><linearGradient id="linear-gradient-16" x1="1894.98" y1="3508.22" x2="1993.22" y2="3508.22" gradientTransform="matrix(0.99, 0.11, -0.11, 0.99, 1524.35, -1356.66)" xlink:href="#linear-gradient"/><linearGradient id="linear-gradient-17" x1="71.07" y1="2223.69" x2="104.83" y2="2153.82" gradientTransform="matrix(1, 0.02, -0.02, 1, 3063.69, 132.78)" xlink:href="#linear-gradient-7"/><linearGradient id="linear-gradient-18" x1="4102.19" y1="1739.78" x2="4403.44" y2="1358.33" gradientTransform="matrix(-0.98, 0.17, 0.17, 0.98, 7318.21, -182.68)" xlink:href="#linear-gradient-14"/><linearGradient id="linear-gradient-19" x1="1179.23" y1="2859.83" x2="1281.68" y2="2859.83" gradientTransform="translate(1827.66 -414.01) rotate(-1.88)" xlink:href="#linear-gradient"/><linearGradient id="linear-gradient-20" x1="-306.78" y1="1912.33" x2="-267.82" y2="1831.71" gradientTransform="translate(3301.16 477.36) rotate(-5.69)" xlink:href="#linear-gradient-7"/><linearGradient id="linear-gradient-21" x1="-1114.04" y1="1979.3" x2="-773.86" y2="2459.83" gradientTransform="translate(4584.15)" xlink:href="#linear-gradient-14"/><linearGradient id="linear-gradient-22" x1="3458.83" y1="648.26" x2="3468.3" y2="395.92" gradientTransform="matrix(-0.92, 0.4, 0.4, 0.92, 6692.63, -611.17)" xlink:href="#linear-gradient-7"/><linearGradient id="linear-gradient-23" x1="1458.76" y1="1597.44" x2="1388.03" y2="1417.81" gradientTransform="translate(2389.02 -376.79) rotate(3.04)" gradientUnits="userSpaceOnUse"><stop offset="0" stop-color="#311944"/><stop offset="1" stop-color="#6b3976"/></linearGradient><linearGradient id="linear-gradient-24" x1="1981.16" y1="1482.32" x2="1978.21" y2="1720.3" gradientTransform="matrix(-0.99, -0.11, -0.11, 0.99, 5852.68, -81.56)" xlink:href="#linear-gradient-7"/><linearGradient id="linear-gradient-25" x1="4790.09" y1="2397.27" x2="4999.19" y2="2397.27" xlink:href="#linear-gradient-14"/><linearGradient id="linear-gradient-26" x1="4823.12" y1="2393.56" x2="4947.46" y2="2393.56" gradientTransform="matrix(-1, 0, 0, 1, 8338.52, 0)" xlink:href="#linear-gradient-5"/><linearGradient id="linear-gradient-27" x1="3103.36" y1="1380.1" x2="3009.47" y2="2361.06" gradientTransform="translate(608.58 -353.3) rotate(6.96)" xlink:href="#linear-gradient"/><linearGradient id="linear-gradient-28" x1="-152.12" y1="-1512.73" x2="-336.65" y2="-726.05" gradientTransform="translate(4493.68 120.94) rotate(6.96)" xlink:href="#linear-gradient"/><linearGradient id="linear-gradient-29" x1="4341.32" y1="1581.63" x2="4771.95" y2="1581.63" xlink:href="#linear-gradient-12"/><linearGradient id="linear-gradient-30" x1="-3004.81" y1="1636.65" x2="-2900.44" y2="2274.93" gradientTransform="translate(6532.73)" xlink:href="#linear-gradient-7"/><linearGradient id="linear-gradient-31" x1="4093.53" y1="2177.67" x2="4752.84" y2="2177.67" gradientTransform="matrix(-1, 0, 0, 1, 8338.52, 0)" xlink:href="#linear-gradient-5"/><linearGradient id="linear-gradient-32" x1="4154.28" y1="2173.62" x2="4655.8" y2="2173.62" gradientTransform="matrix(-1, 0, 0, 1, 8338.52, 0)" xlink:href="#linear-gradient-5"/><linearGradient id="linear-gradient-33" x1="4110.68" y1="2173.9" x2="4712.9" y2="2173.9" xlink:href="#linear-gradient-14"/><linearGradient id="linear-gradient-34" x1="4897.75" y1="1751.26" x2="5513.67" y2="1276.72" gradientTransform="matrix(-1, -0.07, -0.07, 1, 8476.05, 358.92)" xlink:href="#linear-gradient-7"/><linearGradient id="linear-gradient-35" x1="2604.13" y1="814.83" x2="3161.36" y2="309.15" gradientTransform="matrix(1, 0, 0, 1, 0, 0)" xlink:href="#linear-gradient-12"/><linearGradient id="linear-gradient-36" x1="3489.05" y1="803.41" x2="4006.27" y2="334.05" gradientTransform="matrix(1, 0, 0, 1, 0, 0)" xlink:href="#linear-gradient-12"/><linearGradient id="linear-gradient-37" x1="1613" y1="817.31" x2="2216.82" y2="269.36" gradientTransform="matrix(1, 0, 0, 1, 0, 0)" xlink:href="#linear-gradient-12"/><linearGradient id="linear-gradient-38" x1="1454.41" y1="2319.62" x2="2361.26" y2="2319.62" xlink:href="#linear-gradient-5"/><linearGradient id="linear-gradient-39" x1="2761.48" y1="1083.36" x2="3464.59" y2="1083.36" gradientTransform="translate(-578.17 4558.21) rotate(-56.8)" xlink:href="#linear-gradient-12"/></defs><g class="cls-2"><g id="Illustration"><path class="cls-3" d="M4189.2,1259c-55.33-366.16-99.74-619.21-299.53-757.88-337-233.89-713.34,145.81-1190.7-109-235-125.44-243.85-270.88-442.9-290.19C1903.9,67.8,1615.49,492.75,1590.5,529.2c-151.87,221.42-202.59,491.42-141,748.83,40,167.2,67,340.23,59.59,512-12.91,299-5.48,578.1,281.5,756.41,256.24,159.22,578.72,299.64,886.38,324.23,209.07,16.72,443.54-10.33,645-65.37C4349,2524.83,4265.27,1762.46,4189.2,1259Z"/><path class="cls-4" d="M4276.08,2486.77,1453.32,2462.7v71.2c0,19.32,12.31,35.75,29,38.68l798.19,140.19a112.22,112.22,0,0,0,28.64,1.31L4245.4,2554.24c17.29-1.42,30.68-17.9,30.68-37.76Z"/><path class="cls-4" d="M3251.71,2372.68l-1769.2,130.23c-31.66,2.33-57.4-22.43-57.4-55.31V1130.12c0-32.88,25.74-59.54,57.4-59.54h1769.2c26.08,0,47.17,24.1,47.17,53.83v1191C3298.88,2345.1,3277.79,2370.76,3251.71,2372.68Z"/><path class="cls-5" d="M3279.92,2372.68l-1769.2,130.23c-31.66,2.33-57.4-22.43-57.4-55.31V1130.12c0-32.88,25.74-59.54,57.4-59.54h1769.2c26.08,0,47.17,24.1,47.17,53.83v1191C3327.09,2345.1,3306,2370.76,3279.92,2372.68Z"/><path class="cls-6" d="M3224.81,2288.71,1577,2401.84c-25.76,1.77-46.7-18.56-46.7-45.4V1203c0-26.85,20.94-48.7,46.7-48.81l1647.83-7.11c21.51-.09,38.92,19.66,38.92,44.11V2241.77C3263.73,2266.22,3246.32,2287.23,3224.81,2288.71Z"/><path class="cls-7" d="M2457.81,1106.62c0,12.24-9.11,22.19-20.36,22.23s-20.39-9.88-20.39-22.15,9.14-22.23,20.39-22.23S2457.81,1094.38,2457.81,1106.62Z"/><path class="cls-8" d="M1510.72,2502.91,3271,2373.34l9-.66c12-.88,22.85-6.8,31.16-15.77-126.67-6.94-205.34-51.89-256.1-98.34-101.92-93.27-84.24-185.26-194.15-246.59-137.09-76.49-244.88,20.44-348.91-75.2-63.06-58-32.1-101.21-109.7-187.86-85.95-96-141.91-63.7-228.29-150.07-109.22-109.21-54.6-194.18-148.68-272.59-114.13-95.12-237.22-7.08-345.87-98.3-46.86-39.34-72.57-96.54-86-157.38h-82.66c-31.66,0-57.4,26.66-57.4,59.54V2447.6C1453.32,2480.48,1479.06,2505.24,1510.72,2502.91Z"/><path class="cls-9" d="M3350.44,2365.45,1453.32,2502.54l827.18,145.28a112.22,112.22,0,0,0,28.64,1.32l1966.94-162.37-895.47-120.39A147.77,147.77,0,0,0,3350.44,2365.45Z"/><polygon class="cls-4" points="1730.14 2503.72 3309.55 2387.89 3798.36 2453.07 2232.56 2576.89 1730.14 2503.72"/><path class="cls-10" d="M3778.5,679V1960.81c0,34.38-22.49,36.92-51.2,38.35l-712.88,45-1293.1,81.69-17.25,1.1c-37.11,1.88-67.31-28.45-67.28-67.72l.87-1353.64,0-110.68c0-39.24,30-69.74,67.14-68.11l2.42.11,481.26,20.85,1538.88,66.75C3756.05,615.79,3778.5,644.66,3778.5,679Z"/><path class="cls-7" d="M3805.76,781.65V1959.59c0,34.46-22.46,63.53-51.21,65l-736.3,37-1287.53,64.63a62.25,62.25,0,0,1-9.49-.25c-32.59-3.29-58-31.73-58-67.63L1664,712.6V702.17l575,21.3L3777.6,780.59Z"/><path class="cls-11" d="M3805.76,675.45v106.2l-28-.91L2239.13,731.16,1664,712.6V702.17l.38-110.89c0-30,17.79-55,42.71-64.32a62.83,62.83,0,0,1,24.83-3.91l453.86,19.7,1568.83,68.14C3783.28,612.13,3805.76,641,3805.76,675.45Z"/><path class="cls-7" d="M1820.45,618.34c0,17.31-13.24,30.87-29.57,30.28s-29.63-15.16-29.62-32.54,13.31-30.93,29.66-30.28S1820.46,601,1820.45,618.34Z"/><polygon class="cls-12" points="3663.87 1264.28 1849.9 1260.33 1849.9 868.21 3663.87 915.44 3663.87 1264.28"/><polygon class="cls-12" points="2626.2 1954.74 1849.9 1987.4 1849.9 1415.55 2626.2 1409.88 2626.2 1954.74"/><polygon class="cls-12" points="3663.87 1911.09 2786.14 1947.98 2786.14 1408.73 3663.87 1402.37 3663.87 1911.09"/><path class="cls-13" d="M3018.62,2061.52l-1287.71,64.63a62.28,62.28,0,0,1-9.59-.25l-17.25,1.1c-37.11,1.88-67.31-28.45-67.28-67.72l.87-1353.64,0-110.68c0-39.24,30-69.74,67.14-68.11l2.42.11a62.41,62.41,0,0,1,24.75-3.91l453.82,19.7c.94,1.67,1.82,3.35,2.69,5.06,24.22,45.94,44.87,104.49,50.8,175.66.2,2.55.4,5.1.53,7.69,5.19,76.72-6.79,167.73-49.41,273.05-117.73,291.13,13.22,580.4,191,695.39q8.24,5.34,16.61,10.13c54.66,31.52,113.05,46.59,169.54,40.36,102.84-11.34,206.41,12.4,289.44,68.8q15.93,10.83,30.81,23.24c58.77,49.1,104.09,116.82,126.67,202.08Q3016.71,2052.76,3018.62,2061.52Z"/><path class="cls-14" d="M2511.37,1227.9a17,17,0,0,0-16.86-3.06L2107,1366.06a17,17,0,0,0-5.06,29l65.3,54.39-.34.25c-2.19,1.71-4.35,3.52-6.46,5.37q-58.39,51.27-116.77,102.56-66.39,58.33-132.75,116.7a17,17,0,0,0,.31,25.77q111.54,93.64,222.27,186.58a17.48,17.48,0,0,0,1.88,1.35h0s24.84,22,49.68-10.47c-6.88-1.81-14.19-4-19.38-5.68q33.36-52.82,66.83-105.53,52.39-82.44,105.1-164.6c1.48-2.27,2.84-4.59,4.17-6.92l68.85,57.35a12.65,12.65,0,0,0,1.58,1.15,17,17,0,0,0,4.33,2c5.32,1.84,14.34,2.94,27.6-1.94,23.22-8.56,23.18-19,24.06-23.39.5-2.54-13.94-4.84-26.33-6.34L2517,1244.09A17,17,0,0,0,2511.37,1227.9Z"/><path class="cls-15" d="M2361.54,1424.37c-38.59-32.16-110.77-24.31-165.31,16.53-2.19,1.72-4.36,3.52-6.47,5.37q-58.4,51.27-116.77,102.56-66.39,58.34-132.74,116.7a17,17,0,0,0,.31,25.78l222.26,186.57a17,17,0,0,0,25.3-3.93q36.78-58.26,73.71-116.39,52.38-82.44,105.09-164.59c1.52-2.34,2.93-4.72,4.29-7.13C2403.1,1526.54,2400,1456.31,2361.54,1424.37Z"/><path class="cls-16" d="M2540.7,1219.1a17,17,0,0,0-16.87-3.06l-387.51,141.22a17,17,0,0,0-5.05,29L2440,1643.39a17,17,0,0,0,27.52-9.75l78.84-398.35A17,17,0,0,0,2540.7,1219.1Z"/><path class="cls-17" d="M2479.91,1084.19c8.4,48.64,9.82,89.15,3.48,91.48-6.42,2.12-30.52-30.48-54.19-73.78s-26.26-87.06-4.6-94.68S2471.52,1035.61,2479.91,1084.19Z"/><path class="cls-18" d="M2655,1129.59c-35.78,34-68.68,57.68-74.14,53.71-5.33-4.17,8.39-42.31,31.26-86s57.81-70.18,76.17-56.41S2690.71,1095.63,2655,1129.59Z"/><path class="cls-19" d="M2654.75,1316.83c-41.12-27.29-71.54-54.08-68.89-60.29,2.87-6.11,43.11-1.25,90.85,11.28s81.32,40.69,72,61.67S2695.83,1344.09,2654.75,1316.83Z"/><path class="cls-20" d="M3338.06,1623.35c10.5,17.56,27.53,39.52,49.15,40.23,42.14,1.39,74.72-78.82,85.79-106.08,48.21-118.68,22.48-211,72.82-255.56,28.88-25.54,61.62-29.67,61.62-29.67,2.27-.28,24.9-2.71,34.1,2,124.44,63.2-168,823.85-325.21,380.51C3342.57,1642.3,3332.93,1632.46,3338.06,1623.35Z"/><path class="cls-21" d="M3499.66,1632.46c3.33-36.65-13.33-76.63,0-109.94,10-23.33,46.64-36.65,53.3-70,6.38-51-17.7-98.92-8.15-149.64.34-.32.65-.66,1-1,28.88-25.54,61.62-29.67,61.62-29.67,2.27-.28,24.9-2.71,34.1,2,118.23,60-139.8,749.59-300.71,438.1,38-25.6,86.69-34.48,128.84-53.21C3479.67,1652.45,3496.33,1645.79,3499.66,1632.46Z"/><path class="cls-22" d="M3043.74,2357.47a15.07,15.07,0,0,1-14.07-20.35L3166.87,1973a107.53,107.53,0,0,1,111.22-69.06l150.67,15a15,15,0,1,1-3,29.92l-150.66-15a77.51,77.51,0,0,0-80.11,49.74l-137.2,364.15A15,15,0,0,1,3043.74,2357.47Z"/><g class="cls-2"><g class="cls-23"><path class="cls-22" d="M3281.06,2449l-148.26-90.58a60.11,60.11,0,0,0-32.82-9.15l-118.28,2.6c-4.53.1-5.85,8.06-1.76,10.56l131.63,80.42a60.14,60.14,0,0,0,32.83,9.15l136.66-3Z"/></g></g><path class="cls-24" d="M4000.14,1912a14.81,14.81,0,0,1-2.55-.22,15,15,0,0,1-12.29-17.35l55.9-327.28c5.05-29.53,16.12-50.25,31.19-58.36a30.09,30.09,0,0,1,26.91-1.11l54.72,24.06a15,15,0,0,1-12.11,27.53l-54.72-24.06c-2.87.48-11.8,10.4-16.35,37l-55.9,327.29A15,15,0,0,1,4000.14,1912Z"/><path class="cls-25" d="M3383.37,2055.91c108.48,33.07,248.39,30.63,341.45,36.34s102.59,2.84,154.34-32,67.53-67.92,83.21-129.59c33.61-132.25,51.17-282.73,71.52-420.54,3.16-21.39,89.54-32.74-1.24-36.14-13.29-.5-218.43,14.31-226,14.84-59.56,4.14-50.83,12.67-54.78,35-22.2,125.38-41.41,277.6-63.61,394.89-13.84,73.17-45.53,101.1-108.84,110.47-60.22,8.91-114.2-19.05-172.47-34.71-17.47-4.69-36.41,5.6-42.6,22.22S3358.32,2048,3383.37,2055.91Z"/><path class="cls-26" d="M3383.37,2055.91c108.48,33.07,282.34,46.49,375.4,52.19s75.84-5.81,127.59-40.68,60.33-75.12,76-136.79c33.61-132.25,51.17-282.73,71.52-420.54,3.16-21.39,89.54-32.74-1.24-36.14-13.29-.5-218.43,14.31-226,14.84-59.56,4.14-50.83,12.67-54.78,35-22.2,125.38-41.41,277.6-63.61,394.89-13.84,73.17-45.53,101.1-108.84,110.47-60.22,8.91-114.2-19.05-172.47-34.71-17.47-4.69-36.41,5.6-42.6,22.22S3358.32,2048,3383.37,2055.91Z"/><path class="cls-26" d="M3738,2101.8c18.7,2.32,43.77,6.32,63.26,6.3,50.31,0,91.44-12.35,131.08-47.87s67.21-68.41,81.08-130.3c29.76-132.73,52-285.47,70-422.55,3.21-24.4-8.9-33.29-27.46-34s-34,9.52-37.63,33.27c-20.47,133.48-39.42,290.21-69.87,417.18-19,79.21-69.62,111.67-138.86,118.93-20,2.1-45.52-6.77-64.95-5.69s-29.51,12.51-31.21,29.63S3719.34,2099.47,3738,2101.8Z"/><path class="cls-27" d="M3934,2022.45c43.62-18.45,53.68-68.78,60.39-112.4,8.39-60.39-18.45-120.79,3.36-177.83,6.71-18.45,30.2-33.55,35.23-52,12.67-63.37-19.55-157.45,22.34-206.88h.72c18.56.75,30.67,9.64,27.46,34-18,137.08-40.24,289.82-70,422.55-13.87,61.89-41.43,94.78-81.08,130.3s-80.77,47.83-131.08,47.87c-1.58,0-3.2,0-4.84-.08.54-.56,1.08-1.1,1.61-1.68C3836.66,2064.4,3882,2042.59,3934,2022.45Z"/><path class="cls-7" d="M3913.17,1280.88c-33.28-9.36-108.13-18.59-167.85-22-85.19-4.81-127.78-7.22-158,13.06-69.71,46.86-15.74,155-44.28,423-12.12,113.93-17.59,106.56,9.74,147.11,55.53,82.39,211.51,89.14,283,17.71,37.77-37.75,92.74,33.44,93.65-9.64C3933,1680.16,4018.9,1528.94,3913.17,1280.88Z"/><path class="cls-28" d="M3099.34,2346.37c6.39,8,7.32,17.66-1.63,23.7s-21.95-3-33.39-5.18c-12.26-2.35-29.65-1.9-42.25-8.55-5.09-2.68-16.51-6.11-14.59-14.55,1.34-5.93,18.67-4.94,24.26-5.45,7.93-.73,24.49-3.46,30.56-2.92C3077.55,2334.75,3090.89,2335.82,3099.34,2346.37Z"/><path class="cls-29" d="M3092.53,2306.54c-6.25,10.77-13.44,20.94-19.79,31.65,5.88,7.26,13.28,9.51,22.41,9.61,7.87-10.51,16.8-20.09,25.21-30.16C3111.06,2314,3101.76,2310.36,3092.53,2306.54Z"/><path class="cls-30" d="M3791.29,1927.89c65.95,112.93-27.58,41.36-107.75,36.62-84.44-5-297.8-18.26-369.62,79.07-53.49,72.49-44.86,187.81-130.91,256.1-15.15,12-38.69,26.06-55.33,33.13-18.62-9.06-33.2-23.71-53.53-29.1,8.37-128.13,28.55-208.74,98.89-325.18,17-28.15,90.11-106.83,129.23-127.62C3408,1794.72,3730.46,1823.75,3791.29,1927.89Z"/><path class="cls-31" d="M3198.12,2393.67c6.93,8.61,5.78,18.92-3.23,25.73s-23.47-.62-35.6-2c-13-1.51-30.75.87-44.23-5.11-5.45-2.41-16.95-5-14.88-13.91,1.45-6.28,19.56-6.76,25.56-7.92,8.52-1.63,26.53-5.83,32.92-6C3174.73,2384.15,3189,2382.31,3198.12,2393.67Z"/><path class="cls-32" d="M3196,2350.57c-7.49,13.1-16.14,25.45-23.59,38.57,6,7.4,14.22,8.7,23.32,7.94,9.7-12.53,19.94-24.64,29.51-37.27C3215.49,2356.84,3205.73,2353.84,3196,2350.57Z"/><path class="cls-33" d="M3888.47,1797c57.05,41.53,32.94,85.14,27.92,130.14-11.26,101-186.85,128.27-248.6,130.81-75.14,3.1-179.45-50.82-223.85-30.59-69,31.44-66.24,241.38-153.91,315.22-15.06,12.68-36.22,30.61-55.24,41.1-18.86-9.52-37.33-18.66-55.09-30.81,14.14-60.93,30.58-133.32,47.31-190.57,23.61-80.81,32.73-134.71,76.71-211.6,21.19-37,62.78-87.69,113.78-113.47,31.81-16.07,137-15.59,167.11-19.93C3652.48,1807.55,3849,1768.3,3888.47,1797Z"/><path class="cls-34" d="M3739,1165.84a294.12,294.12,0,0,0,5.27,59c3.05,15.72,5.25,19.78,8.06,23.07,4.22,5,10.63,9.12,46.82,18.09,19.69,4.88,22.22,4.75,22.66,6.71,2.12,9.53-51.58,42-107.06,34.19-33.95-4.79-64.84-24.16-62.94-34.34s35.82-4.74,45.93-23.26c7-12.88-.85-31.17-10.17-46.32C3696.55,1186.07,3729.93,1182.75,3739,1165.84Z"/><path class="cls-35" d="M3654.23,1155.71c2.55-7.66,9.08-8.19,11.45-17.46,2.77-10.8-4.6-16-2-22.37,4.59-11.41,34.19-10.63,52.41-7.62,20.24,3.34,42.59,7,54.13,26.1,11.18,18.48,9,46.08-3,53.63-6.55,4.12-12-.3-22.49,2.72-13.46,3.85-21.91,16-27.08,26.2a89.75,89.75,0,0,0-4.2-14.94c-4.11-10.84-5.69-16.43-9.44-17.79-7.36-2.67-12.8,11.57-23.63,11.6C3666,1195.82,3649.14,1171,3654.23,1155.71Z"/><path class="cls-36" d="M3736.5,1206.11s-15.39,22.66-43.66,19.42c-25.3-2.91-26.21-60-9.4-71.31,5.61-3.76,16.53-4.9,25.22-2,5.13,1.72,6.78,4,15.22,6.61,7.79,2.43,10.06,1.67,12.34,3.79,2.85,2.65,4.73,8.9-1.06,25.3,5.08-4.66,11-6.26,15-4.11a8.62,8.62,0,0,1,3.22,3.46C3756.62,1194,3750.27,1202,3736.5,1206.11Z"/><path class="cls-22" d="M3925.74,2305.82a14.93,14.93,0,0,1-1.88-.11l-602.79-75.26a15,15,0,1,1,3.73-29.84l602.78,75.26a15,15,0,0,1-1.84,30Z"/><path class="cls-22" d="M3239.82,2453.86a15,15,0,0,1-14.07-20.34L3379,2026.79a118.48,118.48,0,0,1,122.41-76l157.09,15.64a15,15,0,1,1-3,29.92l-157.08-15.64a88.33,88.33,0,0,0-91.3,56.69l-153.23,406.72A15,15,0,0,1,3239.82,2453.86Z"/><path class="cls-22" d="M3443.88,2459.89a15.42,15.42,0,0,1-4.16-.59,15,15,0,0,1-10.29-18.61l58.06-201.75a15,15,0,1,1,28.9,8.31L3458.33,2449A15.06,15.06,0,0,1,3443.88,2459.89Z"/><path class="cls-37" d="M3339.33,2397.27a104.55,104.55,0,1,1,104.55,104.55A104.67,104.67,0,0,1,3339.33,2397.27Zm60.91,0a43.64,43.64,0,1,0,43.64-43.63A43.68,43.68,0,0,0,3400.24,2397.27Z"/><circle class="cls-38" cx="3453.23" cy="2393.56" r="62.17"/><path class="cls-39" d="M3297.84,1502.87c76.82,1.65,157.32,4.37,234.57,6.88,6.48.21,9.08,2.07,11.13,8.19,33,98.47,62,201.14,92.64,300,3.25,10.47-1.61,16.16-12.09,15.7-73.9-3.23-151-4.33-225.29-5.6-6.25-.11-9-1.92-11-8.18-32.67-99.88-68-201.77-101.77-300.89C3282.45,1508.5,3286.87,1502.64,3297.84,1502.87Z"/><path class="cls-40" d="M3466.18,1757.82c-10.5-47.37,12.31-89.9-13.62-130.59-26.66-41.86-77-37.07-111.72-71.56-11.06-11-24.34-34.92-28.13-52.52-4.53.08-11.42-1.23-15.23-.5-8.38,1.61-15.31,5.64-11.68,16.15,34.34,99.55,69.12,201,102,301.09,2.06,6.28,4.75,7.85,10.95,8,37.42,1.16,76.57,1,114.18,1.59C3492,1813.19,3471.19,1780.41,3466.18,1757.82Z"/><path class="cls-41" d="M3898.61,1876.86c43.83-23.4,35.52-91.25,73.38-222.86,15.28-53.13,23.72-93.12,25.06-142.06.7-25.62-1.2-50.22-4.93-77.78-1.76-13-18.36-126.84-78.95-153.28a94.11,94.11,0,0,0-34-7.28c-33.09.18-57.08,21.32-69,31.82s-19.22,19.78-32.41,39.41c-11.93,17.76-26.77,38.25-33.74,72.2-11.38,55.41,5.78,125.45,13,187.82,3.31,28.41,32.79,100.71,14.5,129.23-16.13,25.15-145.45-47.58-168.21-61.06-6.13.32-17.13,1.88-26.05,9.84a42.2,42.2,0,0,0-9.82,14.29c-10.17,25.47,66.06,167.61,203.2,187.74C3797.45,1888.82,3862.11,1896.35,3898.61,1876.86Z"/><path class="cls-42" d="M3591.79,1686.59c-28.12-29-66.12-71-106.71-77s12.35,76.57,23.76,83.24,28.8,12.37,38,12.46,4.57-.46,11.18-.37c4.26,2.81,9.54,5.49,14.21,8.29C3585.49,1708.49,3592.66,1701.93,3591.79,1686.59Z"/><path class="cls-43" d="M3681.18,2441.2c-61.59-70.54-95.51-164.13-95.51-263.53s33.92-193,95.51-263.54c62.35-71.41,145.51-110.74,234.15-110.74s171.79,39.33,234.14,110.74c61.59,70.55,95.51,164.14,95.51,263.54s-33.92,193-95.51,263.53c-62.35,71.41-145.5,110.74-234.14,110.74S3743.53,2512.61,3681.18,2441.2ZM3631,2177.67c0,181.4,127.56,329,284.36,329s284.36-147.58,284.36-329-127.57-329-284.36-329S3631,1996.27,3631,2177.67Z"/><path class="cls-44" d="M4070.45,2388.05l-.83,0-102.51-8.51c-15.68-1.3-28.88-8.22-38.17-20-11.16-14.17-15.44-34.1-12-56.12L3967.66,1974a10,10,0,0,1,19.7,3l-50.77,329.38c-2.54,16.51.3,31,8,40.75,5.78,7.33,14.14,11.65,24.16,12.48l102.52,8.51a10,10,0,0,1-.82,19.89Z"/><ellipse class="cls-45" cx="3933.48" cy="2173.62" rx="250.76" ry="294.28"/><ellipse class="cls-46" cx="3950.61" cy="2168.28" rx="37.88" ry="50.19"/><path class="cls-47" d="M3712.42,2413c-56-64.07-86.81-149-86.81-239.11s30.83-175.05,86.81-239.11c57-65.22,133.1-101.14,214.3-101.14S4084,1869.57,4141,1934.79c56,64.06,86.8,149,86.8,239.11S4197,2348.94,4141,2413c-57,65.21-133.1,101.13-214.31,101.13S3769.41,2478.22,3712.42,2413Zm-30-243.32c0,159,111.25,288.31,248,288.31s248-129.34,248-288.31-111.26-288.31-248-288.31S3682.44,2010.71,3682.44,2169.69Z"/><path class="cls-48" d="M3343.82,1688.61c8.17-.82,14-18.93,14.67-32.33,2.21-44.54-50.47-82.17-59.29-76.14-3.23,2.21.17,13,7,34.59C3314.26,1640.41,3329.88,1690,3343.82,1688.61Z"/><path class="cls-4" d="M2474.28,642.62c0-175.48,158.59-313.93,345.45-309.44,177.82,4.27,315.78,137.62,315.78,298s-138,298.53-315.78,308.93C2632.87,951.07,2474.28,818.1,2474.28,642.62Z"/><path class="cls-49" d="M2495,628.79c0-175.29,153.71-313.59,334.91-309.1,172.53,4.27,306.46,137.62,306.46,298s-133.93,298.38-306.46,308.61C2648.66,937.06,2495,804.08,2495,628.79Z"/><g class="cls-50"><path class="cls-7" d="M2547.85,627.87c0-146.86,128.59-263.06,280.62-259.7,145.19,3.22,258.19,115.27,258.19,250.4s-113,251.08-258.19,259.31C2676.44,886.5,2547.85,774.73,2547.85,627.87Z"/></g><path class="cls-51" d="M2818.08,390.19c145.35,3.05,258.48,115,258.48,250.23a244.26,244.26,0,0,1-18,91.84,245.57,245.57,0,0,0,28.14-113.69c0-135.13-113-247.18-258.19-250.4-117-2.59-220.16,65.75-261.49,164.66C2613.77,446,2710,387.93,2818.08,390.19Z"/><path class="cls-7" d="M2857.06,630.31c0,24.71-20.5,44.61-45.89,44.46s-46.11-20.36-46.11-45.19,20.66-44.72,46.11-44.46S2857.06,605.61,2857.06,630.31Z"/><path class="cls-7" d="M2811.17,531.43c-81.63-1.09-153.93,37.57-195.27,97,41.34,60.05,113.64,99.86,195.27,100.08,80.93.22,151.44-38.56,191.27-97C2962.61,572.4,2892.1,532.5,2811.17,531.43Zm0,177.12c-44.65-.17-81-35.65-81-79.25s36.35-78.49,81-77.95c44.45.54,80.32,36,80.32,79.24S2855.62,708.71,2811.17,708.55Z"/><path class="cls-7" d="M2857.06,630.31c0,24.71-20.5,44.61-45.89,44.46s-46.11-20.36-46.11-45.19,20.66-44.72,46.11-44.46S2857.06,605.61,2857.06,630.31Z"/><path class="cls-4" d="M3375.11,644.08c0-167.16,144-299.17,313.73-295,161.71,3.92,287.27,131,287.27,284.11S3850.55,917.9,3688.84,927.71C3519.08,938,3375.11,811.24,3375.11,644.08Z"/><path class="cls-52" d="M3393.87,630.9c0-167,139.54-298.86,304.18-294.73,156.9,3.92,278.79,131.05,278.79,284.1S3855,904.89,3698.05,914.54C3533.41,924.67,3393.87,797.89,3393.87,630.9Z"/><g class="cls-50"><path class="cls-7" d="M3441.89,630c0-139.92,116.76-250.73,254.89-247.63,132,3,234.86,109.77,234.86,238.69s-102.83,239.49-234.86,247.27C3558.65,876.5,3441.89,770,3441.89,630Z"/></g><path class="cls-51" d="M3687.34,403.4c132.17,2.8,235.1,109.55,235.1,238.54A242.73,242.73,0,0,1,3906,729.55a243.24,243.24,0,0,0,25.62-108.46c0-128.91-102.83-235.73-234.86-238.7-106.35-2.38-200,62.81-237.53,157.08C3501.73,456.75,3589.14,401.31,3687.34,403.4Z"/><path class="cls-7" d="M3852.92,667.64a9.58,9.58,0,0,1-9.49,9.73l-44.44-.25a9.76,9.76,0,0,1-9.55-9.88h0a9.62,9.62,0,0,1,9.55-9.77l44.44.31a9.73,9.73,0,0,1,9.49,9.86Z"/><path class="cls-7" d="M3827.7,603.23c2.29,4.63-.06,10.56-5.25,13.24l-19.29,10c-5.2,2.69-11.28,1.11-13.58-3.53l-.1-.21c-2.3-4.64-.3-11.32,4.91-14l19.3-10c5.19-2.68,11.62-.36,13.91,4.27Z"/><path class="cls-7" d="M3821.36,734.4c2.28-4.61-.07-10.57-5.26-13.32l-19.3-10.22c-5.21-2.76-11.29-1.26-13.59,3.36l-.1.21c-2.3,4.61-.31,11.32,4.91,14.07l19.32,10.21c5.19,2.75,11.62.5,13.91-4.1Z"/><path class="cls-7" d="M3680.68,463.29c-51.07-.91-93,39.69-95.75,90.58l-.17.36,0,1.43.07,1.06c0,1-.08,2.14-.08,3.2a99.88,99.88,0,0,0,1.47,17l-.15,1.55L3596.27,725v.07a83.2,83.2,0,0,0,1.3,12.24A80.85,80.85,0,0,0,3601,751c8.89,27.81,31.66,47.54,58.21,47.51A54.39,54.39,0,0,0,3695.94,784c10.54-9.71,19.07-22.11,22.27-36.37a86,86,0,0,0,2-17.88,76.28,76.28,0,0,1,1.35-13.34c3.7-20,14.26-38.83,21.82-57.14,12.85-31.1,32.15-62,32.15-96.94C3775.54,508.75,3733.2,464.22,3680.68,463.29Zm39.55,120.41a8.86,8.86,0,0,1-10.42-6.91c-.34-1.57-8.9-38.44-43.62-38.91-18-.25-26.15,12.41-29.42,20-7,16.11-4.58,36.8,5.54,48.1,1.69,1.89,3.56,3.93,5.56,6.1,19,20.7,47.65,51.89,44.92,84.69-1.32,15.81-9.81,29.8-25.23,41.58a8.68,8.68,0,0,1-12.33-1.83,9.08,9.08,0,0,1,1.76-12.58c11.42-8.71,17.4-18.12,18.29-28.78,2.07-24.81-23.36-52.48-40.24-70.83-2.05-2.23-4-4.32-5.72-6.26-14.85-16.56-18.53-45-8.75-67.62,8.53-19.71,25.17-30.83,45.62-30.53,39.16.57,56.83,35.06,60.71,53.21A8.85,8.85,0,0,1,3720.23,583.7Z"/><path class="cls-4" d="M1464.27,629.85c0-184.81,175.83-330.36,382.79-325.33,196.76,4.77,349.28,145.18,349.28,313.81s-152.52,313.83-349.28,324.81C1640.1,954.68,1464.27,814.66,1464.27,629.85Z"/><path class="cls-53" d="M1487.19,615.3c0-184.6,170.4-330,371.08-325,190.9,4.77,339,145.18,339,313.8s-148.06,313.68-339,324.45C1657.59,939.93,1487.19,799.9,1487.19,615.3Z"/><g class="cls-50"><path class="cls-7" d="M1545.85,614.38c0-154.64,142.52-276.8,310.88-273C2017.39,345,2142.34,462.93,2142.34,605s-125,264-285.61,272.63C1688.37,886.7,1545.85,769,1545.85,614.38Z"/></g><path class="cls-51" d="M1845.23,364.5c160.85,3.42,285.95,121.31,285.95,263.47a245.79,245.79,0,0,1-19.95,96.55c19.89-36.32,31.11-76.94,31.11-119.52,0-142.07-125-260-285.61-263.65-129.59-2.9-243.86,68.88-289.67,173C1618.93,423,1725.56,362,1845.23,364.5Z"/><path class="cls-7" d="M1881.48,522.45a235.5,235.5,0,0,0-44-55.75,21.12,21.12,0,0,1-1.1-30.24l1-1c9.21-9.75,25.46-9.86,35.39-.43a281.39,281.39,0,0,1,49.43,61.77Z"/><path class="cls-7" d="M1901.22,792.6c-8.34,10.48-24.43,12.31-35.1,3.8l-1-.83c-9.47-7.58-11.16-20.68-3.72-30,34.06-42.49,52.41-96,47.89-152.95,0-.62-.11-1.23-.19-1.85L1954.42,582a247.16,247.16,0,0,1,3.72,27.69C1963.57,677.71,1941.74,741.7,1901.22,792.6Z"/><path class="cls-7" d="M1813.81,565.06a155.76,155.76,0,0,0-30-41.85c-8.57-8.56-9.12-21.54-.91-30.17l.15-.18c9.35-9.84,26-10.1,35.79-.35a204.07,204.07,0,0,1,35.35,47.11Z"/><path class="cls-7" d="M1877.07,631.08c-.39,41-14.39,79.38-38.29,111.18-8.11,10.82-24.7,12.58-35.47,3.94l-.2-.14a21.32,21.32,0,0,1-3.86-29.93,148.29,148.29,0,0,0,24.9-51.46Z"/><path class="cls-7" d="M1785.07,583.14l-42.84,27a74.46,74.46,0,0,0-14.75-28.69c-7.58-9.21-7.58-21.86.56-30.46l.08-.11c10-10.54,28-10,37.49,1.13A123.1,123.1,0,0,1,1785.07,583.14Z"/><path class="cls-7" d="M2028.84,496.09l-13.89-19a11.49,11.49,0,0,0-15.18-2.82l-356.41,224.8a9.84,9.84,0,0,0-2.86,14.44l14.43,19.16a12,12,0,0,0,15.72,2.66l355.43-225.15A9.71,9.71,0,0,0,2028.84,496.09Z"/><path class="cls-54" d="M2033.91,2810.55c54.61-7,124-25.58,189.21-72.81,70.55-51.11,160.72-153.51,133-214-10.35-22.58-37.91-41-61.21-38-34.43,4.43-36.15,52.63-93.66,107.73-10.63,10.18-65.58,62.82-94.9,47.38-14.57-7.68-19.88-30.64-18.41-48.36,4.29-51.81,66.77-62.73,124.53-121.37,58.56-59.45,104.91-160.47,72.52-225.72-18.61-37.49-64.44-65.61-93.21-55.71-12.29,4.23-19.7,14.8-53.63,98.39-27.85,68.6-33.82,88.5-53.55,95.83-20.3,7.53-52.75.85-65.9-18.88-34.27-51.37,99.12-136.05,104.47-284.7,2.4-66.61-20.26-164.07-81.35-182.27-41.3-12.3-98.12,12.24-117.25,50.5-17.25,34.49,6.87,58.67-3.89,134.81-3.27,23.11-10,70.66-28.83,74-22.12,4-49.9-54.92-56.36-69.27-48.61-108.08-1.64-167.11-45.06-218.62-33.86-40.17-104-53.6-157.89-29.9-47.17,20.73-83.31,70.5-83.5,120.3-.19,50.66,44.73,98.93,134.56,195.47,42.6,45.78,76.22,76.48,76.67,124,.22,23.16-7.38,56.12-23.8,59.89-36.23,8.3-61.28-138-149-156.58-44.89-9.5-98.89,16-121.19,57.13-27.31,50.39-4.11,118.84,34.91,153.55,50.9,45.28,99,6.7,193,53.46,41.68,20.74,107.77,65.95,100.35,106.31-3.23,17.57-20.63,35.46-40.51,38.69-44.57,7.24-62.89-65.49-136.47-94.31-53-20.77-124.67-14.81-140.31,15.27-22.08,42.48,67.89,132.19,115.32,171.47C1649.9,2731.74,1784,2820.56,2033.91,2810.55Z"/><g class="cls-55"><path class="cls-7" d="M2010.91,2788.22c1.36-123.61-92.2-370.55-157.2-486.24-63.35-112.73-127.45-292.94-128.09-294.75l-8.75,3.1c.64,1.81,65,182.76,128.75,296.19,64.51,114.81,157.36,359.5,156,481.6Z"/></g><path class="cls-56" d="M2163.89,2820.37c38.52-59.29,94.12-165.6,98.34-304.46,1.74-57.22,5.14-169-67.58-261.74-36.24-46.24-111.63-113.58-159.29-90.83-30.67,14.64-47.7,65.55-37,103.14,10.75,37.89,43.31,39.89,81.7,103.23,14.2,23.44,30.47,51,19.78,67.48-8.93,13.79-35.09,17.48-55.18,10.43-41.5-14.56-31.21-65.85-77-100.09-32.53-24.35-85.28-34-106.78-11.75-18.66,19.32-13.19,62.1,5.45,89.9,29.85,44.51,78.8,28.69,113.53,77.25,15.41,21.54,27.21,54.63,15.3,68.51-13.58,15.82-56.3,4.75-84.08-10.68-36.68-20.37-39.12-43.8-62.72-45.62-26.32-2-57.84,24.46-61.63,52.27-5.31,39,44,78.32,82.43,94.61,49.13,20.86,84.16,5.56,109.13,36.07,9.16,11.2,18,29.78,11.45,41.62-9.29,16.9-45.94,13.22-70.28,10.79-59.24-5.94-76.45-26.49-97-15.12-20.83,11.52-30.14,47.48-19.72,71.9,5.79,13.57,22.22,34.23,99.2,44C1955.79,2858.07,2045.87,2860.36,2163.89,2820.37Z"/></g></g></svg>