<svg xmlns="http://www.w3.org/2000/svg" xmlns:xlink="http://www.w3.org/1999/xlink" viewBox="0 0 5700 3000"><defs><style>.cls-1{isolation:isolate;}.cls-2{opacity:0.4;fill:url(#linear-gradient);}.cls-3,.cls-51,.cls-59,.cls-64{opacity:0.5;}.cls-3{fill:url(#linear-gradient-2);}.cls-4{opacity:0.71;}.cls-10,.cls-15,.cls-20,.cls-5,.cls-6,.cls-63,.cls-8,.cls-9{fill:#fff;}.cls-5{opacity:0.75;}.cls-6{opacity:0.43;}.cls-7{opacity:0.72;}.cls-8{opacity:0.65;}.cls-9{opacity:0.86;}.cls-10{opacity:0.45;}.cls-11{fill:url(#linear-gradient-3);}.cls-12{opacity:0.3;}.cls-13{fill:url(#linear-gradient-4);}.cls-14{opacity:0.68;}.cls-15{mix-blend-mode:soft-light;}.cls-16{fill:url(#linear-gradient-5);}.cls-17{fill:url(#linear-gradient-6);}.cls-18{fill:url(#linear-gradient-7);}.cls-19{fill:url(#linear-gradient-8);}.cls-21{fill:url(#linear-gradient-9);}.cls-22{fill:url(#linear-gradient-10);}.cls-23{fill:url(#linear-gradient-11);}.cls-24{fill:url(#linear-gradient-12);}.cls-25{fill:url(#linear-gradient-13);}.cls-26{fill:url(#linear-gradient-14);}.cls-27{fill:url(#linear-gradient-15);}.cls-28{fill:url(#linear-gradient-16);}.cls-29{fill:url(#linear-gradient-17);}.cls-30{fill:url(#linear-gradient-18);}.cls-31{fill:url(#linear-gradient-19);}.cls-32{fill:url(#linear-gradient-20);}.cls-33{fill:url(#linear-gradient-21);}.cls-34{fill:url(#linear-gradient-22);}.cls-35{fill:url(#linear-gradient-23);}.cls-36{fill:url(#linear-gradient-24);}.cls-37{fill:url(#linear-gradient-25);}.cls-38{fill:url(#linear-gradient-26);}.cls-39{fill:url(#linear-gradient-27);}.cls-40{fill:url(#linear-gradient-28);}.cls-41{fill:url(#linear-gradient-29);}.cls-42{fill:url(#linear-gradient-30);}.cls-43{fill:url(#linear-gradient-31);}.cls-44{fill:url(#linear-gradient-32);}.cls-45{fill:url(#linear-gradient-33);}.cls-46{fill:url(#linear-gradient-34);}.cls-47{fill:url(#linear-gradient-35);}.cls-48{fill:url(#linear-gradient-36);}.cls-49{fill:url(#linear-gradient-37);}.cls-50{fill:url(#linear-gradient-38);}.cls-51{fill:url(#linear-gradient-39);}.cls-52{fill:url(#linear-gradient-40);}.cls-53{fill:url(#linear-gradient-41);}.cls-54{fill:url(#linear-gradient-42);}.cls-55{fill:url(#linear-gradient-43);}.cls-56{fill:url(#linear-gradient-44);}.cls-57{fill:url(#linear-gradient-45);}.cls-58{fill:url(#New_Gradient_Swatch_2);}.cls-60,.cls-61{opacity:0.6;}.cls-60{fill:url(#linear-gradient-46);}.cls-61{fill:url(#linear-gradient-47);}.cls-62{fill:url(#linear-gradient-48);}.cls-63,.cls-83{opacity:0.64;}.cls-64{fill:url(#linear-gradient-49);}.cls-65{fill:url(#linear-gradient-50);}.cls-66{fill:url(#linear-gradient-51);}.cls-67{fill:url(#linear-gradient-52);}.cls-68{fill:url(#linear-gradient-53);}.cls-69{fill:url(#linear-gradient-54);}.cls-70{fill:url(#linear-gradient-55);}.cls-71{fill:url(#linear-gradient-56);}.cls-72{fill:url(#linear-gradient-57);}.cls-73{fill:url(#linear-gradient-58);}.cls-74{fill:url(#linear-gradient-59);}.cls-75{fill:url(#linear-gradient-60);}.cls-76{fill:url(#linear-gradient-61);}.cls-77{fill:url(#linear-gradient-62);}.cls-78{fill:url(#linear-gradient-63);}.cls-79{fill:url(#linear-gradient-64);}.cls-80{fill:url(#linear-gradient-65);}.cls-81{fill:url(#linear-gradient-66);}.cls-82{fill:url(#linear-gradient-67);}</style><linearGradient id="linear-gradient" x1="308.01" y1="3602.62" x2="5076.72" y2="139.63" gradientUnits="userSpaceOnUse"><stop offset="0" stop-color="#4637d3"/><stop offset="1" stop-color="#ea4bb5"/></linearGradient><linearGradient id="linear-gradient-2" x1="5009.9" y1="170.59" x2="1454.69" y2="2799.18" gradientUnits="userSpaceOnUse"><stop offset="0" stop-color="#7d7dff"/><stop offset="1" stop-color="#a397f7"/></linearGradient><linearGradient id="linear-gradient-3" x1="2101.75" y1="1323.21" x2="1771.19" y2="568.35" gradientTransform="translate(3438.03 -795.58) rotate(87.49)" gradientUnits="userSpaceOnUse"><stop offset="0" stop-color="#5ab6ff"/><stop offset="1" stop-color="#2f68e3"/></linearGradient><linearGradient id="linear-gradient-4" x1="1455.42" y1="1344.22" x2="2726.23" y2="1344.22" gradientUnits="userSpaceOnUse"><stop offset="0" stop-color="#9cfffb"/><stop offset="1" stop-color="#9bfffa"/></linearGradient><linearGradient id="linear-gradient-5" x1="4752.74" y1="529.14" x2="3231.17" y2="2993.27" gradientUnits="userSpaceOnUse"><stop offset="0" stop-color="#fdf53f"/><stop offset="1" stop-color="#d63ea4"/></linearGradient><linearGradient id="linear-gradient-6" x1="3721.12" y1="2254" x2="2500.27" y2="2325.82" xlink:href="#linear-gradient-5"/><linearGradient id="linear-gradient-7" x1="3182.13" y1="2199.43" x2="1777.26" y2="2226.36" xlink:href="#linear-gradient-5"/><linearGradient id="linear-gradient-8" x1="2075.71" y1="2956.66" x2="1564.06" y2="2249.77" gradientUnits="userSpaceOnUse"><stop offset="0" stop-color="#fdf53f"/><stop offset="0.28" stop-color="#f3c14a"/><stop offset="1" stop-color="#d63ea4"/></linearGradient><linearGradient id="linear-gradient-9" x1="15785.3" y1="1531.13" x2="15486.26" y2="1701.82" gradientTransform="translate(-12430.06)" gradientUnits="userSpaceOnUse"><stop offset="0" stop-color="#f9b776"/><stop offset="1" stop-color="#f47960"/></linearGradient><linearGradient id="linear-gradient-10" x1="-3855.18" y1="-2855.84" x2="-3878.14" y2="-2503.84" gradientTransform="matrix(-0.9, -0.44, -0.44, 0.9, -1403.49, 2563.72)" gradientUnits="userSpaceOnUse"><stop offset="0" stop-color="#c62686"/><stop offset="1" stop-color="#2a256b"/></linearGradient><linearGradient id="linear-gradient-11" x1="15756.37" y1="1573.7" x2="16779.54" y2="933.18" xlink:href="#linear-gradient-9"/><linearGradient id="linear-gradient-12" x1="-2641.39" y1="-4510.68" x2="-2664.35" y2="-4158.71" gradientTransform="matrix(-0.79, -0.61, -0.61, 0.79, -1589.68, 3727.01)" xlink:href="#linear-gradient-10"/><linearGradient id="linear-gradient-13" x1="7673.49" y1="1316.81" x2="7427.54" y2="1586.35" gradientTransform="translate(-4598.36)" gradientUnits="userSpaceOnUse"><stop offset="0" stop-color="#6c55ce"/><stop offset="1" stop-color="#1c2873"/></linearGradient><linearGradient id="linear-gradient-14" x1="-6908.52" y1="79.69" x2="-6834.99" y2="264.15" gradientTransform="matrix(-0.94, -0.33, -0.33, 0.94, -3476.19, -1392.18)" gradientUnits="userSpaceOnUse"><stop offset="0" stop-color="#2b3582"/><stop offset="1" stop-color="#150e42"/></linearGradient><linearGradient id="linear-gradient-15" x1="15443.61" y1="1205.17" x2="14738.66" y2="1885.17" gradientTransform="translate(-12430.06)" xlink:href="#linear-gradient-10"/><linearGradient id="linear-gradient-16" x1="-4875.07" y1="1432.74" x2="-4577.18" y2="1432.74" gradientTransform="matrix(-1, 0, 0, 1, -2043.59, 0)" xlink:href="#linear-gradient-9"/><linearGradient id="linear-gradient-17" x1="-6753.13" y1="632.38" x2="-6738.57" y2="525.85" gradientTransform="matrix(-1, -0.07, -0.07, 1, -3737.5, 175.43)" xlink:href="#linear-gradient-9"/><linearGradient id="linear-gradient-18" x1="-6781.63" y1="-1528.86" x2="-6644.52" y2="-1772.87" gradientTransform="matrix(-0.55, -0.84, -0.84, 0.55, -2039.86, -3648.3)" xlink:href="#linear-gradient-9"/><linearGradient id="linear-gradient-19" x1="-6752.15" y1="-1741.35" x2="-6683.6" y2="-1569.39" gradientTransform="matrix(-0.55, -0.84, -0.84, 0.55, -2039.86, -3648.3)" xlink:href="#linear-gradient-14"/><linearGradient id="linear-gradient-20" x1="-6752.45" y1="-1512.46" x2="-6615.34" y2="-1756.47" gradientTransform="matrix(-0.55, -0.84, -0.84, 0.55, -2039.86, -3648.3)" xlink:href="#linear-gradient-9"/><linearGradient id="linear-gradient-21" x1="-4930.87" y1="1193.46" x2="-5086.7" y2="1236.17" gradientTransform="matrix(-1, -0.05, -0.05, 1, -2020.85, -6.31)" gradientUnits="userSpaceOnUse"><stop offset="0" stop-color="#53d8ff"/><stop offset="1" stop-color="#3840f7"/></linearGradient><linearGradient id="linear-gradient-22" x1="6257.92" y1="1404.22" x2="7659.49" y2="1286.3" gradientTransform="matrix(-1, 0, 0, 1, 9507.52, 0)" xlink:href="#linear-gradient-14"/><linearGradient id="linear-gradient-23" x1="-5166.49" y1="1357.73" x2="-5216.67" y2="1433.28" gradientTransform="matrix(-1, 0, 0, 1, -2043.59, 0)" xlink:href="#linear-gradient-21"/><linearGradient id="linear-gradient-24" x1="2619.14" y1="2921.2" x2="2755.94" y2="2921.2" gradientTransform="translate(-1140.73)" xlink:href="#linear-gradient-21"/><linearGradient id="linear-gradient-25" x1="2619.13" y1="2894.39" x2="2752.08" y2="2894.39" gradientTransform="translate(-1140.73)" xlink:href="#linear-gradient-14"/><linearGradient id="linear-gradient-26" x1="2631.77" y1="2856.96" x2="2670.31" y2="2856.96" gradientTransform="translate(-1140.73)" xlink:href="#linear-gradient-9"/><linearGradient id="linear-gradient-27" x1="2346.41" y1="2918.25" x2="2398.83" y2="2918.25" gradientTransform="translate(-1140.73)" xlink:href="#linear-gradient-21"/><linearGradient id="linear-gradient-28" x1="2346.79" y1="2877.88" x2="2423.74" y2="2877.88" gradientTransform="translate(-1140.73)" xlink:href="#linear-gradient-14"/><linearGradient id="linear-gradient-29" x1="2386.79" y1="2824.83" x2="2432.84" y2="2824.83" gradientTransform="translate(-1140.73)" xlink:href="#linear-gradient-9"/><linearGradient id="linear-gradient-30" x1="2280.11" y1="2959.51" x2="2885.09" y2="2275.04" gradientTransform="translate(-1140.73)" xlink:href="#linear-gradient-3"/><linearGradient id="linear-gradient-31" x1="2965.94" y1="1863.46" x2="1910.19" y2="2781.7" gradientTransform="translate(-1140.73)" xlink:href="#linear-gradient-5"/><linearGradient id="linear-gradient-32" x1="2541.98" y1="2654.28" x2="2564.05" y2="2610.15" gradientTransform="translate(-1140.73)" xlink:href="#linear-gradient-21"/><linearGradient id="linear-gradient-33" x1="2597.78" y1="2153.54" x2="2433.84" y2="2298.72" gradientTransform="translate(-1140.73)" xlink:href="#linear-gradient-9"/><linearGradient id="linear-gradient-34" x1="2877.93" y1="1766.16" x2="1826.93" y2="2680.26" gradientTransform="translate(-1140.73)" xlink:href="#linear-gradient-5"/><linearGradient id="linear-gradient-35" x1="3043.14" y1="1956.11" x2="1992.15" y2="2870.21" gradientTransform="translate(-1140.73)" xlink:href="#linear-gradient-5"/><linearGradient id="linear-gradient-36" x1="2905.11" y1="2167.28" x2="3034.22" y2="2167.28" gradientTransform="translate(-1140.73)" xlink:href="#linear-gradient-9"/><linearGradient id="linear-gradient-37" x1="2779.61" y1="1822.24" x2="2778.2" y2="2063.35" gradientTransform="translate(-1140.73)" xlink:href="#linear-gradient-9"/><linearGradient id="linear-gradient-38" x1="2420.74" y1="2261.86" x2="3096.84" y2="2261.86" gradientTransform="translate(-1140.73)" xlink:href="#linear-gradient-14"/><linearGradient id="linear-gradient-39" x1="3059.64" y1="1962.06" x2="3680.23" y2="1962.06" gradientTransform="translate(-1140.73)" xlink:href="#linear-gradient-2"/><linearGradient id="linear-gradient-40" x1="3024.66" y1="1962.06" x2="3715.21" y2="1962.06" gradientTransform="translate(-1140.73)" xlink:href="#linear-gradient-14"/><linearGradient id="linear-gradient-41" x1="2459.7" y1="3512.53" x2="2341.02" y2="3669.54" gradientTransform="translate(-1218.85 -1342.51) rotate(-8.21)" xlink:href="#linear-gradient-9"/><linearGradient id="linear-gradient-42" x1="1608.91" y1="1808.44" x2="2020.68" y2="1860.5" gradientTransform="matrix(1, 0, 0, 1, 0, 0)" xlink:href="#linear-gradient-14"/><linearGradient id="linear-gradient-43" x1="2285.88" y1="3636.87" x2="2381.07" y2="3539.21" gradientTransform="translate(-1218.85 -1342.51) rotate(-8.21)" xlink:href="#linear-gradient-9"/><linearGradient id="linear-gradient-44" x1="2662.52" y1="2226.66" x2="2498.58" y2="2371.83" gradientTransform="translate(-1140.73)" xlink:href="#linear-gradient-9"/><linearGradient id="linear-gradient-45" x1="3020.5" y1="2152.11" x2="3066.74" y2="2152.11" gradientTransform="translate(-1140.73)" xlink:href="#linear-gradient-9"/><linearGradient id="New_Gradient_Swatch_2" x1="1355.56" y1="129.08" x2="1699.7" y2="129.08" gradientTransform="translate(2223.45 -311.21) rotate(38.49)" gradientUnits="userSpaceOnUse"><stop offset="0" stop-color="#52f0c0"/><stop offset="1" stop-color="#737af9"/></linearGradient><linearGradient id="linear-gradient-46" x1="3348.47" y1="190.29" x2="4348.45" y2="394.27" gradientTransform="matrix(0.94, 0.01, -0.01, 0.81, 209.77, 37.56)" xlink:href="#linear-gradient-21"/><linearGradient id="linear-gradient-47" x1="4346.03" y1="65.22" x2="4987.48" y2="196.06" gradientTransform="matrix(0.94, 0.01, -0.01, 0.81, 209.77, 37.56)" xlink:href="#linear-gradient-21"/><linearGradient id="linear-gradient-48" x1="1297.33" y1="846.89" x2="2867.19" y2="846.89" gradientTransform="matrix(1, 0, 0, 1, 0, 0)" xlink:href="#linear-gradient-21"/><linearGradient id="linear-gradient-49" x1="3017.04" y1="1352.7" x2="3193.12" y2="1352.7" gradientTransform="translate(-1915.44 912.22) rotate(-25.51)" xlink:href="#linear-gradient-2"/><linearGradient id="linear-gradient-50" x1="4386.21" y1="1708.98" x2="4296.76" y2="1983.16" gradientTransform="matrix(1, 0, 0, 1, 0, 0)" xlink:href="#linear-gradient-9"/><linearGradient id="linear-gradient-51" x1="4367.28" y1="2683.29" x2="4555.75" y2="2683.29" gradientTransform="matrix(1, 0, 0, 1, 0, 0)" xlink:href="#linear-gradient-9"/><linearGradient id="linear-gradient-52" x1="4626.34" y1="2261.8" x2="4533" y2="2868.5" gradientTransform="matrix(1, 0, 0, 1, 0, 0)" xlink:href="#linear-gradient-10"/><linearGradient id="linear-gradient-53" x1="4428.85" y1="2231.42" x2="4335.51" y2="2838.12" gradientTransform="matrix(1, 0, 0, 1, 0, 0)" xlink:href="#linear-gradient-10"/><linearGradient id="linear-gradient-54" x1="4252.91" y1="2697.3" x2="4362.05" y2="2697.3" gradientTransform="matrix(1, 0, 0, 1, 0, 0)" xlink:href="#linear-gradient-9"/><linearGradient id="linear-gradient-55" x1="4017.8" y1="1878.45" x2="4231.46" y2="1878.45" gradientTransform="matrix(1, 0, 0, 1, 0, 0)" xlink:href="#linear-gradient-9"/><linearGradient id="linear-gradient-56" x1="4245.25" y1="1998.2" x2="4645.82" y2="2791.58" gradientUnits="userSpaceOnUse"><stop offset="0" stop-color="#102792"/><stop offset="1" stop-color="#3ea7c4"/></linearGradient><linearGradient id="linear-gradient-57" x1="4156.55" y1="2204.25" x2="4506.57" y2="2598.99" gradientTransform="matrix(1, 0, 0, 1, 0, 0)" xlink:href="#linear-gradient-21"/><linearGradient id="linear-gradient-58" x1="4286" y1="1983.35" x2="4352.79" y2="1983.35" gradientTransform="matrix(1, 0, 0, 1, 0, 0)" xlink:href="#linear-gradient-9"/><linearGradient id="linear-gradient-59" x1="8192.42" y1="-1759.33" x2="8339.47" y2="-1659.44" gradientTransform="translate(-3936.94 279.41) rotate(23.07)" xlink:href="#linear-gradient-9"/><linearGradient id="linear-gradient-60" x1="8449.06" y1="-1946.98" x2="8202.41" y2="-1690.37" gradientTransform="translate(-3936.94 279.41) rotate(23.07)" xlink:href="#linear-gradient-10"/><linearGradient id="linear-gradient-61" x1="8201.23" y1="-1772.31" x2="8348.29" y2="-1672.42" gradientTransform="translate(-3936.94 279.41) rotate(23.07)" xlink:href="#linear-gradient-9"/><linearGradient id="linear-gradient-62" x1="8245.83" y1="-2097.55" x2="7976.11" y2="-1816.92" gradientTransform="translate(-3591.82 -48) rotate(28.1)" xlink:href="#linear-gradient-10"/><linearGradient id="linear-gradient-63" x1="1595.83" y1="1426.55" x2="968.03" y2="2707.71" gradientTransform="matrix(2.07, -0.04, -0.04, 1.15, 1209.26, -396.17)" xlink:href="#linear-gradient-21"/><linearGradient id="linear-gradient-64" x1="12993.25" y1="-3025.05" x2="12717.02" y2="-3192.46" gradientTransform="matrix(-1, 0.07, 0.25, 0.89, 18103.08, 2962.82)" xlink:href="#linear-gradient-21"/><linearGradient id="linear-gradient-65" x1="12839.94" y1="-3086.95" x2="12523.84" y2="-3421.18" gradientTransform="matrix(-1, 0.07, 0.25, 0.89, 18103.08, 2962.82)" xlink:href="#linear-gradient-21"/><linearGradient id="linear-gradient-66" x1="12973.08" y1="-3027.84" x2="12715.05" y2="-3184.22" gradientTransform="matrix(-1, 0.07, 0.25, 0.89, 18103.08, 2962.82)" xlink:href="#linear-gradient-21"/><linearGradient id="linear-gradient-67" x1="-11470.34" y1="-2647.83" x2="-11352.43" y2="-2681.98" gradientTransform="translate(16162.85 2922.18) rotate(-4.26)" xlink:href="#linear-gradient-21"/></defs><g class="cls-1"><g id="Illustration"><path class="cls-2" d="M5135.07,1355c-124.92-174.25-389.69-267.61-396.57-528.75-4.47-169.69,72.63-261.65-50.74-406.5C4389.54,69.65,3930,28.62,3537.57,174.88S2831.82,614.2,2395.69,596.53c-237.5-9.62-458.17-122.22-693.27-143.35-72.42-6.51-140.1-.93-203.38,15.26-237.23,60.71-446.69,288.68-525.57,542-63.94,205.31,17.75,408-82.64,609C783.82,1833.72,573.09,1982.56,520,2230c-63.73,296.93,179.74,555.15,441.27,563.23,166.46,5.14,475-21.43,616.44-124,172.2-124.94,341.44-133.16,542.18-128.37,382,9.11,764.05,95,1141.16,156.14,323.13,52.39,641.61,130,969.1,139.84,240.5,7.23,444.61,10.49,574.74-250.48C4960.44,2274.36,5397.1,1720.51,5135.07,1355Z"/><path class="cls-3" d="M4961.66,1408c-115.58-154.69-360.55-237.57-366.91-469.39-4.13-150.64,67.19-232.28-46.94-360.87-275.92-310.82-701.12-347.25-1064.17-217.4s-653,390-1056.48,374.31c-219.74-8.54-423.9-108.5-641.42-127.26-67-5.78-129.62-.82-188.17,13.55-219.49,53.9-413.28,256.27-486.26,481.11-59.16,182.26,16.42,362.18-76.46,540.66-99,190.23-294,322.36-343.1,542-59,263.6,166.3,492.83,408.27,500,154,4.56,439.5-19,570.34-110.12,159.32-110.91,315.9-118.21,501.63-114,353.46,8.09,706.91,84.33,1055.81,138.61,299,46.52,593.63,115.4,896.62,124.14,222.52,6.43,411.35,9.32,531.76-222.35C4800.09,2224.09,5204.09,1732.42,4961.66,1408Z"/><g class="cls-4"><path class="cls-5" d="M4919.09,1443.08c14.31-4.65,25.38,13,14.89,23.81-101.36,104.38-358.58,386.42-437,635.93C4369.21,2509.09,4023.55,2931,3702.39,2905,3702.39,2905,3359.62,1949.94,4919.09,1443.08Z"/><path class="cls-6" d="M4762.61,1571.75c-2.77,2.1-6,4.85-9,7.36l-9.14,7.82-18.12,15.85-35.91,32.08q-35.67,32.37-70.6,65.55-70,66.15-137.51,134.88c-89.71,91.85-176.87,186.23-258.82,285-40.75,49.54-81.21,99.35-119.57,150.76s-75.51,103.71-110.52,157.43-68.56,108.41-98.89,164.91A1861.61,1861.61,0,0,0,3811.81,2767l0,0a2.42,2.42,0,0,1-4.5-1.77c22.4-60.4,49.17-119.12,78.37-176.57,29.62-57.26,62.53-112.74,96.84-167.28,69.76-108.4,147.13-211.74,229.78-310.51,41.23-49.48,84.06-97.58,127.56-145s88.07-93.93,133.86-139.17,92.14-89.89,139.72-133.22q35.74-32.43,72.14-64.12c12.18-10.51,24.37-21,36.71-31.34l18.63-15.36,9.41-7.59c3.24-2.5,6.16-4.95,9.92-7.55a2.4,2.4,0,0,1,2.81,3.88Z"/></g><g class="cls-4"><path class="cls-5" d="M4816.8,2037.84c10.79-1.22,16.05,12.88,7.08,19-86.79,59.14-309.48,221.35-401.07,386.43-149.12,268.79-454.6,517.09-677.93,452.23C3744.88,2895.49,3640.72,2170.56,4816.8,2037.84Z"/><path class="cls-6" d="M4687.73,2106.82c-2.11,1-4.83,2.55-7.31,3.9l-7.56,4.24-15,8.67-30,17.62q-29.82,17.84-59.23,36.36-58.94,36.85-116.51,75.77c-76.52,52.18-151.81,106.21-223.92,164.25-35.91,29.18-71.77,58.44-106.33,89.19s-68.38,62.31-101,95.12c-65.37,65.37-125.92,135.69-178.13,212.2a2.42,2.42,0,0,1-3.35.67,2.44,2.44,0,0,1-.72-3.28c24.32-39.68,51.64-77.47,80.46-114,29.15-36.32,60.38-70.91,92.47-104.65,65-66.7,134.62-128.75,207.44-186.64,36.36-29,73.66-56.81,111.33-84.06s76-53.64,115-78.89,78.31-50.07,118.33-73.69q30-17.64,60.46-34.67c10.17-5.62,20.33-11.25,30.58-16.72l15.45-8.08,7.79-4c2.68-1.3,5.05-2.58,8.23-3.91a2.39,2.39,0,0,1,2,4.35Z"/></g><g class="cls-7"><path class="cls-8" d="M3631,530.46C3494.62,742.7,2751.69,2010.2,3815.86,2921c0,0,703.91-708.53-147.93-2388.71A21.34,21.34,0,0,0,3631,530.46Z"/><path class="cls-9" d="M3655.71,784.62c-13.18,79.37-24.73,159.09-35.59,238.86s-20.73,159.68-29.69,239.69c-17.94,160-32.3,320.42-41.71,481.1s-13.9,321.66-9.7,482.4q2.76,120.55,14.4,240.54c7.91,79.85,19,159.44,36.31,237.59v0a9.68,9.68,0,1,1-18.9,4.18V2709c-17.09-79.3-27.78-159.62-35.29-240.06s-11.7-161.17-13.08-241.86c-3.28-161.39,2.28-322.73,12.51-483.63s25.66-321.45,44.54-481.52q14.16-120.06,31.1-239.75c11.34-79.8,23.35-159.46,37-238.94a4.1,4.1,0,0,1,8.08,1.37Z"/></g><g class="cls-7"><path class="cls-8" d="M1133,921c-39.38,227.22-214.55,1558.87,1005.52,1947.71,0,0,341-847-973.73-1959.33A19.51,19.51,0,0,0,1133,921Z"/><path class="cls-9" d="M1244.52,1126.2c17.12,71.52,35.75,142.77,55,213.8s39.34,141.85,60.25,212.41c41.81,141.13,86.77,281.32,136,420s102.7,275.8,163.4,409.66q45.19,100.51,97.66,197.4c35.06,64.41,72.69,127.47,115,187.09l0,0a9.68,9.68,0,0,1-15.78,11.21l0-.05C1813.48,2717,1775.92,2653.09,1741,2588s-67.12-131.64-97-199.13C1583.93,2254,1531.3,2116.14,1482.75,1977s-92.58-279.91-133.55-421.46q-30.72-106.17-59-213c-18.8-71.25-37-142.62-53.7-214.44a4.1,4.1,0,0,1,8-1.88Z"/></g><g class="cls-4"><path class="cls-8" d="M2147.62,2499.6s82.89-130.18,40.23-346.32c-39.57-200.53-148.48-676-113.48-875.77,1.55-8.84-9.95-13.59-15-6.17-54.26,79.64-174.49,289.77-169.11,581.92C1897.19,2230,2147.62,2499.6,2147.62,2499.6Z"/><path class="cls-10" d="M2025.87,1452.44c-8,19.66-13.86,40.13-18.65,60.75-2.65,10.24-4.38,20.72-6.59,31-1.6,10.47-3.49,20.86-4.87,31.34-1.17,10.5-2.79,20.94-3.59,31.48s-1.7,21-2.31,31.57l-1.14,31.64c-.08,10.54.18,21.1.25,31.64a961,961,0,0,0,10.81,126l2.26,15.65,1.16,7.83,1.51,7.76,6.07,31.06c1.91,10.35,4.21,20.71,6.53,31.07l6.88,31.1q14.31,62.06,29.8,123.85c10.38,41.19,21.17,82.29,31.9,123.48,5.39,20.58,10.79,41.17,15.87,61.88q3.91,15.48,7.56,31.08c2.56,10.35,4.84,20.8,7,31.26,8.68,41.72,16.31,84.45,14,127.53a2.43,2.43,0,0,1-4.85-.08v-.07c-.38-21.1-3-42.05-6.49-62.85q-5.84-31.15-14-61.89c-10.58-41-22.73-81.77-34.33-122.71l-17.48-61.43c-5.59-20.56-11.28-41.09-16.65-61.72-11.08-41.16-21-82.65-30.6-124.19l-6.94-31.22c-2.35-10.4-4.69-20.8-6.48-31.41l-5.83-31.65-1.45-7.91-1.09-8-2.14-16c-1.29-10.66-3.11-21.24-4-31.94l-2.48-32.11c-1.06-10.68-1-21.44-1.39-32.16-.23-10.73-.88-21.45-.36-32.19a717.64,717.64,0,0,1,12.35-128c1.87-10.55,4.54-21,6.79-31.41l4.17-15.51c1.35-5.18,2.77-10.34,4.48-15.42,6.3-20.43,13.78-40.57,23.7-59.5a.29.29,0,0,1,.4-.12A.31.31,0,0,1,2025.87,1452.44Z"/></g><ellipse class="cls-11" cx="2134.65" cy="1398.34" rx="750.19" ry="809.75" transform="translate(644.04 3469.61) rotate(-87.49)"/><g class="cls-12"><ellipse class="cls-13" cx="2090.82" cy="1344.22" rx="635.41" ry="600.26"/></g><g class="cls-14"><path class="cls-15" d="M2341.51,1402c-.19,132.32-9.27,264.9-32.58,395.34-5.91,32.58-12.75,65-20.9,97.13a937.21,937.21,0,0,1-29.19,95c-11.65,31-25.19,61.63-43.53,89.58-9.25,13.88-19.74,27.18-32.68,38.12a93.12,93.12,0,0,1-21.39,13.78,64,64,0,0,1-25,5.88,62.89,62.89,0,0,1-25.24-4.64,87.11,87.11,0,0,1-21.89-13c-13.25-10.59-24-23.75-33.38-37.51-18.68-27.76-32.39-58.29-44.17-89.28a914.23,914.23,0,0,1-29.49-95c-8.24-32.1-15.15-64.51-21.1-97.09-11.88-65.15-20-130.94-25.45-196.9s-8.15-132.17-8.48-198.37c-.17-33.09.74-66.18,1.91-99.25s3.06-66.11,5.5-99.12c4.89-66,12.2-131.84,23.07-197.15,5.46-32.64,11.82-65.15,19.46-97.37a935.28,935.28,0,0,1,27.64-95.43c5.55-15.61,11.63-31.06,18.56-46.15A335.44,335.44,0,0,1,2047,726.82c9.12-13.89,19.6-27.15,32.66-37.76a83.51,83.51,0,0,1,21.59-12.94,60.75,60.75,0,0,1,24.82-4.4,65.81,65.81,0,0,1,24.53,5.74,95.69,95.69,0,0,1,21.32,13.31c13,10.58,23.8,23.52,33.36,37.1,19,27.36,33.34,57.53,45.75,88.23a905.5,905.5,0,0,1,31.35,94.28c8.84,31.92,16.31,64.2,22.78,96.66C2330.73,1137,2341.13,1269.63,2341.51,1402Zm-9.79,0q.18-98.88-7.86-197.57c-5.41-65.69-13.59-131.2-25.78-196C2292,976,2284.9,943.82,2276.46,912a897.48,897.48,0,0,0-30.13-94c-12-30.6-25.88-60.67-44.32-87.83-9.27-13.49-19.73-26.3-32.27-36.72a92.43,92.43,0,0,0-20.45-13.08,61.38,61.38,0,0,0-23.35-5.7,57.42,57.42,0,0,0-23.56,4.44,80.06,80.06,0,0,0-20.6,12.66c-12.52,10.4-22.67,23.49-31.49,37.26a332.29,332.29,0,0,0-23,43.49c-6.69,15-12.55,30.39-17.9,45.95A932.06,932.06,0,0,0,1983,913.56c-7.26,32.14-13.23,64.57-18.31,97.14-10.11,65.15-16.68,130.84-20.84,196.64s-5.65,131.78-5.53,197.72q-.25,98.88,6.93,197.61c4.94,65.74,12.5,131.31,23.82,196.23,5.68,32.46,12.3,64.75,20.24,96.71a909.5,909.5,0,0,0,28.54,94.44c11.42,30.77,24.77,61,42.82,88.31,9.08,13.52,19.42,26.34,31.94,36.51a82,82,0,0,0,20.43,12.39,56.43,56.43,0,0,0,23.11,4.4,58.93,58.93,0,0,0,22.88-5.6,87.89,87.89,0,0,0,20-13.14c12.25-10.52,22.37-23.5,31.29-37.14,17.73-27.48,30.89-57.82,42.18-88.64a926.83,926.83,0,0,0,28.2-94.55c7.85-32,14.4-64.28,20-96.75,11.25-64.93,18.72-130.51,23.69-196.25S2331.74,1467.91,2331.72,1402Z"/><path class="cls-15" d="M2675.3,1402c-.46,85.21-11.41,170.45-34.22,252.62-23.21,82-58.19,160.85-105.69,231.65a666.49,666.49,0,0,1-80.73,98.85,565.9,565.9,0,0,1-99.36,80,478.81,478.81,0,0,1-116,53,433.62,433.62,0,0,1-252.1.11,479.49,479.49,0,0,1-116-52.92,567.26,567.26,0,0,1-99.5-79.94,667.32,667.32,0,0,1-80.88-98.83c-47.59-70.82-82.65-149.72-106-231.74a916.8,916.8,0,0,1-25.65-125.25,942,942,0,0,1,.07-255.1A916.36,916.36,0,0,1,1585,1149.2c23.37-82,58.48-160.83,106.11-231.57A666.8,666.8,0,0,1,1772,818.9a564.86,564.86,0,0,1,99.47-79.79,481.18,481.18,0,0,1,115.94-52.73,430.7,430.7,0,0,1,251.72.1A480.88,480.88,0,0,1,2355,739.3a564.8,564.8,0,0,1,99.34,79.86,666.86,666.86,0,0,1,80.73,98.74c47.53,70.73,82.57,149.55,105.83,231.49C2663.77,1231.53,2674.78,1316.76,2675.3,1402Zm-11.23,0c-.12-84.23-10.62-168.56-32.84-249.88s-56-159.57-102.33-230.06a660.78,660.78,0,0,0-78.9-98.57c-29.47-30.12-62-57.37-97.6-80a471.49,471.49,0,0,0-114.47-52.91,420,420,0,0,0-249.2.1,471.16,471.16,0,0,0-114.37,53c-35.56,22.67-68,50-97.47,80.08a659.69,659.69,0,0,0-78.74,98.58c-46.23,70.48-79.81,148.83-102.05,230A924.65,924.65,0,0,0,1571.56,1276a962.7,962.7,0,0,0,.08,251.83,924.17,924.17,0,0,0,24.63,123.74c22.29,81.12,55.93,159.41,102.19,229.82a660.13,660.13,0,0,0,78.75,98.47c29.42,30.09,61.89,57.34,97.43,79.94a473.1,473.1,0,0,0,114.29,52.81,416.88,416.88,0,0,0,248.81.11A473.15,473.15,0,0,0,2352.11,2060c35.58-22.58,68.11-49.81,97.57-79.88a660.5,660.5,0,0,0,78.91-98.45c46.36-70.42,80.06-148.75,102.47-229.91S2663.89,1486.2,2664.07,1402Z"/><path class="cls-15" d="M1457.53,1111.16l168.77-1.37,168.77-.77,337.54-.62,337.54.68,168.77.85,168.77,1.47a.5.5,0,0,1,.49.5.49.49,0,0,1-.49.49l-168.77,1.47-168.77.85-337.54.68-337.54-.62L1626.3,1114l-168.77-1.37a.74.74,0,0,1,0-1.47Z"/><path class="cls-15" d="M1653.32,828.48c39.94-.63,79.88-.9,119.82-1.36l119.83-.77c39.94-.33,79.88-.3,119.82-.4l119.82-.23,239.64.69,119.82.84c39.94.51,79.88.8,119.82,1.48a.49.49,0,0,1,.49.5.5.5,0,0,1-.49.49c-39.94.68-79.88,1-119.82,1.47l-119.82.84-239.64.69-119.82-.23c-39.94-.1-79.88-.06-119.82-.39l-119.83-.78c-39.94-.46-79.88-.73-119.82-1.36a.74.74,0,0,1,0-1.48Z"/><path class="cls-15" d="M1398.88,1393.83l183.43-1.36,183.44-.77,366.86-.63,366.86.69,183.43.84,183.44,1.48a.49.49,0,0,1,.49.49.5.5,0,0,1-.49.5l-183.44,1.47-183.43.84-366.86.69-366.86-.63-183.44-.77-183.43-1.36a.74.74,0,0,1,0-1.48Z"/><path class="cls-15" d="M1457.53,1676.51l168.77-1.37,168.77-.77,337.54-.62,337.54.68,168.77.85,168.77,1.47a.5.5,0,0,1,.49.5.49.49,0,0,1-.49.49l-168.77,1.47-168.77.85-337.54.68-337.54-.62-168.77-.77L1457.53,1678a.74.74,0,0,1,0-1.47Z"/><path class="cls-15" d="M2636,1962.51H1677.47a2.59,2.59,0,0,1,0-5.18H2636a2.59,2.59,0,0,1,0,5.18Z"/></g><g class="cls-4"><path class="cls-8" d="M850.11,1803.54c-4.63-11.53,9.29-21.63,18.77-13.61,91.66,77.58,338.39,273.46,548.27,324,341.72,82.26,708.59,343.08,705.3,609C2122.45,2722.91,1355.41,3059,850.11,1803.54Z"/><path class="cls-6" d="M965.24,1924.89c1.83,2.08,4.3,4.59,6.54,6.93l7,7.06,14.12,14,28.5,27.69q28.73,27.48,58.07,54.29,58.51,53.79,119,105.42c80.78,68.52,163.35,135,249.32,196.8,43.1,30.71,86.34,61.26,130.81,89.95s89.58,56.32,135.73,82.17c92.1,52,188.19,97.14,288.57,131a2.43,2.43,0,0,1,1.55,3,2.46,2.46,0,0,1-3,1.58c-51.08-14.85-101-33.49-150-54.18-48.88-21.09-96.47-45-143.39-70.11-93.27-51.29-182.82-109.11-268.83-171.64-43.07-31.19-85.09-63.78-126.62-96.94s-82.31-67.28-122.09-102.52-79.14-70.91-117.44-107.73q-28.67-27.67-56.75-55.93c-9.32-9.46-18.64-18.92-27.81-28.53l-13.66-14.52-6.76-7.34c-2.24-2.55-4.4-4.79-6.8-7.82a2.4,2.4,0,0,1,3.67-3.08Z"/></g><path class="cls-16" d="M3320.49,2680.48l653.2-1251.39H3839.86c-24.68,0-38.25-28.69-22.6-47.77l696.18-848.49c30.17-36.78,89.77-13.45,87,34l-48.94,829.73a82.91,82.91,0,0,1-92.19,77.49L4366,1463.4,3717.88,2867a103.2,103.2,0,0,1-93.69,59.93H3399.56Z"/><path class="cls-17" d="M2780.44,1802.82l461.14,1024.37a169.11,169.11,0,0,0,154.21,99.69h237.73a86.8,86.8,0,0,0,75.9-44.69l8.46-15.24h0a68,68,0,0,1-60.54-37.07L3042.92,1626Z"/><path class="cls-18" d="M3105,1747.62h0a100.84,100.84,0,0,0-146.45,23.27l-678,1018.65a292.9,292.9,0,0,1-243.82,130.61h-95.41l-77.64-223.66S2494,1730,2656.43,1583.81c0,0,161.78-145.81,321.3-35.56,42.15,29.12,74.14,70.69,93.69,118Z"/><path class="cls-19" d="M1126.23,2095s113.49-141.87,333.42-163.93c0,0,104.45,35.58,312.55,408.47s346.23,542.93,508.32,450.05l-13.42,22.28a244.45,244.45,0,0,1-209.4,118.33h-89.65a306.68,306.68,0,0,1-249-127.57C1557.1,2577.43,1225.72,2129.9,1126.23,2095Z"/><path class="cls-20" d="M4521.86,830a7.67,7.67,0,0,1-.82,0,7.26,7.26,0,0,1-6.4-8l4.59-40.51a7.26,7.26,0,1,1,14.43,1.63l-4.6,40.51A7.25,7.25,0,0,1,4521.86,830Z"/><path class="cls-20" d="M3940.71,1341.42a7.27,7.27,0,0,1-5.75-11.69l574.87-747a24.9,24.9,0,0,1,44.48,18l-10.15,89.54a7.26,7.26,0,1,1-14.42-1.64l10.14-89.53a10.38,10.38,0,0,0-18.54-7.5l-574.87,747A7.27,7.27,0,0,1,3940.71,1341.42Z"/><path class="cls-20" d="M2636.56,2124.49a7.26,7.26,0,0,1-6-11.32l297.31-440.7a53.2,53.2,0,0,1,92.18,7,7.26,7.26,0,0,1-13.13,6.21,38.68,38.68,0,0,0-67-5.09l-297.31,440.7A7.24,7.24,0,0,1,2636.56,2124.49Z"/><path class="cls-20" d="M2559.3,2239a7.19,7.19,0,0,1-4.05-1.24,7.27,7.27,0,0,1-2-10.08l19.06-28.26a7.26,7.26,0,0,1,12,8.12l-19.06,28.26A7.27,7.27,0,0,1,2559.3,2239Z"/><path class="cls-21" d="M3309.78,1809.39c-.36-.13-190-332.31-215.67-363.57a19.88,19.88,0,0,0-17.73-7.13l-53,6.31-62.19,134.55,103.61-60.34c-10.25,70.91,122.86,176.29,168.51,214.74a10.48,10.48,0,0,1,.83,15.27L3216,1768.3c29.92,30.33,64.44,49.81,103.41,58.81Z"/><path class="cls-22" d="M3226.51,1758s-11.63,3.75-15.57,14.11a11.83,11.83,0,0,0,4.46,13.66c19.15,13.72,82.33,58,111.48,66.7a3.3,3.3,0,0,0,4.13-3.88c-1.5-6.78-6.34-20.3-21.93-40.1l1.4,2.83a4,4,0,0,1-5.61,5.34C3285.37,1805.67,3245.65,1781.57,3226.51,1758Z"/><path class="cls-23" d="M3235.89,1890.92c-.31-.21-28.77-68.77-29.09-69-26.09-158.86-89.75-294.91-108.53-330.71a19.88,19.88,0,0,0-15.93-10.58l-53.12-4.53-88.14,119.18,113.69-38.13c-24.39,67.37,84.63,197.51,121.56,244.41a10.48,10.48,0,0,1-2.28,15.12l-21.71,15c23.16,35.76,53,61.82,89.37,78.53Z"/><path class="cls-24" d="M3164.75,1823.74s-12.15,1.33-18.11,10.68a11.87,11.87,0,0,0,1.6,14.28c16,17.31,68.89,73.48,95.69,87.88a3.29,3.29,0,0,0,4.82-3c-.09-6.94-2.09-21.16-13.36-43.71l.8,3.06a4.05,4.05,0,0,1-6.57,4.1C3212.75,1882.33,3178.73,1850.7,3164.75,1823.74Z"/><path class="cls-25" d="M2780.56,1451s-48.06,71.48-52,104.08,13.28,43.88,63.58,48c149.69,12.38,223.48-32.48,223.48-32.48,10.23-65.29,17.52-81.9,103-117.4,0,0-108.17,8.59-129.93.14S2780.56,1451,2780.56,1451Z"/><path class="cls-26" d="M2972.19,1050.55s-33.47-39.6-69.05,9c-6.45,8.8-31.2,1.54-40.28,20a23.37,23.37,0,0,1-25.23,13c-26-4.79-68.41-5.19-89.36,35.5-16,31.06-3.65,49.24,12.34,59.6,11.74,7.61,15.93,23.07,8.83,35.13-6.81,11.56-8.09,27.22,9.5,46.07,39.41,42.25,117.43-26.8,117.43-26.8l62-146.38Z"/><path class="cls-27" d="M2910.52,1441.56s56-53.29,83.51-88.59a74.87,74.87,0,0,0,12.68-67.39c-12.57-42.38-34.93-86.26-37-93.09-3.13-10.47-65.88-10-65.88-10s-123.47,80.14-172,215.89l54.49,17s32.24-54.09,64.09-88.47c0,0-55.12,72.81-57.06,102.62Z"/><path class="cls-28" d="M3017.15,1462.58l-42.05-45.75-48.57,13.08s-56.61,8.77-89,0l-32.4-8.77-73.23-22.8-11.5,32.5a19.57,19.57,0,0,0,7.15,22.49c6.33,4.5,13.76,9.45,18.49,11.52,9.65,4.22,222.15,1.33,222.15,1.33Z"/><path class="cls-29" d="M2947,1107l-42.17,78.42c2.78,17.12,45.9,17.6,52.56,7.38a10.1,10.1,0,0,0,1.32-3.46l25.23-52.4c1.08-5.11-12.93-22.32-17.54-24.78l-16.76-8.92C2943.19,1099.81,2970.12,1099.54,2947,1107Z"/><path class="cls-30" d="M3032.35,1088.6s4.76,26.5-16.06,60.19-41.57,32.16-52.1,20.15-23.16-32-17.42-65.62S3025.16,1054.81,3032.35,1088.6Z"/><path class="cls-31" d="M2972,1107s33.72-44.3,59.61-5.68l-.44,13.33s33.67-1.57,30-32.6-31.13-52.23-69.24-41.62-60.36,22.67-64.67,49.13,17.3,22.13,17.3,22.13,8.25-18.26,18.22-19.5,6.36,13.19,6.36,13.19Z"/><path class="cls-32" d="M2964.25,1105.79s17.47-22.67,1.56-27.38-15.3,22.22-14.27,32.23Z"/><path class="cls-33" d="M2878,1480.69h.44l193.42-.21a8.66,8.66,0,0,0,0-17.31l-193.42.21a8.66,8.66,0,0,0-.42,17.3Z"/><path class="cls-34" d="M3245.69,1305.08H3084.61a30.71,30.71,0,0,0-27.77,17.61l-74.46,157.9h200.17a18.65,18.65,0,0,0,17.35-11.8l57.75-146.12A12.86,12.86,0,0,0,3245.69,1305.08Z"/><path class="cls-35" d="M3132.21,1386c-3.49,10.85-.92,21.38,5.76,23.53s14.91-4.9,18.4-15.75.91-21.38-5.76-23.52S3135.7,1375.2,3132.21,1386Z"/><path class="cls-36" d="M1611.35,2914.58c-23.44,2-64.11,5.32-96.18,6.73-19.28.85-30.37-1-36.76-3.6,0,.72,0,1.41.06,2a6.63,6.63,0,0,0,6.3,6.26,1128.27,1128.27,0,0,0,125.93.13,4.73,4.73,0,0,0,3.85-7.1A40.08,40.08,0,0,0,1611.35,2914.58Z"/><path class="cls-37" d="M1515.17,2921.31c32.07-1.41,72.74-4.7,96.18-6.73-23-28.27-96.18-47.32-96.18-47.32h-20.66c-14.2,20.48-16.26,40-16.1,50.45C1484.8,2920.27,1495.89,2922.16,1515.17,2921.31Z"/><path class="cls-38" d="M1491,2833.54l1.93,38.25a8.75,8.75,0,0,0,7.46,8.22,34,34,0,0,0,15.51-1.29,10.32,10.32,0,0,0,7-7.94l6.68-37.24Z"/><path class="cls-39" d="M1222.75,2921c-10.17-1.41-14.77-6.69-16.69-12.34a.75.75,0,0,0,0,.16c-1.5,5.95,2,12.12,8.9,15,8.38,3.55,17.53,4.16,24.64,3.86,7.63-.31,14.63-3.47,18.48-8.52l.06-.08C1250.44,2922.94,1239.7,2923.39,1222.75,2921Z"/><path class="cls-40" d="M1270.66,2833.29h-17c-26-.53-42.24,54.2-47.57,75.39,1.92,5.65,6.52,10.93,16.69,12.34,17,2.37,27.69,1.92,35.35-1.87,14-18.44,21-45.46,24.31-61.23C1286.21,2840,1270.66,2833.29,1270.66,2833.29Z"/><path class="cls-41" d="M1255.82,2797.79l-9.46,37.62a10.21,10.21,0,0,0,5.31,11.57c5.29,2.72,12.74,5.57,19.59,4.75a8.54,8.54,0,0,0,7-5.69l13.89-39.58Z"/><path class="cls-42" d="M1244.54,2808.66c11.77,10.44,50,11.82,50,11.82,137.89-330.94,194.29-377.95,194.29-377.95-19.91,124.91-3.21,401.45-3.21,401.45,22.76,10,52.09,0,52.09,0a2131.77,2131.77,0,0,1,70.41-523.44c-93.19-2.09-142.75-34-158.93-46.78C1371.54,2399,1244.54,2808.66,1244.54,2808.66Z"/><path class="cls-43" d="M1472.9,1893.18c-17.64,88-11.32,245.46-7.17,317.29,1.17,20.19-12.93,48.18-24.32,67.28a6,6,0,0,0,2.42,8.42c19.07,9.8,83.68,40.18,158.57,44a10.67,10.67,0,0,0,10.74-8c55.55-207.4,120.07-339.94,120.07-339.94C1662,1868.46,1472.9,1893.18,1472.9,1893.18Z"/><path class="cls-44" d="M1498.28,2434.69a4.41,4.41,0,0,1-3.77-6.71c.74-1.22,18.58-30,54.67-47.46a4.41,4.41,0,1,1,3.84,7.95c-33.65,16.24-50.79,43.83-51,44.11A4.43,4.43,0,0,1,1498.28,2434.69Z"/><path class="cls-45" d="M1362.25,2145.7c5.67,41,22.41,85.69,55.9,133.18l12.73-10.37s-14.7-59.63-6.34-127.29C1403.88,2137.19,1379.48,2141.34,1362.25,2145.7Z"/><path class="cls-46" d="M1492.6,2001.74l-19.7-108.56s-131.64,100.62-110.65,252.52c17.23-4.36,41.63-8.51,62.29-4.48C1430.55,2092.47,1448.53,2039.55,1492.6,2001.74Z"/><path class="cls-47" d="M1733.21,1982.21l-50.81,109.43c8.21,66.07,43.71,94.64,82,105.6a232.16,232.16,0,0,1,17.07-71.27C1732.54,2075.49,1733.21,1982.21,1733.21,1982.21Z"/><path class="cls-48" d="M1781.44,2126a232.16,232.16,0,0,0-17.07,71.27c102.1,39.61,129.11-37.22,129.11-37.22l-18.86-3.32C1832,2161.18,1802.24,2147.45,1781.44,2126Z"/><path class="cls-49" d="M1686.4,1847.11l-24.54,90.18A17.54,17.54,0,0,1,1638.4,1949a357.72,357.72,0,0,1-35.35-16.15,23.63,23.63,0,0,1-8.34-34l51-76Z"/><path class="cls-50" d="M1940.28,2099.68,1311.7,2328.46a48.12,48.12,0,0,0-27.35,65.15l1.9,4.19a44.74,44.74,0,0,0,59.51,22.09l610.35-282.35Z"/><ellipse class="cls-51" cx="2229.2" cy="1962.06" rx="310.3" ry="304.7"/><path class="cls-52" d="M2229.2,1623c-190.69,0-345.28,151.8-345.28,339s154.59,339.05,345.28,339.05,345.28-151.8,345.28-339.05S2419.89,1623,2229.2,1623Zm0,628.3c-162.68,0-294.56-129.5-294.56-289.25s131.88-289.24,294.56-289.24,294.56,129.5,294.56,289.24S2391.88,2251.31,2229.2,2251.31Z"/><path class="cls-20" d="M1910.17,2004.16a2.41,2.41,0,0,1-2.39-2.11c-1-8-1.75-16.22-2.15-24.32a2.42,2.42,0,0,1,2.29-2.54,2.39,2.39,0,0,1,2.54,2.3c.39,8,1.11,16,2.12,24a2.42,2.42,0,0,1-2.1,2.7Zm2.38-94.8a3,3,0,0,1-.43,0,2.43,2.43,0,0,1-2-2.81,312,312,0,0,1,18.64-63.77v0c49.8-120.77,167.71-198.82,300.4-198.82a327.27,327.27,0,0,1,174,49.71,2.42,2.42,0,0,1-2.58,4.1,322.43,322.43,0,0,0-171.38-49c-130.73,0-246.89,76.87-295.93,195.84a306.65,306.65,0,0,0-18.34,62.78A2.43,2.43,0,0,1,1912.55,1909.36Z"/><path class="cls-53" d="M1740.06,1778.59c.23,1.55-20.46,102.91-20.46,102.91l-57.62-13,5.33-99S1736.32,1752.67,1740.06,1778.59Z"/><path class="cls-54" d="M1680.27,1791.54l-6.89,51.88a7.79,7.79,0,0,0,0,2c.58,4.07,3.61,17.91,17.59,13.95,12.68-3.59,24.31-6.68,32.34-4.22a7.31,7.31,0,0,1,5,8.45c-1.89,9.21-6.51,29.88-13.27,47.23a7.28,7.28,0,0,1-8.85,4.31c-10.93-3.19-33.79-10.55-50.8-20.78a7.34,7.34,0,0,1-3.56-6.58c.55-13.1,2.09-52.92.8-64.08-1.21-10.48-14.07-16.75-19.66-19a7.17,7.17,0,0,1-4-4c-2.59-6.48-6.16-21.48,12.75-27.63a7.31,7.31,0,0,0,4.63-9.46c-2.8-7.8-4-19.69,10.64-26.25,14.87-6.66,26,1.27,32,7.71a7.32,7.32,0,0,0,9.32,1.1c1.71-1.09,3.92-1.44,6.58.22a7.2,7.2,0,0,0,10.2-3.09c3.56-7.31,10.82-15.13,25.37-12.64,25.82,4.42,28.75,33,21.93,49.8s-34.53,10.38-48.44,1.93c-10.57-6.43-24.29.31-30.26,3.91A7.25,7.25,0,0,0,1680.27,1791.54Z"/><path class="cls-55" d="M1650.35,1842.61s10.61-29.73-.29-37-27.06-3.5-23.51,18C1631,1850.42,1650.35,1842.61,1650.35,1842.61Z"/><path class="cls-56" d="M1425.63,2266.7l59.42-4.84,25.74,23.72s-6.09,8.41-25.13,3.58-45.1-6-45.1-6-26.28,11.85-26.6-10.32Z"/><path class="cls-57" d="M1885.92,2174.08c5.13,4,22.74-4.37,33.52-10.16a12.41,12.41,0,0,0,6-14.65c-2.6-8.18-6.92-18.73-12.24-20.06C1904.36,2127,1864.74,2157.54,1885.92,2174.08Z"/><path class="cls-20" d="M1324.1,2411.19a2.42,2.42,0,0,1-.79-.13c-24.62-8.51-30.34-23.06-30.8-33.76-.68-15.65,9.15-30.16,24.45-36.13l75.47-29.43a2.42,2.42,0,1,1,1.76,4.51l-75.47,29.43c-13.37,5.21-22,17.83-21.37,31.41.58,13.39,9.84,23.28,27.54,29.4a2.42,2.42,0,0,1-.79,4.7Z"/><path class="cls-20" d="M1416.57,2307.34a2.42,2.42,0,0,1-.88-4.67l9.78-3.81a2.42,2.42,0,1,1,1.76,4.51l-9.78,3.81A2.48,2.48,0,0,1,1416.57,2307.34Z"/><path class="cls-58" d="M3262.32,561.21S3141.13,707.47,3145.51,722s237.55,203.66,256.8,187.39,128.93-134.33,128.93-134.33C3426.6,651,3275.57,548.54,3262.32,561.21Z"/><path class="cls-20" d="M3394.58,1059.08c-50,0-259.51-151.78-339.29-232.87-41.69-42.36-42.71-57.81-39.85-65.74C3032.7,712.52,3234.51,405,3310,395.9l1.88-.23,1.54,1.12c38.54,28,376.62,274.55,379.12,317.69,1.75,30-98.34,147.88-129.06,183.3-62.11,71.62-139.81,152.41-163.65,160.55A16.11,16.11,0,0,1,3394.58,1059.08Zm-85.24-653.29c-68.38,13.07-266.91,308.27-284.8,358-1.08,3-1.54,15.84,37.65,55.68,87.1,88.52,292,230.2,331.19,230.21a10.52,10.52,0,0,0,3.32-.46c18.36-6.28,86.91-74.09,159.46-157.75,75.58-87.14,127.68-159.68,126.71-176.39C3681.18,685.94,3459.19,514.63,3309.34,405.79Z"/><path class="cls-20" d="M3398.87,915.24a25.2,25.2,0,0,1-7-1.2c-43.84-13-245.39-172-251-190.64-4.46-14.81,71.85-109.91,117.73-165.28a4.84,4.84,0,0,1,7.45,6.18c-56.27,67.91-114.59,144.55-115.8,156.52,10.3,18.7,227.75,191.52,249.28,184.67,18.48-15.69,124.11-128.81,125.17-130a4.84,4.84,0,1,1,7.08,6.6c-4.37,4.68-107.09,114.69-126.34,131A9.87,9.87,0,0,1,3398.87,915.24Z"/><path class="cls-20" d="M3500.65,788c-56.17,0-166.13-22.66-183.08-33.35-22.07-13.92-70.06-170.94-59.7-195.37,1.46-3.43,5.33-6.86,15.49-3.67,26.19,8.23,94.95,59.08,151.47,105.83,43,35.59,114.7,97.8,111.15,114.59-.79,3.71-3.53,6.59-8.16,8.55C3522.16,787,3512.62,788,3500.65,788ZM3266.47,564c-6.75,22.93,38.76,171.48,56.27,182.52S3494.92,788,3524.06,775.7c1.9-.8,2.42-1.5,2.45-1.63-.49-12.46-85.89-91.81-176-158.68C3295.29,574.37,3272,563.88,3266.47,564Zm-4.15-2.78h0Z"/><path class="cls-20" d="M3231.12,662.37a4.83,4.83,0,0,1-3.78-7.85l11.49-14.45a4.84,4.84,0,1,1,7.57,6l-11.49,14.45A4.83,4.83,0,0,1,3231.12,662.37Z"/><path class="cls-20" d="M3455.65,741a4.87,4.87,0,0,1-3.79-1.82c-27.68-34.65-141.6-114.69-142.75-115.49a4.84,4.84,0,1,1,5.56-7.92c4.73,3.31,116.21,81.64,144.75,117.37a4.84,4.84,0,0,1-3.77,7.86Z"/><g class="cls-59"><path class="cls-60" d="M3440.21,291.39c-9.18-78.4,80.07-189,241.52-91.29,4.43-37.12,207-152.61,300.78,90.35,16-58.93,163.06-29.38,189.5,70.22,55.26-24.58,188.17,98.85,12.28,120.16C3959.67,508,3445,500.16,3352.76,365.38S3440.21,291.39,3440.21,291.39Z"/><path class="cls-61" d="M4340.92,183.09c-5.88-50.29,51.37-121.25,154.93-58.56,2.85-23.81,132.77-97.9,192.94,57.95,10.29-37.79,104.59-18.84,121.56,45.05,35.44-15.77,120.7,63.41,7.87,77.07C4674.14,322.06,4344,317,4284.83,230.55S4340.92,183.09,4340.92,183.09Z"/></g><path class="cls-62" d="M1335.17,784.36c214.45-3.16,1275.21-21.73,1492.93-25.55a38.42,38.42,0,0,1,39.09,38.42v99.32A38.43,38.43,0,0,1,2828.76,935h-1493a38.43,38.43,0,0,1-38.43-38.42V822.78A38.41,38.41,0,0,1,1335.17,784.36Z"/><path class="cls-63" d="M1605.54,860.85h0a38.67,38.67,0,0,0,39.34,38.66l865.08-15a38.66,38.66,0,0,0,36.88-47.87l-3.93-16A38.69,38.69,0,0,0,2504,791.14L1642.82,822.2A38.67,38.67,0,0,0,1605.54,860.85Z"/><path class="cls-20" d="M1412.34,866.22l-133,135.4a13.66,13.66,0,0,0,1,20l1,.84a12.7,12.7,0,0,0,17.94-1.62L1421,874Z"/><path class="cls-64" d="M1549,757.76c20.57,43.09,1.66,95-42.22,115.94s-96.13,3-116.69-40.1-1.66-95,42.22-115.94S1528.4,714.67,1549,757.76Z"/><path class="cls-20" d="M1428.07,708.86c-48.83,23.3-69.86,81.06-47,129s81,67.93,129.85,44.63,69.86-81.07,47-129S1476.9,685.56,1428.07,708.86Zm76.78,160.88c-41.65,19.88-91.25,2.84-110.77-38.07s-1.58-90.18,40.08-110.06,91.25-2.83,110.77,38.07S1546.51,849.86,1504.85,869.74Z"/><path class="cls-20" d="M1381.68,822.68a2.43,2.43,0,0,1-2.33-1.78,90.37,90.37,0,0,1-3.08-19,2.42,2.42,0,0,1,2.29-2.55,2.44,2.44,0,0,1,2.55,2.29,84.79,84.79,0,0,0,2.91,18,2.43,2.43,0,0,1-2.34,3.06Z"/><path class="cls-20" d="M1303.32,985.2a2.43,2.43,0,0,1-1.76-4.08l2-2.17a2.42,2.42,0,1,1,3.53,3.31l-2,2.18A2.45,2.45,0,0,1,1303.32,985.2Z"/><path class="cls-65" d="M4299.12,1729.25s-124.44,159.33,17.54,321.37l53.38-5s-102.75-165-57-296.5l75.61,5.52,41.81-27.25Z"/><path class="cls-66" d="M4367.28,2509.3S4468.1,2729.05,4521,2820.06c0,0,10.5,57.28,0,75.28l-9,4,41.79-1.24s3.71-77,.81-81.34-8.69-4-8.69-4-17.92-142-69.81-172.25l-50.29-173.21Z"/><path class="cls-67" d="M4494.2,2910.11c-.06,1,32.63.55,50.39.23a14.13,14.13,0,0,0,13.54-11.14l13.41-70.46a12.66,12.66,0,0,0-9.62-14.72l-7.48-1.71s-10.68,14.65-7.32,28.44,6.35,49.52-2.14,53.68-32.94,4.89-32.94,4.89S4494.76,2901,4494.2,2910.11Z"/><path class="cls-68" d="M4271.71,2911.39a3.69,3.69,0,0,0,1.87,6.9c29.72-.3,96.31-1.24,102.23-3.7,7.64-3.18-2.79-30.63-13.76-39.93l-60.57,19.77Z"/><path class="cls-69" d="M4252.91,2495.29s65.15,315.19,83.59,376.67l-43.61,27.36s21.85-3.71,38.06-4.89,31.1-19.77,31.1-19.77l-5.22-8.33s-16.34-313.47-12.36-349.07Z"/><path class="cls-70" d="M4091.18,1760.1s-9,164,140.28,247.74l-35.93,82s-135.15-81.75-130.16-304.7a25.87,25.87,0,0,0-6.34-17.46l-28.72-33.32a51.54,51.54,0,0,1-11-46.18l3.78-15.12a7.84,7.84,0,0,1,11.54-4.87l3,1.75a52.72,52.72,0,0,1,21.66,24.06l14.1,31.53a30.31,30.31,0,0,0,30.27,17.82l8.72-.75Z"/><path class="cls-71" d="M4376.34,2035.08a33.63,33.63,0,0,0-23.19-13.31c-49.24-5.56-106.63-20.72-126.45-26.22a7.87,7.87,0,0,0-9.56,5.1l-25.75,78.77a14.4,14.4,0,0,0,5.7,16.44l5.28,3.52c-3.84,11.41-8.89,23.28-2.1,33.24,23.48,34.46,53.24,103.59,53.24,103.59l105.74.47-2.58-29.85,25.82-145.73A33.72,33.72,0,0,0,4376.34,2035.08Z"/><path class="cls-72" d="M4244.61,2220.59l2.08,18.08s-29.88,89.49,14.94,298.49c0,0,97.07,27.5,176.86-38.31,0,0-22.51-197.26-28.66-206.45-30.61-45.77-51-55.72-51-55.72l-.92-19.75S4272.57,2232.35,4244.61,2220.59Z"/><path class="cls-73" d="M4286,2010.3c-.37-.49,22.08-67.76,22.08-67.76l32.15,2.92,12.56,76.32S4302.4,2032,4286,2010.3Z"/><path class="cls-74" d="M4348.34,1857.32s-32.87-.1-69,32.09-29.86,56.8-13.18,66.92,43.42,21.05,82.61,7S4390.5,1858.8,4348.34,1857.32Z"/><path class="cls-75" d="M4339.07,1933.81s46.1-50-5.82-72.89l-15.95,3.35s-5.25-40.81,32.84-43,79.1,31.68,74.44,79.75-24.15,72.09-55.05,82.87-30.29-16.1-30.29-16.1,20.2-13.8,19.59-26-17.22-4.86-17.22-4.86Z"/><path class="cls-76" d="M4342.13,1942.86s23.55-25.81,32.58-7.69-23.46,23.12-35.72,24Z"/><path class="cls-77" d="M4410.31,1926.08c-3.2-10.95,7.86-20.65,18.63-16.9,34.77,12.14,81,43.37,64.86,123.06-18.17,89.77-23.76,136.52-11.92,151.57,7.78,9.88.9,24.33-11.64,23.47-9.28-.63-20.63-5.16-34.16-16.72C4331.68,2101.38,4429.08,1990.32,4410.31,1926.08Z"/><path class="cls-78" d="M3506,1341.72l1222.77-59.28c24-1.17,30.32,17.74,30.65,28.27l26.55,400.85c.34,10.6-19.23,20-43.38,20.72-221.25,7-1186.33,38-1229.63,40.78-42.79,2.69-37.21-315.86-34.46-397.78C3478.81,1365.15,3483,1342.84,3506,1341.72Z"/><path class="cls-20" d="M3517.74,1761.82l-.7-1.36c-16.95-32.57-22.72-167.54-14.71-343.85.14-3,3.77-4.18,7.12-4.34l1222.79-58.65a12.14,12.14,0,0,1,4.46.52c2.68.89,3.12,2.58,3.15,3.5l10.58,357.93c.08,2.54-2.77,4.38-7.1,4.58h-.2c-175.86,5.84-1061.38,35.24-1223.85,41.61Zm-10.61-344.22c-7.82,172.74-2.51,305.14,13.53,339.26,166.52-6.49,1047-35.73,1222.31-41.54h.19a7.77,7.77,0,0,0,2.41-.46L4735,1358.71a7.9,7.9,0,0,0-2.57-.26l-1222.79,58.66A7.63,7.63,0,0,0,3507.13,1417.6Z"/><g class="cls-59"><path class="cls-20" d="M4113.23,1484.49a26.68,26.68,0,0,0-19.43-7.37l-486.32,18.64a26.45,26.45,0,0,0-25.4,28.13l11,168.52a26.42,26.42,0,0,0,27.26,24.7l475.49-16a26.6,26.6,0,0,0,25.73-26.42V1503.53A26.6,26.6,0,0,0,4113.23,1484.49Z"/><path class="cls-20" d="M4187.13,1412.82l-612.47,28.36c-6.87.32-12.14,7.55-11.8,16.16v.28c.35,8.6,6.17,15.39,13.06,15.16l612.77-20.59a19.46,19.46,0,0,0,18.73-20.29v-.35A19.46,19.46,0,0,0,4187.13,1412.82Z"/><path class="cls-20" d="M4682.34,1465.79a17.43,17.43,0,0,0-12.67-4.86l-490.2,16.21a17.34,17.34,0,0,0-16.68,19.16l1,9.8a17.34,17.34,0,0,0,18,15.47L4671,1500.25a17.4,17.4,0,0,0,16.65-17.32v-4.68A17.45,17.45,0,0,0,4682.34,1465.79Z"/><path class="cls-20" d="M4682.34,1532.66a17.48,17.48,0,0,0-12.67-4.87L4179.47,1544a17.35,17.35,0,0,0-16.68,19.17l1,9.79a17.34,17.34,0,0,0,18,15.48L4671,1567.12a17.4,17.4,0,0,0,16.65-17.32v-4.68A17.43,17.43,0,0,0,4682.34,1532.66Z"/><path class="cls-20" d="M4682.34,1599.53a17.44,17.44,0,0,0-12.67-4.87l-490.2,16.21a17.34,17.34,0,0,0-16.68,19.17l1,9.79a17.34,17.34,0,0,0,18,15.48L4671,1634a17.4,17.4,0,0,0,16.65-17.32V1612A17.41,17.41,0,0,0,4682.34,1599.53Z"/></g><path class="cls-20" d="M4569.58,1324.32a23.32,23.32,0,0,1-22.57,24l-16.3.51a23.3,23.3,0,0,1-24-22.57l0-.57a23.32,23.32,0,0,1,22.56-24l16.3-.51a23.32,23.32,0,0,1,24,22.56Z"/><rect class="cls-20" x="4581.35" y="1299.07" width="62.93" height="47.2" rx="23.31" transform="matrix(1, -0.03, 0.03, 1, -39.42, 146.16)"/><path class="cls-20" d="M4719,1319.61a23.3,23.3,0,0,1-22.56,24l-16.3.52a23.32,23.32,0,0,1-24-22.57l0-.57a23.32,23.32,0,0,1,22.57-24l16.3-.51a23.29,23.29,0,0,1,24,22.56Z"/><path class="cls-20" d="M3925.25,859H3891a7.61,7.61,0,0,1-7.6-7.61V749a7.6,7.6,0,0,1,7.6-7.6h34.22a7.6,7.6,0,0,1,7.6,7.6V851.37A7.61,7.61,0,0,1,3925.25,859Zm-26.61-15.21h19V756.61h-19Z"/><path class="cls-20" d="M3992.69,859h-46.77a7.61,7.61,0,0,1-7.6-7.61v-169a7.61,7.61,0,0,1,7.6-7.61h46.77a7.61,7.61,0,0,1,7.61,7.61v169A7.61,7.61,0,0,1,3992.69,859Zm-39.16-15.21h31.56V690h-31.56Z"/><path class="cls-20" d="M4080.84,859h-64.92a7.61,7.61,0,0,1-7.6-7.61V646.63a7.6,7.6,0,0,1,7.6-7.6h64.92a7.61,7.61,0,0,1,7.61,7.6V851.37A7.61,7.61,0,0,1,4080.84,859Zm-57.31-15.21h49.71V654.24h-49.71Z"/><path class="cls-20" d="M4198.35,859h-77.74a7.61,7.61,0,0,1-7.6-7.61V603.68a7.61,7.61,0,0,1,7.6-7.61h77.74a7.61,7.61,0,0,1,7.61,7.61V851.37A7.61,7.61,0,0,1,4198.35,859Zm-70.13-15.21h62.53V611.28h-62.53Z"/><polygon class="cls-79" points="4555.99 1074.04 4570.64 1134.73 4605.45 1098.72 4555.99 1074.04"/><path class="cls-80" d="M4820.52,973.32l-129.21,183.34a15.79,15.79,0,0,1-22.5,3.46l-179.2-136.67a6.33,6.33,0,0,1,3.1-11.32Z"/><polygon class="cls-81" points="4556.01 1074.04 4820.52 973.32 4584.86 1096.18 4588.2 1113.19 4556.01 1074.04"/><polygon class="cls-82" points="4602.06 1109.18 4570.64 1134.73 4584.86 1096.18 4602.06 1109.18"/><g class="cls-83"><path class="cls-20" d="M3059.2,1261.14l-11.84-8.26-.05,0a3.43,3.43,0,1,1,3.93-5.63h0l11.92,8.38a3.41,3.41,0,1,1-3.93,5.58Z"/><path class="cls-20" d="M3019.1,1234.51l-12.38-7.44-.07,0a3.52,3.52,0,0,1,3.63-6h0l12.48,7.56a3.5,3.5,0,1,1-3.62,6Z"/><path class="cls-20" d="M2977.21,1210.84l-12.92-6.44-.08,0a3.6,3.6,0,1,1,3.21-6.45h0l13.06,6.56a3.58,3.58,0,0,1-3.21,6.39Z"/><path class="cls-20" d="M2933.52,1190.86l-13.46-5.14-.11,0a3.68,3.68,0,0,1,2.63-6.87h0l13.65,5.26a3.66,3.66,0,0,1-2.63,6.83Z"/><path class="cls-20" d="M2888.1,1175.31l-13.91-3.76-.11,0a3.77,3.77,0,1,1,2-7.27h0l14.11,3.87a3.74,3.74,0,0,1-2,7.21Z"/><path class="cls-20" d="M2841.36,1164.46l-14.22-2.28-.12,0a3.85,3.85,0,0,1,1.22-7.6h0l14.45,2.37a3.82,3.82,0,0,1-1.23,7.54Z"/><path class="cls-20" d="M2793.76,1158.71l-14.36-.66h-.15a3.93,3.93,0,0,1,.36-7.85h0l14.64.72a3.9,3.9,0,0,1-.39,7.79Z"/><path class="cls-20" d="M2745.87,1158.58l-14.31,1.16h-.16a4,4,0,0,1-.64-8h0l14.64-1.13a4,4,0,0,1,.61,7.94Z"/><path class="cls-20" d="M2698.45,1164.7l-14,3.14-.18,0a4.09,4.09,0,1,1-1.79-8h0l14.36-3.17a4.06,4.06,0,1,1,1.75,7.93Z"/><path class="cls-20" d="M2652.51,1177.62l-13.31,5.26-.19.07a4.17,4.17,0,0,1-3.07-7.76h0l13.7-5.36a4.14,4.14,0,1,1,3,7.72Z"/><path class="cls-20" d="M2609.28,1197.67c-4.07,2.48-8.21,4.85-12.24,7.4l0,0a4.25,4.25,0,0,1-4.56-7.18h0c4.16-2.62,8.43-5.05,12.65-7.59a4.23,4.23,0,0,1,4.35,7.25Z"/><path class="cls-20" d="M2570.17,1224.78l-10.73,9.44-.17.15a4.33,4.33,0,0,1-5.72-6.51h0l11.1-9.7a4.31,4.31,0,0,1,5.67,6.49Z"/><path class="cls-20" d="M2536.38,1258.29l-9,11.11-.13.17a4.42,4.42,0,0,1-6.87-5.56h0l9.31-11.42a4.39,4.39,0,1,1,6.81,5.55Z"/><path class="cls-20" d="M2508.51,1296.92l-7.17,12.39-.1.17a4.5,4.5,0,0,1-7.79-4.5v0l7.41-12.71a4.47,4.47,0,0,1,7.73,4.5Z"/><path class="cls-20" d="M2486.79,1339.37l-5.3,13.31-.07.17a4.58,4.58,0,1,1-8.51-3.39h0l5.49-13.65a4.56,4.56,0,0,1,8.45,3.41Z"/><path class="cls-20" d="M2471.28,1384.5l-3.44,13.91-.05.18a4.66,4.66,0,1,1-9.05-2.24h0l3.58-14.26a4.63,4.63,0,1,1,9,2.26Z"/><path class="cls-20" d="M2462,1431.32l-1.58,14.26,0,.18a4.74,4.74,0,1,1-9.42-1h0l1.68-14.63a4.72,4.72,0,1,1,9.37,1.08Z"/><path class="cls-20" d="M2458.86,1479l.29,14.32v.2a4.83,4.83,0,1,1-9.65.19h0l-.25-14.71a4.8,4.8,0,0,1,9.6-.16Z"/><path class="cls-20" d="M2462.05,1526.59l2.2,14.14,0,.2a4.9,4.9,0,1,1-9.69,1.51h0l-2.22-14.55a4.89,4.89,0,0,1,9.66-1.48Z"/><path class="cls-20" d="M2471.69,1573.28c1.36,4.57,2.67,9.15,4.17,13.69a5,5,0,0,1-9.48,3.13v0c-1.52-4.66-2.86-9.4-4.25-14.11a5,5,0,0,1,9.53-2.8Z"/><path class="cls-20" d="M2487.63,1618.26l5.87,13.08.08.16a5.08,5.08,0,0,1-9.26,4.16v0l-6-13.43a5,5,0,0,1,9.23-4.1Z"/><path class="cls-20" d="M2509,1661l7.38,12.3.09.15a5.15,5.15,0,0,1-8.84,5.3h0l-7.51-12.63a5.13,5.13,0,1,1,8.81-5.24Z"/><path class="cls-20" d="M2535.18,1701l8.71,11.41.1.13a5.24,5.24,0,1,1-8.33,6.35h0l-8.86-11.71a5.21,5.21,0,1,1,8.3-6.29Z"/><path class="cls-20" d="M2565.57,1737.88l9.84,10.45.11.12a5.32,5.32,0,0,1-7.74,7.29h0l-10-10.72a5.29,5.29,0,0,1,7.73-7.23Z"/><path class="cls-20" d="M2599.56,1771.56l10.83,9.45.11.1a5.4,5.4,0,1,1-7.1,8.13h0l-11-9.69a5.37,5.37,0,1,1,7.09-8.07Z"/><path class="cls-20" d="M2636.64,1801.85l11.65,8.42.13.08a5.48,5.48,0,0,1-6.42,8.89h0l-11.86-8.63a5.46,5.46,0,1,1,6.41-8.83Z"/><path class="cls-20" d="M2676.33,1828.66l12.35,7.35.13.07a5.56,5.56,0,0,1-5.69,9.56h0l-12.57-7.53a5.54,5.54,0,0,1,5.69-9.5Z"/><path class="cls-20" d="M2718.22,1851.88l12.94,6.25.13.06a5.64,5.64,0,0,1-4.9,10.17h0l-13.18-6.42a5.62,5.62,0,1,1,4.92-10.1Z"/><path class="cls-20" d="M2762,1871.4c4.46,1.73,8.93,3.45,13.43,5.11a5.72,5.72,0,1,1-3.93,10.75h0c-4.57-1.7-9.13-3.47-13.68-5.26a5.7,5.7,0,1,1,4.17-10.61Z"/><path class="cls-20" d="M2807.23,1887.2l13.8,4.07.12,0a5.81,5.81,0,0,1-3.28,11.14h0l-14-4.19a5.78,5.78,0,1,1,3.3-11.08Z"/><path class="cls-20" d="M2853.56,1899.59l14.07,3.08.11,0a5.89,5.89,0,1,1-2.51,11.51h0l-14.29-3.17a5.86,5.86,0,0,1,2.54-11.45Z"/><path class="cls-20" d="M2900.67,1908.74l14.25,2.14.11,0a6,6,0,0,1-1.78,11.8h0l-14.46-2.22a5.95,5.95,0,0,1,1.81-11.76Z"/><path class="cls-20" d="M2948.3,1914.85l14.35,1.28h.11a6.05,6.05,0,1,1-1.08,12.06h0l-14.56-1.35a6,6,0,0,1,1.11-12Z"/><path class="cls-20" d="M2996.23,1918.18l14.39.48h.1a6.13,6.13,0,0,1-.42,12.26h0l-14.58-.55a6.11,6.11,0,1,1,.46-12.21Z"/><path class="cls-20" d="M3044.26,1919l14.43-.23h.09a6.22,6.22,0,0,1,.2,12.43h0l-14.61.18a6.19,6.19,0,1,1-.16-12.38Z"/><path class="cls-20" d="M3092.34,1917.4l14.43-.88h.08a6.3,6.3,0,0,1,.77,12.57h0l-14.6.84a6.27,6.27,0,0,1-.72-12.52Z"/><path class="cls-20" d="M3140.35,1913.76l14.39-1.47h.07a6.38,6.38,0,1,1,1.3,12.69h0l-14.54,1.44a6.36,6.36,0,1,1-1.25-12.65Z"/><path class="cls-20" d="M3188.21,1908.23l14.31-2h.07a6.46,6.46,0,1,1,1.78,12.8h0l-14.45,2a6.44,6.44,0,0,1-1.73-12.76Z"/><path class="cls-20" d="M3235.81,1901l14.22-2.5.07,0a6.54,6.54,0,0,1,2.27,12.89h0l-14.36,2.48a6.52,6.52,0,1,1-2.22-12.85Z"/><path class="cls-20" d="M3283.13,1892.05l14.13-3h.06a6.62,6.62,0,1,1,2.75,13h0l-14.27,3a6.6,6.6,0,0,1-2.69-12.93Z"/><path class="cls-20" d="M3330.12,1881.52l14-3.46h.06a6.71,6.71,0,0,1,3.22,13h0l-14.16,3.44a6.68,6.68,0,1,1-3.16-13Z"/><path class="cls-20" d="M3376.73,1869.47l13.9-3.91.06,0a6.79,6.79,0,1,1,3.67,13.08h0l-14,3.89a6.76,6.76,0,0,1-3.61-13Z"/><path class="cls-20" d="M3422.94,1856l13.79-4.33h.05a6.87,6.87,0,1,1,4.12,13.11h0L3427,1869a6.85,6.85,0,0,1-4.06-13.08Z"/><path class="cls-20" d="M3468.74,1841.05l13.66-4.72,0,0a7,7,0,1,1,4.55,13.14h0l-13.78,4.72a6.92,6.92,0,1,1-4.49-13.1Z"/><path class="cls-20" d="M3514.11,1824.85l13.52-5.11,0,0a7,7,0,1,1,5,13.16h0L3519,1838a7,7,0,0,1-4.91-13.13Z"/><path class="cls-20" d="M3559,1807.4l13.39-5.46.05,0a7.11,7.11,0,1,1,5.38,13.17h0l-13.51,5.46a7.09,7.09,0,0,1-5.32-13.15Z"/><path class="cls-20" d="M3603.48,1788.79l13.25-5.8.05,0a7.2,7.2,0,0,1,5.77,13.19h0l-13.36,5.8a7.18,7.18,0,0,1-5.71-13.17Z"/><path class="cls-20" d="M3647.48,1769.08l13.12-6.08.05,0a7.24,7.24,0,0,1,6.1,13.14l-13.2,6.15a7.26,7.26,0,0,1-6.13-13.16h0Z"/><path class="cls-20" d="M3691.07,1748.47l13-6.37,0,0a7.18,7.18,0,0,1,6.35,12.88l-13.06,6.45a7.2,7.2,0,0,1-6.38-12.91h0Z"/><path class="cls-20" d="M3734.25,1727l12.89-6.59,0,0a6.95,6.95,0,0,1,6.4,12.33l-12.88,6.79a7,7,0,0,1-6.56-12.45l0,0Z"/><path class="cls-20" d="M3777.05,1704.71l12.76-6.85,0,0a6.64,6.64,0,0,1,6.36,11.65l-12.74,7a6.73,6.73,0,0,1-6.52-11.77l0,0Z"/><path class="cls-20" d="M3819.4,1681.58l12.64-7.1,0,0a6.33,6.33,0,0,1,6.27,11l-12.6,7.3a6.43,6.43,0,0,1-6.44-11.12l0,0Z"/><path class="cls-20" d="M3861.34,1657.64l12.5-7.33h0a6,6,0,0,1,6.16,10.35l-12.45,7.52a6.11,6.11,0,1,1-6.32-10.47l0,0Z"/><path class="cls-20" d="M3902.84,1633l12.37-7.55h0a5.72,5.72,0,0,1,6,9.73l-12.32,7.73a5.81,5.81,0,0,1-6.18-9.85l0,0Z"/><path class="cls-20" d="M3943.93,1607.57l12.25-7.75h0a5.41,5.41,0,0,1,5.84,9.11l-12.19,7.93a5.5,5.5,0,0,1-6-9.23l0,0Z"/><path class="cls-20" d="M3984.62,1581.53l12.13-7.94a5.11,5.11,0,0,1,5.66,8.5l-12.07,8.12a5.2,5.2,0,0,1-5.8-8.63Z"/><path class="cls-20" d="M4024.92,1554.87l12-8.11a4.8,4.8,0,0,1,5.44,7.91l-11.95,8.29a4.89,4.89,0,1,1-5.57-8Z"/><path class="cls-20" d="M4064.84,1527.64l11.9-8.28a4.5,4.5,0,0,1,5.2,7.34l-11.83,8.45a4.59,4.59,0,0,1-5.33-7.47Z"/><path class="cls-20" d="M4104.4,1499.87l11.8-8.42a4.19,4.19,0,0,1,4.93,6.78l-11.72,8.59a4.28,4.28,0,0,1-5.06-6.9Z"/><path class="cls-20" d="M4143.62,1471.61l11.7-8.57a3.88,3.88,0,0,1,4.64,6.23l-11.61,8.73a4,4,0,1,1-4.78-6.35Z"/><path class="cls-20" d="M4182.51,1442.88l11.6-8.7a3.58,3.58,0,0,1,4.34,5.69l-11.51,8.86a3.67,3.67,0,1,1-4.48-5.81Z"/><path class="cls-20" d="M4221.08,1413.73l11.52-8.83a3.27,3.27,0,0,1,4,5.16l-11.42,9a3.36,3.36,0,0,1-4.16-5.29Z"/><path class="cls-20" d="M4259.36,1384.17l11.43-8.94a3,3,0,0,1,3.69,4.64l-11.33,9.1a3.06,3.06,0,1,1-3.83-4.77Z"/><path class="cls-20" d="M4297.35,1354.24l11.35-9a2.66,2.66,0,0,1,3.35,4.13l-11.24,9.2a2.75,2.75,0,1,1-3.49-4.26Z"/><path class="cls-20" d="M4335.08,1324l11.27-9.14a2.36,2.36,0,0,1,3,3.64l-11.17,9.29a2.45,2.45,0,0,1-3.13-3.76Z"/><path class="cls-20" d="M4372.56,1293.39l11.2-9.23a2,2,0,0,1,2.63,3.14l-11.09,9.38a2.13,2.13,0,0,1-3-.25,2.15,2.15,0,0,1,.25-3Z"/><path class="cls-20" d="M4409.82,1262.53l11.13-9.31a1.74,1.74,0,0,1,2.26,2.65l-11,9.46a1.83,1.83,0,0,1-2.38-2.78Z"/><path class="cls-20" d="M4446.86,1231.4l11.07-9.38a1.44,1.44,0,1,1,1.87,2.18l-10.95,9.52a1.53,1.53,0,1,1-2-2.3Z"/><path class="cls-20" d="M4483.71,1200.05l11-9.45a1.13,1.13,0,0,1,1.49,1.7l-10.9,9.59a1.22,1.22,0,1,1-1.62-1.83Z"/><path class="cls-20" d="M4520.38,1168.48l11-9.51a.82.82,0,0,1,1.16.08.83.83,0,0,1-.07,1.16l-10.86,9.65a.92.92,0,1,1-1.22-1.37Z"/></g></g></g></svg>