<svg id="Layer_1" data-name="Layer 1" xmlns="http://www.w3.org/2000/svg" xmlns:xlink="http://www.w3.org/1999/xlink" viewBox="0 0 5700 3000"><defs><style>.cls-1,.cls-10{fill:#f50550;}.cls-1,.cls-2{clip-rule:evenodd;}.cls-2,.cls-8,.cls-9{fill:#eec0fe;}.cls-3{fill:#fedae6;}.cls-10,.cls-11,.cls-12,.cls-13,.cls-14,.cls-17,.cls-19,.cls-3,.cls-4,.cls-5,.cls-6,.cls-8{fill-rule:evenodd;}.cls-4{fill:#3f002c;}.cls-5{fill:#a00070;}.cls-11,.cls-6,.cls-7{fill:#fff;}.cls-11{fill-opacity:0.72;}.cls-12{fill-opacity:0.25;}.cls-13{fill:#4b0218;}.cls-14{fill:#9d0333;}.cls-15{clip-path:url(#clip-path);}.cls-16{clip-path:url(#clip-path-2);}.cls-17{fill:#680222;}.cls-18{clip-path:url(#clip-path-3);}.cls-19{fill:#d563fd;}.cls-20{clip-path:url(#clip-path-4);}.cls-21{clip-path:url(#clip-path-5);}</style><clipPath id="clip-path"><path class="cls-1" d="M3789.36,1758.74a27.18,27.18,0,0,1,27.43-26.86l253.51,2.7a27.16,27.16,0,0,1,26.87,27.44c-.46,43.41-1.36,128-1.82,171.41a27.16,27.16,0,0,1-27.45,26.86l-253.51-2.7a27.14,27.14,0,0,1-26.85-27.43C3788,1886.74,3788.9,1802.16,3789.36,1758.74Z"/></clipPath><clipPath id="clip-path-2"><path class="cls-1" d="M2158.46,1676.44C2132.14,1555,2046.61,1483,1949,1461.84c-138.16-29.91-300.51,42-353.49,219.4-49.14,164.72-130,382.06-130,382.06,149.55,21.52,388.89,558.19,747.21,508.55C2212.66,2571.85,2194.85,1844.66,2158.46,1676.44Z"/></clipPath><clipPath id="clip-path-3"><path class="cls-2" d="M2510.57,1468.62c-45.17,35-54.27,179-171.21,233.79-80.22,37.61-262.58-218.48-312.58-186.3-79.19,51-114.38,273.24,26.79,366.79,91.8,60.8,239.07,156.94,411.77,83.94,178.46-75.51,137.61-391.32,145.18-474.36C2613.6,1458.38,2537.65,1447.66,2510.57,1468.62Z"/></clipPath><clipPath id="clip-path-4"><path class="cls-2" d="M2614.09,1308.9c46.51,25.41,50.51,87.26,31.55,136.62s-59.36,81.92-100.55,66.1-69-94.58-50.05-143.95c8.52-22.18,38.73,49.35,47,41.77C2596,1359.66,2609.24,1306.25,2614.09,1308.9Z"/></clipPath><clipPath id="clip-path-5"><path class="cls-2" d="M1957.5,1327.63h-155c15.18,54.44,14.34,100.74,1.12,140.75,19.32,44.86,91.94,52.17,152.91-4.77C1943.12,1410.34,1944.07,1372.53,1957.5,1327.63Z"/></clipPath></defs><g id="_9-Javascript-Keyframes" data-name=" 9-Javascript-Keyframes"><path class="cls-3" d="M1389.88,1929.52c17,160.07,113.06,142.43,115,142.56,21.54,1.33,43.66,6.81,64.49,12.16,52.77,13.58,102.26,36.8,150.17,62.41,92.49,49.5,174.67,112.8,238.9,196,68.16,88.33,130.88,222,258.18,228.77,314,16.81,421.93-441.26,743-474,200.63-20.44,350.32,107.84,515.3,199,155.44,85.9,336.48,133.67,513.36,97,66.09-13.71,130.31-37.47,188.61-71.66a466.28,466.28,0,0,0,107.31-86.16c303.34-329.53-327.41-531.79-271.41-892.17,43.26-278,425.34-459.89,260.31-783.94-31.1-61.12-76.92-111.16-144.47-130.3-270-76.49-394.59,297.24-663.26,242.86-214.88-43.51-456.17-247.47-690.16-319.71-466.56-144-1102.44,70.24-1248.54,573.29-36.41,125.32-26,242.59,8.18,366.74,17.07,62,41.53,125.5,34.54,191C1551.24,1652.84,1372.45,1765.4,1389.88,1929.52Z"/><path class="cls-3" d="M1559.8,2265.06c-.15.56.66.71,1.62.71a6.82,6.82,0,0,1-1.62-.71,1.24,1.24,0,0,1,.21-.36c.4-.5,1.06.21,1.66,1.07h-.25l.36.1a13.68,13.68,0,0,0,1.46,2c3,2.73,5.87,5.61,8.65,8.6,4.25,4.55,8.19,9.35,12.19,14.16l46.42,54.87c29.59,35.35,59.07,70.65,90.12,104.58q31.19,34.22,64.79,66.2c41.87,38.89,90.32,75.1,143.22,103.78,52.54,28.42,109.24,49.56,166.64,60.64,116.11,22.4,235.41,3.23,333.07-84a6.26,6.26,0,1,0-8.14-9.5c-76.77,62.91-164.62,83.8-252.66,77.32-66.15-4.9-132.25-25.59-194.2-55.63a744.91,744.91,0,0,1-88.51-50.62,730.47,730.47,0,0,1-81-62.21c-22.71-20.07-44.46-41.11-65.7-62.6-32.11-32.52-63.06-66.15-94-99.94L1595.1,2281c-4.4-4.8-8.8-9.61-13.45-14.16-3.24-3.09-6.47-6.07-10-8.9-1.57-1.27-5.41-4.45-6.48-4.76a6.17,6.17,0,0,0-6.32,1.37,6.1,6.1,0,0,0-1.82,6.93A6.27,6.27,0,0,0,1559.8,2265.06Z"/><path class="cls-3" d="M2338.27,2761.08c2.63-.66,7.53-1.93,10.57-2.84a37.38,37.38,0,0,0,7.08-3c5.66-3.14,11.23-6.17,16.79-9.46s10.92-6.82,16.33-10.36c8.1-5.92,16.69-11.64,24.63-18.46a233.38,233.38,0,0,0,56.44-75.2,6.25,6.25,0,1,0-10.72-6.43c-7.23,9.11-15.58,17.15-24.43,25.19-7.28,6.57-14.91,12.64-22.65,18.81-5.21,4.15-10.42,8.14-15.53,12.29-4.3,3.54-8.49,7.18-12.64,10.82s-8.24,7.64-12.34,11.38l-27.16,25.69c-2.73,2.63-9.25,5.92-13.15,8.5-3.39,2.27-5.66,4.3-6.22,5.86-1.11,3.09-1.52,5.82.81,8.05a8.25,8.25,0,0,0,4.15,2.68A6.34,6.34,0,0,0,2338.27,2761.08Z"/><path class="cls-3" d="M3206.4,417c.25-.51.36-.93.15-1.06a6.19,6.19,0,0,0-1.57-5.42,6.34,6.34,0,0,0-8.95-.36c-2.27,2-3.38,5-2.32,9.22.76,3,3.54,7.59,7.68,12.75,13.3,16.54,41.93,41.73,44.91,43.87,30.45,22,66.56,37.61,104.28,47.89,37.53,10.22,76.67,15.06,113.39,16,54.82,1,109.84-15.27,164.51-40.3,32.82-15,65.54-33.16,98.06-52.26,39.45-23.17,78.59-47.82,117.79-69.48,41-22.65,81.77-42.23,122.84-53.62,70.85-19.66,142-14.81,214.48,40.41a6.25,6.25,0,1,0,7.78-9.79c-75.05-62.4-151.21-70.56-227.88-52.4-43.24,10.24-86.63,29-130,51.49-40.05,20.7-80.16,44.39-120.11,67.36-31.91,18.33-63.72,36.17-95.53,51.28-50.47,24-100.79,41.33-151.72,41.65-35,.46-72.37-2.79-108.43-11-35.9-8.2-70.55-21.2-100.18-40.68-3.24-2.11-38.84-30.5-48.15-44.32C3207.16,417.86,3206.7,417.42,3206.4,417Zm.15-1.06a.54.54,0,0,0-.45,0c-.36.11-.15.48.2.93l-.2.55-.26.52c.21-.32.41-.66.56-1l-.1-.12A5.91,5.91,0,0,0,3206.55,416Z"/><path class="cls-3" d="M4097,248.44l-.05.06c-.46.76.2.75,1,.52a4.51,4.51,0,0,0-.56-.5h-.05l-.35-.07c.1-.1.25-.05.4.08a6.31,6.31,0,0,0,2.33-.09c-.51.18-1.17.44-1.77.59a14.26,14.26,0,0,0,1.31,1.27c8.09,5.76,27.21,20.67,29,22.69,4.1,3.85,7.89,8,12.14,11.71s8.75,7.1,13.3,10.43c7,5.13,14.06,9.77,21.24,14.55,7.43,4.9,14.62,9.27,22.1,14a6.27,6.27,0,0,0,8.5-9.21c-5.36-7.08-10.32-13.95-15.88-20.89s-11-13.49-17-19.94a114.45,114.45,0,0,0-10-9.81c-5.36-4.58-11.28-8.36-17.09-12.41a80,80,0,0,0-12.95-5.85c-9.05-3.22-20.73-6.75-27.21-8.38a45.54,45.54,0,0,0-4.95-1.18c-5-.31-7.19,1.84-7.59,3-.46,1.4-1.52,2.9-.66,4.72A6.37,6.37,0,0,0,4097,248.44Zm4.65-.76.3-.23a2.93,2.93,0,0,1-1.46.76l.6-.23A4.86,4.86,0,0,1,4101.64,247.68Zm2.78-3.64a6.76,6.76,0,0,1-1.26,2.35A3.46,3.46,0,0,0,4104.42,244Z"/><path class="cls-4" d="M3699.32,687.29a94.71,94.71,0,0,0-94.71-94.72H2323.44a94.71,94.71,0,0,0-94.71,94.72v881a94.73,94.73,0,0,0,94.71,94.72H3604.61a94.73,94.73,0,0,0,94.71-94.72Z"/><path class="cls-5" d="M3660,729.68A94.71,94.71,0,0,0,3565.24,635H2284.07a94.73,94.73,0,0,0-94.71,94.72v881a94.74,94.74,0,0,0,94.71,94.72H3565.24a94.73,94.73,0,0,0,94.71-94.72Z"/><path class="cls-6" d="M3584,867.92c0-20.54-8.94-40.23-24.87-54.75s-37.54-22.68-60-22.68H2350.22c-22.51,0-44.12,8.16-60,22.68s-24.88,34.21-24.88,54.75v720.24c0,20.54,8.95,40.23,24.88,54.75s37.54,22.68,60,22.68H3499c22.51,0,44.12-8.16,60-22.68s24.87-34.21,24.87-54.75Z"/><circle class="cls-7" cx="2365.62" cy="718.24" r="23.45" transform="translate(-94.79 959.96) rotate(-22.5)"/><circle class="cls-7" cx="2465.18" cy="718.24" r="23.45"/><circle class="cls-7" cx="2564.75" cy="718.24" r="23.45"/><path class="cls-8" d="M2781.73,932.54A20.72,20.72,0,0,0,2761,911.8H2492.57a20.72,20.72,0,0,0-20.72,20.74h0a20.72,20.72,0,0,0,20.72,20.74H2761a20.72,20.72,0,0,0,20.75-20.74Z"/><path class="cls-8" d="M2781.73,1028.86a20.74,20.74,0,0,0-20.75-20.74H2492.57a20.74,20.74,0,0,0-20.72,20.74h0a20.74,20.74,0,0,0,20.72,20.74H2761a20.74,20.74,0,0,0,20.75-20.74Z"/><path class="cls-8" d="M2781.73,1125.19a20.72,20.72,0,0,0-20.75-20.74H2492.57a20.72,20.72,0,0,0-20.72,20.74h0a20.72,20.72,0,0,0,20.72,20.74H2761a20.72,20.72,0,0,0,20.75-20.74Z"/><path class="cls-8" d="M2928.49,932.54a20.74,20.74,0,0,0-20.74-20.74H2826a20.72,20.72,0,0,0-20.74,20.74h0A20.72,20.72,0,0,0,2826,953.28h81.8a20.74,20.74,0,0,0,20.74-20.74Z"/><path class="cls-8" d="M2928.49,1028.86a20.76,20.76,0,0,0-20.74-20.74H2826a20.74,20.74,0,0,0-20.74,20.74h0a20.74,20.74,0,0,0,20.74,20.74h81.8a20.76,20.76,0,0,0,20.74-20.74Z"/><path class="cls-8" d="M2928.49,1125.19a20.74,20.74,0,0,0-20.74-20.74H2826a20.72,20.72,0,0,0-20.74,20.74h0a20.72,20.72,0,0,0,20.74,20.74h81.8a20.74,20.74,0,0,0,20.74-20.74Z"/><circle class="cls-9" cx="2407.6" cy="932.54" r="26.73"/><circle class="cls-9" cx="2407.6" cy="1028.86" r="26.73"/><circle class="cls-9" cx="2407.6" cy="1125.19" r="26.73"/><path class="cls-8" d="M2334.77,1573.14a12.42,12.42,0,0,0-11.17,4.77c-5.64,7.4-2.7,13.1-1.37,15.35a12.22,12.22,0,0,0,9.63,6.07,18.08,18.08,0,0,0,7.94-1.28c4.12-1.54,12-5.86,15.81-7.2a276.78,276.78,0,0,0,33.78-14.64c34.7-17.85,67.11-42.14,96.1-69.79,52.56-50.16,88.28-120.25,132-179.24,10.77-14.53,23-30.45,37.05-43.13,12.66-11.4,26.81-20.26,43-21.83,9.68-.94,19.11,3,28.5,9.6,11.21,7.82,22.09,19.3,32.69,32.51,34.51,42.91,65.79,103.36,90.58,129.56,12.62,13.34,27.53,26.58,43.58,34.1,18.3,8.56,38.05,10.21,58.37-1.33,19.71-11.19,35.31-31.05,48-54.47,17.37-32.23,29.26-71.23,40.75-99.57,43.7-107.95,89.49-216.43,145.85-317,13.94-24.86,32.28-61.77,55.7-88.55,13.83-15.79,29.23-28.2,47.09-30.32,12.94-1.53,20.68,8.76,26.72,21.53,12.26,25.91,16,63.64,18.3,83.11,16.17,136.67-16.64,278.64,10.65,414.06a192,192,0,0,0,9.67,32.66c9.11,23.07,20.64,33,31.2,35.87,11.73,3.22,24.35-1.25,36.2-11.83,17.17-15.32,33.62-44.18,44.58-61.79,2.46-4,6.05-10.16,10.45-14.83a22.34,22.34,0,0,1,2.94-2.65,12.18,12.18,0,0,1,1.37-.77c3.95,1.6,5.76,5.5,7.33,10,2.71,7.73,3.83,17.3,5,27.08,1.74,13.94,3.59,28.24,8.19,39.72,3.87,9.58,9.55,17.39,17.73,22.58a12.37,12.37,0,0,0,13.27-20.89c-6.45-4.08-9-11.87-10.93-20.41-2.66-11.73-3.59-25.07-5.48-37.06-3.39-21.52-11-38.66-27.25-44.44-9.15-3.26-18.18-.65-26,6-7.38,6.2-13.75,16.42-17.62,22.66-9.95,16-24.47,42.51-40.07,56.42-4.55,4.07-8.66,7.66-13.18,6.42-2-.54-3.75-2.12-5.64-4.4-3.19-3.83-6.17-9.33-9.07-16.69a164.43,164.43,0,0,1-8.43-28.47c-27.17-134.77,5.77-276.06-10.36-412.08-2.5-21.29-7.09-62.45-20.51-90.79-11.09-23.43-28.22-38.32-52-35.5-23.46,2.78-44.58,17.8-62.76,38.59-24.59,28.1-44,66.66-58.65,92.75-56.88,101.51-103.16,210.94-147.22,319.85-11.2,27.62-22.65,65.68-39.58,97.11-10.28,19-22.41,35.62-38.42,44.7-12.41,7-24.47,5.67-35.67.44-13.39-6.27-25.56-17.58-36.08-28.7-24.51-25.88-55.23-85.69-89.25-128.06-14.83-18.44-30.39-33.69-46.11-42.51-12.1-6.76-24.39-9.92-36.77-8.73-17.37,1.68-33.13,9.13-47.36,19.9-19.47,14.75-36.08,35.86-50.23,55-42.93,57.88-77.68,126.87-129.23,176.08-27.25,26-57.69,48.9-90.34,65.69a250.46,250.46,0,0,1-30.72,13.32C2344.72,1568.45,2338.72,1571.24,2334.77,1573.14Zm9,19.09,0,.1v0Z"/><path class="cls-10" d="M2687,1214.06a9.54,9.54,0,0,1,15.52,0l18.7,26.17a9.55,9.55,0,0,1,0,11.08l-18.7,26.17a9.54,9.54,0,0,1-15.52,0c-6-8.35-14-19.56-18.68-26.17a9.52,9.52,0,0,1,0-11.08C2673,1233.62,2681,1222.42,2687,1214.06Z"/><path class="cls-10" d="M2480,1464.59a9.54,9.54,0,0,1,15.52,0c6,8.36,14,19.57,18.7,26.18a9.57,9.57,0,0,1,0,11.07c-4.73,6.61-12.73,17.82-18.7,26.18a9.54,9.54,0,0,1-15.52,0l-18.68-26.18a9.47,9.47,0,0,1,0-11.07Z"/><path class="cls-10" d="M2914.25,1428.89a9.54,9.54,0,0,1,15.52,0l18.7,26.17a9.55,9.55,0,0,1,0,11.08c-4.73,6.61-12.73,17.82-18.7,26.18a9.54,9.54,0,0,1-15.52,0l-18.68-26.18a9.52,9.52,0,0,1,0-11.08C2900.28,1448.45,2908.28,1437.25,2914.25,1428.89Z"/><path class="cls-10" d="M3383.9,1428.89a9.55,9.55,0,0,1,15.53,0c6,8.36,14,19.56,18.69,26.17a9.55,9.55,0,0,1,0,11.08c-4.73,6.61-12.73,17.82-18.69,26.18a9.55,9.55,0,0,1-15.53,0l-18.68-26.18a9.52,9.52,0,0,1,0-11.08C3369.94,1448.45,3377.94,1437.25,3383.9,1428.89Z"/><path class="cls-10" d="M3272.41,832.55a9.55,9.55,0,0,1,15.53,0c6,8.35,14,19.56,18.7,26.17a9.59,9.59,0,0,1,0,11.08c-4.74,6.61-12.74,17.82-18.7,26.17a9.55,9.55,0,0,1-15.53,0l-18.67-26.17a9.49,9.49,0,0,1,0-11.08Z"/><polygon class="cls-11" points="3120.6 793.94 3218.97 793.94 2612.09 1666.96 2513.72 1666.96 3120.6 793.94"/><polygon class="cls-11" points="3252.59 793.94 3314.85 793.94 2707.97 1666.96 2645.71 1666.96 3252.59 793.94"/><polygon class="cls-11" points="3044.12 793.94 3079.59 793.94 2472.71 1666.96 2437.24 1666.96 3044.12 793.94"/><path class="cls-12" d="M2638.12,1172.61c-3.9-3.24,170.6,532.69,170.6,532.69l-332.23.25-281.85-465s71.7-49.39,98.16-52.49C2365.38,1179.51,2565.66,1166.42,2638.12,1172.61Z"/><path class="cls-10" d="M3924.38,927.76c-18.13-9.78-16.7-47.66,3.19-84.53s50.75-58.86,68.88-49.08,16.69,47.64-3.2,84.51S3942.5,937.53,3924.38,927.76Zm13.45-25c-11.36-6.13-10.46-29.86,2-53S3971.64,813,3983,819.09s10.45,29.85-2,53S3949.19,908.94,3937.83,902.81Z"/><path class="cls-10" d="M3972.6,959.47c14,15.07,50.33,4.11,81-24.45s44.13-64,30.09-79-50.31-4.11-81,24.45S3958.57,944.4,3972.6,959.47Zm20.74-19.32c8.8,9.44,31.54,2.58,50.74-15.32s27.66-40.09,18.86-49.54-31.53-2.57-50.73,15.33S3984.54,930.71,3993.34,940.15Z"/><path class="cls-10" d="M3832.17,1079.06a4.14,4.14,0,0,1-6.36-5.13l92.35-161.21,33.53,2.22s-7.22,28.69-12.61,50.06a77.32,77.32,0,0,1-23.2,38.56Z"/><path class="cls-10" d="M3849.49,1086.9a4.14,4.14,0,0,0,6.57,4.87l132.65-130.09-10.61-31.89-45.26,24.86a77.24,77.24,0,0,0-31.44,32.19C3887.6,1013.46,3863.81,1059.32,3849.49,1086.9Z"/><path class="cls-13" d="M3957.21,1412.38l157.15,56.84-157.15,56.83-157.08-56.83Z"/><path class="cls-14" d="M3957.21,1355.55l157.15,56.83-157.15,56.84-157.08-56.84Z"/><path class="cls-10" d="M3957.21,1298.71l157.15,56.84-157.15,56.83-157.08-56.83Z"/><path class="cls-10" d="M3427.37,1848.22a65,65,0,0,0-65-65H3062.54a65,65,0,0,0-65,65v166.4a65,65,0,0,0,65,65h299.85a65,65,0,0,0,65-65Z"/><path class="cls-7" d="M3057.91,1936.13l79.78,30.56v33.15L3024.52,1949v-26.33l113.17-50.75V1905Z"/><path class="cls-7" d="M3182.85,2039.26h-25.8l77.47-215.68h25.84Z"/><path class="cls-7" d="M3367.16,1935.44l-83.56-31v-32.61l116.84,50.75V1949L3283.6,1999.7v-32.6Z"/><path class="cls-10" d="M3789.36,1758.74a27.18,27.18,0,0,1,27.43-26.86l253.51,2.7a27.16,27.16,0,0,1,26.87,27.44c-.46,43.41-1.36,128-1.82,171.41a27.16,27.16,0,0,1-27.45,26.86l-253.51-2.7a27.14,27.14,0,0,1-26.85-27.43C3788,1886.74,3788.9,1802.16,3789.36,1758.74Z"/><g class="cls-15"><path class="cls-6" d="M4100.9,1905.85c-6-13.69-17.55-26.2-26.56-37.9-23.39-30.33-50.71-65.73-93.19-47.85-18.23,7.69-33.68,21.07-48.75,33.6-8.89,7.39-18,16.41-29,20.47-26.63,9.81-37.65-35.39-63.68-28.33-13.38,3.62-20.12,22.05-30.24,30.59a77.14,77.14,0,0,1-20.59,12.78c-8.31,3.39-16.91,4.06-21.85,12.54-16.78,28.81,20.19,57.87,42.75,66.9a188,188,0,0,0,19,6.39c7.17,2,14.41,3.75,21.69,5.18,8,1.6,16.18,2.9,24.32,3.92,29.53,3.69,59.48,2.61,89.16,1.92,36.14-.83,75.15-25.44,108.65-11.16C4111.25,1991.41,4123.36,1963.09,4100.9,1905.85Z"/><path class="cls-6" d="M3881.46,1751.38a25.39,25.39,0,1,0,25.12,25.66A25.39,25.39,0,0,0,3881.46,1751.38Z"/></g><path class="cls-10" d="M2654.79,1232.42a66.2,66.2,0,0,0-27.53-89.45l-269.93-143a66.21,66.21,0,0,0-89.46,27.49l-79.33,149.79a66.22,66.22,0,0,0,27.54,89.45l269.92,143a66.21,66.21,0,0,0,89.47-27.5Z"/><path class="cls-7" d="M2417.36,1098.83l27.81,14.72L2385,1227.19q-12.32,23.26-34,29.32t-45.24-6.43q-25.14-13.32-32.06-33.37t5.18-42.86l27.81,14.72q-6.84,12.92-4,22.79t14.93,16.24q11.23,5.94,21.92,2t17.65-17.22Z"/><path class="cls-7" d="M2497.29,1295.22q5.65-10.7,1.27-20.43t-20.67-25.91q-16.3-16.17-23.93-29.49-14.61-25.55-2.75-47.91,10.38-19.59,32.92-23.9t47.82,9.08q16.78,8.88,26.59,22.06a55.45,55.45,0,0,1,11.23,28.68,51.9,51.9,0,0,1-6,29.52L2536,1222.2q6.72-12.69,2.62-24T2519.81,1179q-13.65-7.23-24.35-5.34c-7.13,1.25-12.53,5.42-16.27,12.47-3.14,5.94-3.06,12.32.29,19.19s10.27,15.46,20.8,25.83,18.27,19.94,23.34,28.75,7.68,17.23,7.92,25.29-1.84,16.24-6.24,24.55q-10.73,20.27-32.45,24.08t-48.08-10.14a88.21,88.21,0,0,1-28.61-23.49q-11.17-14.25-13.2-30t6-31l27.89,14.77q-7.3,13.8-2.25,26.17t21.92,21.3c9.72,5.14,18.05,7,25.05,5.64A21.87,21.87,0,0,0,2497.29,1295.22Z"/><path class="cls-10" d="M2158.46,1676.44C2132.14,1555,2046.61,1483,1949,1461.84c-138.16-29.91-300.51,42-353.49,219.4-49.14,164.72-130,382.06-130,382.06,149.55,21.52,388.89,558.19,747.21,508.55C2212.66,2571.85,2194.85,1844.66,2158.46,1676.44Z"/><g class="cls-16"><path class="cls-17" d="M1979.23,1681.78c2.92,7.39-3.23,35.06-3.54,43.59-1.54,40.9,4.42,114.26,78.8,247.36,81.9,146.57,71.45,259.71-2,389.36-45.28,79.86-118,160.1-64.27,263.29,54.58,104.69,185.57,98,259.68,34.92,35.9-30.55,62.08-78.9,78.8-128.27,29.28-86.29,31.78-183.24,27.75-275.53C2347.64,2100.48,2193.4,1663.89,1979.23,1681.78Z"/></g><path class="cls-8" d="M2510.57,1468.62c-45.17,35-54.27,179-171.21,233.79-80.22,37.61-262.58-218.48-312.58-186.3-79.19,51-114.38,273.24,26.79,366.79,91.8,60.8,239.07,156.94,411.77,83.94,178.46-75.51,137.61-391.32,145.18-474.36C2613.6,1458.38,2537.65,1447.66,2510.57,1468.62Z"/><g class="cls-18"><path class="cls-19" d="M2576.31,1437.69c1.45-.79.41,3.29.63,4.93.59,3.88.95,7.8,1.31,11.69,1.09,11.58-5,37.5-3.43,49,5.42,39.26,7.77,52.07,5.11,85.42-8,99.85-33.19,223-116.91,288.09-80,62.21-184.28,63.84-263.89.34-27.21-21.73-56.83-77.19-94.89-79.06-27.26-1.33-45.3,29.24-48.6,52.5-6.83,48.74,17.18,96.93,51.4,130.15,165.51,160.5,472.89,95,570.17-108.09C2741.14,1739.2,2676.67,1514.31,2576.31,1437.69Z"/><path class="cls-10" d="M2043.8,2000.14c7.64,4.79,26.49-11.11,31.65-15.16,27-21.25,53.71-47.43,72.47-76.33,17.63-27.16,24.59-60.89,46.83-85.12,41.46-45.14,113-67.09,115.11-138.4a124.91,124.91,0,0,0-4.16-35.43,196.4,196.4,0,0,0-18.45-44.84c-51.4-93.25-187-202.46-294.26-133.37-16.14,10.4-30.34,24.06-42.23,39.08C1863.74,1620.46,1980.15,1882.08,2043.8,2000.14Z"/></g><path class="cls-8" d="M2614.09,1308.9c46.51,25.41,50.51,87.26,31.55,136.62s-59.36,81.92-100.55,66.1-69-94.58-50.05-143.95c8.52-22.18,38.73,49.35,47,41.77C2596,1359.66,2609.24,1306.25,2614.09,1308.9Z"/><g class="cls-20"><path class="cls-19" d="M2561.66,1283.45c.18-.51-.63.92-.9,1.38a24.33,24.33,0,0,0-1.54,2.89c-1.58,3.28,41.37,15.62,52.76,21.08,25.32,12.1,33.45,75.5,20.48,103.43-30.83,66.25-52.85,57.29-59.77,65.86-4.79,5.94-3.75,14.26-1.13,20.86,5.88,14.73,2.08,32.59,18.31,33,34.68.78,58.5-35.32,69.62-64,18.45-47.71,17.05-105.9-13.92-148.14C2634,1304.07,2580.65,1289,2561.66,1283.45Z"/></g><path class="cls-8" d="M1957.5,1327.63h-155c15.18,54.44,14.34,100.74,1.12,140.75,19.32,44.86,91.94,52.17,152.91-4.77C1943.12,1410.34,1944.07,1372.53,1957.5,1327.63Z"/><g class="cls-21"><path class="cls-19" d="M1973.79,1499.94c-5.56-2.57-14.11-.33-17.36-6.23-14-25.27-13.07-77.64-74.55-89.1-13-2.42,10.71-19.51,14.87-33.31,3.84-12.73,14.92-9.22,22.11-4.38,17.9,12.07,32.68,33.5,44.57,54.58C1973.29,1439,1968.41,1479.44,1973.79,1499.94Z"/></g><path class="cls-8" d="M1891.75,1102.32c67,0,118.06,41.36,125.06,129.38,7,87.4,4.66,187.79-62.34,187.79s-184.12-70.62-184.12-158.3S1824.75,1102.32,1891.75,1102.32Z"/><path class="cls-4" d="M1790.8,1462.75c4.84-3.18,14.86-4.22,20.51-6.52a167.82,167.82,0,0,0,35.82-19.88c57.81-42.36,73.64-105.09,45.58-169.28-1,1,2.71-.29,4.11-.39,2.66-.17,5.36-.4,8-.67a142.25,142.25,0,0,0,22.41-4c23.07-6.1,44.68-17.2,64.78-30.08,62.22-39.87,92-108.67,59.31-177.3-3.16.09,4.89-4.21,6.62-6.89,3.85-6,5.49-13.31,6.32-20.26,2.32-20-2.67-41.26-11.1-59.25-25.85-54.94-91.39-90.37-149.79-95-124.19-9.89-247.18,118-204.27,243.44-9.16-2.14-18,6.69-23.68,12.67-17,17.88-28.7,41.34-35.85,64.75-21.12,69.33-6.25,157.54,59.14,196.53C1679.54,1436.11,1737,1479.49,1790.8,1462.75Z"/></g></svg>