<svg xmlns="http://www.w3.org/2000/svg" viewBox="0 0 5700 3000"><defs><style>.cls-1{fill:#ebebeb;}.cls-2,.cls-23{fill:none;stroke:#263238;stroke-miterlimit:10;}.cls-2{stroke-width:3px;}.cls-3{fill:#e0e0e0;}.cls-10,.cls-12,.cls-15,.cls-16,.cls-17,.cls-24,.cls-25,.cls-4,.cls-7{fill:#fff;}.cls-5{fill:#f5f5f5;}.cls-6{fill:#263238;}.cls-11,.cls-14,.cls-7{opacity:0.2;}.cls-25,.cls-8{opacity:0.3;}.cls-9{fill:#407bff;}.cls-10{opacity:0.6;}.cls-12{opacity:0.5;}.cls-13,.cls-17,.cls-21{opacity:0.1;}.cls-15{opacity:0.8;}.cls-16,.cls-20{opacity:0.4;}.cls-18,.cls-24{opacity:0.7;}.cls-19{fill:#fab27b;}.cls-22{fill:#ed893e;}.cls-23{stroke-width:2px;}</style></defs><g id="Background_Complete" data-name="Background Complete"><rect class="cls-1" x="4163.13" y="2714.99" width="255.8" height="1.93"/><rect class="cls-1" x="3435.24" y="2735.95" width="67.14" height="1.93"/><rect class="cls-1" x="4007.18" y="2643.28" width="148.22" height="1.93"/><rect class="cls-1" x="1349.56" y="2656.25" width="333.57" height="1.93"/><rect class="cls-1" x="1751.89" y="2656.25" width="48.91" height="1.93"/><rect class="cls-1" x="1959.75" y="2688.86" width="723.44" height="1.93"/><path class="cls-1" d="M2774.83,2246.26H1283.57a44.13,44.13,0,0,1-44.08-44.08V106a44.12,44.12,0,0,1,44.08-44.07H2774.83A44.13,44.13,0,0,1,2818.91,106V2202.18A44.14,44.14,0,0,1,2774.83,2246.26ZM1283.57,63.82A42.19,42.19,0,0,0,1241.42,106V2202.18a42.2,42.2,0,0,0,42.15,42.15H2774.83a42.2,42.2,0,0,0,42.15-42.15V106a42.19,42.19,0,0,0-42.15-42.14Z"/><path class="cls-1" d="M4445.25,2246.26H2954a44.13,44.13,0,0,1-44.07-44.08V106A44.12,44.12,0,0,1,2954,61.89H4445.25A44.13,44.13,0,0,1,4489.34,106V2202.18A44.14,44.14,0,0,1,4445.25,2246.26ZM2954,63.82A42.18,42.18,0,0,0,2911.85,106V2202.18a42.19,42.19,0,0,0,42.14,42.15H4445.25a42.19,42.19,0,0,0,42.15-42.15V106a42.18,42.18,0,0,0-42.15-42.14Z"/><rect class="cls-1" x="944.42" y="2590.68" width="3861.4" height="1.93"/><path class="cls-2" d="M2948.64,1761.34a33.35,33.35,0,1,1-33.35-33.35A33.35,33.35,0,0,1,2948.64,1761.34Z"/><line class="cls-2" x1="2938.26" y1="1785.44" x2="2991.48" y2="1838.73"/><circle class="cls-3" cx="4157.25" cy="441.3" r="231.54" transform="translate(905.58 3068.88) rotate(-45)"/><path class="cls-4" d="M4157.91,678c-130.54,0-236.75-106.21-236.75-236.76S4027.37,204.5,4157.91,204.5v10.42c-124.8,0-226.33,101.53-226.33,226.33s101.53,226.34,226.33,226.34Z"/><path class="cls-4" d="M4157.91,678V667.59c124.8,0,226.34-101.54,226.34-226.34s-101.54-226.33-226.34-226.33V204.5c130.55,0,236.76,106.2,236.76,236.75S4288.46,678,4157.91,678Z"/><path class="cls-4" d="M4278.89,441.3h-10.42c0-76.73-38.94-179.4-113.37-227.15l5.62-8.77C4238.3,255.15,4278.89,361.74,4278.89,441.3Z"/><path class="cls-4" d="M4160.72,670.17l-5.62-8.78c74.43-47.75,113.37-150.42,113.37-227.15h10.42C4278.89,513.8,4238.3,620.39,4160.72,670.17Z"/><path class="cls-4" d="M4047.35,441.25h-10.41c0-79.56,40.58-186.15,118.15-235.93l5.64,8.77C4086.3,261.85,4047.35,364.52,4047.35,441.25Z"/><path class="cls-4" d="M4155.09,670.12c-77.57-49.79-118.15-156.37-118.15-235.93h10.41c0,76.73,39,179.4,113.38,227.15Z"/><rect class="cls-4" x="4152.7" y="209.7" width="10.42" height="463.09"/><rect class="cls-4" x="3961.92" y="312.7" width="391.98" height="10.42"/><rect class="cls-4" x="3926.47" y="439.99" width="462.88" height="10.42"/><rect class="cls-4" x="3967.1" y="567.16" width="381.62" height="10.42"/><path class="cls-3" d="M1682.68,355.79a156.77,156.77,0,0,0-6.8-46l40.32-35.47-25.38-44-50.89,17.21a158.11,158.11,0,0,0-79.6-46L1549.77,149H1499l-10.53,52.64a158.2,158.2,0,0,0-79.63,46l-50.89-17.21-25.39,44,40.32,35.47a159.08,159.08,0,0,0,0,92l-40.32,35.43,25.39,44L1408.83,464a158.55,158.55,0,0,0,79.63,46L1499,562.66h50.78L1560.33,510a158.46,158.46,0,0,0,79.6-46l50.89,17.21,25.38-44-40.32-35.43A157,157,0,0,0,1682.68,355.79Zm-158.3,85.46A82.29,82.29,0,1,1,1606.66,359,82.27,82.27,0,0,1,1524.38,441.25Z"/><path class="cls-3" d="M1900.39,574.61a119.65,119.65,0,0,0-5.17-35l30.71-27-19.34-33.49-38.75,13.11a120.38,120.38,0,0,0-60.61-35l-8-40.09h-38.66l-8,40.09a120.47,120.47,0,0,0-60.64,35l-38.75-13.11-19.33,33.49,30.7,27a121.16,121.16,0,0,0,0,70l-30.7,27,19.33,33.49L1691.86,657a120.66,120.66,0,0,0,60.64,35l8,40.09h38.66l8-40.09a120.57,120.57,0,0,0,60.61-35l38.75,13.11,19.34-33.49-30.71-27A119.85,119.85,0,0,0,1900.39,574.61Zm-120.54,65.08A62.66,62.66,0,1,1,1842.51,577,62.64,62.64,0,0,1,1779.85,639.69Z"/><polygon class="cls-1" points="2478.27 375.45 2498.73 333.9 2519.26 375.42 2565.1 382.04 2531.97 414.39 2539.83 460.03 2498.82 438.51 2457.84 460.1 2465.64 414.45 2432.44 382.15 2478.27 375.45"/><polygon class="cls-1" points="2664.9 375.45 2685.36 333.9 2705.9 375.42 2751.73 382.04 2718.6 414.39 2726.47 460.03 2685.45 438.51 2644.47 460.1 2652.27 414.45 2619.07 382.15 2664.9 375.45"/><polygon class="cls-1" points="2851.53 375.45 2872 333.9 2892.53 375.42 2938.37 382.04 2905.23 414.39 2913.1 460.03 2872.08 438.51 2831.11 460.1 2838.9 414.45 2805.71 382.15 2851.53 375.45"/><polygon class="cls-1" points="3038.17 375.45 3058.63 333.9 3079.16 375.42 3125 382.04 3091.86 414.39 3099.73 460.03 3058.72 438.51 3017.74 460.1 3025.53 414.45 2992.34 382.15 3038.17 375.45"/><polygon class="cls-1" points="3224.8 375.45 3245.26 333.9 3265.79 375.42 3311.63 382.04 3278.49 414.39 3286.36 460.03 3245.35 438.51 3204.37 460.1 3212.16 414.45 3178.97 382.15 3224.8 375.45"/></g><g id="Shadow"><ellipse id="_Path_" data-name="&lt;Path&gt;" class="cls-5" cx="2837.89" cy="2822.31" rx="1497.37" ry="87.45"/></g><g id="Device"><path class="cls-6" d="M2331.94,2745.4l-1.55,17.74a16.65,16.65,0,0,0,.7,6.46l.06.07a14,14,0,0,0,1.23,2.74,15.52,15.52,0,0,0,1.85,2.46,10.88,10.88,0,0,0,2.28,2.07,15.12,15.12,0,0,0,9,2.87h636.3a14.92,14.92,0,0,0,4.52-.67,21.71,21.71,0,0,0,2.91-1.2,17.94,17.94,0,0,0,5.83-4.87,18.76,18.76,0,0,0,1.63-2.6,16.15,16.15,0,0,0,1.72-6l1.49-17.07a14.41,14.41,0,0,0-.67-6,15,15,0,0,0-1.17-2.6,13.91,13.91,0,0,0-5-4.87,20.5,20.5,0,0,0-2.7-1.2,14.11,14.11,0,0,0-4.41-.66H2827.75a27.64,27.64,0,0,1-5.88-.6h-.07c-.78-.2-1.57-.34-2.28-.6a.48.48,0,0,1-.33-.14.24.24,0,0,1-.19-.06,18.39,18.39,0,0,1-2.45-.94,9.43,9.43,0,0,1-2.24-1.13,18.15,18.15,0,0,1-3.09-2,23,23,0,0,1-3.33-3.14,23.31,23.31,0,0,1-1.62-2.06c-.42-.54-.77-1.07-1.12-1.6-.12-.2-.24-.4-.35-.6-.07,0-.06-.07-.06-.14a13.63,13.63,0,0,1-1.13-2.26,19.24,19.24,0,0,1-.89-2.07c0-.14-.1-.34-.16-.47a5.26,5.26,0,0,0-.15-.53.86.86,0,0,1-.1-.34,8.47,8.47,0,0,1-.45-1.8,16.23,16.23,0,0,1-.43-2.66.23.23,0,0,1,0-.2c-.06-.8-.12-1.67-.18-2.47s0-1.67.08-2.47l0-.6a16,16,0,0,1,.28-2.47c.15-.86.35-1.66.56-2.53v-.07l62.25-238.82,11.94-45.81,9.35-35.95h-361.4l-19.42,35.95-24.68,45.81-140.58,260.63c-.48.93-1,1.8-1.44,2.73,0,.14,0,.2-.08.27-.5,1.07-.92,2.07-1.41,3.14s-.86,2.13-1.22,3.26a22.42,22.42,0,0,0-.72,2.14A62.6,62.6,0,0,0,2331.94,2745.4Z"/><path class="cls-7" d="M2999.94,2747.35l-1.5,17.15a17,17,0,0,1-16.63,15.29H2345.58a15.08,15.08,0,0,1-15.25-16.62l1.56-17.76a64.83,64.83,0,0,1,2.81-14,72.19,72.19,0,0,1,4.9-11.58l184.72-342.33h361.43l-83.56,320.59a26.15,26.15,0,0,0-.94,5.65c-.91,13.44,7.8,25,20.56,27.67a26.13,26.13,0,0,0,6,.62H2986A13.79,13.79,0,0,1,2999.94,2747.35Z"/><path class="cls-6" d="M2319.2,2719.89l184.69-342.38h20.45l-184.68,342.38a65.93,65.93,0,0,0-7.74,25.52l-1.55,17.74a15,15,0,0,0,15.18,16.64H2325.1a15,15,0,0,1-15.18-16.64l1.55-17.74A65.91,65.91,0,0,1,2319.2,2719.89Z"/><polygon class="cls-8" points="2524.34 2377.51 2885.71 2377.51 2864.39 2459.33 2480.21 2459.33 2524.34 2377.51"/><path class="cls-6" d="M1911.19,1242.92l0,993.69v120.45a56.39,56.39,0,0,0,56.35,56.42H3509.45a56.43,56.43,0,0,0,56.36-56.42V2236.61l0-993.69a56.29,56.29,0,0,0-56.36-56.35H1967.6a56.34,56.34,0,0,0-34.29,11.61,38.06,38.06,0,0,0-3.89,3.33,53.73,53.73,0,0,0-9.77,11.8,47.76,47.76,0,0,0-4.61,9.21A56.18,56.18,0,0,0,1911.19,1242.92Z"/><path class="cls-9" d="M3565.8,2236.59v120.49a56.36,56.36,0,0,1-56.37,56.36H1967.58a56.36,56.36,0,0,1-56.37-56.36V2236.59Z"/><path class="cls-10" d="M3565.8,2236.59v120.49a56.36,56.36,0,0,1-56.37,56.36H1967.58a56.36,56.36,0,0,1-56.37-56.36V2236.59Z"/><path class="cls-9" d="M1968.61,2202.56h1539.8A30.56,30.56,0,0,0,3539,2172V1251.16a30.56,30.56,0,0,0-30.56-30.56H1968.61a30.57,30.57,0,0,0-30.57,30.56V2172A30.57,30.57,0,0,0,1968.61,2202.56Z"/><path class="cls-6" d="M1933.49,1186.57h34.09a56.37,56.37,0,0,0-56.37,56.37V2357.08a56.36,56.36,0,0,0,56.37,56.36h-34.09a56.36,56.36,0,0,1-56.37-56.36V1242.94A56.37,56.37,0,0,1,1933.49,1186.57Z"/><g class="cls-11"><path class="cls-4" d="M1933.49,1186.57h34.09a56.37,56.37,0,0,0-56.37,56.37V2357.08a56.36,56.36,0,0,0,56.37,56.36h-34.09a56.36,56.36,0,0,1-56.37-56.36V1242.94A56.37,56.37,0,0,1,1933.49,1186.57Z"/></g><path class="cls-12" d="M3548.37,1807c-39.63-7.61-102.55,18-114.29,56.64,3-23.45-9.28-48.11-29.74-59.94s-47.22-20.2-66.06-5.94c18.87-75.38-9.59-160.52-70-209.4s-148.48-54.19-218.26-20c20.78-39.28,22.49-88.1,4.53-128.74s-50.1-68.3-92.05-83A638,638,0,0,0,2660.15,1328c-58.76,8.71-118.71,27.07-161.43,68.34s-53.79,115.6-25.37,167.76c-65.76-22.25-143.47-3.83-192.25,45.55s-65,126.21-41.93,191.69a63.49,63.49,0,0,0-60.6-2.27,62.18,62.18,0,0,0-33.66,49.63c-24.59-32.39-65.41-51.79-106.06-50.4s-80,23.54-102.36,57.55v346.73H3539Z"/><rect class="cls-4" x="2289.41" y="1654.78" width="977.85" height="152.13" rx="9.85"/><path class="cls-2" d="M2394.14,1715a33.35,33.35,0,1,1-33.34-33.35A33.35,33.35,0,0,1,2394.14,1715Z"/><line class="cls-2" x1="2383.76" y1="1739.1" x2="2436.98" y2="1792.39"/><g class="cls-13"><polygon class="cls-4" points="3017.73 1220.6 3076.96 1220.6 3199.77 2202.56 3140.55 2202.56 3017.73 1220.6"/><polygon class="cls-4" points="3259.63 2202.56 3136.82 1220.6 3359.34 1220.6 3482.15 2202.56 3259.63 2202.56"/></g><path class="cls-7" d="M2441.68,2747.47l-1.43,16.29a14.46,14.46,0,0,0,14.63,16h526.93a17,17,0,0,0,16.65-15.32l1.5-17.08a13.82,13.82,0,0,0-14-15.32H2827.73a26.76,26.76,0,0,1-5.88-.63H2459.11A17.85,17.85,0,0,0,2441.68,2747.47Z"/><path class="cls-14" d="M2334.74,2731.44h487.11c-12.83-2.61-21.48-14.19-20.59-27.67H2349.59Z"/><path class="cls-6" d="M2583.73,1563.48l10.68-23.67c11.45,8.34,28.53,14.16,44.83,14.16,18.63,0,26.2-6.2,26.2-14.55,0-25.43-79-8-79-58.42,0-23.09,18.63-42.31,57.26-42.31,17.07,0,34.54,4.08,47.16,12l-9.71,23.87c-12.61-7.18-25.61-10.68-37.65-10.68-18.63,0-25.81,7-25.81,15.53,0,25,79,7.76,79,57.64,0,22.71-18.83,42.12-57.64,42.12C2617.51,1579.21,2595.77,1572.81,2583.73,1563.48Z"/><path class="cls-6" d="M2823.45,1551.65v25.23h-105.2V1441h102.67v25.23H2749.5v29.5h63.08v24.46H2749.5v31.44Z"/><path class="cls-6" d="M2839.58,1509c0-40.37,31.44-70.26,74.33-70.26,42.7,0,74.34,29.69,74.34,70.26s-31.64,70.26-74.34,70.26C2871,1579.21,2839.58,1549.32,2839.58,1509Zm116.83,0c0-25.82-18.24-43.48-42.5-43.48s-42.5,17.66-42.5,43.48,18.24,43.47,42.5,43.47S2956.41,1534.76,2956.41,1509Z"/><rect class="cls-15" x="2382.22" y="1906.75" width="385.36" height="128.36" rx="3.85"/><rect class="cls-15" x="2854.79" y="1906.75" width="385.36" height="128.36" rx="3.85"/><path class="cls-9" d="M2565.63,1264.35,2757,924.18a7.71,7.71,0,0,1,13.45,0l191.42,340.17a7.72,7.72,0,0,1-6.73,11.5H2572.36A7.72,7.72,0,0,1,2565.63,1264.35Z"/><path class="cls-8" d="M2565.63,1264.35,2757,924.18a7.71,7.71,0,0,1,13.45,0l191.42,340.17a7.72,7.72,0,0,1-6.73,11.5H2572.36A7.72,7.72,0,0,1,2565.63,1264.35Z"/><path class="cls-6" d="M2672.75,1326.68l-9.3-38.16h-33.51l-9.29,38.16A67.91,67.91,0,0,0,2672.75,1326.68Z"/><path class="cls-7" d="M2629.94,1288.52l-2.17,8.93a67.7,67.7,0,0,0,37.86,0l-2.18-8.94Z"/><path class="cls-16" d="M2625.43,1307c-.59,2.42-1.18,4.86-1.75,7.17a77.59,77.59,0,0,0,46,0L2668,1307A109.86,109.86,0,0,1,2625.43,1307Z"/><path class="cls-9" d="M2682.08,1285.82a92.16,92.16,0,0,1-70.77,0V1002.43A120.43,120.43,0,0,1,2646.7,917a120.42,120.42,0,0,1,35.38,85.42Z"/><path class="cls-9" d="M2611.31,1002.43v267.15a108,108,0,0,0,70.77,0V1002.43A120.42,120.42,0,0,0,2646.7,917,120.43,120.43,0,0,0,2611.31,1002.43Z"/><path class="cls-16" d="M2611.31,1002.43v267.15a108,108,0,0,0,70.77,0V1002.43A120.42,120.42,0,0,0,2646.7,917,120.43,120.43,0,0,0,2611.31,1002.43Z"/><path class="cls-9" d="M2611.31,1002.43v200.63a128.65,128.65,0,0,0,70.77,0V1002.43A120.42,120.42,0,0,0,2646.7,917,120.43,120.43,0,0,0,2611.31,1002.43Z"/><path class="cls-10" d="M2611.31,1002.43v200.63a128.65,128.65,0,0,0,70.77,0V1002.43A120.42,120.42,0,0,0,2646.7,917,120.43,120.43,0,0,0,2611.31,1002.43Z"/><path class="cls-9" d="M2611.31,1002.43v105.06a128.74,128.74,0,0,0,70.77,0V1002.43A120.42,120.42,0,0,0,2646.7,917,120.43,120.43,0,0,0,2611.31,1002.43Z"/><path class="cls-15" d="M2611.31,1002.43v105.06a128.74,128.74,0,0,0,70.77,0V1002.43A120.42,120.42,0,0,0,2646.7,917,120.43,120.43,0,0,0,2611.31,1002.43Z"/><path class="cls-9" d="M2611.31,1002.43v12.26a128.65,128.65,0,0,0,70.77,0v-12.27A120.42,120.42,0,0,0,2646.7,917,120.43,120.43,0,0,0,2611.31,1002.43Z"/><path class="cls-16" d="M2611.31,1002.43v12.26a128.65,128.65,0,0,0,70.77,0v-12.27A120.42,120.42,0,0,0,2646.7,917,120.43,120.43,0,0,0,2611.31,1002.43Z"/><path class="cls-6" d="M2900.39,1326.68l-9.3-38.16h-33.51l-9.3,38.16A67.93,67.93,0,0,0,2900.39,1326.68Z"/><path class="cls-7" d="M2857.58,1288.52l-2.17,8.93a67.7,67.7,0,0,0,37.86,0l-2.18-8.94Z"/><path class="cls-16" d="M2853.07,1307c-.59,2.42-1.18,4.86-1.75,7.17a77.59,77.59,0,0,0,46,0l-1.75-7.16A109.86,109.86,0,0,1,2853.07,1307Z"/><path class="cls-9" d="M2909.72,1285.82a92.16,92.16,0,0,1-70.77,0V1002.43A120.43,120.43,0,0,1,2874.34,917a120.42,120.42,0,0,1,35.38,85.42Z"/><path class="cls-9" d="M2839,1002.43v267.15a108,108,0,0,0,70.77,0V1002.43A120.42,120.42,0,0,0,2874.34,917,120.39,120.39,0,0,0,2839,1002.43Z"/><path class="cls-16" d="M2839,1002.43v267.15a108,108,0,0,0,70.77,0V1002.43A120.42,120.42,0,0,0,2874.34,917,120.39,120.39,0,0,0,2839,1002.43Z"/><path class="cls-9" d="M2839,1002.43v200.63a128.65,128.65,0,0,0,70.77,0V1002.43A120.42,120.42,0,0,0,2874.34,917,120.39,120.39,0,0,0,2839,1002.43Z"/><path class="cls-10" d="M2839,1002.43v200.63a128.65,128.65,0,0,0,70.77,0V1002.43A120.42,120.42,0,0,0,2874.34,917,120.39,120.39,0,0,0,2839,1002.43Z"/><path class="cls-9" d="M2839,1002.43v105.06a128.74,128.74,0,0,0,70.77,0V1002.43A120.42,120.42,0,0,0,2874.34,917,120.39,120.39,0,0,0,2839,1002.43Z"/><path class="cls-15" d="M2839,1002.43v105.06a128.74,128.74,0,0,0,70.77,0V1002.43A120.42,120.42,0,0,0,2874.34,917,120.39,120.39,0,0,0,2839,1002.43Z"/><path class="cls-9" d="M2839,1002.43v12.26a128.65,128.65,0,0,0,70.77,0v-12.27A120.42,120.42,0,0,0,2874.34,917,120.39,120.39,0,0,0,2839,1002.43Z"/><path class="cls-16" d="M2839,1002.43v12.26a128.65,128.65,0,0,0,70.77,0v-12.27A120.42,120.42,0,0,0,2874.34,917,120.39,120.39,0,0,0,2839,1002.43Z"/><path class="cls-6" d="M2802.58,1348.59l-15-61.6h-54.09l-15,61.6A109.51,109.51,0,0,0,2802.58,1348.59Z"/><path class="cls-7" d="M2733.47,1287l-3.52,14.42a109.36,109.36,0,0,0,61.13,0l-3.52-14.44Z"/><path class="cls-16" d="M2726.19,1316.89c-1,3.91-1.91,7.85-2.83,11.58a125.26,125.26,0,0,0,74.31,0l-2.82-11.56A177,177,0,0,1,2726.19,1316.89Z"/><path class="cls-9" d="M2817.64,1282.64a148.83,148.83,0,0,1-114.25,0V825.14a194.39,194.39,0,0,1,57.13-137.91,194.43,194.43,0,0,1,57.12,137.91Z"/><path class="cls-9" d="M2703.39,825.14v431.27a174.34,174.34,0,0,0,114.25,0V825.14a194.43,194.43,0,0,0-57.12-137.91A194.39,194.39,0,0,0,2703.39,825.14Z"/><path class="cls-16" d="M2703.39,825.14v431.27a174.34,174.34,0,0,0,114.25,0V825.14a194.43,194.43,0,0,0-57.12-137.91A194.39,194.39,0,0,0,2703.39,825.14Z"/><path class="cls-9" d="M2703.39,825.14V1149a207.67,207.67,0,0,0,114.25,0V825.14a194.43,194.43,0,0,0-57.12-137.91A194.39,194.39,0,0,0,2703.39,825.14Z"/><path class="cls-10" d="M2703.39,825.14V1149a207.67,207.67,0,0,0,114.25,0V825.14a194.43,194.43,0,0,0-57.12-137.91A194.39,194.39,0,0,0,2703.39,825.14Z"/><path class="cls-9" d="M2703.39,825.14V994.75a207.86,207.86,0,0,0,114.25,0V825.14a194.43,194.43,0,0,0-57.12-137.91A194.39,194.39,0,0,0,2703.39,825.14Z"/><path class="cls-15" d="M2703.39,825.14V994.75a207.86,207.86,0,0,0,114.25,0V825.14a194.43,194.43,0,0,0-57.12-137.91A194.39,194.39,0,0,0,2703.39,825.14Z"/><path class="cls-9" d="M2703.39,825.14v19.78a207.67,207.67,0,0,0,114.25,0v-19.8a194.43,194.43,0,0,0-57.12-137.91A194.39,194.39,0,0,0,2703.39,825.14Z"/><path class="cls-17" d="M2703.39,825.14v19.78a207.67,207.67,0,0,0,114.25,0v-19.8a194.43,194.43,0,0,0-57.12-137.91A194.39,194.39,0,0,0,2703.39,825.14Z"/><path class="cls-9" d="M2793.79,916.66a33.27,33.27,0,1,1-33.27-33.27A33.28,33.28,0,0,1,2793.79,916.66Z"/><path class="cls-9" d="M2760.52,949.93a33.25,33.25,0,0,1-33.15-30.76c-.06.83-.12,1.66-.12,2.51a33.27,33.27,0,1,0,66.54,0c0-.85-.07-1.68-.13-2.51A33.25,33.25,0,0,1,2760.52,949.93Z"/><path class="cls-8" d="M2760.52,949.93a33.25,33.25,0,0,1-33.15-30.76c-.06.83-.12,1.66-.12,2.51a33.27,33.27,0,1,0,66.54,0c0-.85-.07-1.68-.13-2.51A33.25,33.25,0,0,1,2760.52,949.93Z"/><circle class="cls-4" cx="2760.52" cy="916.66" r="23.53"/><path class="cls-9" d="M2759.28,940.06l9.64-45.31a23.36,23.36,0,0,0-7.82-1.56l-9.6,45.19A23.36,23.36,0,0,0,2759.28,940.06Z"/><path class="cls-9" d="M2768.06,938.84l8.37-39.41a23.51,23.51,0,0,0-3.5-2.68l-9.16,43.11A23.53,23.53,0,0,0,2768.06,938.84Z"/><g class="cls-18"><path class="cls-4" d="M2759.28,940.06l9.64-45.31a23.36,23.36,0,0,0-7.82-1.56l-9.6,45.19A23.36,23.36,0,0,0,2759.28,940.06Z"/><path class="cls-4" d="M2768.06,938.84l8.37-39.41a23.51,23.51,0,0,0-3.5-2.68l-9.16,43.11A23.53,23.53,0,0,0,2768.06,938.84Z"/></g></g><g id="Character"><path class="cls-19" d="M3613.22,1809.61l-8.89,1.9a19.43,19.43,0,0,0-15.2,16.57l-.79,6.25a19.24,19.24,0,0,0,6.32,16.91c14.6,12.77,49,36.39,90.72,21.13l33.33-25-5.49-45-69.22-10a19.37,19.37,0,0,0-11.51,4.35Z"/><polygon class="cls-19" points="3718.7 1847.32 3811.11 1842.66 3796.83 1792.4 3713.22 1802.34 3718.7 1847.32"/><path class="cls-9" d="M3773.75,1792.76a36.64,36.64,0,0,0-3.74,23.48c1.52,8.85,5.23,24.44,15,35.1h0a101.47,101.47,0,0,0-44.84,11.05l-.75.38c-48.2-32.94-20.36-71.94-20.36-71.94l3.16.45A247.83,247.83,0,0,0,3773.75,1792.76Z"/><path class="cls-9" d="M3963,1834.25c-85.85,19.76-192.68,17.84-192.68,17.84a33.9,33.9,0,0,1-4.57-19.66c.81-14.41,2.72-32.39,8-39.67,5.63-7.79,42.19-11.1,42.19-11.1s71.69-33.3,85.29-44.18c13.45-10.84,13.09-61.61,10.53-95.25-13.66-179.71,17.95-193.22,46.61-201.28C4017.89,1424.21,4039,1816.74,3963,1834.25Z"/><path class="cls-9" d="M3374.67,1872.8h240c7.82,0,11.33-6.34,7.86-14.15l-60.23-135.4c-3.47-7.81-12.62-14.15-20.44-14.15h-240c-7.81,0-11.33,6.34-7.86,14.15l60.23,135.4C3357.7,1866.46,3366.85,1872.8,3374.67,1872.8Z"/><path class="cls-14" d="M3374.67,1872.8h240c7.82,0,11.33-6.34,7.86-14.15l-60.23-135.4c-3.47-7.81-12.62-14.15-20.44-14.15h-240c-7.81,0-11.33,6.34-7.86,14.15l60.23,135.4C3357.7,1866.46,3366.85,1872.8,3374.67,1872.8Z"/><path class="cls-9" d="M3291.49,1709.1h10.37c-7.81,0-11.33,6.34-7.86,14.15l60.23,135.4c3.47,7.81,12.62,14.14,20.44,14.14H3364.3c-7.81,0-17-6.33-20.44-14.14l-60.22-135.4C3280.16,1715.44,3283.68,1709.1,3291.49,1709.1Z"/><path class="cls-20" d="M3291.49,1709.1h10.37c-7.81,0-11.33,6.34-7.86,14.15l60.23,135.4c3.47,7.81,12.62,14.14,20.44,14.14H3364.3c-7.81,0-17-6.33-20.44-14.14l-60.22-135.4C3280.16,1715.44,3283.68,1709.1,3291.49,1709.1Z"/><polygon class="cls-6" points="3379.12 1857.22 3596.36 1857.22 3537.41 1724.67 3320.16 1724.67 3379.12 1857.22"/><polygon class="cls-15" points="3379.12 1857.22 3596.36 1857.22 3537.41 1724.67 3320.16 1724.67 3379.12 1857.22"/><path class="cls-6" d="M4093.94,1862.23s6,79.18,6.83,107c5.74,185.69-145.85,199.87-257.39,179.39l-403.83-112.92c-16,53.68-202.75,349.24-202.75,349.24l-98.16-56.36s101.77-244,167.46-413.79c37.51-96.93,342.78-29.9,455.2-9.95,34.18,9.21,27.58-44.15,27.58-44.15Z"/><polygon class="cls-19" points="3211.74 2379.43 3174.26 2441.92 3104.33 2407.13 3140.7 2335.98 3211.74 2379.43"/><path class="cls-9" d="M3067.13,2394.31c-9.22-4.22-18-10.27-19.23-15.63a7.27,7.27,0,0,1,3.63-7.59,10.1,10.1,0,0,1,7.42-1.58c14,2.26,33.08,28.89,33.92,30.07a1.91,1.91,0,0,1,0,2.21,2,2,0,0,1-2.08.8A144.34,144.34,0,0,1,3067.13,2394.31Zm-5.19-19.84a12.78,12.78,0,0,0-3.56-1.1,5.35,5.35,0,0,0-4.58.88c-2.3,1.59-2.33,2.86-2.1,3.68,1.23,6.41,19.89,15.09,34.49,19.69A89.67,89.67,0,0,0,3061.94,2374.47Z"/><path class="cls-9" d="M3090.54,2402.43a1.11,1.11,0,0,1-.71-.4c-7.07-8-17.54-32.24-12.14-39.86,1.1-1.93,3.73-3.69,8.79-2a14.33,14.33,0,0,1,8.42,7.48c5.89,12.09-1.28,33-1.61,34a1.89,1.89,0,0,1-1.51,1.23A1.84,1.84,0,0,1,3090.54,2402.43Zm-4.41-38.35-1-.55c-3.28-1.18-4.07,0-4.41.39-2.76,4.83,3.18,22.76,9.89,32.41a45.45,45.45,0,0,0,.55-27.26,10.14,10.14,0,0,0-5.07-5Z"/><path class="cls-6" d="M3103.13,2395.66l81,37.06a7.17,7.17,0,0,1,4,8l-15.5,72.6a11.93,11.93,0,0,1-14.09,9.28,12.08,12.08,0,0,1-2.41-.77c-29-13.86-54.2-27.34-90.58-43.92-42.91-19.61-34.37-9.5-85.14-31.85-30.58-13.5-20.34-50.59-6.68-46.4,62.38,19.55,76.65,4.55,109.06-6.16A28.7,28.7,0,0,1,3103.13,2395.66Z"/><polygon class="cls-14" points="3192.7 2411.18 3211.74 2379.43 3140.7 2335.98 3123.13 2370.36 3192.7 2411.18"/><path class="cls-9" d="M3252.36,2379.08l-121.71-75.93s-19.58,10.81-15.27,31.89l116.89,74.67S3248,2409,3252.36,2379.08Z"/><polygon class="cls-19" points="3418.88 2690.23 3404.18 2759.5 3328.91 2749.63 3339.86 2672.74 3418.88 2690.23"/><path class="cls-9" d="M3290.68,2749.6c-9.81-1-19.78-3.76-22.62-8.29a7.08,7.08,0,0,1,.94-8.12,9.85,9.85,0,0,1,6.32-3.8c13.54-2.33,39.53,16.1,40.67,16.92a1.87,1.87,0,0,1,.72,2,2,2,0,0,1-1.67,1.39A140.56,140.56,0,0,1,3290.68,2749.6Zm-11-16.59a12.56,12.56,0,0,0-3.62.11,5.16,5.16,0,0,0-3.92,2.26c-1.62,2.19-1.24,3.36-.77,4,3.15,5.49,23,7.57,37.92,7.19A87,87,0,0,0,3279.63,2733Z"/><path class="cls-9" d="M3314.76,2749.67a1.07,1.07,0,0,1-.78-.15c-9-5.11-26.31-24.08-23.76-32.79.4-2.13,2.27-4.57,7.47-4.58a13.93,13.93,0,0,1,10.09,4.21c9.24,9.25,9.26,30.75,9.27,31.75a1.85,1.85,0,0,1-1,1.6A1.74,1.74,0,0,1,3314.76,2749.67Zm-16.17-33.86-1.06-.2c-3.39,0-3.74,1.29-3.93,1.76-1,5.3,10.11,19.91,19.33,26.66a44.18,44.18,0,0,0-8.11-25.23,9.83,9.83,0,0,0-6.23-3Z"/><path class="cls-6" d="M3324.19,2739.47l86.16,8.45a7,7,0,0,1,6.24,6.08l8.69,71.63a11.58,11.58,0,0,1-10,13,11.81,11.81,0,0,1-2.45.05c-31-3.58-58.46-8-97.13-11.74-45.64-4.46-34.59,2.14-88.32-2.36-32.36-2.75-34.67-40.07-20.79-40.54,63.5-1.74,71.88-20,98.28-40.12A27.86,27.86,0,0,1,3324.19,2739.47Z"/><polygon class="cls-14" points="3334.11 2713.15 3412.7 2719.32 3418.88 2690.23 3339.86 2672.74 3334.11 2713.15"/><polygon class="cls-6" points="3441.17 2662.82 3438.98 2671.58 3323.67 2662.47 3324.9 2653.72 3441.17 2662.82"/><path class="cls-9" d="M3445.9,2699l-28.37-2.53-80-7.19-25.83-2.36c-13.14-16.28-1.14-34.32-1.14-34.32l14.36,1.14,116.27,9.1,8.41.7C3459.21,2691.28,3445.9,2699,3445.9,2699Z"/><path class="cls-6" d="M3914.07,2217.51c-104.37,9.2-345,13-377.55,8.32l-95.35,437-116.27-9.1s12.32-377.88,63.56-534.1c41.2-125.59,700.9-99.55,700.9-99.55l2.36,35.38C4096.28,2177.32,4033.5,2206.92,3914.07,2217.51Z"/><path class="cls-21" d="M3914.07,2217.51c-104.37,9.2-345,13-377.55,8.32l-95.35,437-116.27-9.1s12.32-377.88,63.56-534.1c41.2-125.59,700.9-99.55,700.9-99.55l2.36,35.38C4096.28,2177.32,4033.5,2206.92,3914.07,2217.51Z"/><path class="cls-6" d="M3386.62,2165.24s.09-.79.36-2.1l-.27,2.1Z"/><path class="cls-6" d="M3394.42,2108.42l-1.14,8.58A60.68,60.68,0,0,1,3394.42,2108.42Z"/><polygon class="cls-19" points="3763.69 1426.05 3795.75 1472.84 3867.84 1411.22 3822.8 1355.88 3763.69 1426.05"/><path class="cls-14" d="M3779.74,1448.16c14-20.41,7.6-52.19,7.6-52.19l-12.68,16.13-11,13.94Z"/><path class="cls-6" d="M3640.46,1322.92c1.56,4.56,5.22,7.42,8.25,6.33s4.36-5.93,2.72-10.33-5.22-7.42-8.24-6.28S3639,1318.34,3640.46,1322.92Z"/><path class="cls-22" d="M3657.16,1324.34l-10.25,43.71s14.89,4.21,29.38-7.84Z"/><path class="cls-6" d="M3635.92,1291a2.56,2.56,0,0,1,2.39-.32,19.72,19.72,0,0,0,18.11-1.43,2.49,2.49,0,0,1,3.5.55,2.66,2.66,0,0,1-.63,3.6,24.46,24.46,0,0,1-22.87,2.1,2.54,2.54,0,0,1-1.41-3.32h0A2.82,2.82,0,0,1,3635.92,1291Z"/><path class="cls-19" d="M3811.66,1243.76c23.42,59.7,34.66,84.48,18.81,128.56-31.31,52.19-103.4,83.83-144.44,32.69-37-46-69-135.67-22.19-186.88,33.35-36.48,89.41-39.85,125.21-7.52A85.36,85.36,0,0,1,3811.66,1243.76Z"/><path class="cls-6" d="M3868.21,1261.59c-3.52,20-5.05,40.26-5.93,60.58a99.55,99.55,0,0,1-8.32,35.91c-10,22.61-30.23,39.74-52.93,49.55h0s-84.17-1-120-106.91a60.51,60.51,0,0,1-63.59-77.83c6.84-22.53,35.35-36.61,58.88-37.44,14.86-20.65,40.7-31,66.12-30s49.64,11.2,71.73,23.82c18.88,10.79,37.31,24.09,47.88,43.09C3868.38,1233.7,3870.55,1248.25,3868.21,1261.59Z"/><path class="cls-19" d="M3698.62,1313.56a49.51,49.51,0,0,0-.93,38.11c6.48,16.12,23.78,13.38,33.74-.11,9-12.23,16.39-35.26,4.2-47.14S3705.36,1298.71,3698.62,1313.56Z"/><path class="cls-9" d="M3868.42,1376.39c-22.89,1-57.41,16.65-103.08,48.19-5.07,3.5-6.8,10.86-6.21,17s6.74,12,12.58,10c3.07,7.45,5.09,16.19,8.16,23.64,13.21-8.17,30-12.49,44.33-18.53,22.85-9.65,46.78-16.44,70.65-23.21-6.41-9.79-15-19.33-17.51-30.76,5.54-1.53,8.25-8.88,7.17-14.52S3874.16,1376.16,3868.42,1376.39Z"/><path class="cls-9" d="M3868.42,1376.39c-22.89,1-57.41,16.65-103.08,48.19-5.07,3.5-6.8,10.86-6.21,17s6.74,12,12.58,10c3.07,7.45,5.09,16.19,8.16,23.64,13.21-8.17,30-12.49,44.33-18.53,22.85-9.65,46.78-16.44,70.65-23.21-6.41-9.79-15-19.33-17.51-30.76,5.54-1.53,8.25-8.88,7.17-14.52S3874.16,1376.16,3868.42,1376.39Z"/><path class="cls-9" d="M3800.66,1967.92s-76.4-178.73-124.93-360c-35.8-133.69,66.54-136,190-169.25,97.89-26.36,139.76-2.76,167.73,46.89s73.05,469.9,73.05,469.9Z"/><path class="cls-9" d="M3800.66,1967.92s-76.4-178.73-124.93-360c-35.8-133.69,66.54-136,190-169.25,97.89-26.36,139.76-2.76,167.73,46.89s73.05,469.9,73.05,469.9Z"/><path class="cls-8" d="M3800.66,1967.92s-76.4-178.73-124.93-360c-35.8-133.69,66.54-136,190-169.25,97.89-26.36,139.76-2.76,167.73,46.89s73.05,469.9,73.05,469.9Z"/><path class="cls-19" d="M3354.11,1775.2l-8.68.31a18.58,18.58,0,0,0-17.07,13.07l-1.78,5.75a18.39,18.39,0,0,0,3.13,17c11.62,14.44,40.08,42.4,81.88,35l35.53-18,2.32-43.25L3386,1764a18.61,18.61,0,0,0-11.56,2.18Z"/><polygon class="cls-19" points="3447.12 1828.25 3534.86 1839.24 3529.79 1789.55 3449.44 1785 3447.12 1828.25"/><path class="cls-9" d="M3508,1786.05a35.05,35.05,0,0,0-7.43,21.48c0,8.58.85,23.88,8.24,35.53h0a96.89,96.89,0,0,0-44.05,2.94l-.77.23c-39.88-39-7.19-71.1-7.19-71.1l2.91.95A236.27,236.27,0,0,0,3508,1786.05Z"/><path class="cls-9" d="M3679.25,1856.6c-84.1,4.31-184.33-15.27-184.33-15.27a32.38,32.38,0,0,1-1-19.26c3.16-13.43,7.95-30,14.11-36,6.6-6.39,41.55-3.42,41.55-3.42s73-19.41,87.64-27.39,22.56-55.81,25.76-87.9c17-171.42,49-178.88,77.36-181.7C3799.13,1479.79,3753.71,1852.77,3679.25,1856.6Z"/><path class="cls-23" d="M3425.28,2825.63l78.52-485a105.8,105.8,0,0,1,104.44-88.9H3801A105.8,105.8,0,0,1,3906,2345l58.31,487.32"/><path class="cls-23" d="M3694.8,2825.63l78.51-485a105.81,105.81,0,0,1,104.44-88.9h192.71A105.81,105.81,0,0,1,4175.52,2345l58.3,487.32"/><line class="cls-23" x1="3445.9" y1="2698.98" x2="3711.15" y2="2698.98"/><line class="cls-23" x1="3906" y1="2344.95" x2="4180.26" y2="2344.95"/><path class="cls-9" d="M3956.17,2262.75H4158a149.14,149.14,0,0,0,148.67-137.36l28.71-362.51a101,101,0,0,0-100.72-109H4123.16a294.32,294.32,0,0,0-282,210.08l-77.33,258.84a102.44,102.44,0,0,1-98.16,73.13h-141a66.83,66.83,0,0,0-66.83,66.83h498.38Z"/><path class="cls-24" d="M3956.17,2262.75H4158a149.14,149.14,0,0,0,148.67-137.36l28.71-362.51a101,101,0,0,0-100.72-109H4123.16a294.32,294.32,0,0,0-282,210.08l-77.33,258.84a102.44,102.44,0,0,1-98.16,73.13h-141a66.83,66.83,0,0,0-66.83,66.83h498.38Z"/></g><g id="Speedometer"><path class="cls-9" d="M3756.22,1011.7h0l.07-.82A5.74,5.74,0,0,1,3756.22,1011.7Z"/><path class="cls-9" d="M3392.56,913.89a199.4,199.4,0,0,0-56,89.91l-14.14-.17a234.21,234.21,0,0,1,42.26-107.18Z"/><path class="cls-10" d="M3392.56,913.89a199.4,199.4,0,0,0-56,89.91l-14.14-.17a234.21,234.21,0,0,1,42.26-107.18Z"/><path class="cls-9" d="M3474.41,867.69a199.7,199.7,0,0,0-81.85,46.2l-27.87-17.44a248,248,0,0,1,87.39-75.92Z"/><path class="cls-12" d="M3474.41,867.69a199.7,199.7,0,0,0-81.85,46.2l-27.87-17.44a248,248,0,0,1,87.39-75.92Z"/><path class="cls-9" d="M3561.16,794.36l-6.86,69a171.85,171.85,0,0,0-29.88-2.55,185.49,185.49,0,0,0-50,6.91l-22.33-47.16a229.9,229.9,0,0,1,105.82-26.2C3559,794.33,3560.08,794.33,3561.16,794.36Z"/><path class="cls-16" d="M3561.16,794.36l-6.86,69a171.85,171.85,0,0,0-29.88-2.55,185.49,185.49,0,0,0-50,6.91l-22.33-47.16a229.9,229.9,0,0,1,105.82-26.2C3559,794.33,3560.08,794.33,3561.16,794.36Z"/><path class="cls-9" d="M3664.44,823.68l-45,66a162.28,162.28,0,0,0-65.17-26.37l6.86-69C3599.66,794.93,3634.85,805.52,3664.44,823.68Z"/><path class="cls-25" d="M3664.44,823.68l-45,66a162.28,162.28,0,0,0-65.17-26.37l6.86-69C3599.66,794.93,3634.85,805.52,3664.44,823.68Z"/><path class="cls-9" d="M3735.93,901.49l-70.31,37.61a158.29,158.29,0,0,0-46.15-49.4l45-66A192.34,192.34,0,0,1,3735.93,901.49Z"/><path class="cls-7" d="M3735.93,901.49l-70.31,37.61a158.29,158.29,0,0,0-46.15-49.4l45-66A192.34,192.34,0,0,1,3735.93,901.49Z"/><path class="cls-9" d="M3756.44,1008.87l-68.76-.83a163.46,163.46,0,0,0-22.06-68.94l70.31-37.61C3751.75,933,3759.39,969.69,3756.44,1008.87Z"/><path class="cls-17" d="M3756.44,1008.87l-68.76-.83a163.46,163.46,0,0,0-22.06-68.94l70.31-37.61C3751.75,933,3759.39,969.69,3756.44,1008.87Z"/><path class="cls-9" d="M3756.32,1010.88a5.74,5.74,0,0,1-.1.82c-1.83,19.37-9.55,51.52-18.32,70.27l-55.65-12.58,4.48-21.27c.41-2.74.74-5.52,1-8.32h0l.15-1.7h0a173.09,173.09,0,0,0-.21-30.06l68.76.83c0,.39,0,.76-.07,1.16A8.24,8.24,0,0,1,3756.32,1010.88Z"/><path class="cls-9" d="M3330.89,1077.55l-4.16.91q-1.93-7.95-3.26-16.15a213.74,213.74,0,0,1-1.89-50.61h0l.07-.82a7.9,7.9,0,0,1,.11-.85c.21-2.16.43-4.28.7-6.4l14.14.17a187.23,187.23,0,0,0-6.62,34.3,7.9,7.9,0,0,0-.11.85c0,.28,0,.56,0,.85a175.53,175.53,0,0,0-.41,20.59A158.78,158.78,0,0,0,3330.89,1077.55Z"/><path class="cls-24" d="M3330.89,1077.55l-4.16.91q-1.93-7.95-3.26-16.15a213.74,213.74,0,0,1-1.89-50.61h0l.07-.82a7.9,7.9,0,0,1,.11-.85c.21-2.16.43-4.28.7-6.4l14.14.17a187.23,187.23,0,0,0-6.62,34.3,7.9,7.9,0,0,0-.11.85c0,.28,0,.56,0,.85a175.53,175.53,0,0,0-.41,20.59A158.78,158.78,0,0,0,3330.89,1077.55Z"/><path class="cls-6" d="M3751.79,1066.34l-5.81,14.58-11.92-2.69-110.84-25.09-47.74-10.83a59.47,59.47,0,0,0,8.18-13.94,56.9,56.9,0,0,0,4.34-18.28l105.82,36.33v0Z"/><path class="cls-6" d="M3588,1010.09a58.84,58.84,0,0,1-12.52,32.22l-42.87-9.7,13.57-36.9Z"/><path class="cls-9" d="M3588,1010.09a58.84,58.84,0,0,1-12.52,32.22,61.35,61.35,0,0,1-19.58,16.52c-27.56,14.76-60.07,5.43-72.55-20.88s-.22-59.59,27.38-74.38,60.07-5.42,72.56,20.88A51.23,51.23,0,0,1,3588,1010.09Z"/></g><g id="Number"><path class="cls-9" d="M1828.57,977.38h44.19v37.06h-48.61l-6.8,54.39h-38.42l6.8-54.39h-50l-6.8,54.39h-38.07l6.8-54.39h-44.54V977.38h49l7.14-55.07H1664.7V885.25h49l6.79-54.4h38.08l-6.8,54.4h50l6.8-54.4h38.07l-6.8,54.4H1884l.34,37.06h-49Zm-38.42,0,7.14-55.07h-50l-7.14,55.07Z"/><path class="cls-9" d="M1996.15,830.85v238h-55.07V875.05h-47.6v-44.2Z"/></g><g id="Symbol"><rect class="cls-6" x="1408.95" y="1820.69" width="380.82" height="262.17"/><rect class="cls-9" x="1408.95" y="1820.69" width="380.82" height="24.02"/><path class="cls-4" d="M1478.72,1965.69l62.26,34.5c3.13,1.75,5.21,3.32,6.24,4.69a8.54,8.54,0,0,1,1.54,5.25,9.66,9.66,0,0,1-2.9,7,9.19,9.19,0,0,1-6.75,3q-2.53,0-7.6-2.81l-80.32-44.67a7.9,7.9,0,0,1,0-13.8l80.32-44.67c3.38-1.82,5.88-2.72,7.5-2.72a9.4,9.4,0,0,1,6.85,2.9,9.51,9.51,0,0,1,2.9,6.94,8.5,8.5,0,0,1-1.54,5.25q-1.54,2.07-6.24,4.69Z"/><path class="cls-4" d="M1638.92,1901.37l-61.6,132.76c-1.57,3.32-3,5.47-4.22,6.48a9.13,9.13,0,0,1-5.91,2,9.36,9.36,0,0,1-6.8-2.81,8.72,8.72,0,0,1-2.86-6.38q0-2.52,2.25-7.4l61.79-132.68q2.34-5,4.13-6.47a9.38,9.38,0,0,1,5.91-2,9.28,9.28,0,0,1,6.75,2.77,8.61,8.61,0,0,1,2.81,6.33Q1641.17,1896.5,1638.92,1901.37Z"/><path class="cls-4" d="M1716.38,1965.69l-62.26-34.51q-4.68-2.62-6.23-4.69a8.5,8.5,0,0,1-1.55-5.25,9.49,9.49,0,0,1,2.91-6.94,9.37,9.37,0,0,1,6.84-2.9c1.63,0,4.13.9,7.5,2.72l80.32,44.67a7.89,7.89,0,0,1,0,13.8l-80.32,44.67q-5.05,2.81-7.5,2.81a9.35,9.35,0,0,1-6.91-3,9.86,9.86,0,0,1-2.84-7,8.49,8.49,0,0,1,1.55-5.24c1-1.37,3.11-2.94,6.23-4.69Z"/></g></svg>