<svg xmlns="http://www.w3.org/2000/svg" viewBox="0 0 5700 3000"><defs><style>.cls-1{isolation:isolate;}.cls-11,.cls-12,.cls-2{fill:#fff;}.cls-10,.cls-3{fill:none;}.cls-11,.cls-12,.cls-3{stroke:#d8dbde;}.cls-3{stroke-linecap:round;stroke-linejoin:round;stroke-width:2px;}.cls-4{fill:#d8dbde;}.cls-5{fill:#0e0f2d;}.cls-13,.cls-6{mix-blend-mode:multiply;}.cls-13,.cls-7{fill:#e5e5e5;}.cls-8{fill:#1158fe;}.cls-9{fill:#719bff;}.cls-10{stroke:#fff;stroke-width:0.97px;}.cls-10,.cls-11,.cls-12{stroke-miterlimit:10;}.cls-11{stroke-width:2.88px;}.cls-12{stroke-width:2px;}</style></defs><g class="cls-1"><g id="BACKGROUND"><rect class="cls-2" x="816.61" y="75.05" width="4241.95" height="2827.97"/></g><g id="OBJECTS"><line class="cls-3" x1="1082.63" y1="2326.99" x2="4774.03" y2="2326.99"/><path class="cls-4" d="M4013.09,1489h-55a18.75,18.75,0,0,1-17.48-11.76c-.73-1.84-1.47-3.66-2.24-5.47a18.71,18.71,0,0,1,4.09-20.55l40.47-40.47a18.93,18.93,0,0,0,0-26.77l-77.48-77.48a18.92,18.92,0,0,0-26.77,0l-39.82,39.81a19.15,19.15,0,0,1-21.25,3.78c-1.11-.48-2.23-.94-3.35-1.4a19.18,19.18,0,0,1-12.22-17.64v-58.58a18.93,18.93,0,0,0-18.93-18.93H3673.57a18.93,18.93,0,0,0-18.93,18.93V1331a19.23,19.23,0,0,1-12.23,17.67c-.62.25-1.23.5-1.83.76a19.21,19.21,0,0,1-21.18-3.84l-43-43a18.92,18.92,0,0,0-26.77,0l-77.48,77.48a18.92,18.92,0,0,0,0,26.77l42.77,42.77a19.25,19.25,0,0,1,3.82,21.25c-.07.17-.14.35-.22.52a19.23,19.23,0,0,1-17.64,12.1h-62.76a18.92,18.92,0,0,0-18.92,18.92V1612a18.93,18.93,0,0,0,18.92,18.93H3499a19.28,19.28,0,0,1,17.76,12.4,2.44,2.44,0,0,1,.1.24,19.23,19.23,0,0,1-4,20.94l-44.67,44.67a18.93,18.93,0,0,0,0,26.77l77.48,77.48a18.93,18.93,0,0,0,26.77,0l42.21-42.22a19.27,19.27,0,0,1,21.5-3.71l1.06.46a19.21,19.21,0,0,1,11.87,17.54v62a18.93,18.93,0,0,0,18.92,18.93h109.58a18.94,18.94,0,0,0,18.93-18.93v-57.37a18.78,18.78,0,0,1,11.94-17.54c1.28-.5,2.54-1,3.81-1.52a18.76,18.76,0,0,1,20.36,4.16l42.14,42.14a18.93,18.93,0,0,0,26.77,0l77.48-77.48a18.93,18.93,0,0,0,0-26.77l-39.26-39.26a18.77,18.77,0,0,1-4-20.87q1.13-2.52,2.18-5.07a18.76,18.76,0,0,1,17.35-11.44h57.71A18.93,18.93,0,0,0,4032,1617.5V1507.92A18.92,18.92,0,0,0,4013.09,1489ZM3725.6,1669.44A109.48,109.48,0,1,1,3835.08,1560,109.48,109.48,0,0,1,3725.6,1669.44Z"/><rect class="cls-5" x="2124.85" y="1078.45" width="1606.97" height="1125.13" rx="12.39"/><g class="cls-6"><path class="cls-7" d="M2125.41,2142a70,70,0,0,0,69.52,61.62h1466.8a70.06,70.06,0,0,0,69.53-61.62Z"/></g><rect class="cls-8" x="2182.1" y="1135.7" width="1492.47" height="987.08" rx="12.39"/><path class="cls-2" d="M2410.62,1613.21c0-89.75,70.69-152.78,167.09-152.78,58.69,0,105,20.87,134.51,58.44l-63.83,55.52c-17.57-21.71-38.56-34.23-65.55-34.23-42,0-70.26,28.39-70.26,73s28.28,73.06,70.26,73.06c27,0,48-12.53,65.55-34.24l63.83,55.52c-29.55,37.57-75.82,58.45-134.51,58.45C2481.31,1766,2410.62,1703,2410.62,1613.21Z"/><path class="cls-2" d="M3026.23,1759.32l-.86-133.17L2960.25,1733H2915.7l-65.12-102.28v128.58h-92.11V1467.11h83.11l97.68,155.7,95.11-155.7h83.11l.86,292.21Z"/><path class="cls-2" d="M3165.45,1735.94l32.56-71.8c28.27,16.28,66,26.72,99,26.72,28.71,0,39-5.85,39-15.87,0-36.73-165.79-7.1-165.79-116,0-54.28,46.7-98.52,139.66-98.52,40.27,0,81.83,8.34,113.1,25.46l-30.42,71.38c-29.55-14.61-57.4-21.7-83.53-21.7-29.56,0-39,8.35-39,18.37,0,35.06,165.79,5.84,165.79,113.54,0,53.43-46.69,98.52-139.66,98.52C3246,1766,3195.44,1753.89,3165.45,1735.94Z"/><rect class="cls-9" x="2434.92" y="1808.48" width="653.93" height="21.9"/><rect class="cls-9" x="3112.31" y="1808.48" width="128.88" height="21.9"/><rect class="cls-2" x="3256.24" y="1808.48" width="128.89" height="21.9"/><rect class="cls-9" x="3112.31" y="1891.92" width="128.88" height="21.9"/><rect class="cls-9" x="2825.24" y="1934.68" width="415.96" height="21.9"/><rect class="cls-2" x="3256.24" y="1891.92" width="128.89" height="21.9"/><rect class="cls-2" x="2587.27" y="1850.2" width="653.93" height="21.9"/><rect class="cls-9" x="3255.2" y="1850.2" width="128.89" height="21.9"/><rect class="cls-9" x="3255.2" y="1934.68" width="128.89" height="21.9"/><circle class="cls-2" cx="2300.05" cy="1221.79" r="24.77"/><circle class="cls-2" cx="2382.62" cy="1221.79" r="24.77"/><circle class="cls-2" cx="2465.18" cy="1221.79" r="24.77"/><line class="cls-10" x1="2227.11" y1="1276.84" x2="3611.9" y2="1276.84"/><path class="cls-4" d="M3800.77,2326.3H2055.89a96.25,96.25,0,0,1-90.26-62.82l-31.78-85.8h1989l-31.77,85.8A96.26,96.26,0,0,1,3800.77,2326.3Z"/><g class="cls-6"><path class="cls-7" d="M1963.31,2257.23l2.32,6.25a96.25,96.25,0,0,0,90.26,62.82H3800.77a96.26,96.26,0,0,0,90.27-62.82l2.31-6.25Z"/></g><rect class="cls-11" x="1761.02" y="1566.64" width="560.23" height="414.89" rx="22.43"/><polygon class="cls-8" points="2176.13 1778.51 1949.75 1659.51 1949.75 1900.4 2176.13 1778.51"/><rect class="cls-4" x="1357.54" y="1177.75" width="48.48" height="949.56" transform="translate(121.67 -94.55) rotate(4.1)"/><rect class="cls-4" x="1929.05" y="574.22" width="202.58" height="29.45"/><polygon class="cls-4" points="1446.59 1178.07 1989.95 536.4 1954.45 509.37 1388.2 1178.07 1446.59 1178.07"/><rect class="cls-5" x="1300.06" y="2100.52" width="101.74" height="132.08"/><g class="cls-6"><rect class="cls-7" x="1300.06" y="2164.77" width="101.74" height="67.82"/></g><rect class="cls-5" x="1251.87" y="2201.36" width="442.65" height="124.94" rx="7.18"/><g class="cls-6"><path class="cls-7" d="M1251.87,2271.86v13.84a40.6,40.6,0,0,0,40.6,40.6h361.44a40.6,40.6,0,0,0,40.6-40.6v-13.84Z"/></g><path class="cls-8" d="M2035.64,493.9h181.29a9.31,9.31,0,0,1,9.31,9.31V708.08a0,0,0,0,1,0,0H2026.33a0,0,0,0,1,0,0V503.21A9.31,9.31,0,0,1,2035.64,493.9Z"/><g class="cls-6"><rect class="cls-7" x="2026.33" y="622.41" width="199.91" height="85.67"/></g><path class="cls-8" d="M1949.92,647.4h368.79a39.6,39.6,0,0,1,39.6,39.6V958a0,0,0,0,1,0,0h-448a0,0,0,0,1,0,0V687A39.6,39.6,0,0,1,1949.92,647.4Z"/><g class="cls-6"><rect class="cls-7" x="1910.31" y="886.57" width="448" height="71.39"/></g><rect class="cls-5" x="1877.29" y="909.77" width="514.04" height="73.18"/><circle class="cls-5" cx="1421.86" cy="1166.66" r="62.73"/><path class="cls-8" d="M2301.83,2426.88c18.83,5.73,27.43,17.6,27.43,45.85v65.51c0,19.24,9.83,30.3,29.89,30.3h7.37v49.94h-23.75c-51.18,0-77.38-26.2-77.38-73.28v-74.11c0-13.1-7-19.24-18-19.24h-13.51V2401.9h13.51c11,0,18-6.14,18-19.24v-74.1c0-47.09,26.2-73.29,77.38-73.29h23.75v49.95h-7.37c-20.06,0-29.89,11.05-29.89,30.3V2381C2329.26,2409.27,2320.66,2421.14,2301.83,2426.88Z"/><path class="cls-8" d="M2362,2502.21c0-23.75,17.61-39.3,39.71-39.3s39.72,15.55,39.72,39.3c0,23.34-17.61,40.12-39.72,40.12S2362,2525.55,2362,2502.21Zm109.32,0c0-23.75,17.6-39.3,39.71-39.3s39.71,15.55,39.71,39.3c0,23.34-17.6,40.12-39.71,40.12S2471.34,2525.55,2471.34,2502.21Zm109.72,0c0-23.75,17.61-39.3,39.71-39.3s39.71,15.55,39.71,39.3c0,23.34-17.6,40.12-39.71,40.12S2581.06,2525.55,2581.06,2502.21Z"/><path class="cls-8" d="M2789.06,2401.9v49.95h-13.51c-11.05,0-18,6.14-18,19.24v74.11c0,47.08-26.2,73.28-77.38,73.28h-23.75v-49.94h7.37c20.06,0,29.89-11.06,29.89-30.3v-65.51c0-28.25,8.6-40.12,27.43-45.85-18.83-5.74-27.43-17.61-27.43-45.86v-65.5c0-19.25-9.83-30.3-29.89-30.3h-7.37v-49.95h23.75c51.18,0,77.38,26.2,77.38,73.29v74.1c0,13.1,7,19.24,18,19.24Z"/><rect class="cls-11" x="3403.64" y="1955.01" width="453.89" height="640.06"/><rect class="cls-8" x="3460.97" y="2037.25" width="338.06" height="16.55"/><rect class="cls-8" x="3460.97" y="2068.27" width="224.58" height="16.55"/><rect class="cls-8" x="3460.97" y="2099.6" width="293.73" height="16.55"/><rect class="cls-8" x="3460.97" y="2130.33" width="273.05" height="16.55"/><rect class="cls-8" x="3460.97" y="2398.04" width="273.05" height="16.55"/><rect class="cls-8" x="3460.97" y="2430.09" width="198.37" height="16.55"/><rect class="cls-8" x="3460.97" y="2463.09" width="225.24" height="16.55"/><rect class="cls-12" x="2666.18" y="498.11" width="971.26" height="160.25" rx="7.95"/><path class="cls-8" d="M3592.49,498.11h-241.1a49.1,49.1,0,0,0-49.1,49.1v62a49.1,49.1,0,0,0,49.1,49.1h241.1a45,45,0,0,0,45-45V543.06A44.94,44.94,0,0,0,3592.49,498.11Z"/><rect class="cls-12" x="2666.18" y="697.95" width="971.26" height="160.25" rx="7.95"/><path class="cls-5" d="M3592.49,698h-241.1a49.1,49.1,0,0,0-49.1,49.1V809.1a49.1,49.1,0,0,0,49.1,49.1h241.1a44.94,44.94,0,0,0,45-45V742.9A45,45,0,0,0,3592.49,698Z"/><circle class="cls-11" cx="3778.62" cy="947.8" r="380.59" transform="translate(436.54 2949.49) rotate(-45)"/><path class="cls-8" d="M3557.38,955.06l69.42-96.51h68.94l-67.46,96.51,67.46,96H3626.8Z"/><path class="cls-8" d="M3829.65,708.88h68.44l-162.48,463.8h-68.44Z"/><path class="cls-8" d="M3862.14,1051.07l67.45-96-67.45-96.51h68.93l69.42,96.51-69.42,96Z"/><path class="cls-8" d="M4570.42,1271.59H4265a99,99,0,0,0-99,99v39.59a99,99,0,0,0,99,99h135.05l70.45,126.31,77.56-126.31h22.36a99,99,0,0,0,99-99v-39.59A99,99,0,0,0,4570.42,1271.59Z"/><path class="cls-2" d="M4273.62,1391.63c0-23.74,17.61-39.3,39.71-39.3s39.72,15.56,39.72,39.3c0,23.34-17.61,40.13-39.72,40.13S4273.62,1415,4273.62,1391.63Z"/><path class="cls-2" d="M4380.89,1391.63c0-23.74,17.61-39.3,39.72-39.3s39.71,15.56,39.71,39.3c0,23.34-17.6,40.13-39.71,40.13S4380.89,1415,4380.89,1391.63Z"/><path class="cls-2" d="M4488.16,1391.63c0-23.74,17.61-39.3,39.72-39.3s39.72,15.56,39.72,39.3c0,23.34-17.61,40.13-39.72,40.13S4488.16,1415,4488.16,1391.63Z"/><rect class="cls-4" x="4260.8" y="1721.76" width="313.81" height="102.74"/><rect class="cls-13" x="4260.8" y="1755.21" width="313.81" height="69.29"/><polygon class="cls-8" points="4534.79 2326.3 4291.07 2326.3 4248.06 1826.92 4587.36 1826.92 4534.79 2326.3"/><g class="cls-6"><polygon class="cls-7" points="4587.36 1826.92 4248.06 1826.92 4259.15 1906.96 4573.81 1906.96 4587.36 1826.92"/></g><rect class="cls-5" x="4199.08" y="1768.38" width="437.26" height="102.74"/><circle class="cls-2" cx="4417.71" cy="2082.74" r="95.68" transform="translate(-178.8 3733.81) rotate(-45)"/></g></g></svg>