<svg xmlns="http://www.w3.org/2000/svg" viewBox="0 0 5700 3000"><defs><style>.cls-1{isolation:isolate;}.cls-2{fill:#2e5b99;}.cls-3{fill:#e6f6ff;}.cls-4{fill:#fff;}.cls-5{fill:#0f4599;}.cls-6{fill:#bae2ff;}.cls-7{fill:#1480cc;}.cls-8{fill:#ebf3ff;}.cls-9{fill:#3397ff;}.cls-10{fill:#e3eeff;}.cls-11{fill:#cce5ff;}.cls-12{fill:#66b8ff;}.cls-13{opacity:0.5;mix-blend-mode:darken;}.cls-14{fill:#61b3f2;}.cls-15{fill:#2e97e6;}.cls-16{fill:#0e0e0e;}.cls-17{fill:#2475b3;}.cls-18{fill:#3f9ee6;}.cls-19{fill:#1a5380;}.cls-20{fill:#e6e6e6;}.cls-21{fill:#999;}.cls-22{fill:gray;}.cls-23{fill:#666;}.cls-24{fill:#f7af0c;}.cls-25{fill:#cc840a;}.cls-26{fill:#803d00;}.cls-27{fill:#e6950b;}.cls-28{fill:#f7e4ad;}.cls-29{fill:#4582e6;}.cls-30{fill:#3d73cc;}.cls-31{fill:#002e73;}.cls-32{fill:#231f20;}.cls-33{fill:#f7a594;}.cls-34{fill:#e6836f;}.cls-35{fill:#73382a;}.cls-36{fill:#d9ffff;}.cls-37{fill:#007880;}.cls-38{fill:#008f99;}</style></defs><g class="cls-1"><g id="shadow"><path class="cls-2" d="M4959.82,2887.45H768a13.42,13.42,0,0,1,0-26.84H4959.82a13.42,13.42,0,1,1,0,26.84Z"/><rect class="cls-3" x="3652.25" y="181.32" width="1347.04" height="1259.63" transform="translate(8651.55 1622.27) rotate(180)"/><rect class="cls-3" x="1419.39" y="1604.85" width="906.99" height="815.06" transform="translate(3745.78 4024.76) rotate(180)"/></g><g id="folder"><path class="cls-4" d="M3478,967.27V854.13a93,93,0,0,1,93-93h990.23a93,93,0,0,1,93,93V2854H2092.78V967.27Z"/><path class="cls-5" d="M3469.72,967.27V854.13a93,93,0,0,1,93-93H4553a93,93,0,0,1,93,93V2854H2084.55V967.27Z"/><polygon class="cls-6" points="4560.18 1045.44 4560.18 2853.99 2187.39 2853.99 2187.39 1036.55 4560.18 1045.44"/><polygon class="cls-7" points="4429.91 1045.44 4429.91 2853.99 2057.12 2853.99 2057.12 1036.55 4429.91 1045.44"/><path class="cls-4" d="M1961.46,967.28H4305.6c48.12,0,83.55,32.56,90.47,77.58V2854H1837.66V1090.76C1837.09,1025.78,1895.73,967.28,1961.46,967.28Z"/><rect class="cls-8" x="2822.77" y="599.57" width="1370.07" height="1041.22" transform="translate(7012.46 2250.18) rotate(-179.84)"/><rect class="cls-9" x="2858.53" y="633.55" width="1299.99" height="957.21" transform="translate(7013.93 2234.13) rotate(-179.84)"/><polygon class="cls-10" points="4047.6 1515.44 3212.19 1513.1 3668.97 1074.89 4047.6 1515.44"/><polygon class="cls-10" points="3667.73 1514.37 2965.8 1512.41 3346.69 1150.24 3667.73 1514.37"/><circle class="cls-10" cx="3408.05" cy="977.41" r="96.75" transform="translate(307.06 2696.13) rotate(-45)"/><rect class="cls-8" x="2640.59" y="411.59" width="1270.17" height="1104.59" transform="translate(6548.24 1938.27) rotate(-179.82)"/><rect class="cls-9" x="2677.4" y="447.64" width="1198.04" height="1015.46" transform="translate(6549.73 1921.31) rotate(-179.82)"/><rect class="cls-11" x="3282.26" y="589.76" width="477.14" height="41.92"/><rect class="cls-11" x="2788.65" y="702.96" width="970.74" height="41.92" transform="translate(6548.05 1447.84) rotate(180)"/><rect class="cls-11" x="2788.65" y="818.21" width="970.74" height="41.92" transform="translate(6548.05 1678.35) rotate(180)"/><path class="cls-12" d="M1950.17,967.28H4294.32c48.11,0,83.54,32.56,90.46,77.58V2860.47H1826.37V1090.76C1825.8,1025.78,1884.44,967.28,1950.17,967.28Z"/><rect class="cls-4" x="4396.07" y="2843.58" width="258.14" height="10.4" transform="translate(9050.28 5697.57) rotate(180)"/><polygon class="cls-13" points="4654.21 1732.48 4560.18 1793.83 4435.94 1793.83 4396.07 1824.51 4396.07 1795.37 1837.66 1795.37 1837.66 1732.48 4654.21 1732.48"/><rect class="cls-14" x="1785.54" y="1432.32" width="2905.01" height="328.23" transform="translate(6476.09 3192.86) rotate(180)"/><rect class="cls-15" x="1785.54" y="1432.32" width="2643.5" height="328.23" transform="translate(6214.58 3192.86) rotate(180)"/><polygon class="cls-16" points="3698.23 1432.32 3698.23 1760.43 3468.54 1760.43 3629.59 1432.32 3698.23 1432.32"/><path class="cls-17" d="M3618.85,1596.07c0,45.41,7.93,86.5,21.27,116.07,13,30.27,31.1,48.29,51.1,48.29h61v-328h-61C3651.22,1432.43,3618.85,1506,3618.85,1596.07Zm57.77,54.07c-11.42-3.61-20.31-26-20.31-54.07,0-27.39,8.89-49.74,20.31-53.35,11.43,3.61,20.32,26,20.32,53.35C3696.94,1624.19,3688.05,1646.53,3676.62,1650.14Z"/><path class="cls-18" d="M3649.92,1596.07c0,45.41,8.31,86.5,22.25,116.07,13.62,30.27,32.55,48.29,53.47,48.29h26.57v-328h-26.57C3683.8,1432.43,3649.92,1506,3649.92,1596.07Zm29.23,0c0-27.39,17.27-49.74,29.22-53.35,12,3.61,21.26,26,21.26,53.35,0,28.12-9.3,50.46-21.26,54.07C3696.42,1646.53,3679.15,1624.19,3679.15,1596.07Z"/><path class="cls-17" d="M3648.07,1596.07c0,45.41,7.94,86.5,21.27,116.07,13,30.27,31.11,48.29,51.1,48.29h61v-328h-61C3680.45,1432.43,3648.07,1506,3648.07,1596.07Zm57.77,54.07c-11.42-3.61-20.31-26-20.31-54.07,0-27.39,8.89-49.74,20.31-53.35,11.43,3.61,20.32,26,20.32,53.35C3726.16,1624.19,3717.27,1646.53,3705.84,1650.14Z"/><path class="cls-14" d="M3679.15,1596.07c0,45.41,8.3,86.5,22.24,116.07,13.63,30.27,32.55,48.29,53.48,48.29h26.57v-328h-26.57C3713,1432.43,3679.15,1506,3679.15,1596.07Zm29.23,0c0-27.39,9.29-49.74,21.25-53.35,12,3.61,21.26,26,21.26,53.35,0,28.12-9.3,50.46-21.26,54.07C3717.67,1646.53,3708.38,1624.19,3708.38,1596.07Z"/><path class="cls-19" d="M3720.15,1762.57c-2.59,0-17.46-.69-33.17-15.78-17.84-17.13-39.1-55.81-39.1-142.85,0-82.92,19.39-125.61,35.65-146.82,17.91-23.35,35.8-26.67,36.55-26.8a2.14,2.14,0,0,1,.73,4.21h0c-.17,0-17.27,3.31-34.18,25.57-15.73,20.71-34.49,62.47-34.49,143.84,0,85.33,20.47,123,37.63,139.62,15.6,15.07,30.47,14.76,30.59,14.74a2.11,2.11,0,0,1,2.21,2,2.14,2.14,0,0,1-2,2.22Z"/><path class="cls-20" d="M3729.6,1645.74c2.89.72,5,1.44,7.92,2.16-.72.73-.72.73,0,.73,116.07,34.6,201.85,141.29,201.85,268.88v274h92.28v-274c0-177.33-124.71-325.84-291.24-363.32a58.06,58.06,0,0,0-10.81-2.87C3702.92,1545.54,3700.75,1641.43,3729.6,1645.74Z"/><path class="cls-20" d="M3620.38,1546.41v91.76c-118.94,15.31-215,103.56-240.52,218.87-.74,2.87-1.44,5-1.44,7.2a166.25,166.25,0,0,0-2.89,18.74,279.15,279.15,0,0,0-2.17,34.6v274h-91.55v-274C3281.81,1723.79,3430.74,1565,3620.38,1546.41Z"/><path class="cls-21" d="M3727.47,1618.67c216.37,37.95,244.23,273.52,244.23,273.52V2191.6h-32.45v-274c0-130.29-89.34-239.19-209.58-271.65-9.19-3-14.92-29.88-14.92-29.88S3720.44,1617.32,3727.47,1618.67Z"/><path class="cls-22" d="M3620.38,1618.67v19.5c-118.94,15.31-215,103.56-240.52,218.87C3385,1789.73,3440.84,1642.64,3620.38,1618.67Z"/><path class="cls-23" d="M3729.6,1645.74c2.89.72,5,1.44,7.92,2.16-2.16-5.77-13.89-18.87-15.33-46.25-1.45-28.12,8.1-47.14,18.22-47.46a58.06,58.06,0,0,0-10.81-2.87C3702.92,1545.54,3700.75,1641.43,3729.6,1645.74Z"/><rect class="cls-24" x="3201.78" y="2116.82" width="909.04" height="743.08"/><path class="cls-25" d="M3670,2300.38a34.79,34.79,0,0,0-8.66-.73,112.53,112.53,0,0,0-112.47,112.8c0,45.84,27.41,85.14,66.34,103.34v191.38c0,25.48,20.89,46.59,46.13,46.59a24.24,24.24,0,0,0,7.21-.73h2.15a46.78,46.78,0,0,0,36.78-45.86V2515.79c38.92-17.47,66.32-57.5,66.32-103.34A111.81,111.81,0,0,0,3670,2300.38Z"/><path class="cls-26" d="M3670,2300.38c-58.4,3.63-104.55,52.4-104.55,112.07,0,45.84,27.41,85.14,66.34,103.34v191.38c0,22.57,15.85,41.49,36.76,45.86h2.15a46.78,46.78,0,0,0,36.78-45.86V2515.79c38.92-17.47,66.32-57.5,66.32-103.34A111.81,111.81,0,0,0,3670,2300.38Z"/><path class="cls-27" d="M3490.25,2859.9H3201.78V2116.82h80S3260.56,2665.11,3490.25,2859.9Z"/><path class="cls-28" d="M3915.65,2859.9c68.9-147.41,56-543.73,56-743.08h91.56V2859.9Z"/></g><g id="super_hero" data-name="super hero"><path class="cls-29" d="M2978.05,2170.92s-93.27-3-185.17,1.37c-95.46,4.66-189.56,17.28-176.11,50.2a35.11,35.11,0,0,1,1.92,21.68c-19.21,88-367.33,153.89-444.14,99.85-57.33-40.33-215.35,11.52-280.09,39.5-123.29-825.31-126.74-1669-17.56-1727.71,109.19-58.44,411.77,15.64,411.77,15.64s153.35,40.6,215.9,460C2567.39,1550.66,2978.05,2170.92,2978.05,2170.92Z"/><path class="cls-30" d="M2616.77,2222.49a35.11,35.11,0,0,1,1.92,21.68c-94.37-287.78-316.58-1109.94-235.93-885.81,77.36,216.17,320.14,654,410.12,813.93C2697.42,2177,2603.32,2189.57,2616.77,2222.49Z"/><path class="cls-31" d="M1865.5,874c-89.7,109.73-106.16,136.34-190.1,142.1,28.25,17.83,45,42,56.51,68h.27c24.69,54,28.26,117.14,71.33,152.53l-51.58,50.75-13.17,13.17s-1.92-1.65-5.21-4.67c-22.49-20.84-111.92-105.07-165.14-182.43-31.28-45-50.2-87.51-37-114.12,21.4-77.36,76.27-236.19,215.9-283.65,91.62-99.58,181.33-46.09,213.15-4.66C2002.94,766.49,1960.15,885,1865.5,874Z"/><path class="cls-32" d="M1803.51,1236.69l-51.58,50.75-18.38,8.5c-21.12-19.75-101.77-95.47-155.54-169-3.29-4.38-6.58-9-9.6-13.44,26.61-.27,112.2-2.46,163.5-29.35h.27a148.51,148.51,0,0,1,5.76,14C1757.69,1148.63,1764,1204.32,1803.51,1236.69Z"/><path class="cls-12" d="M1737.94,1098.15c-56.78,34.57-121.8,33.47-159.93,28.8-3.29-4.38-6.58-9-9.6-13.44,26.61-.27,112.2-2.46,163.5-29.35h.27A148.51,148.51,0,0,1,1737.94,1098.15Z"/><path class="cls-32" d="M1764.85,1189.85s58.76,5.46,76.55,20.93c14.86,12.92,5.78,29.06,5.78,29.06,31.63,17.78,0,86.75-55.21,103.78s-91.39-87-91.39-87S1709,1193.56,1764.85,1189.85Z"/><path class="cls-32" d="M2506.2,2863.57H2306.87c-4.11-2.34-7.14-5-8.94-8-10.27-148.25-25-219.63-25-219.63l138.83-5.65,31.43,110.29C2489.65,2772.36,2545.09,2840.55,2506.2,2863.57Z"/><path class="cls-32" d="M2291.76,2866.24h236.32c6,0,4-32.86-2-32.86l-234.92,1.32C2285,2834.7,2285.59,2866.24,2291.76,2866.24Z"/><path class="cls-31" d="M2209.4,1284.59c32.26,86.78,169.51,484.4,130.33,770.67,53.9,190.37,37,351.62,85.58,629.64l-141.48,7.45c-57.51-339.22-120.79-274.49-139.1-610.43-116.58-263.4-177-512.94-208.06-769.85C1906.5,1118.4,2144.28,1016.7,2209.4,1284.59Z"/><path class="cls-32" d="M2285.3,2706.81s-10.6-100.95-77.16-293.81c-20.66-59.25-31.87-98.48-37.69-122.62-5.83-24.42-6.55-33.75-6.55-33.75,35.09-40.6,79.63-101.77,119.18-175.29,43.29,67.76,94.81,135.52,94.81,135.52s1.31,15.91,3.66,42c10.43,109.18,38.51,397.77,55.42,459C2457.88,2793.49,2326.34,2836.56,2285.3,2706.81Z"/><path class="cls-12" d="M2381.55,2258.83c-22.61-25.24-63.28-72.69-97.31-124.55-15.43,56-80.22,123.73-113.79,156.1-5.83-24.42-6.55-33.75-6.55-33.75,35.09-40.6,79.63-101.77,119.18-175.29,43.29,67.76,94.81,135.52,94.81,135.52S2379.2,2232.77,2381.55,2258.83Z"/><path class="cls-31" d="M2042.08,1321.38c-10,378-77.37,699.08-77.37,699.08,28.53,257.89-36.35,306-65.66,674.91l-127.87-1.7c-.33-149.74-9-335.2-18.11-635.46-80.5-313.81-41.72-544.93-11.71-732.52C1773.4,1112.61,2062.53,1042.09,2042.08,1321.38Z"/><path class="cls-32" d="M1899.05,2695.37c11.41,61.09,19.59,108.75,14.8,164l-309.69,6s-30.66-29.86,7.89-74.64,111.73-18.87,159.13-97.12Z"/><path class="cls-32" d="M1590.09,2866.24h329c6,0,4.42-32.86-1.58-32.86l-327.64,1.32C1583.75,2834.7,1583.93,2866.24,1590.09,2866.24Z"/><path class="cls-32" d="M1960.56,2278.31s-2.21,11-6,29.62c-15.58,81.48-57.37,308.9-52.48,411.22-58.13,69.41-133.69-7.68-133.69-7.68L1738,2149.37l-2.08-37.85A700.54,700.54,0,0,0,1960.56,2278.31Z"/><path class="cls-12" d="M1960.56,2278.31s-2.21,11-6,29.62c-113-32.91-182.5-110.28-216.63-158.56l-2.08-37.85A700.54,700.54,0,0,0,1960.56,2278.31Z"/><path class="cls-31" d="M1750.9,1303.51c0,65.37,464.21,46.44,464.21-18.92-1.55-107.85,13.32-196.6,33.6-270,139.18-136.35,130.88-242.18,95.61-299.6-60.82-99-368-93.4-478.64-50.84-43.92,16.9-102.9,85.75-121.76,195.51-9.7,56.43,31.85,122.14,38.42,167.76C1797.53,1133,1754,1288.35,1750.9,1303.51Z"/><path class="cls-33" d="M2040.27,709.08c22.91-18.19,114.27-46.26,138.57-66.15l-5.48-158.6-89.83-8.75A267,267,0,0,0,2009,492.83l-20.22,104.43-4.46,22.65C1974.16,642.2,1994.31,669.07,2040.27,709.08Z"/><path class="cls-34" d="M2143.13,520.23c-14.09,21.69-73.09,77.23-154.34,77l17.5-90.35Z"/><path class="cls-33" d="M1944.3,311.31c-7,31.25-21.56,99.85-19.19,131.44,3.62,48.1,48.54,101.44,87.72,108.45,45.35,4.62,106.49-8.89,139.68-37.41,18.48-21.65,54.23-73,70.69-118,34.33-93.77-31.94-176-116-195S1966.26,213.9,1944.3,311.31Z"/><path class="cls-35" d="M2195,457.77c17.53-30.85-5.76-43.35-31.3-19.4,4.37-23.28,30.91-91.5,7.4-114.11C2144.59,298,2027.73,309.43,1965,244c0,0,46.79-102.59,200.38-42C2338.78,293.94,2195,457.77,2195,457.77Z"/><ellipse class="cls-33" cx="2196.09" cy="447.05" rx="37.86" ry="29.42" transform="translate(448.77 1850.45) rotate(-50.28)"/><path class="cls-31" d="M1989.46,588.12c15.35,27.42,173.28,13.16,187.54-9.87l8.78,87.74-147,83.35L1962,664.89Z"/><path class="cls-32" d="M2249,297c-4.33-76.8-153-185.18-259.6-144.94-71.92,27.13-55.05,103.48,7.57,117.9C2052.19,282.62,2205.12,216.43,2249,297Z"/><path class="cls-32" d="M1976.13,152.25s3.16-21.9,15-38.28c-83.43,54.65-41.9,120-40.93,122.79,33.09-100.46,112-95.85,140.08-95.5C2018.13,107.32,1976.85,149.24,1976.13,152.25Z"/><path class="cls-12" d="M1745.1,1325.69c121.1,52.23,400.86,40.73,484.47.71l21.38,70.83c-181.91,42.88-355.94,44.08-521.16-1.34Z"/><path class="cls-31" d="M2555.44,1159.6c-80.11,85.87-249.09,183.8-249.09,183.8l-51.85-74.61c53.77-29.63,83.4-106.45,134.7-159.12,17.55-18.1,37.58-33.19,61.72-43.07-81.75-21.12-122.9-41.42-190.93-165.69-95.19-6.58-115.77-131.12-63.92-177.49,38.95-34.84,137.16-71.32,209,43.35,128.38,72.14,183.25,229.6,190.11,309.71C2601.52,1099.25,2584.24,1128.6,2555.44,1159.6Z"/><path class="cls-32" d="M2301,1229.72s-58.77-5.37-79.08,6.59c-17,10-11,27.51-11,27.51-34.34,11.7-15.86,85.29,35.31,112.12S2352,1307.13,2352,1307.13,2355.23,1243.58,2301,1229.72Z"/><path class="cls-32" d="M2555.44,1159.6c-4.94,5.21-10.15,10.7-15.64,15.91-84.49,81.75-233.45,167.89-233.45,167.89l-51.85-74.61c46.36-25.52,74.62-85.87,114.4-135.8a272.1,272.1,0,0,1,20.3-23.32C2409.22,1121.47,2469,1153,2555.44,1159.6Z"/><path class="cls-12" d="M2555.44,1159.6c-4.94,5.21-10.15,10.7-15.64,15.91-72.42-3.56-140.45-29.62-170.9-42.52a272.1,272.1,0,0,1,20.3-23.32C2409.22,1121.47,2469,1153,2555.44,1159.6Z"/><path class="cls-36" d="M2085,839.71h0c0-.27,0-.39,0-.42S2085,839.71,2085,839.71Z"/><path class="cls-36" d="M2085,839.71h0c0-.27,0-.39,0-.42S2085,839.71,2085,839.71Z"/><path class="cls-36" d="M1940,818.91s0-.37,0-.42,0,.15,0,.42Z"/><path class="cls-36" d="M1940,818.91s0-.37,0-.42,0,.15,0,.42Z"/><path class="cls-4" d="M2017.57,785.2c14.43,22.7,39.36,43.25,67.34,54.59-.25,2.15-1.65,14.07-8.11,69-8.61,73.28-75.4,99.79-85.76,103.84-8.81-6.22-67.69-51.34-59.07-124.61,6.45-54.93,7.85-66.85,8.11-69C1969.75,816,1998.37,803.08,2017.57,785.2Z"/><path class="cls-24" d="M2010,824.12l-.12.09c-13.93,11-32.33,18.64-51.94,21.48l-5.5,46.86c-2.53,21.44,2.91,41.9,16.14,60.83a115.06,115.06,0,0,0,22.67,24c.23.18.46.37.68.53a106.7,106.7,0,0,0,28.24-17.15c17.17-14.56,27.15-32.82,29.67-54.25l5.51-46.86C2037,851.37,2020.88,838.75,2010,824.12Z"/><path class="cls-12" d="M1970.23,641.45c7.87,20.25,34.15,38.09,63.79,55.47,60.19-9.86,106.36-28.49,151.52-54.92,44.44-.21,76.41,16.89,109.3,29.51l-262.39,42.7L1878.32,656C1898.82,648.57,1928.17,643.52,1970.23,641.45Z"/><path class="cls-36" d="M2871.72,1186h0c0-1.3,0-1.87,0-2C2871.7,1184.24,2871.72,1186,2871.72,1186Z"/><path class="cls-36" d="M2871.72,1186h0c0-1.3,0-1.87,0-2C2871.7,1184.24,2871.72,1186,2871.72,1186Z"/><path class="cls-36" d="M2097.57,1194.52s0-1.75,0-2c0,.13,0,.7,0,2Z"/><path class="cls-36" d="M2097.57,1194.52s0-1.75,0-2c0,.13,0,.7,0,2Z"/><path class="cls-4" d="M2481.67,980.35c90.85,95.6,235.33,173.49,389.59,206.07.12,10.24.75,67,3.65,328.49,3.88,348.85-328.53,521.52-380.14,548-50.33-22.66-389.21-190.66-393.08-539.51-2.91-261.51-3.54-318.24-3.65-328.48C2251.54,1159,2393,1077.93,2481.67,980.35Z"/><path class="cls-37" d="M2483,1043.4c88.88,80.09,211.69,142.69,346.5,176.37l3.29,295.57c1.5,135.24-51.67,258-158,364.72-69.89,70.16-143.57,113.87-181,133.55-1.62-.81-3.39-1.71-5.14-2.61l-6.41-966.91Z"/><path class="cls-38" d="M2482.24,1044.09l6.41,966.91c-39.17-20-110.38-61.26-178.76-126.92-108.71-104.41-164.59-225.91-166.09-361.16l-3.28-295.57C2274.17,1190.82,2395.23,1125.79,2482.24,1044.09Z"/><path class="cls-4" d="M2328.68,1471.15l1.52,229c.17,25.49,312.93,23.44,312.76-2.05l-1.52-229ZM2447,1556.82a38.64,38.64,0,1,1,54.69,34.65l.43,65a15.82,15.82,0,1,1-31.64.21l-.43-64.9A38.37,38.37,0,0,1,2447,1556.82Z"/><path class="cls-4" d="M2356,1454.65l31.66-.21-.1-15.42c-.35-53.42,43-97.17,96.69-97.53s97.62,42.83,98,96.26l.1,15.42,31.66-.21-.1-15.42c-.47-70.8-58.72-128-129.85-127.56s-128.61,58.45-128.14,129.25Z"/></g></g></svg>