<svg xmlns="http://www.w3.org/2000/svg" viewBox="0 0 5700 3000"><defs><style>.cls-1{fill:#f5f5f5;}.cls-2{fill:#e0e0e0;}.cls-3{fill:#284fdd;}.cls-4{opacity:0.35;}.cls-19,.cls-5{fill:none;}.cls-5{stroke:#e6e6e6;stroke-miterlimit:10;}.cls-6{opacity:0.55;}.cls-12,.cls-13,.cls-7{fill:#fff;}.cls-8{opacity:0.45;}.cls-9{fill:#263238;}.cls-10{fill:#455a64;}.cls-11{fill:#37474f;}.cls-12{opacity:0.8;}.cls-13{opacity:0.6;}.cls-14,.cls-16{opacity:0.15;}.cls-15{fill:#ffa8a7;}.cls-17{fill:#f28f8f;}.cls-18{opacity:0.1;}.cls-19{stroke:#455a64;stroke-linecap:round;stroke-linejoin:round;stroke-width:1.5px;}</style></defs><g id="Floor"><ellipse id="Floor-2" data-name="Floor" class="cls-1" cx="2834.2" cy="2015.37" rx="1514.03" ry="874.13"/></g><g id="Shadows"><ellipse id="Shadow" class="cls-2" cx="3276.36" cy="1543.76" rx="221.96" ry="128.15"/><path id="Shadow-2" data-name="Shadow" class="cls-2" d="M3619.1,1691.45l435.34,251.34c10.87,6.28,28.49,6.28,39.36,0l66.13-38.18c10.87-6.27,10.87-16.45,0-22.72l-435.34-251.35c-10.87-6.27-28.49-6.27-39.36,0l-66.13,38.18C3608.23,1675,3608.23,1685.17,3619.1,1691.45Z"/><path id="Shadow-3" data-name="Shadow" class="cls-2" d="M2208.4,2431.81l601.69,347.39c14.85,8.57,38.91,8.57,53.75,0l954.61-551.14c14.85-8.57,14.85-22.47,0-31l-601.69-347.39c-14.84-8.57-38.9-8.57-53.74,0L2208.4,2400.78C2193.56,2409.35,2193.56,2423.25,2208.4,2431.81Z"/><path id="Shadow-4" data-name="Shadow" class="cls-2" d="M2103.89,2045.3l-122.72-70.85c-14.84-8.57-38.91-8.57-53.75,0l-400,231c-14.85,8.57-38.91,8.57-53.75,0l-47.09-27.19c-14.84-8.57-14.84-22.46,0-31l1257.12-725.8c14.84-8.57,38.91-8.57,53.75,0l47.09,27.19c14.84,8.57,14.84,22.46,0,31l-400,231c-14.84,8.57-14.84,22.46,0,31l122.72,70.85c14.84,8.57,14.84,22.46,0,31l-349.6,201.84C2142.79,2053.87,2118.73,2053.87,2103.89,2045.3Z"/></g><g id="Device_3" data-name="Device 3"><g id="Device"><path class="cls-3" d="M2246.16,2366.29l576.59,332.82c7.87,4.52,20.64,4.52,28.49,0l929.51-536.6c7.86-4.53,7.86-11.91,0-16.43l-576.59-332.82c-7.87-4.51-20.63-4.51-28.49,0l-929.5,536.6C2238.31,2354.4,2238.3,2361.78,2246.16,2366.29Zm858.1-488.24c6.73-3.88,13.75-1.64,20.49,2.28l541.05,312.28c6.73,3.88,6.75,10.2,0,14.1l-739.16,426.67c-6.76,3.9-17.69,3.87-24.45,0l-541-312.3c-6.77-3.89-6.75-10.2,0-14.09Z"/><path class="cls-4" d="M2246.16,2366.29l576.59,332.82c7.87,4.52,20.64,4.52,28.49,0l929.51-536.6c7.86-4.53,7.86-11.91,0-16.43l-576.59-332.82c-7.87-4.51-20.63-4.51-28.49,0l-929.5,536.6C2238.31,2354.4,2238.3,2361.78,2246.16,2366.29Zm858.1-488.24c6.73-3.88,13.75-1.64,20.49,2.28l541.05,312.28c6.73,3.88,6.75,10.2,0,14.1l-739.16,426.67c-6.76,3.9-17.69,3.87-24.45,0l-541-312.3c-6.77-3.89-6.75-10.2,0-14.09Z"/><path class="cls-5" d="M2554.38,2522.67c14.34,8.29,37.6,8.29,51.95,0s14.34-21.7,0-30-37.61-8.28-51.95,0S2540,2514.4,2554.38,2522.67Z"/><path class="cls-3" d="M3782.41,2147.15c7.1,5,12.57,15.14,12.6,23.59v18.82c0,9.12-6.33,20.15-14.24,24.72l-929.45,536.57a27.08,27.08,0,0,1-10.46,3.18,34.33,34.33,0,0,1-3.81.25,0,0,0,0,0-.05,0V2702.5l0,0a38.9,38.9,0,0,0,5.75-.47,25.73,25.73,0,0,0,8.5-2.91l929.52-536.61C3788,2158.3,3788.58,2151.7,3782.41,2147.15Z"/><path class="cls-6" d="M3782.41,2147.15c7.1,5,12.57,15.14,12.6,23.59v18.82c0,9.12-6.33,20.15-14.24,24.72l-929.45,536.57a27.08,27.08,0,0,1-10.46,3.18,34.33,34.33,0,0,1-3.81.25,0,0,0,0,0-.05,0V2702.5l0,0a38.9,38.9,0,0,0,5.75-.47,25.73,25.73,0,0,0,8.5-2.91l929.52-536.61C3788,2158.3,3788.58,2151.7,3782.41,2147.15Z"/><path class="cls-3" d="M3104.26,1878.05c6.73-3.88,13.75-1.64,20.49,2.28l541.05,312.28c6.73,3.88,6.75,10.2,0,14.1l-739.16,426.67c-6.76,3.9-17.69,3.87-24.45,0l-541-312.3c-6.77-3.89-6.75-10.2,0-14.09Z"/><path class="cls-7" d="M3104.26,1878.05c6.73-3.88,13.75-1.64,20.49,2.28l541.05,312.28c6.73,3.88,6.75,10.2,0,14.1l-739.16,426.67c-6.76,3.9-17.69,3.87-24.45,0l-541-312.3c-6.77-3.89-6.75-10.2,0-14.09Z"/><path class="cls-3" d="M2244.28,2351.11c-5.91,4.59-5.26,11.06,1.87,15.17l576.61,332.84a29,29,0,0,0,14.25,3.38v51.77a29,29,0,0,1-14.21-3.45l-576.6-332.76c-7.85-4.51-14.24-15.57-14.24-24.68l-.06-18.86C2231.92,2366.19,2237.28,2356.21,2244.28,2351.11Z"/><path class="cls-8" d="M2244.28,2351.11c-5.91,4.59-5.26,11.06,1.87,15.17l576.61,332.84a29,29,0,0,0,14.25,3.38v51.77a29,29,0,0,1-14.21-3.45l-576.6-332.76c-7.85-4.51-14.24-15.57-14.24-24.68l-.06-18.86C2231.92,2366.19,2237.28,2356.21,2244.28,2351.11Z"/><path class="cls-9" d="M3454.76,2003.18a9.53,9.53,0,0,0,8.64,0c2.39-1.37,2.39-3.61,0-5a9.6,9.6,0,0,0-8.64,0C3452.38,1999.57,3452.38,2001.81,3454.76,2003.18Z"/><path class="cls-9" d="M3468.57,2042.36c4.77,2.76,12.51,2.76,17.28,0s4.77-7.22,0-10-12.51-2.76-17.28,0S3463.8,2039.61,3468.57,2042.36Z"/><path class="cls-9" d="M3456.39,2025c3.18-1.84,3-4.91-.38-6.87l-56.84-32.82c-3.39-2-8.72-2-11.9-.22s-3,4.91.38,6.87l56.84,32.82C3447.88,2026.74,3453.21,2026.84,3456.39,2025Z"/></g><polygon class="cls-7" points="2836.96 2066.99 3341.14 2358.08 3139.47 2474.52 2635.29 2183.43 2836.96 2066.99"/><path class="cls-3" d="M3013.27,1976.1c-13.93,8-13.93,21.07,0,29.11s36.5,8,50.42,0,13.92-21.07,0-29.11S3027.19,1968.06,3013.27,1976.1Z"/><path class="cls-7" d="M3044.19,1990.08c-4.05,2.34-4.05,6.13,0,8.46a16.18,16.18,0,0,0,14.66,0c4-2.33,4-6.12,0-8.46A16.18,16.18,0,0,0,3044.19,1990.08Z"/><path class="cls-10" d="M3102.63,2046.61a.8.8,0,0,1,.45.93,1.78,1.78,0,0,1-.94,1l-5.15,3a4.27,4.27,0,0,1-1.81.55,2.69,2.69,0,0,1-1.6-.27l-23.79-13.73a.79.79,0,0,1-.45-.92,1.81,1.81,0,0,1,.95-1l46.76-27a4.41,4.41,0,0,1,1.81-.54,2.68,2.68,0,0,1,1.6.26l4.4,2.54a.8.8,0,0,1,.46.93,1.82,1.82,0,0,1-.94,1l-39.67,22.9Z"/><path class="cls-10" d="M3150.57,2040.44a10.57,10.57,0,0,1,4.16,3.83,6.37,6.37,0,0,1,.78,4.37,10.13,10.13,0,0,1-2.24,4.55,20.49,20.49,0,0,1-5,4.31q-.6.4-1.62,1l-2,1.17-2,1.15c-.65.38-1.22.68-1.68.91a39.89,39.89,0,0,1-7.48,2.87,37,37,0,0,1-7.83,1.29,31.29,31.29,0,0,1-7.54-.47,20.72,20.72,0,0,1-6.63-2.4,10.73,10.73,0,0,1-4.18-3.84,6.49,6.49,0,0,1-.81-4.36,9.59,9.59,0,0,1,2.23-4.51,22.09,22.09,0,0,1,5-4.32c.39-.27.91-.6,1.55-1s1.28-.78,2-1.17,1.35-.77,2.05-1.15,1.28-.69,1.75-.92a36.33,36.33,0,0,1,7.45-2.89,39.35,39.35,0,0,1,7.89-1.29,30.61,30.61,0,0,1,7.58.45A20.81,20.81,0,0,1,3150.57,2040.44Zm-9.72,13.19a11.14,11.14,0,0,0,2.93-2.61,3.58,3.58,0,0,0,.81-2.25,3,3,0,0,0-.81-1.85,8.32,8.32,0,0,0-1.9-1.47,12.42,12.42,0,0,0-2.56-1.1,11.52,11.52,0,0,0-3.2-.47,16,16,0,0,0-3.9.47,21,21,0,0,0-4.51,1.7c-.42.2-.94.46-1.53.78s-1.22.67-1.84,1-1.23.73-1.82,1.09-1,.64-1.33.86a11.38,11.38,0,0,0-2.94,2.6,3.61,3.61,0,0,0-.8,2.26,2.85,2.85,0,0,0,.81,1.85,8.1,8.1,0,0,0,1.9,1.47,12.33,12.33,0,0,0,2.55,1.1,11.17,11.17,0,0,0,3.2.46,15.42,15.42,0,0,0,3.9-.46,21,21,0,0,0,4.52-1.7c.37-.17.86-.43,1.46-.78l1.85-1.07,1.81-1C3140,2054.16,3140.49,2053.87,3140.85,2053.63Z"/><path class="cls-10" d="M3174.22,2065a11.1,11.1,0,0,0-6.62-1.6,19,19,0,0,0-7.7,2.78L3141.08,2077a4.41,4.41,0,0,1-1.81.54,2.79,2.79,0,0,1-1.61-.26l-4.13-2.39a.78.78,0,0,1-.45-.92,1.79,1.79,0,0,1,.94-1.05l33.74-19.47a4.27,4.27,0,0,1,1.81-.55,2.81,2.81,0,0,1,1.61.26l4.12,2.38a.81.81,0,0,1,.46.94,1.82,1.82,0,0,1-1,1l-1.66,1a26.86,26.86,0,0,1,5.7.2,14.63,14.63,0,0,1,5.14,1.88l2.45,1.41a.8.8,0,0,1,.45.93,1.76,1.76,0,0,1-.95,1l-4.78,2.76a4.27,4.27,0,0,1-1.8.55,2.78,2.78,0,0,1-1.61-.26Z"/><path class="cls-10" d="M3171.74,2075.23a48.32,48.32,0,0,1,8.56-3.88,44.43,44.43,0,0,1,8.88-2.06,33,33,0,0,1,8.37,0,19.47,19.47,0,0,1,7,2.3,9.09,9.09,0,0,1,4,4,6.64,6.64,0,0,1,.23,4.73,12.83,12.83,0,0,1-3.18,4.94,27.76,27.76,0,0,1-6.1,4.62l-3.26,1.88a4.16,4.16,0,0,1-1.81.54,2.7,2.7,0,0,1-1.61-.26l-18.13-10.47a7.83,7.83,0,0,0-2.42,2,3.35,3.35,0,0,0-.75,2,3.07,3.07,0,0,0,.7,1.91,6.48,6.48,0,0,0,1.9,1.6,12.1,12.1,0,0,0,3.3,1.36,13.11,13.11,0,0,0,3,.34,14.32,14.32,0,0,1,1.77.1,3.54,3.54,0,0,1,1.25.48l4.35,2.51a.82.82,0,0,1,.47.94,1.54,1.54,0,0,1-1,1,13.73,13.73,0,0,1-3.44,1,27.57,27.57,0,0,1-5.48.43,33.47,33.47,0,0,1-6.49-.74,21.39,21.39,0,0,1-6.44-2.46,9.59,9.59,0,0,1-4.09-4,6.05,6.05,0,0,1-.2-4.75,13.6,13.6,0,0,1,3.54-5.11A34.58,34.58,0,0,1,3171.74,2075.23Zm24.16,1.41a9.66,9.66,0,0,0-3.3-1.2,15,15,0,0,0-3.47-.16,16.42,16.42,0,0,0-3.34.58,17.15,17.15,0,0,0-2.79,1l12.26,7.08a15.93,15.93,0,0,0,1.88-1.55,4.22,4.22,0,0,0,1.19-1.81,2.56,2.56,0,0,0-.2-2A5.38,5.38,0,0,0,3195.9,2076.64Z"/><path class="cls-10" d="M3226.57,2089.33a23.88,23.88,0,0,1,6.37,0,13.65,13.65,0,0,1,5,1.58c2.28,1.31,3.57,2.71,3.89,4.21a5.92,5.92,0,0,1-1,4.55,26.61,26.61,0,0,1,4.35-.51,28,28,0,0,1,4.15.15,19.92,19.92,0,0,1,3.61.7,13.51,13.51,0,0,1,2.85,1.18c2.06,1.19,3.31,2.45,3.78,3.77a5.07,5.07,0,0,1-.36,4.06,13.18,13.18,0,0,1-3.59,4.15,47.28,47.28,0,0,1-6,4l-19.47,11.24a4.17,4.17,0,0,1-1.82.54,2.69,2.69,0,0,1-1.6-.26l-4.13-2.38a.78.78,0,0,1-.45-.93,1.78,1.78,0,0,1,.94-1l19.11-11q4.92-2.84,5.46-4.79t-2-3.41A9.87,9.87,0,0,0,3240,2104a20.22,20.22,0,0,0-8.25,2.85l-19.47,11.24a4.3,4.3,0,0,1-1.81.54,2.71,2.71,0,0,1-1.61-.26l-4.13-2.38a.78.78,0,0,1-.45-.93,1.82,1.82,0,0,1,.94-1l19.11-11c3.29-1.9,5.1-3.49,5.47-4.79s-.31-2.43-2-3.41a10.15,10.15,0,0,0-5.79-1.05,20.37,20.37,0,0,0-8.42,3l-19.11,11a4.26,4.26,0,0,1-1.81.54,2.79,2.79,0,0,1-1.61-.26l-4.12-2.38a.8.8,0,0,1-.46-.93,1.79,1.79,0,0,1,.94-1.05l33.74-19.47a4.27,4.27,0,0,1,1.81-.55,2.71,2.71,0,0,1,1.61.27l4.12,2.37a.81.81,0,0,1,.46.94,1.79,1.79,0,0,1-.95,1Z"/><path class="cls-10" d="M3282.44,2124.59q-6.18,3.39-12.16,7-8,4.89-8.85,8.68t4.18,6.68a22.76,22.76,0,0,0,4.53,2,18,18,0,0,0,5.05.78,26,26,0,0,0,5.8-.62,40.52,40.52,0,0,0,6.91-2.23,4,4,0,0,1,1.64-.44,2.13,2.13,0,0,1,1.08.25l1.08.62a.73.73,0,0,1,.45.72c0,.29-.29.54-.75.78a37.76,37.76,0,0,1-6.28,2.56,34.62,34.62,0,0,1-7.58,1.43,33.16,33.16,0,0,1-8.22-.4,23.85,23.85,0,0,1-8.06-2.94,11.64,11.64,0,0,1-4.86-4.52,6.22,6.22,0,0,1-.34-4.91,12.86,12.86,0,0,1,3.56-5.09,40,40,0,0,1,6.88-5.1c1.9-1.19,4-2.44,6.25-3.75s4.48-2.54,6.63-3.69a57.88,57.88,0,0,1,8.8-4,39.91,39.91,0,0,1,8.85-2.08,31.44,31.44,0,0,1,8.52.19,22.93,22.93,0,0,1,7.83,2.81q3.85,2.24,5.09,4.65a6.84,6.84,0,0,1,.69,4.75,9.65,9.65,0,0,1-2.48,4.38,22.43,22.43,0,0,1-4.44,3.62,2.52,2.52,0,0,1-1.34.44,2.39,2.39,0,0,1-1.25-.26l-1.08-.63a.71.71,0,0,1-.43-.62c0-.26.25-.57.76-.94a18.06,18.06,0,0,0,3.87-4,5.74,5.74,0,0,0,1.08-3.35,4.62,4.62,0,0,0-1.36-2.91,15.16,15.16,0,0,0-3.45-2.62,19.77,19.77,0,0,0-11.57-2.41Q3290.92,2120,3282.44,2124.59Z"/><path class="cls-10" d="M3332.87,2145.69a9.15,9.15,0,0,1,3.89,3.71,5.34,5.34,0,0,1,.24,4.15,11.2,11.2,0,0,1-3,4.35,32,32,0,0,1-5.62,4.28q-.59.33-1.35.81c-.51.32-1.06.64-1.64,1s-1.15.67-1.72,1-1,.56-1.37.76a48.7,48.7,0,0,1-7.41,3.25,36.36,36.36,0,0,1-7.53,1.71,27.35,27.35,0,0,1-7.19-.14,18.51,18.51,0,0,1-6.43-2.25,9.21,9.21,0,0,1-3.89-3.71,5.34,5.34,0,0,1-.24-4.15,11.42,11.42,0,0,1,2.93-4.36,28.92,28.92,0,0,1,5.66-4.27c.33-.19.77-.46,1.3-.79s1.1-.67,1.68-1,1.14-.65,1.69-.94l1.4-.78a43.35,43.35,0,0,1,7.38-3.26,36.34,36.34,0,0,1,7.56-1.69,26.54,26.54,0,0,1,7.19.13A18.51,18.51,0,0,1,3332.87,2145.69Zm-8.13,14.78q6.08-3.67,6.9-6.92t-3-5.44a15.8,15.8,0,0,0-9.41-1.71,30.74,30.74,0,0,0-12,4c-.76.4-1.67.9-2.73,1.52s-1.93,1.13-2.62,1.57c-4,2.46-6.35,4.77-6.9,6.93s.43,4,3,5.43a15.66,15.66,0,0,0,9.41,1.71,30.42,30.42,0,0,0,12-4c.76-.39,1.67-.89,2.73-1.51S3324.05,2160.91,3324.74,2160.47Z"/><path class="cls-10" d="M3350.88,2161.69a26.62,26.62,0,0,1,6.78-.22,14.52,14.52,0,0,1,5.83,1.9q3.09,1.78,3.53,4c.29,1.5-.26,3.14-1.65,4.9a27.36,27.36,0,0,1,8.63-.74,17.19,17.19,0,0,1,7.41,2.14,7.33,7.33,0,0,1,3,2.91,4.56,4.56,0,0,1,.23,3.56,10.2,10.2,0,0,1-2.74,4.06,28.83,28.83,0,0,1-6.05,4.4l-21.07,12.17a2.68,2.68,0,0,1-2.78.23l-.93-.54c-.79-.45-.66-1,.4-1.6l20.35-11.75a27.33,27.33,0,0,0,5.3-3.75,7.45,7.45,0,0,0,2.14-3.11,3,3,0,0,0-.37-2.52,6.81,6.81,0,0,0-2.22-1.95,11,11,0,0,0-3.1-1.12,14.7,14.7,0,0,0-4.34-.2,24.31,24.31,0,0,0-5.47,1.19,35.14,35.14,0,0,0-6.55,3l-20.34,11.74a2.64,2.64,0,0,1-2.78.23l-.93-.53c-.8-.46-.67-1,.39-1.61l20.35-11.75a25,25,0,0,0,5.25-3.78,7.64,7.64,0,0,0,2.08-3.14,2.89,2.89,0,0,0-.37-2.51,6.19,6.19,0,0,0-2.11-1.89,10.58,10.58,0,0,0-3.1-1.12,14.63,14.63,0,0,0-4.33-.2,24,24,0,0,0-5.44,1.16,34.64,34.64,0,0,0-6.51,3L3319,2180.12a2.64,2.64,0,0,1-2.78.22l-.93-.53c-.79-.45-.66-1,.4-1.6l34.46-19.9a2.66,2.66,0,0,1,2.78-.23l.93.53c.8.46.67,1-.4,1.62Z"/><path class="cls-10" d="M3373.48,2214.27c-2.28-1.31-3.59-2.71-3.92-4.18a6.5,6.5,0,0,1,.52-4.38l-17.16,9.9a2.66,2.66,0,0,1-2.78.23l-.92-.53c-.8-.46-.67-1,.39-1.61l48.21-27.84a2.65,2.65,0,0,1,2.79-.22l.92.53c.8.46.67,1-.4,1.61l-3.4,2a30.48,30.48,0,0,1,7.62-.32,17.08,17.08,0,0,1,7.22,2.29c2.1,1.2,3.39,2.53,3.86,3.94a5.49,5.49,0,0,1-.35,4.31,13.93,13.93,0,0,1-3.52,4.32,40.88,40.88,0,0,1-5.53,4c-.69.44-1.46.91-2.33,1.41s-1.68.95-2.44,1.35a59.76,59.76,0,0,1-7,3.19,37.4,37.4,0,0,1-7.48,2,26.8,26.8,0,0,1-7.47.2A17.36,17.36,0,0,1,3373.48,2214.27Zm13-18.05c-.76.39-1.72.93-2.87,1.6s-2.09,1.22-2.77,1.66a23.34,23.34,0,0,0-3.82,2.86,9.12,9.12,0,0,0-2.34,3.2,4.65,4.65,0,0,0-.14,3.22,5.57,5.57,0,0,0,2.78,2.9,13,13,0,0,0,5.08,1.68,19.94,19.94,0,0,0,5.54-.19,29,29,0,0,0,5.73-1.62,52.73,52.73,0,0,0,5.61-2.57c1.38-.76,2.73-1.55,4.05-2.34a36.91,36.91,0,0,0,4.42-3.22,11.28,11.28,0,0,0,2.78-3.29,4.23,4.23,0,0,0,.35-3.22,5.69,5.69,0,0,0-2.86-2.95,12.71,12.71,0,0,0-5.13-1.62,22.64,22.64,0,0,0-5.68.18,30.26,30.26,0,0,0-5.67,1.46A35.23,35.23,0,0,0,3386.51,2196.22Z"/><path class="cls-10" d="M3411.67,2235.48c-.8-.45-.67-1,.39-1.6l3.41-2a27.43,27.43,0,0,1-3.31.44,22.32,22.32,0,0,1-3.73-.07,23.45,23.45,0,0,1-4.06-.8,18.78,18.78,0,0,1-4.23-1.81,8.12,8.12,0,0,1-2.89-2.64,5,5,0,0,1-.81-3.1,6.07,6.07,0,0,1,1.28-3.18,11.1,11.1,0,0,1,3.49-2.92,19.7,19.7,0,0,1,5.2-2.1,25.18,25.18,0,0,1,5.64-.72,28.53,28.53,0,0,1,5.85.55,30.91,30.91,0,0,1,5.78,1.71l10.18,4,2.53-1.46q3.9-2.25,4.31-4.53t-3.44-4.49A12.64,12.64,0,0,0,3431,2209a15.51,15.51,0,0,0-5.45.73,6.1,6.1,0,0,1-1.71.39,2.18,2.18,0,0,1-1.12-.26l-.76-.44a.64.64,0,0,1-.36-.76,1.46,1.46,0,0,1,.76-.86,13.78,13.78,0,0,1,3.08-1.14,22.06,22.06,0,0,1,4.73-.7,26.68,26.68,0,0,1,5.62.36,17,17,0,0,1,5.67,2.06,10,10,0,0,1,4.13,3.73,4.4,4.4,0,0,1,.28,3.63,8.44,8.44,0,0,1-2.43,3.31,24.36,24.36,0,0,1-4,2.82l-24.1,13.92a2.68,2.68,0,0,1-2.79.23Zm-6.79-7.93a13.8,13.8,0,0,0,4.34,1.54,19.77,19.77,0,0,0,5.39.24,26.57,26.57,0,0,0,6.15-1.3,34.58,34.58,0,0,0,6.65-3l2.46-1.43-8.3-3.28q-10.68-4.24-16.69-.78a6.94,6.94,0,0,0-2.49,2.16,3.48,3.48,0,0,0-.57,2.18,3.55,3.55,0,0,0,1,2A8.19,8.19,0,0,0,3404.88,2227.55Z"/><path class="cls-10" d="M3447.46,2254.32a2.67,2.67,0,0,1-2.79.22l-.92-.53c-.79-.46-.66-1,.4-1.61l20.19-11.66q5.8-3.34,7-6.47c.79-2.09-.18-3.91-2.89-5.48a15.64,15.64,0,0,0-9.5-1.71,28.2,28.2,0,0,0-11.46,3.91l-20.2,11.66a2.66,2.66,0,0,1-2.78.23l-.93-.53c-.79-.46-.66-1,.4-1.61l34.46-19.89a2.67,2.67,0,0,1,2.78-.24l.93.54c.8.46.67,1-.4,1.61l-3.4,2a33.26,33.26,0,0,1,7.65-.34,16.84,16.84,0,0,1,7.19,2.3,8.16,8.16,0,0,1,3.6,3.51,5.05,5.05,0,0,1,0,3.95,11.76,11.76,0,0,1-3,4.18,31.42,31.42,0,0,1-5.74,4.13Z"/><path class="cls-10" d="M3448,2271.1a5.46,5.46,0,0,1-1.19.19,2,2,0,0,1-1.14-.28l-1.08-.63a.6.6,0,0,1-.34-.69,1.36,1.36,0,0,1,.69-.77,12.29,12.29,0,0,1,1.78-.65l17.21-5.11,22.2-24.79a6.33,6.33,0,0,1,1.13-1,3,3,0,0,1,1.33-.4,2.05,2.05,0,0,1,1.2.19l1.14.65c.36.21.53.43.49.66a1.56,1.56,0,0,1-.33.69L3471.57,2261l38-11.16a6.12,6.12,0,0,1,1.2-.19,2,2,0,0,1,1.14.28l1.08.63a.59.59,0,0,1,.33.69,1.29,1.29,0,0,1-.69.77,10.88,10.88,0,0,1-1.77.65Z"/><path class="cls-11" d="M3665.8,2192.61l-541.05-312.28c-6.74-3.92-13.76-6.16-20.49-2.28L3030,1920.94l565.39,326.45,70.44-40.68C3672.56,2202.81,3672.53,2196.49,3665.8,2192.61Z"/><path class="cls-7" d="M3115.84,1906.13l3.81-2.2a3,3,0,0,1,2.61-.21l.31.18c.62.35.45,1-.37,1.5l-3.81,2.2a3,3,0,0,1-2.61.22l-.31-.18C3114.85,1907.28,3115,1906.61,3115.84,1906.13Z"/><path class="cls-7" d="M3120.93,1909.07l6.58-3.8a3,3,0,0,1,2.61-.22l.31.18c.62.36.45,1-.37,1.51l-6.58,3.8a2.92,2.92,0,0,1-2.61.21l-.31-.18C3119.94,1910.22,3120.11,1909.54,3120.93,1909.07Z"/><path class="cls-7" d="M3126,1912l9.35-5.4a3,3,0,0,1,2.61-.21l.31.18c.61.35.45,1-.38,1.5l-9.35,5.4a3,3,0,0,1-2.61.22l-.3-.18C3125,1913.16,3125.2,1912.49,3126,1912Z"/><path class="cls-7" d="M3131.12,1915l16.14-9.32a3,3,0,0,1,2.61-.22l.31.19c.62.35.45,1-.37,1.5l-16.14,9.32a3,3,0,0,1-2.61.21l-.31-.18C3130.13,1916.1,3130.3,1915.42,3131.12,1915Z"/><path class="cls-7" d="M3143.8,1923.55c0-.13.14-.26.39-.41l2.37-1.36-5.71-3.3c-.31-.18-.31-.37,0-.56l.85-.49a2.35,2.35,0,0,1,.5-.23,4.16,4.16,0,0,1,.59-.1l14.55-1.4a3.09,3.09,0,0,1,.6,0,1.1,1.1,0,0,1,.48.18l.79.46c.25.13.35.27.34.4s-.16.28-.42.43l-8.28,4.78,1.26.73q.36.21.33.39c0,.13-.17.26-.43.42l-.56.32a1.48,1.48,0,0,1-.68.23,1.26,1.26,0,0,1-.68-.19l-1.26-.73-2.37,1.37a1.23,1.23,0,0,1-1.39,0l-.95-.55C3143.9,1923.8,3143.79,1923.67,3143.8,1923.55Zm5.15-2.72,5.91-3.41-10.05,1Z"/><path class="cls-7" d="M3152,1926.63c.16-1.38,1.43-2.76,3.8-4.12a15.36,15.36,0,0,1,7.14-2.18,12,12,0,0,1,6.65,1.62,8.89,8.89,0,0,1,2,1.49,3.26,3.26,0,0,1,.93,1.49.2.2,0,0,1-.11.25,1,1,0,0,1-.32.11l-1.56.29a.71.71,0,0,1-.4,0s-.08-.09-.14-.2a4.5,4.5,0,0,0-2.12-2.14,8.35,8.35,0,0,0-4.57-1.09,11.43,11.43,0,0,0-5.23,1.68c-1.83,1-2.82,2.06-2.94,3s.46,1.8,1.78,2.56a10.4,10.4,0,0,0,1.54.73,7.57,7.57,0,0,0,1.5.43l3.85-2.22-2.37-1.38q-.37-.2-.33-.39c0-.12.16-.26.42-.41l.54-.32a1.5,1.5,0,0,1,.7-.23,1.31,1.31,0,0,1,.66.2l3.8,2.19c.26.16.38.31.35.46s-.2.31-.51.49l-5.49,3.17a2.28,2.28,0,0,1-.52.24,1.4,1.4,0,0,1-.51,0,13.73,13.73,0,0,1-5.71-1.9C3152.8,1929.29,3151.85,1928,3152,1926.63Z"/><path class="cls-7" d="M3631.81,2188.1a1.77,1.77,0,0,0-.94-2.07l-17.09-9.87c-1.48-.86-4.17-.64-6.13.5l-8.3,4.79a4,4,0,0,0-2,2.32,1.67,1.67,0,0,0,0,1,2,2,0,0,0,.91,1l17.09,9.87c1.48.85,4.17.63,6.13-.5l8.31-4.8A4,4,0,0,0,3631.81,2188.1Zm-33-4.45a1.91,1.91,0,0,1,1-1l8.31-4.79a5.35,5.35,0,0,1,4.66-.38l17.1,9.87a1.09,1.09,0,0,1,.51.54.62.62,0,0,1,0,.33,1.94,1.94,0,0,1-1,1l-8.3,4.79a5.36,5.36,0,0,1-4.68.39l-17.09-9.88C3598.88,2184.28,3598.7,2184,3598.78,2183.65Z"/><path class="cls-7" d="M3620.41,2183.62l-9.83,5.68-9.21-5.32a1,1,0,0,1-.25-.2c.06,0,.15-.09.33-.19l7.46-4.31a4.12,4.12,0,0,1,3.47-.29Z"/><path class="cls-7" d="M3630.58,2190.94c.63.36-.23,1.45-1.94,2.43l-1.54.89c-1.7,1-3.64,1.5-4.31,1.16l-1.24-.62,7.88-4.52Z"/><path class="cls-7" d="M3185.87,1944.81a7.37,7.37,0,0,1-6.63,0c-1.83-1.06-1.83-2.77,0-3.83a7.31,7.31,0,0,1,6.63,0C3187.69,1942,3187.69,1943.75,3185.87,1944.81Z"/><path class="cls-7" d="M3191.28,1937.85a19.15,19.15,0,0,0-12.32-1.78c-.86.15-1.4.64-1.29,1.15h0c.14.64,1.25,1.07,2.32.88a13.51,13.51,0,0,1,8.69,1.24c2.36,1.36,3.08,3.3,2.16,5-.34.62.41,1.27,1.53,1.34h0a2.15,2.15,0,0,0,2-.74C3195.65,1942.53,3194.62,1939.78,3191.28,1937.85Z"/><path class="cls-7" d="M3196.59,1934.79c-5-2.87-11.92-3.89-18.33-3.08-.94.12-1.59.62-1.48,1.17h0c.13.63,1.17,1,2.24.9,5.22-.68,10.91.16,15,2.5s5.51,5.63,4.33,8.65c-.23.62.48,1.22,1.56,1.29h0a2,2,0,0,0,2-.85C3203.33,1941.69,3201.56,1937.66,3196.59,1934.79Z"/><path class="cls-7" d="M3364.3,2050.4a1,1,0,0,1-.55.13,1.06,1.06,0,0,1-.56-.13l-.84-.48a.41.41,0,0,1-.23-.33.37.37,0,0,1,.23-.32l11.33-6.54-5.86-.46a.86.86,0,0,1-.53-.17.37.37,0,0,1-.17-.33l.14-.65a.5.5,0,0,1,.3-.31,1.33,1.33,0,0,1,.6-.08l7.77.59a1.58,1.58,0,0,1,.46.1l.36.18.84.49a.37.37,0,0,1,.22.32.34.34,0,0,1-.22.32Z"/><path class="cls-7" d="M3378.29,2047.93a.37.37,0,0,1,.23.32c0,.13-.09.23-.24.32l-1.37.8a1.15,1.15,0,0,1-.55.13,1,1,0,0,1-.55-.13l-1.39-.8c-.15-.09-.23-.19-.21-.31a.38.38,0,0,1,.22-.33l1.38-.79a1.23,1.23,0,0,1,1.1,0Zm-7.19,4.16a.4.4,0,0,1,.23.32c0,.13-.09.23-.25.32l-1.37.79a1,1,0,0,1-.54.14,1.06,1.06,0,0,1-.56-.13l-1.39-.8c-.15-.09-.23-.19-.21-.32a.37.37,0,0,1,.22-.32l1.38-.79a1.08,1.08,0,0,1,.56-.13,1,1,0,0,1,.54.12Z"/><path class="cls-7" d="M3378.73,2059.37a.36.36,0,0,1-.23-.32.36.36,0,0,1,.22-.32l2.84-1.64-6.45-3.73a.36.36,0,0,1-.23-.32.36.36,0,0,1,.22-.32l.74-.43a4,4,0,0,1,.41-.16,2.8,2.8,0,0,1,.59-.07l15-1.17a3.46,3.46,0,0,1,.72,0,1.24,1.24,0,0,1,.56.18l.84.47a.35.35,0,0,1,0,.65l-8.6,5,1.76,1a.36.36,0,0,1,.23.32c0,.13-.07.23-.22.32l-.74.43a1.19,1.19,0,0,1-.56.13,1.1,1.1,0,0,1-.56-.13l-1.76-1-2.83,1.64a1.26,1.26,0,0,1-.57.13,1,1,0,0,1-.55-.14Zm4.68-3.35,5.8-3.35-10.26.77Z"/><path class="cls-7" d="M3389.35,2061.49a2.48,2.48,0,0,0-.36.55.93.93,0,0,0,0,.66,2.09,2.09,0,0,0,.56.8,6.57,6.57,0,0,0,1.42,1,7.51,7.51,0,0,0,1.35.61,6.65,6.65,0,0,0,1.51.31,6.11,6.11,0,0,0,1.48-.08,4.1,4.1,0,0,0,1.43-.52,2.13,2.13,0,0,0,.87-.79.9.9,0,0,0,.08-.81,2,2,0,0,0-.61-.81,6.5,6.5,0,0,0-1.11-.79l-1.73-1a.35.35,0,0,1-.21-.31.36.36,0,0,1,.22-.32l.74-.43a1.25,1.25,0,0,1,.45-.13l.49,0,7.7-.16-5.92-3.42a.38.38,0,0,1-.23-.32.36.36,0,0,1,.22-.32l.74-.43a1.08,1.08,0,0,1,.56-.13,1.06,1.06,0,0,1,.56.13l8.11,4.68a.4.4,0,0,1,.22.32.43.43,0,0,1-.24.32l-.74.42a1,1,0,0,1-.45.15,3.86,3.86,0,0,1-.61.05l-7.57.16a6.16,6.16,0,0,1,1.56,1.27,2.43,2.43,0,0,1,.63,1.33,2,2,0,0,1-.38,1.31,4.34,4.34,0,0,1-1.41,1.2,7.17,7.17,0,0,1-2.28.85,10.44,10.44,0,0,1-2.49.17,11.29,11.29,0,0,1-2.5-.43,10,10,0,0,1-2.29-1A7.9,7.9,0,0,1,3387,2064a2.82,2.82,0,0,1-.8-1.43,1.65,1.65,0,0,1,.19-1.24,2.94,2.94,0,0,1,1-1,.92.92,0,0,1,.46-.11.78.78,0,0,1,.44.11l.95.55a.39.39,0,0,1,.24.28A.45.45,0,0,1,3389.35,2061.49Z"/><path class="cls-10" d="M3127.7,1929.21l452.1,261c7.42,4.28,7.79,11.09.83,15.21s-18.62,4-26-.31l-452.11-261.36c-7.42-4.29-7.79-11-.83-15S3120.28,1924.92,3127.7,1929.21Z"/><path class="cls-3" d="M3138.39,2140l-48.75,28.15c-7.42,4.28-7.42,11.23,0,15.51l48.75,28.15c7.43,4.29,19.46,4.29,26.88,0L3214,2183.7c7.42-4.28,7.42-11.23,0-15.51L3165.27,2140C3157.85,2135.76,3145.81,2135.76,3138.39,2140Z"/><path class="cls-7" d="M3176.56,2194.41l7.25-4.19a.54.54,0,0,0,.05-1l-5.75-4.13a.77.77,0,0,1-.1-1.18,14.37,14.37,0,0,0,2-2.85,1.78,1.78,0,0,1,1.31-.86l9.66-.62a1,1,0,0,0,.9-1v-5.39a1,1,0,0,0-.9-1l-9.66-.61a1.79,1.79,0,0,1-1.31-.87,14.67,14.67,0,0,0-2-2.85.77.77,0,0,1,.1-1.18l5.75-4.13a.54.54,0,0,0-.05-1l-7.25-4.19a1.94,1.94,0,0,0-1.6-.07l-7.36,3.41a2.75,2.75,0,0,1-1.68.1,41.92,41.92,0,0,0-5.7-1.36,1.41,1.41,0,0,1-1.07-1l-.92-4.85a1.13,1.13,0,0,0-1.07-.89H3146.5a1.15,1.15,0,0,0-1.08.89l-.91,4.85a1.41,1.41,0,0,1-1.07,1,41.92,41.92,0,0,0-5.7,1.36,2.72,2.72,0,0,1-1.69-.11l-7.35-3.4a1.94,1.94,0,0,0-1.6.07l-7.25,4.19a.54.54,0,0,0,0,1l5.75,4.13a.77.77,0,0,1,.1,1.18,14.67,14.67,0,0,0-2.05,2.85,1.79,1.79,0,0,1-1.31.87l-9.66.61a1,1,0,0,0-.9,1v5.39a1,1,0,0,0,.9,1l9.67.62a1.78,1.78,0,0,1,1.3.86,14.37,14.37,0,0,0,2.05,2.85.77.77,0,0,1-.1,1.18l-5.75,4.13a.54.54,0,0,0,0,1l7.25,4.19a1.94,1.94,0,0,0,1.6.07l7.36-3.4a2.68,2.68,0,0,1,1.68-.1,43.45,43.45,0,0,0,5.7,1.35,1.42,1.42,0,0,1,1.07,1l.92,4.84a1.13,1.13,0,0,0,1.07.89h10.66a1.15,1.15,0,0,0,1.08-.89l.91-4.84a1.42,1.42,0,0,1,1.07-1,43.45,43.45,0,0,0,5.7-1.35,2.72,2.72,0,0,1,1.69.1l7.35,3.4A1.94,1.94,0,0,0,3176.56,2194.41Zm-37-11.39c-6.77-3.91-6.77-10.24,0-14.15s17.73-3.9,24.5,0,6.77,10.24,0,14.15S3146.35,2186.93,3139.58,2183Z"/><path class="cls-3" d="M3012.21,2067.34l-48.75,28.15c-7.42,4.29-7.42,11.23,0,15.52l48.75,28.15c7.42,4.28,19.45,4.28,26.87,0l48.76-28.15c7.42-4.29,7.42-11.23,0-15.52l-48.76-28.15C3031.66,2063.06,3019.63,2063.06,3012.21,2067.34Z"/><polygon class="cls-7" points="3017.09 2108.19 3010.86 2104.6 2995.49 2113.47 2983.95 2106.8 3008.67 2092.53 3001.86 2088.6 3051.16 2088.52 3051.02 2116.99 3044.21 2113.05 3019.49 2127.33 3007.94 2120.66 3023.31 2111.79 3017.09 2108.19"/><path class="cls-3" d="M3264.37,2212.85,3215.61,2241c-7.42,4.29-7.42,11.23,0,15.52l48.76,28.15c7.42,4.28,19.45,4.28,26.87,0l48.75-28.15c7.42-4.29,7.42-11.23,0-15.52l-48.75-28.15C3283.82,2208.57,3271.79,2208.57,3264.37,2212.85Z"/><path class="cls-7" d="M3322.48,2255.86a1.4,1.4,0,0,0-.75-1l-51.12-29.52a4,4,0,0,0-2.32-.38l4.94,28.33Z"/><path class="cls-7" d="M3268.28,2225a3.84,3.84,0,0,0-1.59.37L3230,2246.5a1.4,1.4,0,0,0-.78,1l39.33,2Z"/><path class="cls-7" d="M3322.48,2255.86l-41.71.13,2.31,22.82L3278,2256l-6.33,0a3.09,3.09,0,0,1-3.1-3.06v-1.3l-39.35-4.12a1.27,1.27,0,0,0,.78,1.21l51.17,29.6a4.34,4.34,0,0,0,3.91,0l36.69-21.19A1.23,1.23,0,0,0,3322.48,2255.86Z"/><polygon class="cls-7" points="3268.28 2224.96 3268.28 2225.01 3268.29 2225.01 3268.28 2224.96"/><polygon class="cls-7" points="3322.59 2255.86 3322.48 2255.86 3322.48 2255.86 3322.59 2255.86"/><polygon class="cls-3" points="2693.92 2179.57 2829.57 2101.26 3033.05 2218.73 2897.4 2297.06 2693.92 2179.57"/><polygon class="cls-12" points="2693.92 2179.57 2829.57 2101.26 3033.05 2218.73 2897.4 2297.06 2693.92 2179.57"/><path class="cls-3" d="M2935.71,2207.44c-6.78,3.91-6.78,10.26,0,14.17s17.76,3.91,24.54,0,6.77-10.25,0-14.17S2942.48,2203.53,2935.71,2207.44Z"/><polygon class="cls-3" points="2693.92 2179.57 2744.79 2150.2 2847.55 2163 2848.53 2246.95 2854.21 2215.24 2908.71 2224.64 2911.56 2288.88 2897.4 2297.06 2693.92 2179.57"/><path class="cls-10" d="M3076,2243.54l134.53,77.67c5,2.88,5.24,7.41.56,10.11s-12.52,2.56-17.52-.32l-134.53-77.67c-5-2.88-5.24-7.41-.56-10.11S3071,2240.66,3076,2243.54Z"/><path class="cls-2" d="M3038.47,2261l202.35,116.83c3,1.73,3.53,4.23,1.19,5.58s-6.67,1-9.66-.68L3030,2265.93c-3-1.73-3.53-4.23-1.19-5.58S3035.48,2259.3,3038.47,2261Z"/><path class="cls-2" d="M3021.52,2270.82l202.35,116.83c3,1.73,3.52,4.22,1.18,5.58s-6.66,1-9.66-.69L3013,2275.72c-3-1.73-3.52-4.23-1.18-5.58S3018.52,2269.09,3021.52,2270.82Z"/><path class="cls-2" d="M3004.56,2280.61l202.35,116.83c3,1.73,3.53,4.22,1.19,5.58s-6.67,1-9.66-.69l-202.35-116.82c-3-1.73-3.53-4.23-1.19-5.58S3001.57,2278.88,3004.56,2280.61Z"/><path class="cls-2" d="M2987.61,2290.4l66.75,38.48c3,1.72,3.52,4.22,1.18,5.57s-6.66,1.05-9.66-.68l-66.75-38.48c-3-1.72-3.52-4.22-1.18-5.58S2984.61,2288.67,2987.61,2290.4Z"/><path class="cls-3" d="M2940.35,2311.42l7.36-4.25c5-2.88,13.09-2.88,18.08,0l49.75,28.72c5,2.89,5,7.56,0,10.44l-7.36,4.25c-5,2.88-13.08,2.88-18.08,0l-49.75-28.72C2935.36,2319,2935.36,2314.3,2940.35,2311.42Z"/><path class="cls-3" d="M3102.3,2394.93c4.69,2.7,4.69,7.08,0,9.79s-12.27,2.7-17,0-4.69-7.09,0-9.79S3097.62,2392.23,3102.3,2394.93Z"/><path class="cls-3" d="M3119.26,2407.59v.5a16.67,16.67,0,0,1,8.23,2c2.1,1.21,3.26,2.79,3.26,4.46s-1.16,3.24-3.26,4.46a18.26,18.26,0,0,1-16.46,0c-2.1-1.21-3.26-2.8-3.26-4.46s1.16-3.25,3.26-4.46a16.67,16.67,0,0,1,8.23-2v-.5m0,0a17.35,17.35,0,0,0-8.48,2c-4.68,2.71-4.68,7.09,0,9.79a18.73,18.73,0,0,0,17,0c4.68-2.7,4.68-7.08,0-9.79a17.35,17.35,0,0,0-8.48-2Z"/><path class="cls-3" d="M3144.7,2422.27v.5a16.77,16.77,0,0,1,8.22,2c2.1,1.21,3.26,2.8,3.26,4.46s-1.16,3.25-3.26,4.46a18.22,18.22,0,0,1-16.46,0c-2.1-1.22-3.26-2.8-3.26-4.47s1.16-3.24,3.26-4.46a16.81,16.81,0,0,1,8.23-2v-.5m0,0a17.4,17.4,0,0,0-8.48,2c-4.68,2.7-4.68,7.08,0,9.79a18.73,18.73,0,0,0,17,0c4.68-2.71,4.68-7.09,0-9.79a17.35,17.35,0,0,0-8.48-2Z"/><path class="cls-3" d="M2618.14,2202.64l488.06,281.78c4.45,2.57,4.45,6.73,0,9.31l-34.3,19.8c-4.45,2.57-11.67,2.57-16.12,0l-488.07-281.78c-4.45-2.57-4.45-6.74,0-9.31l34.3-19.8C2606.47,2200.07,2613.69,2200.07,2618.14,2202.64Z"/><path class="cls-13" d="M2618.14,2202.64l488.06,281.78c4.45,2.57,4.45,6.73,0,9.31l-34.3,19.8c-4.45,2.57-11.67,2.57-16.12,0l-488.07-281.78c-4.45-2.57-4.45-6.74,0-9.31l34.3-19.8C2606.47,2200.07,2613.69,2200.07,2618.14,2202.64Z"/><path class="cls-7" d="M3048.73,2497.8c-6.25-3.61-4.55-10.46,3.78-15.27s20.19-5.79,26.44-2.18,4.56,10.45-3.77,15.27S3055,2501.4,3048.73,2497.8ZM3076,2482c-5-2.91-14.62-2.12-21.35,1.76s-8.09,9.41-3.05,12.33,14.63,2.12,21.35-1.77S3081.09,2484.94,3076,2482Z"/><path class="cls-7" d="M3067.46,2492.84l-11.27-6.51c-.6-.34-.44-1,.36-1.47a2.89,2.89,0,0,1,2.55-.21l11.27,6.51c.6.35.44,1-.37,1.47A2.87,2.87,0,0,1,3067.46,2492.84Z"/><path class="cls-7" d="M3056,2493.34a.6.6,0,0,1-.3-.81,2.64,2.64,0,0,1,2.23-1.08l9.81-.12.22-5.67c0-.56.85-1.13,1.86-1.28s1.8.18,1.78.74l-.27,7a1.25,1.25,0,0,1-.72.9,3.26,3.26,0,0,1-1.57.42l-12.05.16A2,2,0,0,1,3056,2493.34Z"/><path class="cls-7" d="M2597.81,2220c-6.77,3.91-6.77,10.26,0,14.17s17.77,3.91,24.54,0,6.78-10.26,0-14.17S2604.59,2216.1,2597.81,2220Z"/><path class="cls-7" d="M2651.55,2242.61l342.06,197.5c5.07,2.92,6,7.15,2,9.43s-11.27,1.77-16.33-1.15l-342.07-197.5c-5.06-2.92-6-7.15-2-9.43S2646.48,2239.69,2651.55,2242.61Z"/><path class="cls-3" d="M2542.52,2246.3l488.06,281.78c4.46,2.57,4.46,6.74,0,9.31l-34.29,19.8a17.84,17.84,0,0,1-16.13,0L2492.1,2275.41c-4.46-2.57-4.46-6.74,0-9.31l34.3-19.8C2530.85,2243.73,2538.07,2243.73,2542.52,2246.3Z"/><path class="cls-7" d="M2973.11,2541.46c-6.25-3.61-4.55-10.45,3.78-15.27s20.19-5.78,26.44-2.18,4.56,10.46-3.78,15.27S2979.36,2545.07,2973.11,2541.46Zm27.31-15.77c-5-2.91-14.62-2.12-21.35,1.77s-8.09,9.41-3.05,12.32,14.62,2.12,21.35-1.76S3005.46,2528.61,3000.42,2525.69Z"/><path class="cls-7" d="M2991.83,2536.5l-11.26-6.5c-.61-.35-.44-1,.36-1.47a2.86,2.86,0,0,1,2.55-.21l11.26,6.5c.61.35.45,1-.36,1.47A2.86,2.86,0,0,1,2991.83,2536.5Z"/><path class="cls-7" d="M2980.39,2537a.61.61,0,0,1-.3-.82,2.61,2.61,0,0,1,2.23-1.07l9.81-.12.22-5.67c0-.56.85-1.14,1.86-1.29s1.79.19,1.78.74l-.27,7a1.24,1.24,0,0,1-.73.91,3.3,3.3,0,0,1-1.56.42l-12.06.15A2,2,0,0,1,2980.39,2537Z"/><path class="cls-7" d="M2522.18,2263.67c-6.78,3.91-6.78,10.26,0,14.17s17.76,3.91,24.54,0,6.77-10.25,0-14.17S2529,2259.76,2522.18,2263.67Z"/><path class="cls-7" d="M2576.14,2286.4l342.06,197.51c5.07,2.92,6,7.14,2,9.43s-11.27,1.77-16.33-1.16l-342.07-197.49c-5.06-2.93-6-7.15-2-9.44S2571.07,2283.48,2576.14,2286.4Z"/><path class="cls-3" d="M2466.91,2290,2955,2571.74c4.45,2.57,4.45,6.74,0,9.31l-34.3,19.8c-4.45,2.58-11.67,2.58-16.12,0l-488.07-281.79c-4.45-2.57-4.45-6.74,0-9.31l34.3-19.8C2455.23,2287.39,2462.45,2287.4,2466.91,2290Z"/><path class="cls-4" d="M2466.91,2290,2955,2571.74c4.45,2.57,4.45,6.74,0,9.31l-34.3,19.8c-4.45,2.58-11.67,2.58-16.12,0l-488.07-281.79c-4.45-2.57-4.45-6.74,0-9.31l34.3-19.8C2455.23,2287.39,2462.45,2287.4,2466.91,2290Z"/><path class="cls-7" d="M2897.49,2585.13c-6.25-3.61-4.56-10.46,3.78-15.27s20.19-5.79,26.44-2.18,4.55,10.46-3.78,15.27S2903.74,2588.74,2897.49,2585.13Zm27.31-15.77c-5.05-2.91-14.62-2.12-21.35,1.76s-8.1,9.41-3,12.33,14.62,2.12,21.35-1.76S2929.84,2572.27,2924.8,2569.36Z"/><path class="cls-7" d="M2916.21,2580.17l-11.27-6.51c-.6-.34-.44-1,.37-1.47a2.92,2.92,0,0,1,2.55-.21l11.26,6.51c.61.35.44,1-.36,1.47A2.89,2.89,0,0,1,2916.21,2580.17Z"/><path class="cls-7" d="M2904.77,2580.68a.61.61,0,0,1-.31-.82,2.63,2.63,0,0,1,2.23-1.07l9.82-.13.21-5.67c0-.55.86-1.13,1.86-1.28s1.8.18,1.78.74l-.26,7a1.23,1.23,0,0,1-.73.9,3.22,3.22,0,0,1-1.56.42l-12.06.16A2,2,0,0,1,2904.77,2580.68Z"/><path class="cls-7" d="M2446.56,2307.33c-6.78,3.92-6.78,10.26,0,14.17s17.77,3.92,24.54,0,6.78-10.25,0-14.16S2453.34,2303.42,2446.56,2307.33Z"/><path class="cls-7" d="M2500.73,2330.2l342.06,197.5c5.07,2.92,6,7.15,2,9.43s-11.27,1.77-16.33-1.15l-342.07-197.5c-5.06-2.92-6-7.15-2-9.43S2495.66,2327.28,2500.73,2330.2Z"/></g><g id="Device_2" data-name="Device 2"><g id="Device-2" data-name="Device"><path class="cls-11" d="M2482.67,1760.64l-351.93,203.29-.82-.44-133.75-77.24c-22.81-13.19-37.44-45.13-32.43-71l49.64-257.93L2365.31,1354l-49.64,257.93c-5,25.89,9.62,57.83,32.43,71Z"/><polygon class="cls-9" points="2013.38 1557.3 1964.16 1813 2316.06 1609.84 2361.57 1373.35 2339.4 1368.93 2013.38 1557.3"/><path class="cls-9" d="M2130.75,1964l-134.6-77.72c-22.82-13.17-37.41-45.12-32.44-71l49.64-258-58.68-33.88-56.73,295.08c-7.5,39,14.52,87.21,48.93,107.08l183.88,106.16Z"/><polygon class="cls-10" points="2482.68 1760.63 2130.75 1963.96 2130.75 2031.73 2482.68 1828.4 2482.68 1760.63"/><path class="cls-10" d="M2827,89.2c16.2,9.36,29.34,33.12,29.34,53.07v1080c0,20-14,44.22-31.29,54.19L1478.86,2053.63c-17.28,10-44.43,10.47-60.64,1.11s-29.35-33.12-29.35-53.07v-1080c0-20,14-44.21,31.29-54.19L2766.32,90.32C2783.6,80.35,2810.75,79.85,2827,89.2Z"/><path class="cls-9" d="M1475.16,2055.5c-17.26,8.08-41.83,7.92-57-.77-16.21-9.34-29.35-33.09-29.35-53v-1080c0-10,3.52-21,9.18-30.84l58.71,33.92c-5.66,9.78-9.18,20.83-9.18,30.78v1080C1447.57,2054.07,1459.61,2062.37,1475.16,2055.5Z"/><path class="cls-11" d="M2856.3,1222.23v-1080c0-20-14-28-31.28-18.06L1478.87,901.41c-17.28,10-31.29,34.24-31.29,54.19v1080c0,20,14,28,31.29,18.07L2825,1276.42C2842.29,1266.45,2856.3,1242.19,2856.3,1222.23Z"/><path class="cls-3" d="M2787.58,179.34,1502,922c-13.82,8-25,27.39-25,43.35v958.85c0,16,11.2,22.43,25,14.45L2787.6,1196c13.82-8,25-27.39,25-43.35V193.79C2812.61,177.83,2801.41,171.36,2787.58,179.34Z"/><path class="cls-8" d="M2787.58,179.34,1502,922c-13.82,8-25,27.39-25,43.35v958.85c0,16,11.2,22.43,25,14.45L2787.6,1196c13.82-8,25-27.39,25-43.35V193.79C2812.61,177.83,2801.41,171.36,2787.58,179.34Z"/><g id="Window"><path class="cls-7" d="M1539.27,1861.82c-8.54,0-13.84-6.9-13.84-18V1044.45L2764.12,329.29v798.79c0,16.34-11.51,36.28-25.66,44.45L1550.59,1858.35a23,23,0,0,1-11.32,3.47Z"/><path class="cls-2" d="M2763.62,330.16v797.92c0,16.18-11.4,35.92-25.41,44L1550.34,1857.91a22.42,22.42,0,0,1-11.07,3.41c-8.23,0-13.34-6.71-13.34-17.5V1044.74L2763.62,330.16m1-1.74L1524.93,1044.16v799.66c0,11.72,5.83,18.5,14.34,18.5a23.52,23.52,0,0,0,11.57-3.54L2738.71,1173c14.31-8.26,25.91-28.36,25.91-44.88V328.42Z"/><path class="cls-11" d="M1524.93,989.88c0-16.53,11.6-36.62,25.91-44.88L2738.7,259.18c14.31-8.26,25.92-1.56,25.92,15v54.28L1524.93,1044.16Z"/><path class="cls-3" d="M2618.78,356.42c-6.72,3.88-12.16,13.3-12.16,21.05s5.44,10.9,12.16,7,12.15-13.3,12.15-21.05S2625.49,352.54,2618.78,356.42Z"/><path class="cls-3" d="M2661.31,331.92c-6.71,3.88-12.15,13.3-12.15,21.06s5.44,10.89,12.15,7,12.15-13.31,12.15-21.06S2668,328.05,2661.31,331.92Z"/><path class="cls-3" d="M2703.85,307.43c-6.72,3.87-12.16,13.3-12.16,21.05s5.44,10.89,12.16,7S2716,322.2,2716,314.45,2710.56,303.55,2703.85,307.43Z"/></g></g><path class="cls-3" d="M1678.73,1042.27c0,16.08,11.29,22.6,25.21,14.56s25.22-27.59,25.22-43.66-11.29-22.6-25.22-14.56S1678.73,1026.2,1678.73,1042.27Z"/><path class="cls-7" d="M1706.3,1022.49c0,4.67,3.29,6.56,7.33,4.23A16.2,16.2,0,0,0,1721,1014c0-4.68-3.28-6.57-7.33-4.24A16.23,16.23,0,0,0,1706.3,1022.49Z"/><path class="cls-10" d="M1784.48,1000.15a.78.78,0,0,1,1,.07,1.78,1.78,0,0,1,.43,1.34v5.93a4.23,4.23,0,0,1-.43,1.84,2.74,2.74,0,0,1-1,1.26l-23.78,13.73a.77.77,0,0,1-1-.07,1.77,1.77,0,0,1-.43-1.33v-54a4.23,4.23,0,0,1,.43-1.84,2.69,2.69,0,0,1,1-1.26l4.4-2.54a.78.78,0,0,1,1,.07,1.78,1.78,0,0,1,.43,1.34v45.8Z"/><path class="cls-10" d="M1803.1,955.54a10.74,10.74,0,0,1,5.4-1.69,6.37,6.37,0,0,1,4.18,1.51,10.27,10.27,0,0,1,2.82,4.22,20.35,20.35,0,0,1,1.23,6.48c0,.48,0,1.12,0,1.9v4.63c0,.76,0,1.4,0,1.91a40.79,40.79,0,0,1-1.25,7.92,37.88,37.88,0,0,1-2.8,7.42,31.78,31.78,0,0,1-4.18,6.3,20.8,20.8,0,0,1-5.4,4.54,10.76,10.76,0,0,1-5.4,1.7,6.51,6.51,0,0,1-4.19-1.48,9.7,9.7,0,0,1-2.79-4.19,22.19,22.19,0,0,1-1.25-6.47c0-.48-.07-1.09-.08-1.83s0-1.5,0-2.28,0-1.57,0-2.36,0-1.45.08-2a36.23,36.23,0,0,1,1.23-7.9,39.53,39.53,0,0,1,2.81-7.47,30.32,30.32,0,0,1,4.19-6.34A20.64,20.64,0,0,1,1803.1,955.54Zm6.57,15a11.18,11.18,0,0,0-.79-3.85,3.58,3.58,0,0,0-1.55-1.82,2.85,2.85,0,0,0-2-.23,8.26,8.26,0,0,0-2.23.91,12.89,12.89,0,0,0-2.23,1.66,11.47,11.47,0,0,0-2,2.54,16,16,0,0,0-1.56,3.61,21.6,21.6,0,0,0-.78,4.76c0,.47-.06,1-.08,1.72s0,1.39,0,2.11,0,1.43,0,2.12,0,1.2.08,1.58a11.45,11.45,0,0,0,.78,3.85,3.64,3.64,0,0,0,1.56,1.82,2.84,2.84,0,0,0,2,.22,8.26,8.26,0,0,0,2.23-.91,12.39,12.39,0,0,0,2.23-1.66,11.3,11.3,0,0,0,2-2.54,15.39,15.39,0,0,0,1.55-3.61,20.82,20.82,0,0,0,.79-4.76c0-.41,0-1,0-1.66V972.2C1809.72,971.53,1809.7,971,1809.67,970.56Z"/><path class="cls-10" d="M1836.16,947.32a11.11,11.11,0,0,0-4.69,4.93,19,19,0,0,0-1.44,8.06V982a4.41,4.41,0,0,1-.43,1.84,2.82,2.82,0,0,1-1,1.26l-4.13,2.38a.77.77,0,0,1-1-.06,1.78,1.78,0,0,1-.44-1.34v-39a4.17,4.17,0,0,1,.44-1.84,2.73,2.73,0,0,1,1-1.26l4.13-2.38a.8.8,0,0,1,1,.07,1.82,1.82,0,0,1,.43,1.34V945a27.18,27.18,0,0,1,3-4.84,14.75,14.75,0,0,1,4.2-3.51l2.45-1.41a.8.8,0,0,1,1,.07,1.84,1.84,0,0,1,.43,1.34v5.52a4.45,4.45,0,0,1-.43,1.84,2.81,2.81,0,0,1-1,1.26Z"/><path class="cls-10" d="M1843.82,954.6a48.5,48.5,0,0,1,.92-9.35,44.32,44.32,0,0,1,2.66-8.72,32.58,32.58,0,0,1,4.21-7.24,19.28,19.28,0,0,1,5.51-4.94,9,9,0,0,1,5.51-1.46,6.58,6.58,0,0,1,4.21,2.17,12.85,12.85,0,0,1,2.69,5.21,28,28,0,0,1,1,7.6v3.76a4.25,4.25,0,0,1-.44,1.84,2.79,2.79,0,0,1-1,1.27l-18.13,10.46a7.86,7.86,0,0,0,.51,3.1,3.42,3.42,0,0,0,1.39,1.66,3.12,3.12,0,0,0,2,.35,6.62,6.62,0,0,0,2.33-.85,11.9,11.9,0,0,0,2.82-2.17,12.52,12.52,0,0,0,1.79-2.41,14.26,14.26,0,0,1,1-1.49,3.66,3.66,0,0,1,1-.84l4.35-2.51a.82.82,0,0,1,1.05.05,1.61,1.61,0,0,1,.42,1.36,14.27,14.27,0,0,1-.85,3.49,27.06,27.06,0,0,1-2.36,5,33.2,33.2,0,0,1-3.89,5.25,21.59,21.59,0,0,1-5.34,4.34,9.55,9.55,0,0,1-5.51,1.55,6.07,6.07,0,0,1-4.21-2.2,13.89,13.89,0,0,1-2.66-5.62A35.34,35.34,0,0,1,1843.82,954.6Zm13.3-20.22a9.84,9.84,0,0,0-2.69,2.26,15,15,0,0,0-1.87,2.93,16.05,16.05,0,0,0-1.17,3.18,17.9,17.9,0,0,0-.51,2.93l12.26-7.09a15.49,15.49,0,0,0-.4-2.39,4.19,4.19,0,0,0-1-1.94,2.53,2.53,0,0,0-1.79-.81A5.38,5.38,0,0,0,1857.12,934.38Z"/><path class="cls-10" d="M1883.45,914.17a23.43,23.43,0,0,1,3.15-5.54,13.71,13.71,0,0,1,3.85-3.52q3.42-2,5.59-1.27a5.92,5.92,0,0,1,3.42,3.17,26.85,26.85,0,0,1,1.74-4,29.94,29.94,0,0,1,2.2-3.53,20.26,20.26,0,0,1,2.42-2.77,12.67,12.67,0,0,1,2.45-1.87c2.06-1.2,3.77-1.65,5.15-1.39a5.05,5.05,0,0,1,3.34,2.34,13.42,13.42,0,0,1,1.79,5.19,46.53,46.53,0,0,1,.51,7.18v22.49a4.3,4.3,0,0,1-.43,1.84,2.74,2.74,0,0,1-1,1.26l-4.13,2.38a.78.78,0,0,1-1-.07,1.78,1.78,0,0,1-.44-1.34V912.65c0-3.8-.46-6.17-1.41-7.13s-2.26-.95-4,0a9.92,9.92,0,0,0-3.72,4.32,20.39,20.39,0,0,0-1.66,8.56v22.49a4.3,4.3,0,0,1-.43,1.84,2.74,2.74,0,0,1-1,1.26l-4.13,2.38a.78.78,0,0,1-1-.07,1.8,1.8,0,0,1-.43-1.34V922.93c0-3.8-.47-6.17-1.41-7.13s-2.26-.95-4,0a10.08,10.08,0,0,0-3.81,4.49,20.32,20.32,0,0,0-1.57,8.81V951.2A4.3,4.3,0,0,1,1883,953a2.82,2.82,0,0,1-1,1.26l-4.12,2.38a.8.8,0,0,1-1-.07,1.78,1.78,0,0,1-.43-1.34V916.32a4.26,4.26,0,0,1,.43-1.84,2.82,2.82,0,0,1,1-1.26l4.12-2.39a.81.81,0,0,1,1,.07,1.82,1.82,0,0,1,.43,1.35Z"/><path class="cls-10" d="M1941.92,883.42q-.15,7,0,14c.15,6.27,1.17,10.27,3.1,12s4.54,1.63,7.87-.29a22.64,22.64,0,0,0,4-2.93,17.86,17.86,0,0,0,3.2-4,26,26,0,0,0,2.37-5.33,41.84,41.84,0,0,0,1.52-7.11,4.11,4.11,0,0,1,.43-1.63,2.21,2.21,0,0,1,.76-.81l1.09-.63a.72.72,0,0,1,.84,0c.24.17.33.52.3,1a38,38,0,0,1-.93,6.72,33.62,33.62,0,0,1-2.55,7.28,32.81,32.81,0,0,1-4.45,6.92,23.93,23.93,0,0,1-6.57,5.51,11.65,11.65,0,0,1-6.35,1.95,6.28,6.28,0,0,1-4.43-2.17,12.91,12.91,0,0,1-2.63-5.62,40.06,40.06,0,0,1-1-8.51q-.12-3.36-.12-7.29t.12-7.59a58.26,58.26,0,0,1,1-9.59,40.16,40.16,0,0,1,2.63-8.71,31.61,31.61,0,0,1,4.43-7.28,23,23,0,0,1,6.35-5.37c2.57-1.48,4.76-2.18,6.57-2.08a6.83,6.83,0,0,1,4.45,1.77,9.59,9.59,0,0,1,2.55,4.34,22.94,22.94,0,0,1,.93,5.65,2.54,2.54,0,0,1-.3,1.39,2.48,2.48,0,0,1-.84.95l-1.09.62a.71.71,0,0,1-.76.06c-.22-.12-.36-.5-.43-1.13a18.54,18.54,0,0,0-1.52-5.35,5.74,5.74,0,0,0-2.37-2.6,4.53,4.53,0,0,0-3.2-.28,14.58,14.58,0,0,0-4,1.67,19.72,19.72,0,0,0-7.87,8.81C1943.09,871.79,1942.07,877,1941.92,883.42Z"/><path class="cls-10" d="M1985.4,850.29a9.25,9.25,0,0,1,5.17-1.52,5.4,5.4,0,0,1,3.71,1.87,11.29,11.29,0,0,1,2.29,4.74,31.88,31.88,0,0,1,.89,7c0,.44,0,1,0,1.57s0,1.24,0,1.91,0,1.33,0,2,0,1.18,0,1.57a48,48,0,0,1-.89,8,35.91,35.91,0,0,1-2.29,7.38,27.12,27.12,0,0,1-3.71,6.16,18.81,18.81,0,0,1-5.17,4.44,9.17,9.17,0,0,1-5.15,1.51,5.33,5.33,0,0,1-3.72-1.86,11.68,11.68,0,0,1-2.31-4.73,28.7,28.7,0,0,1-.86-7c0-.39,0-.89,0-1.52s0-1.29,0-1.95,0-1.32,0-1.94,0-1.16,0-1.61a42.59,42.59,0,0,1,.86-8,36.69,36.69,0,0,1,2.31-7.39,26.45,26.45,0,0,1,3.72-6.16A18.4,18.4,0,0,1,1985.4,850.29Zm8.74,14.43q-.15-7.1-2.55-9.44t-6.19-.14a15.74,15.74,0,0,0-6.18,7.29,30.59,30.59,0,0,0-2.56,12.38c0,.86-.05,1.9-.05,3.13s0,2.24.05,3q.16,7.11,2.56,9.44t6.18.15a15.78,15.78,0,0,0,6.19-7.3,30.39,30.39,0,0,0,2.55-12.38q.06-1.29.06-3.12C1994.2,866.55,1994.18,865.54,1994.14,864.72Z"/><path class="cls-10" d="M2008.26,842.69a27.15,27.15,0,0,1,3.2-6,14.59,14.59,0,0,1,4.57-4.1c2.06-1.19,3.82-1.54,5.26-1s2.59,1.8,3.42,3.88a27.26,27.26,0,0,1,3.67-7.84,17.38,17.38,0,0,1,5.56-5.35,7.41,7.41,0,0,1,4-1.15,4.6,4.6,0,0,1,3.2,1.59,10.32,10.32,0,0,1,2.15,4.4,29.59,29.59,0,0,1,.78,7.44v24.33a2.7,2.7,0,0,1-1.19,2.53l-.93.53c-.78.46-1.18.07-1.18-1.15V837.29a27.51,27.51,0,0,0-.61-6.47,7.33,7.33,0,0,0-1.62-3.4,2.88,2.88,0,0,0-2.36-.94,6.57,6.57,0,0,0-2.8.95,10.71,10.71,0,0,0-2.52,2.12,14.64,14.64,0,0,0-2.34,3.65,23.62,23.62,0,0,0-1.71,5.34,35.46,35.46,0,0,0-.65,7.18v23.49a2.66,2.66,0,0,1-1.2,2.53l-.92.53q-1.2.69-1.2-1.14V847.64a25.35,25.35,0,0,0-.64-6.44,7.86,7.86,0,0,0-1.68-3.38,3,3,0,0,0-2.37-.94,6.39,6.39,0,0,0-2.68.89,10.74,10.74,0,0,0-2.53,2.12,15,15,0,0,0-2.33,3.65,24.44,24.44,0,0,0-1.72,5.3,34.77,34.77,0,0,0-.65,7.14v23.58a2.65,2.65,0,0,1-1.2,2.52l-.92.54c-.79.45-1.19.07-1.19-1.15V841.68a2.67,2.67,0,0,1,1.19-2.53l.92-.53c.8-.46,1.2-.08,1.2,1.15Z"/><path class="cls-10" d="M2065.11,849.41c-2.28,1.32-4.15,1.75-5.59,1.31a6.58,6.58,0,0,1-3.54-2.65v19.81a2.67,2.67,0,0,1-1.19,2.53l-.92.53q-1.2.69-1.2-1.14V814.13a2.66,2.66,0,0,1,1.2-2.53l.92-.54c.79-.45,1.19-.07,1.19,1.16v3.92a31.08,31.08,0,0,1,3.54-6.76,17.16,17.16,0,0,1,5.59-5.11c2.09-1.21,3.88-1.66,5.34-1.37a5.51,5.51,0,0,1,3.56,2.46,14,14,0,0,1,2,5.21,41.3,41.3,0,0,1,.73,6.8q.06,1.23.06,2.73t-.06,2.79a58.14,58.14,0,0,1-.73,7.65,37.27,37.27,0,0,1-2,7.5,26.85,26.85,0,0,1-3.56,6.57A17.35,17.35,0,0,1,2065.11,849.41ZM2056,829.1c0,.85-.05,1.95-.05,3.29s0,2.41.05,3.23a24.1,24.1,0,0,0,.57,4.73,9.08,9.08,0,0,0,1.6,3.63,4.61,4.61,0,0,0,2.72,1.73,5.6,5.6,0,0,0,3.91-1,12.88,12.88,0,0,0,4-3.56,19.81,19.81,0,0,0,2.61-4.88,30,30,0,0,0,1.46-5.78,53.25,53.25,0,0,0,.57-6.15c0-1.57,0-3.14,0-4.67a36.8,36.8,0,0,0-.57-5.44,11.48,11.48,0,0,0-1.46-4,4.2,4.2,0,0,0-2.61-1.92,5.7,5.7,0,0,0-4,1,12.56,12.56,0,0,0-4,3.63,22.08,22.08,0,0,0-2.69,5,30.45,30.45,0,0,0-1.58,5.63A36.83,36.83,0,0,0,2056,829.1Z"/><path class="cls-10" d="M2102.57,827c-.8.46-1.2.07-1.2-1.15v-3.93a28.46,28.46,0,0,1-1.27,3.08,21.34,21.34,0,0,1-1.93,3.19,22.65,22.65,0,0,1-2.72,3.12,19.12,19.12,0,0,1-3.68,2.76,8.15,8.15,0,0,1-3.73,1.19,5.06,5.06,0,0,1-3.09-.85,6,6,0,0,1-2.12-2.7,11.35,11.35,0,0,1-.78-4.48,19.9,19.9,0,0,1,.78-5.55,24.76,24.76,0,0,1,2.2-5.25,28.15,28.15,0,0,1,3.4-4.8,31.23,31.23,0,0,1,4.37-4.15l8.57-6.79v-2.93q0-4.51-1.76-6c-1.18-1-3.05-.75-5.62.73a12.85,12.85,0,0,0-4.7,4.52,15.64,15.64,0,0,0-2.09,5.09,6,6,0,0,1-.51,1.68,2.11,2.11,0,0,1-.79.83l-.76.44a.64.64,0,0,1-.84-.06,1.46,1.46,0,0,1-.36-1.1,13.52,13.52,0,0,1,.55-3.24,22.29,22.29,0,0,1,1.76-4.44,26.71,26.71,0,0,1,3.12-4.69,16.89,16.89,0,0,1,4.62-3.87,9.94,9.94,0,0,1,5.3-1.72,4.45,4.45,0,0,1,3.28,1.57,8.45,8.45,0,0,1,1.65,3.76,24.75,24.75,0,0,1,.47,4.84v27.84a2.65,2.65,0,0,1-1.2,2.52Zm-10.26,1.91a13.88,13.88,0,0,0,3.5-3,19.83,19.83,0,0,0,2.9-4.55,26.39,26.39,0,0,0,1.95-6,34.38,34.38,0,0,0,.71-7.26v-2.84l-7,5.54q-9,7.14-9,14.07a6.93,6.93,0,0,0,.63,3.23,3.48,3.48,0,0,0,1.6,1.58,3.54,3.54,0,0,0,2.23.18A8.37,8.37,0,0,0,2092.31,828.86Z"/><path class="cls-10" d="M2136.77,805.36a2.66,2.66,0,0,1-1.2,2.53l-.92.53c-.79.46-1.19.08-1.19-1.14V784c0-4.46-.71-7.54-2.12-9.26s-3.48-1.8-6.19-.24a15.65,15.65,0,0,0-6.24,7.37,28.3,28.3,0,0,0-2.34,11.88V817a2.67,2.67,0,0,1-1.19,2.53l-.93.53c-.79.46-1.19.08-1.19-1.14V779.15a2.67,2.67,0,0,1,1.19-2.53l.93-.54c.79-.46,1.19-.07,1.19,1.16v3.92a33.78,33.78,0,0,1,3.53-6.8,16.75,16.75,0,0,1,5.59-5.07,8.13,8.13,0,0,1,4.83-1.36,5,5,0,0,1,3.45,1.93,11.6,11.6,0,0,1,2.09,4.73,30.57,30.57,0,0,1,.71,7Z"/><path class="cls-10" d="M2151.59,813.27a5.52,5.52,0,0,1-.44,1.13,2,2,0,0,1-.81.84l-1.08.63a.59.59,0,0,1-.77-.06,1.34,1.34,0,0,1-.32-1,12,12,0,0,1,.32-1.86l4.19-17.46-10.38-31.63a6.35,6.35,0,0,1-.32-1.48,3.25,3.25,0,0,1,.32-1.36,2,2,0,0,1,.77-.94l1.14-.66c.36-.21.63-.24.81-.1a1.58,1.58,0,0,1,.44.63l9.12,27.84,9.34-38.5a6.73,6.73,0,0,1,.43-1.13,2,2,0,0,1,.82-.84l1.08-.63a.59.59,0,0,1,.76.07,1.27,1.27,0,0,1,.33,1,11.22,11.22,0,0,1-.33,1.86Z"/><path class="cls-3" d="M2409.8,606.58v56.3c0,8.56,6,12,13.44,7.75L2472,642.48c7.42-4.28,13.44-14.7,13.44-23.27V562.92c0-8.57-6-12-13.44-7.76l-48.76,28.15C2415.81,587.59,2409.8,598,2409.8,606.58Z"/><path class="cls-7" d="M2476,600.71v-8.37a.55.55,0,0,0-.83-.54l-6.45,2.91a.77.77,0,0,1-1.08-.49,14,14,0,0,0-1.44-3.2,1.77,1.77,0,0,1-.09-1.57l4.3-8.67a1,1,0,0,0-.38-1.27l-4.67-2.69a1,1,0,0,0-1.29.3l-5.36,8.06a1.77,1.77,0,0,1-1.4.7,14.76,14.76,0,0,0-3.49.35.76.76,0,0,1-1-.68l-.71-7a.54.54,0,0,0-.87-.45l-7.25,4.19a1.94,1.94,0,0,0-.87,1.35l-.72,8.07a2.73,2.73,0,0,1-.76,1.51,43,43,0,0,0-4,4.26,1.38,1.38,0,0,1-1.42.4l-4.66-1.62a1.12,1.12,0,0,0-1.3.48l-5.33,9.24a1.13,1.13,0,0,0,.23,1.37l3.73,3.22a1.4,1.4,0,0,1,.37,1.44,41.91,41.91,0,0,0-1.68,5.62,2.72,2.72,0,0,1-.93,1.4l-6.62,4.66a2,2,0,0,0-.74,1.43v8.37a.54.54,0,0,0,.82.54l6.46-2.91a.76.76,0,0,1,1.07.49,14.74,14.74,0,0,0,1.44,3.21,1.78,1.78,0,0,1,.1,1.56l-4.3,8.67a1,1,0,0,0,.38,1.27l4.66,2.69a1,1,0,0,0,1.29-.3l5.36-8.06a1.8,1.8,0,0,1,1.41-.7,14.35,14.35,0,0,0,3.49-.35.76.76,0,0,1,1,.68l.71,7a.54.54,0,0,0,.88.45l7.25-4.19a1.91,1.91,0,0,0,.86-1.35l.73-8.07a2.66,2.66,0,0,1,.75-1.5,44.3,44.3,0,0,0,4-4.27,1.39,1.39,0,0,1,1.43-.4l4.65,1.62a1.14,1.14,0,0,0,1.31-.48l5.33-9.23a1.15,1.15,0,0,0-.23-1.38l-3.74-3.22a1.36,1.36,0,0,1-.36-1.43,44.38,44.38,0,0,0,1.68-5.62,2.75,2.75,0,0,1,.92-1.41l6.63-4.66A2,2,0,0,0,2476,600.71ZM2447.61,627c-6.76,3.91-12.25.74-12.25-7.07s5.49-17.31,12.25-21.22,12.25-.74,12.25,7.07S2454.38,623.13,2447.61,627Z"/><path class="cls-3" d="M2283.75,679.51v56.3c0,8.56,6,12,13.44,7.75l48.75-28.15c7.42-4.28,13.44-14.7,13.44-23.27v-56.3c0-8.56-6-12-13.44-7.75l-48.75,28.15C2289.77,660.52,2283.75,670.94,2283.75,679.51Z"/><polygon class="cls-7" points="2321.57 695.7 2315.34 699.3 2315.34 717.05 2303.79 723.72 2303.79 695.17 2296.98 699.1 2321.57 656.37 2346.15 670.72 2339.34 674.65 2339.34 703.19 2327.79 709.86 2327.79 692.12 2321.57 695.7"/><path class="cls-3" d="M2535.84,533.89v56.3c0,8.57,6,12,13.44,7.76L2598,569.8c7.42-4.29,13.44-14.71,13.44-23.28V490.23c0-8.57-6-12-13.44-7.76l-48.75,28.15C2541.86,514.9,2535.84,525.32,2535.84,533.89Z"/><path class="cls-7" d="M2602.14,505.06a1.43,1.43,0,0,0-1.2.18l-51.12,29.51a4,4,0,0,0-1.49,1.82l27,9.89Z"/><path class="cls-7" d="M2548.33,536.58a3.74,3.74,0,0,0-.47,1.56l-.08,42.37a1.43,1.43,0,0,0,.5,1.2l21.42-33.06Z"/><path class="cls-7" d="M2602.15,505.06l-20.74,36.19,20.91,9.41-22.31-7-3.15,5.48a3.08,3.08,0,0,1-4.19,1.16l-1.13-.64-23.26,32a1.31,1.31,0,0,0,1.45-.07l51.21-29.52a4.32,4.32,0,0,0,2-3.38V506.37A1.26,1.26,0,0,0,2602.15,505.06Z"/><polygon class="cls-7" points="2548.28 536.55 2548.32 536.58 2548.33 536.57 2548.28 536.55"/><polygon class="cls-7" points="2602.2 504.97 2602.14 505.06 2602.15 505.06 2602.2 504.97"/><polygon class="cls-7" points="1678.73 1129.6 2611.47 591.08 2611.47 882.17 1678.74 1420.69 1678.73 1129.6"/><polygon class="cls-3" points="1729.15 1362.47 1729.15 1129.6 2031.65 954.95 2031.66 1187.82 1729.15 1362.47"/><polygon class="cls-12" points="1729.15 1362.47 1729.15 1129.6 2031.65 954.95 2031.66 1187.82 1729.15 1362.47"/><path class="cls-3" d="M1944.75,1071.88c0,11.64,8.17,16.35,18.25,10.53s18.24-20,18.24-31.59-8.17-16.35-18.24-10.53S1944.75,1060.25,1944.75,1071.88Z"/><polygon class="cls-3" points="1729.15 1362.47 1729.15 1275.14 1822.01 1152.35 1930.82 1213.49 1894.22 1182.61 1946.83 1119.42 2031.66 1163.51 2031.66 1187.82 1729.15 1362.47"/><path class="cls-10" d="M2095.52,918.08l200-115.47c7.42-4.29,13.44-1.25,13.44,6.79s-6,18-13.44,22.31l-200,115.48c-7.42,4.28-13.44,1.24-13.44-6.8S2088.1,922.37,2095.52,918.08Z"/><path class="cls-2" d="M2090.14,979.4,2553,712.18c4.45-2.57,8.06-1.4,8.06,2.62s-3.61,9.36-8.06,11.93L2090.14,994c-4.45,2.57-8.06,1.39-8.06-2.63S2085.68,982,2090.14,979.4Z"/><path class="cls-2" d="M2090.14,1008.51,2553,741.29c4.45-2.57,8.06-1.4,8.06,2.62s-3.61,9.36-8.06,11.93l-462.85,267.22c-4.45,2.57-8.06,1.4-8.06-2.62S2085.68,1011.08,2090.14,1008.51Z"/><path class="cls-2" d="M2090.14,1037.62,2553,770.39c4.45-2.57,8.06-1.39,8.06,2.62s-3.61,9.36-8.06,11.93l-462.85,267.23c-4.45,2.57-8.06,1.4-8.06-2.62S2085.68,1040.19,2090.14,1037.62Z"/><path class="cls-2" d="M2090.14,1066.73l261.18-150.89c4.45-2.57,8.06-1.4,8.06,2.62s-3.61,9.36-8.06,11.93l-261.18,150.89c-4.45,2.57-8.06,1.4-8.06-2.62S2085.68,1069.3,2090.14,1066.73Z"/><path class="cls-3" d="M2082.08,1143.19v-12.63c0-8.57,6-19,13.44-23.27l74-42.7c7.42-4.29,13.43-.82,13.43,7.75V1085c0,8.56-6,19-13.43,23.27l-74,42.7C2088.1,1155.23,2082.08,1151.76,2082.08,1143.19Z"/><path class="cls-3" d="M2472.82,904c7-4,12.6-.77,12.6,7.27s-5.64,17.82-12.6,21.84-12.6.76-12.6-7.28S2465.86,908,2472.82,904Z"/><path class="cls-3" d="M2516.26,881h0c4,0,6.47,3.26,6.48,8.5,0,7.87-5.55,17.47-12.36,21.4a10.88,10.88,0,0,1-5.38,1.66,5.74,5.74,0,0,1-4.65-2.18,10.06,10.06,0,0,1-1.82-6.32c0-7.87,5.54-17.47,12.35-21.4a10.88,10.88,0,0,1,5.38-1.66m0-.5a11.41,11.41,0,0,0-5.63,1.73c-7,4-12.6,13.79-12.6,21.83,0,5.7,2.84,9,7,9a11.49,11.49,0,0,0,5.63-1.72c7-4,12.61-13.8,12.61-21.84,0-5.7-2.85-9-7-9Z"/><path class="cls-3" d="M2554.07,859.13h0c4,0,6.48,3.25,6.48,8.49,0,7.87-5.54,17.47-12.36,21.4a10.88,10.88,0,0,1-5.38,1.66,5.73,5.73,0,0,1-4.64-2.17,10.05,10.05,0,0,1-1.83-6.33c0-7.87,5.54-17.47,12.35-21.4a10.86,10.86,0,0,1,5.38-1.65m0-.5a11.41,11.41,0,0,0-5.63,1.72c-7,4-12.6,13.79-12.6,21.83,0,5.7,2.84,9,7,9a11.38,11.38,0,0,0,5.63-1.72c7-4,12.61-13.8,12.61-21.84,0-5.7-2.84-9-7-9Z"/><path class="cls-3" d="M1692.17,1471.15l250.42-144.58c7.42-4.28,13.44-.81,13.44,7.76v230.94c0,8.57-6,19-13.44,23.28l-250.43,144.58c-7.42,4.28-13.43.81-13.43-7.76V1494.42C1678.74,1485.85,1684.75,1475.43,1692.17,1471.15Z"/><path class="cls-13" d="M1692.17,1471.15l250.42-144.58c7.42-4.28,13.44-.81,13.44,7.76v230.94c0,8.57-6,19-13.44,23.28l-250.43,144.58c-7.42,4.28-13.43.81-13.43-7.76V1494.42C1678.74,1485.85,1684.75,1475.43,1692.17,1471.15Z"/><path class="cls-7" d="M1729.47,1478.72c14.1-8.13,25.53-1.7,25.53,14.38s-11.43,35.7-25.53,43.84-25.53,1.71-25.52-14.37S1715.37,1486.86,1729.47,1478.72Z"/><path class="cls-7" d="M1793,1442l124.39-71.81c7.42-4.28,13.44-1.24,13.44,6.8s-6,18-13.44,22.31L1793,1471.15c-7.42,4.28-13.44,1.24-13.44-6.8S1785.58,1446.33,1793,1442Z"/><path class="cls-7" d="M1787.63,1488.81l84.71-48.91c4.46-2.57,8.07-1.4,8.07,2.62s-3.61,9.36-8.07,11.93l-84.7,48.91c-4.46,2.57-8.07,1.4-8.07-2.62S1783.18,1491.38,1787.63,1488.81Z"/><path class="cls-7" d="M1712,1576.14l210.77-121.68c4.45-2.58,8.06-1.4,8.06,2.62s-3.61,9.36-8.06,11.93L1712,1590.69c-4.45,2.57-8.06,1.4-8.06-2.62S1707.55,1578.71,1712,1576.14Z"/><path class="cls-7" d="M1712,1605.25l210.77-121.69c4.45-2.57,8.06-1.39,8.06,2.63s-3.61,9.36-8.06,11.93L1712,1619.8c-4.45,2.57-8.06,1.4-8.06-2.62S1707.55,1607.82,1712,1605.25Z"/><path class="cls-7" d="M1712,1634.36l210.77-121.69c4.45-2.57,8.06-1.39,8.06,2.63s-3.61,9.36-8.06,11.93L1712,1648.91c-4.45,2.57-8.06,1.4-8.06-2.62S1707.55,1636.93,1712,1634.36Z"/><path class="cls-7" d="M1922.73,1588.21c-6.25,3.61-11.34-1.28-11.34-10.91s5.09-20.38,11.34-24,11.33,1.29,11.33,10.91S1929,1584.6,1922.73,1588.21Zm0-31.53c-5,2.91-9.15,11.6-9.15,19.36s4.1,11.72,9.15,8.81,9.15-11.6,9.15-19.37S1927.77,1553.76,1922.73,1556.68Z"/><path class="cls-7" d="M1927.8,1569.52l-11.27,6.5c-.6.35-1.09-.12-1.09-1a2.89,2.89,0,0,1,1.09-2.31l11.27-6.51c.6-.34,1.09.13,1.09,1.06A2.9,2.9,0,0,1,1927.8,1569.52Z"/><path class="cls-7" d="M1922.51,1579.68a.6.6,0,0,1-.86-.15,2.59,2.59,0,0,1,.19-2.46l4.8-8.57-4.8-3c-.48-.29-.56-1.3-.19-2.25s1.06-1.46,1.54-1.17l5.89,3.71a1.24,1.24,0,0,1,.42,1.08,3.3,3.3,0,0,1-.42,1.57l-5.89,10.51A1.94,1.94,0,0,1,1922.51,1579.68Z"/><path class="cls-3" d="M2019.71,1281.94l250.43-144.58c7.42-4.28,13.43-.81,13.43,7.76v231c0,8.57-6,19-13.44,23.27l-250.25,144.58c-7.42,4.29-13.44.82-13.44-7.75l-.16-231C2006.28,1296.65,2012.29,1286.23,2019.71,1281.94Z"/><path class="cls-7" d="M2057.19,1289.52c14.1-8.14,25.53-1.71,25.53,14.37s-11.43,35.7-25.53,43.84-25.53,1.71-25.53-14.37S2043.09,1297.65,2057.19,1289.52Z"/><path class="cls-7" d="M2120.72,1252.84,2245.11,1181c7.42-4.28,13.44-1.24,13.44,6.8s-6,18-13.44,22.31l-124.38,71.81c-7.42,4.28-13.44,1.24-13.44-6.79S2113.3,1257.12,2120.72,1252.84Z"/><path class="cls-7" d="M2115.35,1299.6l84.71-48.91c4.45-2.57,8.06-1.4,8.06,2.62s-3.61,9.36-8.06,11.93l-84.71,48.91c-4.45,2.57-8.06,1.4-8.06-2.62S2110.9,1302.17,2115.35,1299.6Z"/><path class="cls-7" d="M2039.72,1386.93l210.77-121.68c4.45-2.57,8.06-1.4,8.06,2.62s-3.61,9.36-8.06,11.93l-210.77,121.68c-4.45,2.57-8.06,1.4-8.06-2.62S2035.27,1389.5,2039.72,1386.93Z"/><path class="cls-7" d="M2039.72,1416l210.77-121.68c4.45-2.57,8.06-1.4,8.06,2.62s-3.61,9.36-8.06,11.93l-210.77,121.68c-4.45,2.57-8.06,1.4-8.06-2.62S2035.27,1418.61,2039.72,1416Z"/><path class="cls-7" d="M2039.72,1445.15l210.77-121.68c4.45-2.58,8.06-1.4,8.06,2.62s-3.61,9.36-8.06,11.93L2039.72,1459.7c-4.45,2.57-8.06,1.4-8.06-2.62S2035.27,1447.72,2039.72,1445.15Z"/><path class="cls-7" d="M2250.45,1399c-6.25,3.61-11.34-1.28-11.34-10.9s5.09-20.39,11.34-24,11.33,1.28,11.33,10.9S2256.69,1395.39,2250.45,1399Zm0-31.53c-5,2.91-9.15,11.6-9.15,19.36s4.1,11.72,9.15,8.81,9.14-11.6,9.14-19.37S2255.49,1364.55,2250.45,1367.47Z"/><path class="cls-7" d="M2255.51,1380.31l-11.26,6.5c-.61.35-1.1-.12-1.1-1a2.86,2.86,0,0,1,1.1-2.31l11.26-6.5c.61-.35,1.09.12,1.09,1A2.86,2.86,0,0,1,2255.51,1380.31Z"/><path class="cls-7" d="M2250.23,1390.47a.6.6,0,0,1-.86-.15,2.59,2.59,0,0,1,.19-2.46l4.8-8.56-4.8-3c-.48-.3-.56-1.31-.19-2.26s1.06-1.46,1.53-1.17l5.9,3.71a1.27,1.27,0,0,1,.42,1.08,3.38,3.38,0,0,1-.42,1.57l-5.9,10.51A1.92,1.92,0,0,1,2250.23,1390.47Z"/><path class="cls-3" d="M2347.25,1092.74l250.43-144.59c7.42-4.28,13.44-.81,13.44,7.76v230.95c0,8.57-6,19-13.43,23.28l-250.08,144.57c-7.42,4.29-13.45.82-13.46-7.75l-.31-231C2333.83,1107.44,2339.83,1097,2347.25,1092.74Z"/><path class="cls-4" d="M2347.25,1092.74l250.43-144.59c7.42-4.28,13.44-.81,13.44,7.76v230.95c0,8.57-6,19-13.43,23.28l-250.08,144.57c-7.42,4.29-13.45.82-13.46-7.75l-.31-231C2333.83,1107.44,2339.83,1097,2347.25,1092.74Z"/><path class="cls-7" d="M2384.91,1100.31c14.09-8.14,25.52-1.71,25.52,14.37s-11.43,35.71-25.52,43.84-25.53,1.71-25.53-14.37S2370.81,1108.45,2384.91,1100.31Z"/><path class="cls-7" d="M2448.44,1063.63l124.39-71.82c7.42-4.28,13.44-1.24,13.44,6.8s-6,18-13.44,22.31l-124.38,71.81C2441,1097,2435,1094,2435,1085.94S2441,1067.91,2448.44,1063.63Z"/><path class="cls-7" d="M2443.06,1110.39l84.72-48.91c4.45-2.57,8.06-1.4,8.06,2.62s-3.61,9.36-8.06,11.93l-84.71,48.91c-4.45,2.57-8.06,1.4-8.06-2.62S2438.61,1113,2443.06,1110.39Z"/><path class="cls-7" d="M2367.44,1197.72,2578.2,1076c4.46-2.57,8.07-1.4,8.07,2.62s-3.61,9.36-8.07,11.93l-210.76,121.68c-4.45,2.57-8.06,1.4-8.06-2.62S2363,1200.29,2367.44,1197.72Z"/><path class="cls-7" d="M2367.44,1226.83l210.76-121.68c4.46-2.57,8.07-1.4,8.07,2.62s-3.61,9.36-8.07,11.93l-210.76,121.68c-4.45,2.57-8.06,1.4-8.06-2.62S2363,1229.4,2367.44,1226.83Z"/><path class="cls-7" d="M2367.44,1255.94l210.76-121.68c4.46-2.57,8.07-1.4,8.07,2.62s-3.61,9.36-8.07,11.93l-210.76,121.68c-4.45,2.57-8.06,1.4-8.06-2.62S2363,1258.51,2367.44,1255.94Z"/><path class="cls-7" d="M2578.16,1209.79c-6.25,3.61-11.33-1.28-11.33-10.9s5.08-20.39,11.33-24,11.33,1.28,11.33,10.9S2584.41,1206.18,2578.16,1209.79Zm0-31.53c-5,2.91-9.15,11.6-9.15,19.37s4.11,11.71,9.15,8.8,9.15-11.6,9.15-19.37S2583.21,1175.35,2578.16,1178.26Z"/><path class="cls-7" d="M2583.23,1191.1l-11.27,6.5c-.6.35-1.09-.12-1.09-1a2.89,2.89,0,0,1,1.09-2.31l11.27-6.5c.6-.35,1.09.12,1.09,1A2.89,2.89,0,0,1,2583.23,1191.1Z"/><path class="cls-7" d="M2578,1201.26a.61.61,0,0,1-.86-.14,2.63,2.63,0,0,1,.18-2.47l4.8-8.56-4.8-3c-.47-.3-.55-1.31-.18-2.26s1.06-1.46,1.53-1.17l5.9,3.71a1.27,1.27,0,0,1,.41,1.08,3.37,3.37,0,0,1-.41,1.57l-5.9,10.52A2,2,0,0,1,2578,1201.26Z"/></g><g id="Plants"><g id="Plants-2" data-name="Plants"><path class="cls-3" d="M4096.23,1719.31A283.57,283.57,0,0,1,4111,1637c14.74-42.79,45.11-86.73,82.28-96.69s54.42,14.46,47.81,39.72c-5.69,21.76-32.67,41-52.89,60.8s-57.4,67-66.08,111.19l-21.08,3.45Z"/><g class="cls-14"><path d="M4096.23,1719.31A283.57,283.57,0,0,1,4111,1637c14.74-42.79,45.11-86.73,82.28-96.69s54.42,14.46,47.81,39.72c-5.69,21.76-32.67,41-52.89,60.8s-57.4,67-66.08,111.19l-21.08,3.45Z"/></g><path class="cls-7" d="M4111.76,1738.17a2.37,2.37,0,0,0,2.24-2.4c-1.9-109.78,102-176.76,103.06-177.43a2.36,2.36,0,0,0-2.53-4c-1.07.68-107.2,69.1-105.26,181.5a2.35,2.35,0,0,0,2.4,2.32Z"/><path class="cls-3" d="M4117.69,1888.62l.5.66c3.46,4.22,9.92,5.9,15.1,6.36,14.49,1.29,29-4.2,40.62-13s20.44-20.75,27.74-33.33c3.5-6,6.72-12.31,11.44-17.43,9.72-10.57,26.55-11.22,39.68-14.8,17.11-4.66,32.38-17.94,36.48-35.19s.95-37.88-15.41-48l13-9.32c5.89-4.24,11.85-8.53,16.52-14.09s8-12.59,7.66-19.84c-.49-10.7-9-19.81-19-23.67s-21.14-3.33-31.7-1.53a140.7,140.7,0,0,0-31.05,9.08c-2.8,1.18-5.66,2.47-8.7,2.45-4,0-7.57-2.34-11-4.37-23.84-14-61.29-10.83-72.12,18.5-1.59,4.32-2.43,8.89-4.15,13.16-6.34,15.81-26.73,12.24-39.34,20.16-8.2,5.15-12.78,14.79-13.89,24.4-1.77,15.41,3.42,32.6,7,47.55,3.51,14.5,8,28.77,12.81,42.87q6,17.43,12.83,34.54C4114.57,1878.56,4114.76,1884.46,4117.69,1888.62Z"/><path class="cls-7" d="M4102.85,1853.42c10-34.21,28.79-62.61,50.59-85.76a2.41,2.41,0,0,1,1.2-1.26,283.54,283.54,0,0,1,21.33-20.09c3.6-32.08-10.68-59.31-10.82-59.58a2.37,2.37,0,0,1,4.17-2.24c.59,1.11,13.76,26.18,11.76,57.56,48.63-39.6,100-57.15,100.87-57.44a2.39,2.39,0,0,1,3,1.5,2.37,2.37,0,0,1-1.5,3c-1,.32-66.83,22.82-119.36,74.4,33.5-7.72,74.78,6.47,76.68,7.14a2.36,2.36,0,0,1-.65,4.59,2.39,2.39,0,0,1-.91-.13c-.49-.17-49-16.83-81.93-4.65-21.51,22.74-40.08,50.66-49.88,84.3a2.38,2.38,0,0,1-2.14,1.7,2.67,2.67,0,0,1-.79-.09A2.38,2.38,0,0,1,4102.85,1853.42Z"/></g></g><g id="Device_1" data-name="Device 1"><g id="Device-3" data-name="Device"><path class="cls-3" d="M3653.32,780.2v883.42c0,9.07,6.39,20.13,14.23,24.68l391.73,226.14c7.84,4.55,14.23.86,14.23-8.22V1022.8c0-9.08-6.39-20.13-14.23-24.69L3667.55,772C3659.71,767.42,3653.32,771.12,3653.32,780.2Zm20.51,105.43c0-7.77,5.45-11,12.21-7l356.17,205.6c6.73,3.92,12.22,13.37,12.22,21.17v692c0,7.81-5.49,10.94-12.22,7.06L3686,1598.82c-6.76-3.88-12.21-8.84-12.21-16.6Z"/><path class="cls-8" d="M3653.32,780.2v883.42c0,9.07,6.39,20.13,14.23,24.68l391.73,226.14c7.84,4.55,14.23.86,14.23-8.22V1022.8c0-9.08-6.39-20.13-14.23-24.69L3667.55,772C3659.71,767.42,3653.32,771.12,3653.32,780.2Zm20.51,105.43c0-7.77,5.45-11,12.21-7l356.17,205.6c6.73,3.92,12.22,13.37,12.22,21.17v692c0,7.81-5.49,10.94-12.22,7.06L3686,1598.82c-6.76-3.88-12.21-8.84-12.21-16.6Z"/><path class="cls-3" d="M4061.05,1915.33c7.91,3.64,19.4,3.32,26.74-.88l16.29-9.42c7.9-4.54,14.29-15.55,14.29-24.68V997a27,27,0,0,0-2.47-10.65,35.07,35.07,0,0,0-1.7-3.42,0,0,0,0,1,0,0l-44.83,25.88h0a39.93,39.93,0,0,1,2.47,5.22,26,26,0,0,1,1.73,8.82v883.43C4073.51,1914.59,4068.07,1918.4,4061.05,1915.33Z"/><path class="cls-6" d="M4061.05,1915.33c7.91,3.64,19.4,3.32,26.74-.88l16.29-9.42c7.9-4.54,14.29-15.55,14.29-24.68V997a27,27,0,0,0-2.47-10.65,35.07,35.07,0,0,0-1.7-3.42,0,0,0,0,1,0,0l-44.83,25.88h0a39.93,39.93,0,0,1,2.47,5.22,26,26,0,0,1,1.73,8.82v883.43C4073.51,1914.59,4068.07,1918.4,4061.05,1915.33Z"/><path class="cls-5" d="M3860,1723.74c-12.42-7.17-22.49-1.36-22.49,13s10.07,31.78,22.49,39,22.49,1.36,22.49-13S3872.45,1730.91,3860,1723.74Z"/><path d="M3863.42,904.1c-5.28-3.05-9.55-.58-9.55,5.51s4.27,13.5,9.55,16.54,9.55.58,9.55-5.51S3868.69,907.14,3863.42,904.1Z"/><path d="M3900.28,962.19l-73.73-42.57c-4.4-2.54-8-.74-8,4s3.57,10.68,8,13.22l73.73,42.57c4.4,2.54,8,.74,8-4S3904.68,964.73,3900.28,962.19Z"/><path class="cls-3" d="M3673.83,1582.22c0,7.76,5.45,12.72,12.21,16.6l356.17,205.63c6.73,3.88,12.22.75,12.22-7.06v-692c0-7.8-5.49-17.25-12.22-21.17L3686,878.6c-6.76-3.92-12.21-.74-12.21,7Z"/><path class="cls-7" d="M3673.83,1582.22c0,7.76,5.45,12.72,12.21,16.6l356.17,205.63c6.73,3.88,12.22.75,12.22-7.06v-692c0-7.8-5.49-17.25-12.22-21.17L3686,878.6c-6.76-3.92-12.21-.74-12.21,7Z"/><path class="cls-3" d="M3653.46,777.93c1-7.4,6.95-10.08,14.07-6l391.76,226.14a29,29,0,0,1,10.05,10.65l44.83-25.88a28.84,28.84,0,0,0-10.09-10.58L3712.39,746.12c-7.83-4.55-20.59-4.55-28.49,0l-16.37,9.38C3660.34,759.7,3654.38,769.33,3653.46,777.93Z"/><path class="cls-4" d="M3653.46,777.93c1-7.4,6.95-10.08,14.07-6l391.76,226.14a29,29,0,0,1,10.05,10.65l44.83-25.88a28.84,28.84,0,0,0-10.09-10.58L3712.39,746.12c-7.83-4.55-20.59-4.55-28.49,0l-16.37,9.38C3660.34,759.7,3654.38,769.33,3653.46,777.93Z"/></g><path class="cls-9" d="M4042.21,1084.2,3686,878.6c-6.76-3.92-12.21-.74-12.21,7v79.91l380.6,219.69v-79.86C4054.43,1097.57,4048.94,1088.12,4042.21,1084.2Z"/><path class="cls-10" d="M3721.2,962.9c0,7.55,6,17.18,13.39,21.51l225.31,131.64c7.4,4.32,13.39,1.31,13.39-6.73s-6-18-13.43-22.31L3734.64,957C3727.21,952.7,3721.2,955.35,3721.2,962.9Z"/><path class="cls-3" d="M3831.38,1200v65c0,9.9,5.21,20.93,11.64,24.64l42.22,24.37c6.42,3.71,11.64-1.3,11.63-11.2v-65c0-9.9-5.21-20.92-11.63-24.63L3843,1188.83C3836.59,1185.12,3831.38,1190.13,3831.38,1200Z"/><path class="cls-7" d="M3888.68,1270.45v-9.67a2.21,2.21,0,0,0-.71-1.58l-5.59-4.17a3.31,3.31,0,0,1-.93-1.83q-.49-2.71-1.25-5.37a3.11,3.11,0,0,1-.08-1.92l3.72-5c.2-.26,0-1.11-.33-1.9l-4-8.56c-.37-.8-.87-1.31-1.11-1.15l-4.65,3c-.24.16-.78-.23-1.21-.83a36,36,0,0,0-3-3.67,3.43,3.43,0,0,1-.84-1.91l-.62-9a2.12,2.12,0,0,0-.75-1.54l-6.28-3.63c-.38-.21-.71,0-.75.56l-.63,8.47c0,.52-.34.9-.65.86a9.19,9.19,0,0,0-3.49.22c-.28.07-.83-.45-1.24-1.19l-4-7.31c-.41-.74-.91-1.17-1.13-1l-4.62,4.45c-.21.21-.12,1,.21,1.86l3.23,8.07a3.51,3.51,0,0,1,.31,2.08,23.15,23.15,0,0,0-1.45,4.53c-.09.44-.45.69-.8.54l-5.74-2.34c-.35-.14-.64.21-.64.78v9.67a2.19,2.19,0,0,0,.71,1.58l5.59,4.17a3.25,3.25,0,0,1,.93,1.83q.49,2.71,1.25,5.37a3.05,3.05,0,0,1,.09,1.92l-3.73,5a2.63,2.63,0,0,0,.33,1.9l4,8.56c.38.8.88,1.31,1.12,1.15l4.64-3c.24-.16.78.24,1.22.83a36,36,0,0,0,3,3.67,3.57,3.57,0,0,1,.84,1.91l.61,9a2.08,2.08,0,0,0,.76,1.54l6.28,3.63c.37.21.71,0,.75-.56l.63-8.47c0-.52.33-.9.65-.86a9.21,9.21,0,0,0,3.49-.22c.27-.07.82.45,1.23,1.19l4,7.31c.41.74.92,1.17,1.13,1l4.62-4.45c.22-.2.13-1-.2-1.85l-3.24-8.08a3.68,3.68,0,0,1-.31-2.08,23.15,23.15,0,0,0,1.45-4.53c.1-.44.45-.69.81-.54l5.73,2.34C3888.4,1271.38,3888.68,1271,3888.68,1270.45Zm-24.55-2.68c-5.86-3.38-10.61-13.44-10.61-22.46s4.75-13.59,10.61-10.21,10.61,13.44,10.61,22.46S3870,1271.15,3864.13,1267.77Z"/><path class="cls-3" d="M3722.22,1137.18v65c0,9.89,5.21,20.92,11.64,24.63l42.22,24.38c6.42,3.71,11.63-1.3,11.63-11.2v-65c0-9.9-5.21-20.93-11.63-24.64L3733.86,1126C3727.43,1122.27,3722.22,1127.29,3722.22,1137.18Z"/><polygon class="cls-7" points="3754.97 1200 3749.58 1196.89 3749.58 1217.38 3739.57 1211.61 3739.57 1178.65 3733.68 1175.24 3754.97 1154.58 3776.26 1199.83 3770.36 1196.42 3770.36 1229.38 3760.36 1223.61 3760.36 1203.12 3754.97 1200"/><path class="cls-3" d="M3940.54,1263.14v65c0,9.9,5.21,20.92,11.63,24.64l42.23,24.37c6.42,3.71,11.63-1.3,11.63-11.2v-65c0-9.9-5.21-20.93-11.64-24.64L3952.17,1252C3945.75,1248.24,3940.54,1253.25,3940.54,1263.14Z"/><path class="cls-7" d="M3998,1307.21a3,3,0,0,0-1-1.2l-44.27-25.57a.9.9,0,0,0-1.29.36l23.39,42.93Z"/><path class="cls-7" d="M3951.35,1280.81a2.1,2.1,0,0,0-.41,1.26l-.07,48.83a5.18,5.18,0,0,0,.44,2l18.55-13.18Z"/><path class="cls-7" d="M3998,1307.21l-18,17.59,18.11,35.27L3978.79,1326l-2.73,2.67c-.73.72-2.35-.88-3.63-3.57l-1-2-20.14,9.84a3.4,3.4,0,0,0,1.25,1.61l44.35,25.66c.94.55,1.7-.18,1.7-1.62v-48.93A5.08,5.08,0,0,0,3998,1307.21Z"/><polygon class="cls-7" points="3951.31 1280.73 3951.35 1280.81 3951.35 1280.8 3951.31 1280.73"/><polygon class="cls-7" points="3998.01 1307.17 3997.95 1307.21 3997.96 1307.21 3998.01 1307.17"/><path class="cls-7" d="M3689.06,913.94v-5.08c0-1.1.44-1.74,1-1.43l.27.15a3.27,3.27,0,0,1,1,2.54v5.08c0,1.1-.43,1.74-1,1.44l-.27-.16A3.27,3.27,0,0,1,3689.06,913.94Z"/><path class="cls-7" d="M3693.47,916.48V907.7c0-1.09.43-1.73,1-1.43l.27.16a3.28,3.28,0,0,1,1,2.55v8.77c0,1.1-.44,1.74-1,1.43l-.27-.16A3.23,3.23,0,0,1,3693.47,916.48Z"/><path class="cls-7" d="M3697.88,919V906.56c0-1.1.44-1.74,1-1.43l.27.15a3.28,3.28,0,0,1,1,2.55V920.3c0,1.1-.44,1.74-1,1.43l-.27-.16A3.24,3.24,0,0,1,3697.88,919Z"/><path class="cls-7" d="M3702.29,921.57V900c0-1.09.43-1.73,1-1.42l.27.15a3.27,3.27,0,0,1,1,2.55v21.52c0,1.09-.43,1.73-1,1.43l-.27-.16A3.22,3.22,0,0,1,3702.29,921.57Z"/><path class="cls-7" d="M3714.23,929.93a1.93,1.93,0,0,1-.13-.8V926l-4.95-2.86a.93.93,0,0,1-.4-.9v-1.14a2.78,2.78,0,0,1,0-.57,1.9,1.9,0,0,1,.18-.41l5.25-8.28a.83.83,0,0,1,.25-.27c.07,0,.19,0,.34.09l.69.4a.94.94,0,0,1,.45.51,2.21,2.21,0,0,1,.14.85v11l1.09.63a1,1,0,0,1,.44.48,2.39,2.39,0,0,1,.13.84v.75a1.14,1.14,0,0,1-.13.65c-.08.1-.23.09-.44,0l-1.09-.63v3.16a1,1,0,0,1-.13.64c-.09.1-.24.08-.46,0l-.83-.48A1,1,0,0,1,3714.23,929.93Zm.19-6.46V915.6l-3.58,5.8Z"/><path class="cls-7" d="M3720.1,931.41a20.55,20.55,0,0,1-1.45-8.13q0-4.71,1.46-6.44c1-1.15,2.34-1.21,4.09-.2a9.27,9.27,0,0,1,2,1.54,8.74,8.74,0,0,1,1.53,2,.83.83,0,0,1,.14.44.79.79,0,0,1-.06.29l-.45,1.13c-.07.13-.13.18-.19.14a1.14,1.14,0,0,1-.2-.25,7.51,7.51,0,0,0-2.53-2.52c-1.18-.68-2.12-.62-2.79.18s-1,2.41-1,4.83a15.55,15.55,0,0,0,1,6,6.6,6.6,0,0,0,2.69,3.33,5.45,5.45,0,0,0,1.22.52,1.83,1.83,0,0,0,1,.05v-5.13l-2.06-1.19a1,1,0,0,1-.44-.49,2.37,2.37,0,0,1-.12-.84V926a1.14,1.14,0,0,1,.12-.66c.09-.09.23-.07.44,0l3.29,1.9a1.16,1.16,0,0,1,.49.58,2.71,2.71,0,0,1,.15,1v7.32a2.12,2.12,0,0,1,0,.59.36.36,0,0,1-.2.26c-.95.52-2.26.31-3.9-.64A10,10,0,0,1,3720.1,931.41Z"/><path class="cls-7" d="M4034.88,1096a5.62,5.62,0,0,0-2-2.89l-14.8-8.55c-1.28-.74-2.28.73-2.28,3.35V1099a12.93,12.93,0,0,0,.86,4.52,9.27,9.27,0,0,0,.79,1.64,3.64,3.64,0,0,0,1.16,1.25l14.81,8.56c1.28.73,2.28-.74,2.28-3.36v-11.07A13,13,0,0,0,4034.88,1096Zm-17.64,6.7a5.89,5.89,0,0,1-.32-2v-11.07c0-1.93.79-3.1,1.73-2.55l14.81,8.55a2,2,0,0,1,.63.64,3.58,3.58,0,0,1,.25.52,5.91,5.91,0,0,1,.32,2v11.08c0,1.93-.8,3.1-1.74,2.56l-14.8-8.56A2.17,2.17,0,0,1,4017.24,1102.74Z"/><path class="cls-7" d="M4026.58,1093.69v13.1l-8-4.6a1.87,1.87,0,0,1-.26-.21,2,2,0,0,0,0-.45v-9.94c0-1.41.62-2.29,1.29-1.91Z"/><path class="cls-7" d="M4036.48,1101.06c.54.31,1,2.4,1,4.67v2.06c0,2.27-.44,3.9-1,3.64l-1-.48,0-10.44Z"/><path class="cls-7" d="M3748.39,946.16c0,2.44-1.29,3.68-2.87,2.76s-2.87-3.63-2.87-6.07,1.29-3.68,2.87-2.76S3748.39,943.72,3748.39,946.16Z"/><path class="cls-7" d="M3745.52,932.86c-2.89-1.67-5.4-.62-6.68,2.31a3,3,0,0,0,.31,2.36h0c.55,1,1.35,1.19,1.67.44.89-2.09,2.67-2.83,4.7-1.65s3.81,4,4.69,7.07c.32,1.13,1.13,1.84,1.68,1.49h0c.43-.27.56-1.12.3-2C3750.92,938.48,3748.41,934.53,3745.52,932.86Z"/><path class="cls-7" d="M3745.52,925.79c-4.3-2.48-8.08-1.21-10.25,2.75a2.88,2.88,0,0,0,.24,2.47v0c.53.94,1.29,1.16,1.64.5,1.76-3.25,4.85-4.3,8.36-2.28s6.61,6.65,8.36,11.93c.36,1.08,1.12,1.74,1.65,1.4h0c.46-.29.55-1.25.24-2.19C3753.62,933.94,3749.82,928.27,3745.52,925.79Z"/><path class="cls-7" d="M3844.93,1004.85a.57.57,0,0,1-.15.44.26.26,0,0,1-.34,0l-.72-.42a.87.87,0,0,1-.34-.42,1.33,1.33,0,0,1-.15-.6V988.76l-2.88,1.71a.26.26,0,0,1-.35,0,1.11,1.11,0,0,1-.33-.47l-.43-1.09a1.44,1.44,0,0,1-.09-.6.47.47,0,0,1,.19-.39l3.81-2.3a.35.35,0,0,1,.28,0l.29.14.72.43a.79.79,0,0,1,.34.41,1.33,1.33,0,0,1,.15.6Z"/><path class="cls-7" d="M3849.14,995.1a.88.88,0,0,1,.33.41,1.39,1.39,0,0,1,.14.61V998a.59.59,0,0,1-.14.45.25.25,0,0,1-.33,0l-1.2-.69a.78.78,0,0,1-.33-.41,1.4,1.4,0,0,1-.15-.61v-1.84a.59.59,0,0,1,.15-.44c.08-.09.19-.1.33,0Zm0,9.6a.83.83,0,0,1,.33.41,1.33,1.33,0,0,1,.14.61v1.83a.57.57,0,0,1-.14.44.25.25,0,0,1-.33,0l-1.2-.69a.8.8,0,0,1-.33-.42,1.33,1.33,0,0,1-.15-.6v-1.84a.59.59,0,0,1,.15-.44c.08-.09.19-.1.33,0Z"/><path class="cls-7" d="M3857.9,1013.07a.9.9,0,0,1-.34-.41,1.33,1.33,0,0,1-.15-.6v-3.79l-5.58-3.23a.79.79,0,0,1-.34-.41,1.33,1.33,0,0,1-.15-.6v-1a2.23,2.23,0,0,1,.06-.42,1,1,0,0,1,.2-.37l5.62-8.1a.73.73,0,0,1,.31-.3.38.38,0,0,1,.38,0l.72.41a1,1,0,0,1,.34.42,1.46,1.46,0,0,1,.14.6v11.46l1.53.89a.9.9,0,0,1,.34.41,1.46,1.46,0,0,1,.14.6v1a.61.61,0,0,1-.14.44.26.26,0,0,1-.34,0l-1.53-.88V1013a.61.61,0,0,1-.14.44.25.25,0,0,1-.34,0Zm-.49-7.26v-7.74l-3.86,5.5Z"/><path class="cls-7" d="M3864.09,1012a9,9,0,0,0,.26,1,4.92,4.92,0,0,0,.47,1.06,6,6,0,0,0,.85,1,6.86,6.86,0,0,0,1.37,1,3.22,3.22,0,0,0,1,.4,1.39,1.39,0,0,0,.89-.14,1.59,1.59,0,0,0,.58-.74,3.65,3.65,0,0,0,.23-1.42,5.88,5.88,0,0,0-.22-1.62,4.79,4.79,0,0,0-.57-1.32,4.85,4.85,0,0,0-.87-1,6,6,0,0,0-1.08-.8l-1.49-.85a1,1,0,0,1-.33-.41,1.37,1.37,0,0,1-.15-.61v-1a.75.75,0,0,1,.1-.39l.18-.26,3.22-3.47-5.13-3a.93.93,0,0,1-.34-.42,1.33,1.33,0,0,1-.15-.6v-1a.57.57,0,0,1,.15-.44.26.26,0,0,1,.34,0l7,4a1,1,0,0,1,.34.41,1.67,1.67,0,0,1,.13.61v1a1,1,0,0,1-.32.75l-3.15,3.42a7.24,7.24,0,0,1,1.63,1.36,8.73,8.73,0,0,1,1.27,1.86,10,10,0,0,1,.81,2.23,10.2,10.2,0,0,1,.29,2.48,6.38,6.38,0,0,1-.35,2.31,2.8,2.8,0,0,1-.94,1.31,2.18,2.18,0,0,1-1.41.36,4.08,4.08,0,0,1-1.72-.58A8.85,8.85,0,0,1,3865,1017a8.66,8.66,0,0,1-1.42-2,8.43,8.43,0,0,1-.85-2,8.22,8.22,0,0,1-.29-1.94.49.49,0,0,1,.12-.36.21.21,0,0,1,.27,0l.82.48a.78.78,0,0,1,.32.35A1.92,1.92,0,0,1,3864.09,1012Z"/><polygon class="cls-3" points="3722.22 1532.59 3722.22 1259.81 4006.14 1423.73 4006.15 1696.53 3722.22 1532.59"/><polygon class="cls-12" points="3722.22 1532.59 3722.22 1259.81 4006.14 1423.73 4006.15 1696.53 3722.22 1532.59"/><path class="cls-3" d="M3924.58,1441.55c0,14.56,7.66,30.79,17.12,36.25s17.12-1.92,17.12-16.47-7.67-30.78-17.12-36.24S3924.58,1427,3924.58,1441.55Z"/><polygon class="cls-3" points="3722.22 1532.59 3722.22 1423.31 3809.38 1387.06 3911.5 1601.15 3877.14 1516.23 3926.52 1503.67 4006.14 1666.1 4006.15 1696.53 3722.22 1532.59"/><path class="cls-3" d="M3823.31,1610.5c7,4,12.6,14.8,12.6,24.08s-5.64,13.56-12.6,9.54-12.6-14.81-12.6-24.09S3816.35,1606.48,3823.31,1610.5Z"/><path class="cls-3" d="M3856.12,1631.32h0a9.59,9.59,0,0,1,4.75,1.45c6.81,3.93,12.36,14.54,12.36,23.65a13.63,13.63,0,0,1-2,7.82,6,6,0,0,1-5.07,2.72,9.59,9.59,0,0,1-4.76-1.45c-6.81-3.93-12.35-14.54-12.35-23.65,0-6.4,2.79-10.54,7.1-10.54m0-.5c-4.47,0-7.6,4.13-7.6,11,0,9.29,5.64,20.07,12.6,24.09a10.17,10.17,0,0,0,5,1.51c4.47,0,7.6-4.13,7.6-11,0-9.29-5.65-20.07-12.61-24.09a10.11,10.11,0,0,0-5-1.51Z"/><path class="cls-3" d="M3893.93,1653.15h0a9.56,9.56,0,0,1,4.75,1.45c6.81,3.93,12.36,14.54,12.36,23.65a13.56,13.56,0,0,1-2,7.82,6,6,0,0,1-5.07,2.72,9.57,9.57,0,0,1-4.75-1.44c-6.82-3.94-12.36-14.55-12.36-23.65,0-6.41,2.79-10.55,7.1-10.55m0-.5c-4.47,0-7.6,4.13-7.6,11,0,9.28,5.64,20.06,12.61,24.08a10,10,0,0,0,5,1.51c4.47,0,7.6-4.13,7.6-11,0-9.29-5.65-20.07-12.61-24.09a10.11,10.11,0,0,0-5-1.51Z"/><path class="cls-3" d="M3709.17,1044.4c0,13.59,7.16,28.75,16,33.85s16-1.79,16-15.39-7.16-28.75-16-33.85S3709.17,1030.8,3709.17,1044.4Z"/><path class="cls-7" d="M3726.66,1051.22c0,4,2.08,8.36,4.65,9.84s4.65-.52,4.65-4.47-2.08-8.36-4.65-9.84S3726.66,1047.27,3726.66,1051.22Z"/><path class="cls-10" d="M3776.24,1099.12a1.74,1.74,0,0,1,.66,1,4.22,4.22,0,0,1,.27,1.49v5a2.15,2.15,0,0,1-.27,1.18c-.19.27-.4.34-.66.19l-15.08-8.71a1.85,1.85,0,0,1-.66-.94,4.24,4.24,0,0,1-.27-1.5v-45.67a2.12,2.12,0,0,1,.27-1.18c.19-.28.41-.34.66-.19l2.79,1.61a1.8,1.8,0,0,1,.66.94,4.32,4.32,0,0,1,.27,1.5v38.74Z"/><path class="cls-10" d="M3788.06,1077.31a11.34,11.34,0,0,1,3.42,3.18,22.12,22.12,0,0,1,2.65,4.85,35,35,0,0,1,1.8,6,38.44,38.44,0,0,1,.77,6.52q0,.66,0,1.65v3.92c0,.64,0,1.16,0,1.58a26.4,26.4,0,0,1-.79,5.61,10.88,10.88,0,0,1-1.78,3.9,4.45,4.45,0,0,1-2.65,1.75,4.87,4.87,0,0,1-3.42-.78,11.21,11.21,0,0,1-3.43-3.17,22.67,22.67,0,0,1-2.65-4.83,32.66,32.66,0,0,1-1.78-5.93,41.46,41.46,0,0,1-.79-6.53c0-.44,0-1,0-1.63s0-1.29,0-2,0-1.32,0-2,0-1.18,0-1.6a24.28,24.28,0,0,1,.78-5.63,11.28,11.28,0,0,1,1.79-3.91,4.49,4.49,0,0,1,2.65-1.8A5,5,0,0,1,3788.06,1077.31Zm4.16,18.31a22.07,22.07,0,0,0-.5-3.93,13.43,13.43,0,0,0-1-2.86,7.46,7.46,0,0,0-1.27-1.9,6.54,6.54,0,0,0-1.41-1.14,3.65,3.65,0,0,0-1.42-.49,1.6,1.6,0,0,0-1.27.43,3.82,3.82,0,0,0-1,1.73,13.59,13.59,0,0,0-.5,3.35q0,.56-.06,1.38c0,.57,0,1.15,0,1.76s0,1.22,0,1.81,0,1.07.06,1.41a22,22,0,0,0,.5,3.93,13.33,13.33,0,0,0,1,2.87,7.56,7.56,0,0,0,1.27,1.9,6.58,6.58,0,0,0,1.42,1.13,3.58,3.58,0,0,0,1.41.5,1.61,1.61,0,0,0,1.27-.43,3.82,3.82,0,0,0,1-1.73,13.67,13.67,0,0,0,.5-3.35c0-.32,0-.77,0-1.37v-3.57C3792.26,1096.49,3792.25,1096,3792.22,1095.62Z"/><path class="cls-10" d="M3809,1098.61c-1.38-.79-2.38-.74-3,.15s-.91,2.76-.91,5.59v18.38a2.18,2.18,0,0,1-.28,1.19c-.19.27-.4.33-.65.18l-2.62-1.51a1.85,1.85,0,0,1-.66-.94,4.33,4.33,0,0,1-.27-1.51V1087.2a2.15,2.15,0,0,1,.27-1.18.46.46,0,0,1,.66-.19l2.62,1.52a1.75,1.75,0,0,1,.65.94,4.25,4.25,0,0,1,.28,1.5v1.63a4.08,4.08,0,0,1,1.91-1.52,3.43,3.43,0,0,1,2.66.63l1.56.89a1.78,1.78,0,0,1,.65.94,4.33,4.33,0,0,1,.27,1.51v4.66a2.12,2.12,0,0,1-.27,1.18.44.44,0,0,1-.65.19Z"/><path class="cls-10" d="M3813.88,1111.31a39.32,39.32,0,0,1,.59-7.12,16.55,16.55,0,0,1,1.68-5.1,5.29,5.29,0,0,1,2.67-2.53,4.07,4.07,0,0,1,3.5.53,10.85,10.85,0,0,1,3.49,3.47,25,25,0,0,1,2.67,5.43,38,38,0,0,1,1.7,6.71,43.23,43.23,0,0,1,.61,7.24v3.18a2.18,2.18,0,0,1-.28,1.19.44.44,0,0,1-.65.18l-11.5-6.64a12.85,12.85,0,0,0,.33,3.05,12.21,12.21,0,0,0,.87,2.6,9.87,9.87,0,0,0,1.27,2,5.87,5.87,0,0,0,1.49,1.27,3.23,3.23,0,0,0,1.79.58,1.8,1.8,0,0,0,1.13-.51,2,2,0,0,1,.62-.42.88.88,0,0,1,.66.16l2.75,1.59a1.78,1.78,0,0,1,.67,1,3.5,3.5,0,0,1,.26,1.49,6.91,6.91,0,0,1-.53,2.24,5.76,5.76,0,0,1-1.5,2.17,4.55,4.55,0,0,1-2.46,1.12,5.26,5.26,0,0,1-3.39-.9,11,11,0,0,1-3.5-3.39,23,23,0,0,1-2.67-5.46,40.13,40.13,0,0,1-1.68-7A53.69,53.69,0,0,1,3813.88,1111.31Zm8.44-5.73a2.31,2.31,0,0,0-1.71-.39,2.15,2.15,0,0,0-1.19.87,5.1,5.1,0,0,0-.73,1.7,10.11,10.11,0,0,0-.33,2l7.78,4.5c0-.74-.13-1.53-.26-2.38a13.24,13.24,0,0,0-.62-2.48,9.43,9.43,0,0,0-1.14-2.21A5.56,5.56,0,0,0,3822.32,1105.58Z"/><path class="cls-10" d="M3839,1111a3.83,3.83,0,0,1,2-2,2.83,2.83,0,0,1,2.45.31A9.56,9.56,0,0,1,3847,1113a23.16,23.16,0,0,1,2.17,5.6,6.27,6.27,0,0,1,1.1-1.91,4.35,4.35,0,0,1,1.39-1.1,3,3,0,0,1,1.54-.29,3.88,3.88,0,0,1,1.55.51,9.52,9.52,0,0,1,3.27,3.23,19.74,19.74,0,0,1,2.11,4.83,31.7,31.7,0,0,1,1.14,5.92,63.38,63.38,0,0,1,.33,6.52v19a2.07,2.07,0,0,1-.28,1.19.45.45,0,0,1-.65.19l-2.62-1.51a1.78,1.78,0,0,1-.65-.94,4.12,4.12,0,0,1-.28-1.51v-18.66a22.29,22.29,0,0,0-.89-7.23,6.11,6.11,0,0,0-2.52-3.36,1.65,1.65,0,0,0-2.36.47q-1,1.27-1.05,5.83v19a2.16,2.16,0,0,1-.27,1.19.46.46,0,0,1-.66.19l-2.61-1.51a1.82,1.82,0,0,1-.66-1,4.25,4.25,0,0,1-.28-1.5v-18.66a22,22,0,0,0-.89-7.23,6.14,6.14,0,0,0-2.52-3.37,1.65,1.65,0,0,0-2.4.56q-1,1.37-1,6.1v18.66a2.07,2.07,0,0,1-.28,1.19.44.44,0,0,1-.65.18l-2.62-1.51a1.74,1.74,0,0,1-.65-.94,4.07,4.07,0,0,1-.28-1.5v-32.94a2,2,0,0,1,.28-1.18.43.43,0,0,1,.65-.19l2.62,1.51a1.74,1.74,0,0,1,.65.94,4,4,0,0,1,.28,1.5Z"/><path class="cls-10" d="M3876.11,1134.93c-.08,3.88-.08,7.83,0,11.88q.12,8.14,2,12.8c1.21,3.1,2.88,5.27,5,6.48a6.6,6.6,0,0,0,2.53.94,2.51,2.51,0,0,0,2-.63,5.89,5.89,0,0,0,1.5-2.49,21.53,21.53,0,0,0,1-4.72,1.74,1.74,0,0,1,.27-1,.38.38,0,0,1,.48,0l.69.4a1.33,1.33,0,0,1,.54.69,2.54,2.54,0,0,1,.18,1.14,26.46,26.46,0,0,1-.58,4.89,11.11,11.11,0,0,1-1.62,4,5,5,0,0,1-2.82,2,5.71,5.71,0,0,1-4.17-1,12.57,12.57,0,0,1-4-3.78,23.23,23.23,0,0,1-2.8-5.62,36.25,36.25,0,0,1-1.67-7,62,62,0,0,1-.62-8c-.05-2-.07-4-.07-6.26s0-4.33.07-6.32a47.21,47.21,0,0,1,.62-7.28,15.07,15.07,0,0,1,1.67-5.12,4.82,4.82,0,0,1,2.8-2.37,5.34,5.34,0,0,1,4,.88,13.08,13.08,0,0,1,4.17,3.86,24.64,24.64,0,0,1,2.82,5.3,31,31,0,0,1,1.62,5.85,38.5,38.5,0,0,1,.58,5.57,1.31,1.31,0,0,1-.18.91.39.39,0,0,1-.54.08l-.69-.39a1.38,1.38,0,0,1-.48-.6,3.83,3.83,0,0,1-.27-1.33,39.94,39.94,0,0,0-1-5.82,20.86,20.86,0,0,0-1.5-4.22,11.56,11.56,0,0,0-2-3,11.68,11.68,0,0,0-2.53-2c-2.11-1.22-3.78-1-5,.72S3876.19,1129.62,3876.11,1134.93Z"/><path class="cls-10" d="M3903.69,1144.07a10.2,10.2,0,0,1,3.27,3.13,20,20,0,0,1,2.36,4.76,32.82,32.82,0,0,1,1.44,6,48.8,48.8,0,0,1,.57,6.69c0,.38,0,.83,0,1.36s0,1.07,0,1.63,0,1.12,0,1.66,0,1,0,1.29a36,36,0,0,1-.57,6,13.44,13.44,0,0,1-1.44,4.29,3.67,3.67,0,0,1-5.63,1.37,10,10,0,0,1-3.27-3.12,20.54,20.54,0,0,1-2.37-4.76,34.89,34.89,0,0,1-1.46-6,46,46,0,0,1-.55-6.69c0-.33,0-.77,0-1.31s0-1.11,0-1.67,0-1.11,0-1.62,0-.95,0-1.34a34,34,0,0,1,.55-6,13.76,13.76,0,0,1,1.46-4.28,4.25,4.25,0,0,1,2.37-2A4.16,4.16,0,0,1,3903.69,1144.07Zm5.54,19.67a30.58,30.58,0,0,0-1.62-10.15c-1-2.69-2.32-4.49-3.92-5.42a2.62,2.62,0,0,0-3.93.88c-1,1.51-1.55,4.28-1.62,8.29,0,.69,0,1.56,0,2.6s0,1.91,0,2.63a30.59,30.59,0,0,0,1.62,10.16q1.51,4,3.93,5.42a2.62,2.62,0,0,0,3.92-.88q1.51-2.28,1.62-8.29c0-.7,0-1.56,0-2.6S3909.25,1164.46,3909.23,1163.74Z"/><path class="cls-10" d="M3918.18,1157.18a4.82,4.82,0,0,1,2-2.33,3.11,3.11,0,0,1,2.9.43,9.18,9.18,0,0,1,3.34,3.63,22.64,22.64,0,0,1,2.16,6.2,5.88,5.88,0,0,1,2.33-3.5,3.31,3.31,0,0,1,3.53.24,8.15,8.15,0,0,1,2.55,2.45,17.36,17.36,0,0,1,2,4.07,31.21,31.21,0,0,1,1.36,5.56,45.21,45.21,0,0,1,.5,7v20.57c0,1-.25,1.41-.75,1.12l-.59-.34c-.51-.29-.76-1-.76-2V1180.4a41.16,41.16,0,0,0-.38-6,21.13,21.13,0,0,0-1-4.28,10,10,0,0,0-1.49-2.8,6.43,6.43,0,0,0-1.77-1.59,2.63,2.63,0,0,0-1.6-.37,2.2,2.2,0,0,0-1.49,1.09,8.83,8.83,0,0,0-1.08,3.06,28.89,28.89,0,0,0-.41,5.52v19.86c0,1-.26,1.41-.76,1.12l-.59-.34c-.5-.29-.75-1-.75-2v-19.86a37.23,37.23,0,0,0-.42-6,23.27,23.27,0,0,0-1.06-4.3,10.48,10.48,0,0,0-1.5-2.81,6.28,6.28,0,0,0-1.71-1.54,2.54,2.54,0,0,0-1.6-.37,2.19,2.19,0,0,0-1.48,1.1,8.39,8.39,0,0,0-1.08,3,28.28,28.28,0,0,0-.42,5.49v19.93c0,1-.25,1.41-.75,1.12l-.59-.34c-.5-.29-.76-1-.76-2v-33.65c0-1,.26-1.41.76-1.12l.59.35c.5.28.75,1,.75,2Z"/><path class="cls-10" d="M3954.23,1211.43a9.63,9.63,0,0,1-3.54-3.67,25.54,25.54,0,0,1-2.24-5.26v16.76c0,1-.25,1.41-.76,1.12l-.58-.34c-.51-.29-.76-1-.76-2V1171c0-1,.25-1.41.76-1.12l.58.34c.51.29.76,1,.76,2v3.32a5.64,5.64,0,0,1,2.24-2.7c.92-.53,2.1-.38,3.54.46a9.65,9.65,0,0,1,3.4,3.41,21.67,21.67,0,0,1,2.26,5.11,37,37,0,0,1,1.25,6.1q.39,3.24.47,6.39c0,.71,0,1.5,0,2.35s0,1.62,0,2.31a51,51,0,0,1-.47,5.85,16.79,16.79,0,0,1-1.25,4.64,4.81,4.81,0,0,1-2.26,2.52A3.66,3.66,0,0,1,3954.23,1211.43Zm-5.78-25c0,.69,0,1.61,0,2.74s0,2,0,2.77a35.8,35.8,0,0,0,.36,4.49,25.48,25.48,0,0,0,1,4.44,18,18,0,0,0,1.72,3.78,7.17,7.17,0,0,0,2.48,2.53,2.73,2.73,0,0,0,2.53.4,3.54,3.54,0,0,0,1.65-1.91,12.91,12.91,0,0,0,.93-3.63,45,45,0,0,0,.37-4.71q0-2,0-4c-.05-1.72-.17-3.41-.37-5.08a27.19,27.19,0,0,0-.93-4.67,15.9,15.9,0,0,0-1.65-3.85,7,7,0,0,0-2.53-2.56,2.55,2.55,0,0,0-2.51-.32,4,4,0,0,0-1.71,1.95,13.09,13.09,0,0,0-1,3.42A27.89,27.89,0,0,0,3948.45,1186.46Z"/><path class="cls-10" d="M3978,1224.44c-.51-.29-.76-1-.76-2v-3.32a6.66,6.66,0,0,1-.81,1.51,3.25,3.25,0,0,1-1.22,1.06,3.49,3.49,0,0,1-1.72.31,5.27,5.27,0,0,1-2.34-.82,8.19,8.19,0,0,1-2.37-2.17,17.56,17.56,0,0,1-2-3.36,22.38,22.38,0,0,1-1.34-4.1,20.26,20.26,0,0,1-.5-4.46,13.93,13.93,0,0,1,.5-4,6.26,6.26,0,0,1,1.4-2.56,3.83,3.83,0,0,1,2.14-1.15,6.14,6.14,0,0,1,2.78.21l5.44,1.59v-2.47a17.64,17.64,0,0,0-1.12-6.59,8.25,8.25,0,0,0-3.56-4.18c-1.29-.74-2.28-.81-3-.2a4.17,4.17,0,0,0-1.32,2.53,2.13,2.13,0,0,1-.33,1c-.12.15-.29.15-.49,0l-.49-.27a1.49,1.49,0,0,1-.53-.77,3.44,3.44,0,0,1-.23-1.23,9,9,0,0,1,.35-2.27,6,6,0,0,1,1.12-2.25,3.67,3.67,0,0,1,2-1.3,3.93,3.93,0,0,1,2.93.66,10.49,10.49,0,0,1,3.35,3.07A16.44,16.44,0,0,1,3978,1191a24,24,0,0,1,1.05,4.6,37.48,37.48,0,0,1,.29,4.48v23.54c0,1-.25,1.41-.76,1.12Zm-6.51-7.15a3.15,3.15,0,0,0,2.22.47,2.91,2.91,0,0,0,1.84-1.38,9.33,9.33,0,0,0,1.24-3.38,28.49,28.49,0,0,0,.45-5.54v-2.4l-4.44-1.29q-5.72-1.68-5.72,4.19a12.58,12.58,0,0,0,.4,3.27,13.18,13.18,0,0,0,1,2.7,9,9,0,0,0,1.41,2.06A7,7,0,0,0,3971.49,1217.29Z"/><path class="cls-10" d="M3999.69,1235.41c0,1-.25,1.41-.76,1.12l-.58-.34c-.51-.29-.76-1-.76-2v-19.72a30.62,30.62,0,0,0-1.34-9.65q-1.34-4-3.93-5.48t-4,.89q-1.49,2.33-1.48,8V1228c0,1-.25,1.4-.76,1.11l-.58-.34c-.5-.29-.76-1-.76-2v-33.66c0-1,.26-1.4.76-1.11l.58.33c.51.3.76,1,.76,2v3.32a6.32,6.32,0,0,1,2.24-2.74c.87-.53,2.05-.37,3.54.49a9.25,9.25,0,0,1,3.07,3,19.28,19.28,0,0,1,2.19,4.58,32.52,32.52,0,0,1,1.32,5.78,46.5,46.5,0,0,1,.45,6.56Z"/><path class="cls-10" d="M4009.09,1254.76a1.8,1.8,0,0,1-.27.59c-.12.14-.29.15-.52,0l-.69-.4a1.37,1.37,0,0,1-.48-.71,3,3,0,0,1-.21-1.1,7,7,0,0,1,.21-1.29l2.65-11.2-6.58-35.6a11.14,11.14,0,0,1-.2-1.54,1.51,1.51,0,0,1,.2-.87.33.33,0,0,1,.49-.14l.72.41a1.22,1.22,0,0,1,.51.62,5,5,0,0,1,.28.9l5.79,31.33,5.92-24.57a1.9,1.9,0,0,1,.27-.59c.12-.14.29-.14.52,0l.69.4a1.38,1.38,0,0,1,.48.7,3.13,3.13,0,0,1,.21,1.12,7.28,7.28,0,0,1-.21,1.29Z"/></g><g id="Character"><path class="cls-15" d="M3545,613.64c-22.4-17.72-28.6-9-28.47,13.34.1,16.52-3.42,27.78-3.42,27.78-2.23-6.65-3.2-9.69-5.36-12.86-4.28-6.31-10.17-5.77-12.55-4.41-1.85,1,1.12,5.43,1.84,14,.93,11-1.88,17.48,2.07,28.8a18.71,18.71,0,0,1-.41,13.06c-7.64,19.35-34.4,51.42-55,79.27-15.92-18.4-56.62-65.56-72.3-84.76-27-33.06-35.24-47.36-65.86-50,0,0,11.18,5.38,23.4,19.42s-1.6,81.5-1.6,81.5,92.74,90.81,102.36,99.57a43.74,43.74,0,0,0,9.13,6.08,25.94,25.94,0,0,0,30.65-9.79c19.29-28.25,47.17-81.55,60.06-111.34,7.4-17.08,15.34-30.61,19.45-41.9C3563.18,642.31,3559,624.75,3545,613.64Z"/><path class="cls-3" d="M3308.84,636.55s22-2.28,40.34,16.72c15.8,16.33,81.14,98,81.14,98s-3.64,37.39-45.73,53.57l-83.39-80.38Z"/><path class="cls-16" d="M3308.84,636.55s22-2.28,40.34,16.72c15.8,16.33,81.14,98,81.14,98s-3.64,37.39-45.73,53.57l-83.39-80.38Z"/><rect class="cls-15" x="3166.66" y="1481.78" width="40.09" height="71.47"/><polygon class="cls-15" points="3305.65 1477.97 3345.72 1479.4 3347.72 1403.76 3305.65 1402.33 3305.65 1477.97"/><path class="cls-11" d="M3161,863c0,39.87,5.87,360.73,5.87,360.73-.93,11.48-11.26,32.63-9,76.69,3,59.86,7.08,217.15,7.08,217.15s19.46,11.85,44.63.92c0,0,37.92-217.86,45.11-277.18,6.26-51.77,16.9-226.06,16.9-226.06l21.73,202.66a246.92,246.92,0,0,0-5,66.35c1.87,27.44,14.77,170.33,14.77,170.33s18.87,13.33,46.28,3.69c0,0,22.8-215.2,23.27-240.37.53-28.7-13.33-355.34-13.33-355.34Z"/><path class="cls-9" d="M3206.75,1532.65v-6c3.84,1.74,12.75,37.15,28.66,52.26,12.64,12,29.89,25.89,34.28,39.28,4.56,13.93-24,21.62-35.84,19.44-13.72-2.53-37.52-12.6-43.49-21.93s-8.77-23.1-13.62-29.94-16-14.47-18.66-22.39c-1.44-4.34.27-13.87,2.29-21.91,1.86-7.39,3.87-15.5,6.29-14.81,0,.9,0,4.55,0,4.55,2.92,3.36,11,6.69,20.05,7.06C3192.57,1538.52,3206.8,1537.31,3206.75,1532.65Z"/><path class="cls-9" d="M3346.14,1466.53c2.08.08,3.78,3.13,8.37,8.31,5.55,6.26,14.62,13,23.58,17.67,15,7.83,44.19,19.87,57.4,26.06,8.25,3.88,7.87,14.26-.66,20.16s-29.12,10.17-53.85,4.41c-13.47-3.14-31-16.1-42.1-15.4s-31.87.53-40.06-5.35-4.91-18.44-2.6-29.23c2.53-11.78,5.69-30.15,9.43-29.34v4.06c4.82,7.6,29.69,10.69,40.28,5.09Z"/><path class="cls-9" d="M3271.59,1015.2s32-9.4,55.82-33.34c0,0-10.77,21-42.8,40.55l6.85,181Z"/><path class="cls-3" d="M3180.48,643.66s-30,4.69-27.74,64.45l6.93,95.2L3159,946.17c29.47,33.4,160.16,31,204.9-2.68,0,0-4.61-169.06-7.63-234.11-2.15-46.25-12.79-69.54-58.25-74.63l-57.82-4.61Z"/><path class="cls-11" d="M3236.39,505.72c0,34.33,26.72,62.16,59.68,62.16s59.68-27.83,59.68-62.16-26.72-62.16-59.68-62.16S3236.39,471.39,3236.39,505.72Z"/><path class="cls-11" d="M3195.13,534.23s9.16,44.79,12.83,52.15a19.53,19.53,0,0,0,11.25,9.45l-.64-31.51Z"/><path class="cls-11" d="M3206.62,470.06s-6.56-1.64-13.53,9.25c-6,9.34-7.34,30.32,2,54.92l17.25,2.06Z"/><path class="cls-15" d="M3217.55,536.3c-3.46,2.15-8.39-4.76-12.66-9.41s-18.18-11-25.12,4.24c-7.08,15.53,6.47,35.13,17.08,39.63,14.39,6.11,21.72-6.44,21.72-6.44l1.44,78.35c25.08,38.78,81.86,37.38,61.45-1.88l-.06-29s17.11,2.7,25.46,1.36c13.89-2.24,22.63-13.65,26.84-29.31,6.77-25.14,9.33-45.45,3.59-94.91-6.29-54.21-66.83-54.77-99.52-33.34S3217.55,536.3,3217.55,536.3Z"/><path class="cls-11" d="M3217.55,542.36c-1.74,0-8.35-11.39-12.66-15.47-6-5.65,1.73-56.83,1.73-56.83s-5.73-12.72,5.76-25.89c8.17-9.36,21.82-10.4,45.13-14.22,9.08-1.48,18.78-2.47,27.63-5,9.48-2.68,18.81-9,27.63-13.45,2.93-1.48,6.19-3,9.35-2.15s5.16,3.72,6,6.76.48,6.26.17,9.39c5.4-6,16-5.09,21.47.76s6.28,15.13,3.35,22.63-9,13.38-15.64,17.88c-29.3,19.78-63.87,14.29-96.67,10.4a8.88,8.88,0,0,0-4.67.31c-5.13,2.33-6.23,18.28-7.13,22.89C3225.91,515.92,3223.39,542.24,3217.55,542.36Z"/><path class="cls-11" d="M3206.66,472.76l-20.91-11.69c3-6.24,10.05-8.68,15.83-5.45S3209.62,466.52,3206.66,472.76Z"/><path class="cls-17" d="M3281.4,611.8s-31-6.51-41.84-12.51c-7.25-4-13.22-11-15-15.44a51.88,51.88,0,0,0,8.51,18.21c7.93,10.56,48.31,18.33,48.31,18.33Z"/><path class="cls-9" d="M3270.19,526.39a6.23,6.23,0,1,1-6.21-6.74A6.46,6.46,0,0,1,3270.19,526.39Z"/><path class="cls-9" d="M3259.52,499.49l-13.29,7.64a8.48,8.48,0,0,1,3.1-11A7.27,7.27,0,0,1,3259.52,499.49Z"/><path class="cls-17" d="M3278.6,572.93l14.18,5.54a7.38,7.38,0,0,1-9.63,4.9A8.36,8.36,0,0,1,3278.6,572.93Z"/><path class="cls-9" d="M3332.25,505.72l-14-6.81a7.17,7.17,0,0,1,9.9-4A8.62,8.62,0,0,1,3332.25,505.72Z"/><path class="cls-9" d="M3325.34,526.39a6.23,6.23,0,1,1-6.21-6.74A6.46,6.46,0,0,1,3325.34,526.39Z"/><polygon class="cls-17" points="3287.84 521.58 3288.56 560.82 3310.83 555.71 3287.84 521.58"/><path class="cls-9" d="M3261.76,510.37a16.52,16.52,0,0,0,0,33h3a16.52,16.52,0,0,0,0-33Zm-19.51,16.52A19.71,19.71,0,0,1,3261.76,507h3a19.87,19.87,0,0,1,0,39.74h-3A19.71,19.71,0,0,1,3242.25,526.89Z"/><path class="cls-9" d="M3321.23,510.37a16.52,16.52,0,0,0,0,33h3a16.52,16.52,0,0,0,0-33Zm-19.51,16.52A19.71,19.71,0,0,1,3321.23,507h3a19.87,19.87,0,0,1,0,39.74h-3A19.71,19.71,0,0,1,3301.72,526.89Z"/><path class="cls-9" d="M3284,523c1.81-3,5.85-5.12,10.31-5.35,3.83-.2,7.22,1.09,9,3.46l2.62-2c-2.46-3.3-6.75-5-11.78-4.77-5.6.29-10.55,3-12.94,7Z"/><path class="cls-9" d="M3202.72,525H3244v-3.15h-48.24A19,19,0,0,1,3202.72,525Z"/><path class="cls-15" d="M3085.92,779.68c12.59-31.77,23.59-57,37.82-87.06,15.1-31.92,23.77-46.26,53-47.48,0,0,6.68,20.69,5.28,60.08-.66,18.6-19.7,49.49-19.7,49.49S3118.9,828,3110,837.49c-5,5.38-6.13,7.85-13,10.94"/><path class="cls-3" d="M3180.48,643.66s-32.53-1.95-44.42,19.3c-15.13,27-45.34,96.29-45.34,96.29s24.61,28.39,53.7,35.91c0,0,28.45-53.54,36.32-71.34C3190.31,691.57,3186.47,661.62,3180.48,643.66Z"/><path class="cls-18" d="M3180.48,643.66s-32.53-1.95-44.42,19.3c-15.13,27-45.34,96.29-45.34,96.29s24.61,28.39,53.7,35.91c0,0,28.45-53.54,36.32-71.34C3190.31,691.57,3186.47,661.62,3180.48,643.66Z"/><path class="cls-15" d="M3097,848.43a26,26,0,0,1-31.09-8.31c-20.62-27.29-60.24-89.46-77.29-117.08-8-12.95-17.73-29.17-22.38-40.24-16.13-38.43-12.79-56.18.69-67.95,21.53-18.78,28.14-10.41,29.08,12,.7,16.5,4.76,27.58,4.76,27.58,1.91-6.75,2.73-9.84,4.73-13.11,4-6.5,9.89-6.24,12.33-5,1.9,1-.86,5.49-1.17,14.1-.39,11,2.73,17.37-.68,28.86-1.28,4.31.84,8.87,2.69,13C3028,713,3067.12,757,3093.26,783.9"/><line class="cls-19" x1="3039.86" y1="657.54" x2="3470.77" y2="657.54"/><polyline class="cls-19" points="3443.65 632.57 3478.2 657.54 3443.65 682.52"/><polyline class="cls-19" points="3074.41 632.57 3039.86 657.54 3074.41 682.52"/></g></svg>