<svg xmlns="http://www.w3.org/2000/svg" viewBox="0 0 5694.64 3000"><defs><style>.cls-1{fill:#ce3045;}.cls-2{fill:#b32c39;}.cls-3{fill:#f5846f;}.cls-4{fill:#27689e;}.cls-5{fill:#004e7f;}.cls-6{fill:#5b7fad;}.cls-7{fill:#005f94;}.cls-8{fill:#f7996a;}.cls-9{fill:#fcbf8d;}.cls-10{isolation:isolate;}.cls-11{fill:#625ab7;}.cls-12{fill:#7a6fb9;}.cls-13{fill:#918fea;}.cls-14{fill:#838bc5;}</style></defs><g id="HTML"><path class="cls-1" d="M3522,674.55,2993.64,369.49c-61.19-35.33-278.8,31.83-291.61,24.43a1,1,0,0,1-.6-.89l-.62,220.37a1,1,0,0,0,.59.89c12.82,7.4,230.43-59.75,291.61-24.43l528.38,305.06c13,7.53,18.07,19.19,18,33l.63-220.37C3540.08,693.74,3535.06,682.08,3522,674.55Z"/><path class="cls-2" d="M3649,749.35l-151.42,88c-9.59,5.57-14.8,7.37-16.82,6.2a2.28,2.28,0,0,1-1-2.19l-.63,220.38a2.3,2.3,0,0,0,1,2.18c2,1.17,7.24-.62,16.82-6.19l151.42-88c35-20.32,52.47-46.91,52.54-73.54l.63-220.38C3701.49,702.44,3684,729,3649,749.35Z"/><path class="cls-3" d="M3648.19,601.22c70.84,40.9,71.21,107.23.84,148.13l-151.42,88c-9.59,5.57-14.8,7.37-16.82,6.2-12.81-7.4,102.41-133.67,41.23-169L2993.64,369.49c-61.19-35.33-278.8,31.83-291.61,24.43-2-1.17,1-4.19,10.64-9.76l151.42-88c70.37-40.9,184.89-40.9,255.72,0Z"/><path class="cls-2" d="M1225.88,1248.67l-.62,220.38c0,14.34-60.11,86.51-60.24,133.84l.62-220.38C1165.78,1335.18,1225.84,1263,1225.88,1248.67Z"/><path class="cls-1" d="M1993,1705.85l-151.42,88c-70.38,40.9-184.89,40.9-255.73,0l-528.34-305c-35.65-20.58-53.45-47.6-53.37-74.58l-.63,220.37c-.07,27,17.73,54,53.38,74.58l528.34,305c70.84,40.9,185.35,40.9,255.73,0l151.42-88c7.74-4.5,11.24-7.34,11.24-8.88l.62-220.38C2004.19,1698.52,2000.69,1701.35,1993,1705.85Z"/><path class="cls-3" d="M2003.6,1696.08c2,1.17-1,4.19-10.65,9.77l-151.42,88c-70.38,40.9-184.89,40.9-255.73,0l-528.34-305c-70.84-40.9-71.21-107.23-.83-148.13l151.42-88c9.6-5.58,14.81-7.38,16.83-6.21,12.81,7.42-102.39,133.66-41.21,169l528.35,305C1773.2,1755.83,1990.79,1688.68,2003.6,1696.08Z"/><polygon class="cls-4" points="3136.16 806.32 3135.87 912.1 2917.43 1039.04 2917.73 933.26 3136.16 806.32"/><polygon class="cls-5" points="2917.73 933.26 2917.43 1039.04 2612.71 863.12 2613.01 757.34 2917.73 933.26"/><polygon class="cls-6" points="3136.16 806.32 2917.73 933.26 2613.01 757.34 2678.76 719.13 2927.03 862.47 3079.72 773.74 3136.16 806.32"/><polygon class="cls-7" points="2548.1 870.68 2547.8 976.46 2544.27 978.51 2544.57 872.74 2548.1 870.68"/><polygon class="cls-7" points="2356.55 982 2356.26 1087.78 2352.72 1089.83 2353.02 984.05 2356.55 982"/><path class="cls-5" d="M2641.39,926.61q-20-11.55-40-23.36T2567,882.34q-14.46-9.06-18.89-11.66l-.3,105.78q4.45,2.58,18.89,11.66t34.42,20.91q20,11.84,40,23.36l144.37,83.35.3-105.78Z"/><polygon class="cls-4" points="2850.65 972.25 2850.35 1078.03 2785.46 1115.74 2785.76 1009.96 2850.65 972.25"/><path class="cls-5" d="M2594.67,1000.83c-5.5-4.84-11.35-10.12-17.61-15.76s-12-11.19-17.36-16.67L2447.5,853.52l-.3,105.78,112.2,114.88c5.36,5.48,11.17,11,17.36,16.67s12.11,10.92,17.61,15.76,10.44,8.93,14.86,12.2l.3-105.78C2605.11,1009.76,2600.17,1005.71,2594.67,1000.83Z"/><polygon class="cls-4" points="2718.67 1048.94 2718.37 1154.72 2661.03 1188.05 2661.33 1082.27 2718.67 1048.94"/><path class="cls-5" d="M2445.74,1013c-8-2.57-17.3-5.66-27.95-9.23s-21.45-7.45-32.38-11.54-20.55-7.53-28.86-10.26l-.3,105.78c8.31,2.73,17.9,6.16,28.86,10.26s21.73,7.93,32.38,11.54,20,6.66,28,9.23L2661,1188.05l.3-105.78Z"/><polygon class="cls-4" points="2594.69 1120.99 2594.39 1226.77 2532.59 1262.69 2532.89 1156.91 2594.69 1120.99"/><path class="cls-6" d="M2850.65,972.25,2785.76,1010l-144.37-83.35q-20-11.55-40-23.36T2567,882.34q-14.46-9.06-18.89-11.66l-3.53,2.06c2.7,2.23,7.26,6.49,13.8,12.81s13.42,13,20.69,20.13,13.43,13.31,18.48,18.62l121.13,124.64-57.34,33.33L2445.75,1013q-12-3.85-28-9.23t-32.38-11.54c-11-4.1-20.55-7.53-28.86-10.26l-3.53,2c8.32,4.44,18.12,9.79,29.55,16s23.09,12.66,35.1,19.24,22.88,12.69,32.65,18.33L2594.69,1121l-61.8,35.92L2228.17,981l100.18-58.22,199.15,64.88c7.41,2.21,15.82,5,25.3,8.45s18.93,6.75,28.37,10,17.76,6.24,24.86,8.95l3.5-2c-4.42-3.27-9.36-7.32-14.86-12.2s-11.35-10.12-17.61-15.76-12-11.19-17.36-16.67L2447.5,853.52l98.43-57.2Z"/><polygon class="cls-5" points="2532.89 1156.91 2532.59 1262.69 2227.87 1086.76 2228.17 980.98 2532.89 1156.91"/><polygon class="cls-5" points="2239.13 1038.92 2238.83 1144.7 2141.29 1201.38 2141.59 1095.6 2239.13 1038.92"/><polygon class="cls-5" points="2075.4 1134.07 2075.1 1239.85 1978 1296.28 1978.3 1190.5 2075.4 1134.07"/><polygon class="cls-4" points="1978.3 1190.5 1978 1296.28 1922.49 1264.23 1922.79 1158.45 1978.3 1190.5"/><polygon class="cls-5" points="2324.6 1277.95 2324.3 1383.73 2075.1 1239.85 2075.4 1134.07 2324.6 1277.95"/><polygon class="cls-4" points="2390.8 1239.48 2390.5 1345.26 2324.3 1383.73 2324.6 1277.95 2390.8 1239.48"/><polygon class="cls-6" points="2239.13 1038.92 2141.59 1095.6 2390.8 1239.48 2324.6 1277.95 2075.4 1134.07 1978.3 1190.5 1922.79 1158.45 2183.62 1006.87 2239.13 1038.92"/><polygon class="cls-5" points="1933.28 1292.32 1932.98 1398.1 1812.16 1328.35 1812.46 1222.57 1933.28 1292.32"/><polygon class="cls-5" points="2117.18 1398.49 2116.88 1504.27 1988.94 1430.41 1989.24 1324.63 2117.18 1398.49"/><polygon class="cls-4" points="2182.92 1360.29 2182.62 1466.07 2116.88 1504.27 2117.18 1398.49 2182.92 1360.29"/><polygon class="cls-7" points="1989.24 1324.63 1988.94 1430.41 1854.77 1508.38 1855.07 1402.6 1989.24 1324.63"/><polygon class="cls-5" points="1917.26 1514.67 1916.96 1620.45 1612.24 1444.52 1612.54 1338.74 1917.26 1514.67"/><polygon class="cls-4" points="1983.01 1476.46 1982.71 1582.24 1916.96 1620.45 1917.26 1514.67 1983.01 1476.46"/><polygon class="cls-6" points="2182.92 1360.29 2117.18 1398.49 1989.24 1324.63 1855.07 1402.6 1983.01 1476.46 1917.26 1514.67 1612.54 1338.74 1678.29 1300.54 1799.12 1370.29 1933.28 1292.32 1812.46 1222.57 1878.21 1184.36 2182.92 1360.29"/></g><g id="CSS"><path class="cls-3" d="M4480.39,1369.66l-526.26-303.83c-60.94-35.18-277.68,31.7-290.44,24.33a1,1,0,0,1-.59-.89l-.62,219.49a1,1,0,0,0,.59.89c12.76,7.37,229.5-59.51,290.44-24.33l526.26,303.83c13,7.5,18,19.12,17.95,32.82l.63-219.49C4498.38,1388.78,4493.38,1377.16,4480.39,1369.66Z"/><path class="cls-8" d="M4606.89,1444.16l-150.81,87.65c-9.55,5.55-14.74,7.33-16.75,6.17a2.27,2.27,0,0,1-1-2.18l-.62,219.49a2.28,2.28,0,0,0,1,2.18c2,1.16,7.21-.63,16.76-6.17l150.81-87.65c34.82-20.23,52.25-46.72,52.33-73.25l.62-219.49C4659.14,1397.44,4641.71,1423.93,4606.89,1444.16Z"/><path class="cls-9" d="M4606.06,1296.63c70.55,40.74,70.92,106.8.83,147.53l-150.81,87.65c-9.55,5.55-14.74,7.33-16.75,6.17-12.76-7.37,102-133.13,41.06-168.32l-526.26-303.83c-60.94-35.18-277.68,31.7-290.44,24.33-2-1.16,1-4.17,10.6-9.72L3825.1,992.8c70.09-40.74,184.15-40.74,254.7,0Z"/><path class="cls-3" d="M2193.47,1941.48l-.62,219.49c0,14.29-59.87,86.17-60,133.31l.62-219.49C2133.61,2027.65,2193.43,1955.77,2193.47,1941.48Z"/><path class="cls-8" d="M2957.46,2396.83l-150.81,87.64c-70.1,40.74-184.15,40.74-254.7,0l-526.23-303.81c-35.5-20.5-53.23-47.41-53.16-74.28l-.62,219.49c-.07,26.87,17.66,53.78,53.16,74.28L2551.33,2704c70.55,40.74,184.6,40.73,254.7,0l150.81-87.64c7.71-4.48,11.19-7.31,11.2-8.84l.62-219.49C2968.65,2389.52,2965.17,2392.35,2957.46,2396.83Z"/><path class="cls-9" d="M2968.07,2387.1c2,1.16-1.05,4.17-10.61,9.73l-150.81,87.64c-70.1,40.74-184.15,40.74-254.7,0l-526.23-303.81c-70.55-40.74-70.92-106.8-.83-147.54l150.81-87.64c9.57-5.56,14.76-7.34,16.77-6.18,12.76,7.39-102,133.12-41,168.3l526.22,303.82C2738.59,2446.6,2955.3,2379.73,2968.07,2387.1Z"/><g class="cls-10"><path class="cls-11" d="M3553.63,1609.24l.25-89.24a28.11,28.11,0,0,1,2.25-10.56q4.1-10,15.94-21.1t30.78-22.11a322,322,0,0,1,31.16-15.7q17.38-7.69,37.21-14.2t41-11.2a377.62,377.62,0,0,1,42.25-6.9l-.25,89.24a375.14,375.14,0,0,0-42.26,6.9q-21.21,4.71-41,11.2t-37.21,14.2a320.88,320.88,0,0,0-31.16,15.7q-18.95,11-30.78,22.11t-15.94,21.09A28.16,28.16,0,0,0,3553.63,1609.24Z"/><path class="cls-12" d="M3928.91,1643.26l-.25,89.23a20.6,20.6,0,0,0-2.08-9.11q-4-8.3-14.76-14.5-14.55-8.4-34.25-10.2a216.41,216.41,0,0,0-43.68.9,532.31,532.31,0,0,0-52.59,8.9q-28.64,6.19-60.7,14-82.07,19.62-145.46,15.9t-112.93-32.3q-38.79-22.39-51.2-47.5a66.78,66.78,0,0,1-7.29-30l.25-89.24a66.75,66.75,0,0,0,7.29,30q12.42,25.11,51.2,47.51,49.56,28.61,112.94,32.3t145.45-15.91q32.07-7.8,60.7-14a532.21,532.21,0,0,1,52.6-8.91,217.86,217.86,0,0,1,43.68-.9q19.7,1.8,34.24,10.2,10.75,6.21,14.76,14.51A20.43,20.43,0,0,1,3928.91,1643.26Z"/><polygon class="cls-13" points="3802.99 1811.06 3802.74 1900.29 3691.88 1836.29 3692.13 1747.05 3802.99 1811.06"/><path class="cls-11" d="M4080.4,1624.66l-.25,89.24a63.73,63.73,0,0,1-4,21.68q-9.36,25.71-37.36,50.81t-67.58,48.1a631.23,631.23,0,0,1-84.2,40.91q-43.58,17.3-84.29,24.89l.25-89.23q40.71-7.61,84.29-24.9a630,630,0,0,0,84.2-40.91q39.57-23,67.58-48.1t37.36-50.81A63.44,63.44,0,0,0,4080.4,1624.66Z"/><path class="cls-14" d="M4019.05,1545.84q41.57,24,54.14,49.4t3.23,51.1q-9.36,25.71-37.36,50.81t-67.58,48.1a630,630,0,0,1-84.2,40.91q-43.58,17.29-84.29,24.9l-110.86-64q55.24-2.79,103-15.9t83.55-33.9q21-12.2,32.84-23.5t15.59-21.3q3.75-10-.27-18.3t-14.76-14.51q-14.54-8.4-34.24-10.2a217.86,217.86,0,0,0-43.68.9,532.21,532.21,0,0,0-52.6,8.91q-28.62,6.2-60.7,14-82.07,19.62-145.45,15.91t-112.94-32.3q-38.77-22.39-51.2-47.51t-3.73-51q8.66-25.9,35.27-51.2t65.86-48.11a656,656,0,0,1,73-37,495.5,495.5,0,0,1,69.28-23.6l103.58,59.8a377.62,377.62,0,0,0-42.25,6.9q-21.23,4.71-41,11.2t-37.21,14.2a322,322,0,0,0-31.16,15.7q-18.93,11-30.78,22.11t-15.94,21.1q-4.08,10-.76,18.7t14.77,15.3a74,74,0,0,0,28.88,9.1,182.4,182.4,0,0,0,37.3,0,450.73,450.73,0,0,0,46.57-7q25.7-5.1,56.38-12.5,42.09-10,79.68-15.6a453.2,453.2,0,0,1,72.14-5.2,285.86,285.86,0,0,1,66.17,8.3A239.37,239.37,0,0,1,4019.05,1545.84Z"/></g><g class="cls-10"><path class="cls-11" d="M3158.51,1838.86l.25-89.24a28.2,28.2,0,0,1,2.25-10.57q4.09-10,15.94-21.09t30.78-22.11a321.11,321.11,0,0,1,31.17-15.7q17.37-7.7,37.2-14.2t41-11.2a377.62,377.62,0,0,1,42.25-6.9l-.25,89.24a376.83,376.83,0,0,0-42.25,6.89q-21.21,4.71-41,11.21t-37.21,14.2a316.42,316.42,0,0,0-31.16,15.7q-18.95,11-30.78,22.11t-15.94,21.09A28.12,28.12,0,0,0,3158.51,1838.86Z"/><path class="cls-12" d="M3533.79,1872.88l-.25,89.24a20.51,20.51,0,0,0-2.08-9.12q-4-8.3-14.76-14.51-14.55-8.38-34.25-10.19a216.31,216.31,0,0,0-43.67.9,532,532,0,0,0-52.6,8.9q-28.63,6.2-60.7,14-82.07,19.61-145.46,15.9t-112.93-32.3q-38.79-22.4-51.2-47.5a66.79,66.79,0,0,1-7.29-30l.25-89.23a66.88,66.88,0,0,0,7.29,30q12.42,25.11,51.2,47.5,49.56,28.62,112.94,32.31t145.45-15.91q32.08-7.8,60.7-14A531.44,531.44,0,0,1,3439,1840a215.61,215.61,0,0,1,43.67-.91q19.7,1.8,34.24,10.2,10.76,6.21,14.76,14.51A20.43,20.43,0,0,1,3533.79,1872.88Z"/><polygon class="cls-13" points="3407.88 2040.68 3407.62 2129.91 3296.77 2065.91 3297.02 1976.68 3407.88 2040.68"/><path class="cls-11" d="M3685.29,1854.28l-.25,89.23a63.56,63.56,0,0,1-4,21.69q-9.36,25.69-37.36,50.81t-67.58,48.09a629.26,629.26,0,0,1-84.19,40.91q-43.59,17.31-84.3,24.9l.26-89.23q40.7-7.61,84.29-24.91a630.42,630.42,0,0,0,84.19-40.9q39.57-23,67.58-48.1T3681.3,1876A63.46,63.46,0,0,0,3685.29,1854.28Z"/><path class="cls-14" d="M3623.93,1775.46q41.57,24,54.14,49.4t3.23,51.1q-9.36,25.71-37.36,50.81t-67.58,48.1a630.42,630.42,0,0,1-84.19,40.9q-43.59,17.31-84.29,24.91l-110.86-64q55.23-2.82,103-15.91t83.54-33.9q21-12.21,32.84-23.5t15.6-21.31q3.74-10-.28-18.29T3517,1849.26q-14.53-8.4-34.24-10.2a215.61,215.61,0,0,0-43.67.91,531.44,531.44,0,0,0-52.61,8.89q-28.62,6.21-60.7,14-82.07,19.62-145.45,15.91t-112.94-32.31q-38.78-22.39-51.2-47.5t-3.73-51q8.65-25.9,35.27-51.2t65.87-48.11a656.2,656.2,0,0,1,73-37,496.17,496.17,0,0,1,69.27-23.59l103.58,59.8a377.62,377.62,0,0,0-42.25,6.9q-21.21,4.71-41,11.2t-37.2,14.2a321.11,321.11,0,0,0-31.17,15.7q-18.93,11-30.78,22.11T3161,1739.05q-4.08,10-.75,18.71t14.76,15.3a74.37,74.37,0,0,0,28.88,9.1,182.4,182.4,0,0,0,37.3,0,453.06,453.06,0,0,0,46.57-7q25.7-5.1,56.38-12.5,42.09-10,79.68-15.6a454.42,454.42,0,0,1,72.14-5.21,287,287,0,0,1,66.18,8.3A239.48,239.48,0,0,1,3623.93,1775.46Z"/></g><g class="cls-10"><path class="cls-11" d="M2773.44,2095.87l.25-89.24q.15-49,68.24-88.56,63.32-36.79,142.68-48.4l-.26,89.24q-79.33,11.6-142.68,48.4Q2773.57,2046.88,2773.44,2095.87Z"/><path class="cls-12" d="M2620.72,2108.22,2621,2019c0,.6,0,1.2,0,1.8q1,85.31,120.18,154.11,111.9,64.61,244.16,65.6t245.83-65q87.06-50.59,114.78-97.2l-.25,89.24q-27.7,46.61-114.78,97.2-113.58,66-245.83,65t-244.16-65.6q-119.17-68.8-120.18-154.11C2620.72,2109.42,2620.72,2108.82,2620.72,2108.22Z"/><path class="cls-14" d="M3345.93,2078.28q-27.69,46.6-114.78,97.2-113.58,66-245.83,65t-244.16-65.6Q2622,2106.09,2621,2020.78t115.68-153.11q72.28-42,140.2-60.21l107.75,62.21q-79.35,11.6-142.68,48.4-69.54,40.41-68.21,90.61t76.49,93.6a315.23,315.23,0,0,0,155.11,42.91q83.07,1.29,151.2-38.31,65.05-37.8,87.22-87.6Z"/></g><path class="cls-11" d="M3095.61,1718.4a7.56,7.56,0,0,1,2.63,2.28c3.87,6-14.26,12.38-9.78,18.18a5.51,5.51,0,0,0,1.63,1.37c2.46,1.43,6.44,1.85,10.62,2.4s8.58,1.2,11.88,3.11a10,10,0,0,1,1.27.84c8.37,6.34,2.79,20.64-10.61,24.64-12.39,3.71-29.72-1.93-42.81-9.49a70.64,70.64,0,0,1-12.74-9.18c-4-3.74-14.12-13.24-8.3-23.65.94-1.69,5.36-8.88,18-12.45C3070.74,1712.67,3088.48,1714.28,3095.61,1718.4Z"/><path class="cls-11" d="M3333.47,1786.1a7.53,7.53,0,0,1,2.62,2.28c3.88,6-14.25,12.39-9.78,18.18a5.39,5.39,0,0,0,1.63,1.38c2.47,1.42,6.44,1.85,10.62,2.39s8.58,1.2,11.89,3.11a14,14,0,0,1,1.27.84c8.36,6.34,2.78,20.64-10.61,24.65-12.39,3.7-29.72-1.93-42.82-9.49a70.67,70.67,0,0,1-12.73-9.18c-4-3.74-14.12-13.25-8.31-23.66.95-1.69,5.37-8.87,18-12.45C3308.59,1780.37,3326.34,1782,3333.47,1786.1Z"/><path class="cls-11" d="M3431.42,1970a7.66,7.66,0,0,1,2.63,2.28c3.88,6-14.26,12.39-9.78,18.18a5.39,5.39,0,0,0,1.63,1.38c2.47,1.42,6.44,1.85,10.62,2.39s8.58,1.2,11.88,3.11a12.69,12.69,0,0,1,1.27.84c8.37,6.34,2.79,20.64-10.6,24.65-12.39,3.7-29.72-1.93-42.82-9.49a70.65,70.65,0,0,1-12.74-9.19c-4-3.73-14.11-13.24-8.3-23.65.94-1.69,5.36-8.87,18-12.45C3406.55,1964.26,3424.29,1965.88,3431.42,1970Z"/><path class="cls-11" d="M3620.42,1815.14a7.56,7.56,0,0,1,2.63,2.28c3.88,6-14.26,12.38-9.78,18.18a5.39,5.39,0,0,0,1.63,1.38c2.47,1.42,6.44,1.85,10.62,2.39s8.58,1.2,11.88,3.11a11.17,11.17,0,0,1,1.27.84c8.37,6.34,2.79,20.64-10.6,24.64-12.39,3.71-29.73-1.93-42.82-9.49a70.16,70.16,0,0,1-12.74-9.18c-4-3.74-14.11-13.24-8.3-23.65.94-1.69,5.36-8.87,18-12.45C3595.55,1809.41,3613.29,1811,3620.42,1815.14Z"/><path class="cls-11" d="M3416.22,1783.93a3.56,3.56,0,0,1,1.23,1.06c1.81,2.82-6.65,5.78-4.57,8.48a2.49,2.49,0,0,0,.76.64,14.73,14.73,0,0,0,5,1.12,15.35,15.35,0,0,1,5.55,1.45c.2.12.4.25.59.39,3.9,3,1.3,9.64-4.95,11.5-5.78,1.73-13.87-.9-20-4.42a33.07,33.07,0,0,1-5.94-4.29c-1.87-1.74-6.59-6.18-3.88-11,.44-.78,2.5-4.14,8.39-5.8C3404.61,1781.25,3412.89,1782,3416.22,1783.93Z"/><path class="cls-11" d="M3156,1670.09a3.58,3.58,0,0,1,1.23,1.07c1.81,2.82-6.65,5.78-4.57,8.48a2.49,2.49,0,0,0,.76.64,14.73,14.73,0,0,0,5,1.12,15.35,15.35,0,0,1,5.55,1.45c.2.12.4.25.59.39,3.9,3,1.3,9.64-4.95,11.5-5.78,1.73-13.87-.9-20-4.43a32.58,32.58,0,0,1-5.94-4.28c-1.87-1.74-6.59-6.18-3.88-11,.44-.78,2.5-4.14,8.39-5.81C3144.37,1667.42,3152.65,1668.17,3156,1670.09Z"/><path class="cls-11" d="M3594.89,1879.71a3.43,3.43,0,0,1,1.22,1.06c1.81,2.82-6.65,5.78-4.56,8.49a2.67,2.67,0,0,0,.76.64,14.88,14.88,0,0,0,5,1.11,15.25,15.25,0,0,1,5.54,1.46,3.35,3.35,0,0,1,.59.39c3.91,3,1.3,9.63-5,11.5-5.78,1.73-13.86-.9-20-4.43a33,33,0,0,1-5.95-4.29c-1.86-1.74-6.58-6.17-3.87-11,.44-.79,2.5-4.14,8.39-5.81C3583.28,1877,3591.56,1877.79,3594.89,1879.71Z"/><path class="cls-11" d="M3131,1786.1a7.66,7.66,0,0,0-2.63,2.28c-3.88,6,14.26,12.39,9.78,18.18a5.39,5.39,0,0,1-1.63,1.38c-2.47,1.42-6.44,1.85-10.62,2.39s-8.58,1.2-11.89,3.11a13.79,13.79,0,0,0-1.26.84c-8.37,6.34-2.79,20.64,10.6,24.65,12.39,3.7,29.72-1.93,42.82-9.49a70.67,70.67,0,0,0,12.73-9.18c4-3.74,14.12-13.25,8.31-23.66-.94-1.69-5.36-8.87-18-12.45C3155.85,1780.37,3138.11,1782,3131,1786.1Z"/><path class="cls-11" d="M3475.82,1757.07a7.46,7.46,0,0,0-2.63,2.28c-3.87,6,14.26,12.38,9.78,18.18a5.51,5.51,0,0,1-1.63,1.37c-2.46,1.43-6.44,1.85-10.62,2.39s-8.58,1.21-11.88,3.11a12.69,12.69,0,0,0-1.27.84c-8.37,6.34-2.79,20.65,10.61,24.65,12.39,3.71,29.72-1.93,42.81-9.49a71.13,71.13,0,0,0,12.74-9.18c4-3.74,14.12-13.24,8.3-23.66-.94-1.68-5.36-8.87-18-12.44C3500.69,1751.33,3483,1753,3475.82,1757.07Z"/><path class="cls-11" d="M3528.57,1914a7.56,7.56,0,0,0-2.63,2.28c-3.87,6,14.26,12.38,9.78,18.18a5.39,5.39,0,0,1-1.63,1.38c-2.46,1.42-6.44,1.85-10.62,2.39s-8.58,1.2-11.88,3.11a11.17,11.17,0,0,0-1.27.84c-8.37,6.34-2.79,20.64,10.61,24.64,12.39,3.71,29.72-1.93,42.81-9.49a70.16,70.16,0,0,0,12.74-9.18c4-3.74,14.12-13.24,8.3-23.65-.94-1.69-5.36-8.87-18-12.45C3553.44,1908.28,3535.7,1909.9,3528.57,1914Z"/><path class="cls-11" d="M3211.15,1614.2a7.56,7.56,0,0,0-2.63,2.28c-3.88,6,14.26,12.38,9.78,18.18a5.51,5.51,0,0,1-1.63,1.37c-2.47,1.43-6.44,1.85-10.62,2.39s-8.58,1.21-11.89,3.12a11.91,11.91,0,0,0-1.26.83c-8.37,6.35-2.79,20.65,10.6,24.65,12.39,3.71,29.72-1.93,42.82-9.49a70.67,70.67,0,0,0,12.73-9.18c4-3.74,14.12-13.24,8.31-23.66-.94-1.68-5.36-8.87-18-12.44C3236,1608.47,3218.28,1610.08,3211.15,1614.2Z"/><path class="cls-11" d="M3221.89,1816a3.12,3.12,0,0,0-1,.91c-1.55,2.42,5.69,4.95,3.91,7.26a2.19,2.19,0,0,1-.65.55,12.85,12.85,0,0,1-4.25,1,13,13,0,0,0-4.74,1.24,3.48,3.48,0,0,0-.51.34c-3.34,2.53-1.11,8.24,4.24,9.84,4.95,1.48,11.87-.77,17.1-3.79a28.65,28.65,0,0,0,5.08-3.67c1.6-1.49,5.64-5.29,3.32-9.45-.38-.67-2.14-3.54-7.18-5C3231.82,1813.7,3224.74,1814.35,3221.89,1816Z"/><path class="cls-11" d="M3472.85,1966.71a3,3,0,0,0-1,.91c-1.54,2.42,5.7,5,3.91,7.26a2.19,2.19,0,0,1-.65.55,12.78,12.78,0,0,1-4.24,1,13,13,0,0,0-4.75,1.24,4.32,4.32,0,0,0-.5.33c-3.35,2.54-1.12,8.25,4.23,9.85,4.95,1.48,11.87-.78,17.1-3.79a28.76,28.76,0,0,0,5.09-3.67c1.59-1.49,5.63-5.29,3.31-9.45-.37-.67-2.14-3.54-7.18-5C3482.79,1964.42,3475.7,1965.07,3472.85,1966.71Z"/><path class="cls-11" d="M3555.31,1780.83a2.92,2.92,0,0,0-1,.91c-1.55,2.41,5.69,4.94,3.91,7.26a2.42,2.42,0,0,1-.66.55,12.74,12.74,0,0,1-4.24,1,13.2,13.2,0,0,0-4.74,1.24c-.18.11-.35.22-.51.34-3.34,2.53-1.11,8.24,4.24,9.84,4.94,1.48,11.86-.77,17.09-3.79a27.44,27.44,0,0,0,5.09-3.67c1.59-1.49,5.64-5.28,3.32-9.44-.38-.68-2.14-3.54-7.19-5C3565.24,1778.54,3558.16,1779.18,3555.31,1780.83Z"/><path class="cls-11" d="M3490.56,1490a7.66,7.66,0,0,1,2.63,2.28c3.87,6-14.26,12.39-9.78,18.18a5.39,5.39,0,0,0,1.63,1.38c2.46,1.42,6.44,1.85,10.62,2.39s8.58,1.2,11.88,3.11a14,14,0,0,1,1.27.84c8.37,6.34,2.78,20.64-10.61,24.65-12.39,3.7-29.72-1.93-42.81-9.49a70.65,70.65,0,0,1-12.74-9.19c-4-3.73-14.12-13.24-8.3-23.65.94-1.69,5.36-8.87,18-12.45C3465.68,1484.25,3483.43,1485.87,3490.56,1490Z"/><path class="cls-11" d="M3728.41,1557.69A7.38,7.38,0,0,1,3731,1560c3.88,6-14.25,12.38-9.78,18.18a5.51,5.51,0,0,0,1.63,1.37c2.47,1.43,6.44,1.85,10.62,2.4s8.58,1.2,11.89,3.11a13.18,13.18,0,0,1,1.27.83c8.36,6.35,2.78,20.65-10.61,24.65-12.39,3.71-29.72-1.93-42.82-9.49a70.67,70.67,0,0,1-12.73-9.18c-4-3.74-14.12-13.24-8.31-23.65,1-1.69,5.36-8.88,18-12.45C3703.54,1552,3721.29,1553.57,3728.41,1557.69Z"/><path class="cls-11" d="M3826.37,1741.58a7.56,7.56,0,0,1,2.63,2.28c3.88,6-14.26,12.38-9.78,18.18a5.51,5.51,0,0,0,1.63,1.37c2.47,1.43,6.44,1.85,10.62,2.4s8.58,1.2,11.88,3.11a11.1,11.1,0,0,1,1.27.83c8.37,6.35,2.79,20.65-10.6,24.65-12.4,3.71-29.73-1.93-42.82-9.49a71.13,71.13,0,0,1-12.74-9.18c-4-3.74-14.11-13.24-8.3-23.66.94-1.68,5.36-8.87,18-12.44C3801.5,1735.85,3819.24,1737.46,3826.37,1741.58Z"/><path class="cls-11" d="M4015.37,1586.73A7.46,7.46,0,0,1,4018,1589c3.88,6-14.26,12.38-9.78,18.18a5.51,5.51,0,0,0,1.63,1.37c2.47,1.43,6.44,1.85,10.62,2.39s8.58,1.21,11.88,3.11a12.69,12.69,0,0,1,1.27.84c8.37,6.34,2.79,20.65-10.6,24.65-12.4,3.71-29.73-1.93-42.82-9.49a71.13,71.13,0,0,1-12.74-9.18c-4-3.74-14.11-13.24-8.3-23.66.94-1.68,5.36-8.87,18-12.44C3990.5,1581,4008.24,1582.61,4015.37,1586.73Z"/><path class="cls-11" d="M3811.17,1555.51a3.56,3.56,0,0,1,1.23,1.06c1.81,2.83-6.66,5.78-4.57,8.49a2.81,2.81,0,0,0,.76.64,15.17,15.17,0,0,0,5,1.12,15.24,15.24,0,0,1,5.54,1.45,6.17,6.17,0,0,1,.6.39c3.9,3,1.3,9.63-5,11.5-5.78,1.73-13.87-.9-20-4.43a33.06,33.06,0,0,1-5.94-4.28c-1.87-1.75-6.59-6.18-3.88-11,.44-.79,2.5-4.14,8.39-5.81C3799.56,1552.84,3807.84,1553.59,3811.17,1555.51Z"/><path class="cls-11" d="M3550.92,1441.68a3.56,3.56,0,0,1,1.23,1.06c1.81,2.82-6.66,5.78-4.57,8.49a2.81,2.81,0,0,0,.76.64,15,15,0,0,0,5,1.11,15.56,15.56,0,0,1,5.55,1.46,5.46,5.46,0,0,1,.59.39c3.9,3,1.3,9.63-5,11.5-5.78,1.73-13.87-.9-20-4.43a32.59,32.59,0,0,1-5.94-4.29c-1.87-1.74-6.59-6.17-3.88-11,.44-.79,2.5-4.14,8.39-5.81C3539.31,1439,3547.59,1439.76,3550.92,1441.68Z"/><path class="cls-11" d="M3989.84,1651.29a3.45,3.45,0,0,1,1.22,1.07c1.81,2.82-6.65,5.77-4.56,8.48a2.54,2.54,0,0,0,.76.64c1.15.67,3,.86,4.95,1.12a15.24,15.24,0,0,1,5.55,1.45,6,6,0,0,1,.59.39c3.91,3,1.3,9.63-4.95,11.5-5.78,1.73-13.87-.9-20-4.43a32.93,32.93,0,0,1-5.94-4.28c-1.86-1.75-6.59-6.18-3.87-11,.44-.79,2.5-4.14,8.39-5.81C3978.23,1648.62,3986.51,1649.37,3989.84,1651.29Z"/><path class="cls-11" d="M3525.93,1557.69a7.38,7.38,0,0,0-2.63,2.28c-3.88,6,14.25,12.38,9.78,18.18a5.51,5.51,0,0,1-1.63,1.37c-2.47,1.43-6.44,1.85-10.62,2.4s-8.58,1.2-11.89,3.11a11.91,11.91,0,0,0-1.26.83c-8.37,6.35-2.79,20.65,10.6,24.65,12.39,3.71,29.72-1.93,42.82-9.49a70.67,70.67,0,0,0,12.73-9.18c4-3.74,14.12-13.24,8.31-23.65-.94-1.69-5.36-8.88-18-12.45C3550.8,1552,3533.05,1553.57,3525.93,1557.69Z"/><path class="cls-11" d="M3870.77,1528.65a7.56,7.56,0,0,0-2.63,2.28c-3.88,6,14.26,12.38,9.78,18.18a5.53,5.53,0,0,1-1.63,1.38c-2.47,1.42-6.44,1.84-10.62,2.39s-8.58,1.2-11.88,3.11a11.17,11.17,0,0,0-1.27.84c-8.37,6.34-2.79,20.64,10.6,24.64,12.4,3.71,29.73-1.93,42.82-9.49a70.64,70.64,0,0,0,12.74-9.18c4-3.74,14.11-13.24,8.3-23.65-.94-1.69-5.36-8.88-18-12.45C3895.64,1522.92,3877.9,1524.53,3870.77,1528.65Z"/><path class="cls-11" d="M3923.52,1685.6a7.46,7.46,0,0,0-2.63,2.28c-3.87,6,14.26,12.38,9.78,18.18a5.51,5.51,0,0,1-1.63,1.37c-2.47,1.43-6.44,1.85-10.62,2.39s-8.58,1.21-11.88,3.11a12.69,12.69,0,0,0-1.27.84c-8.37,6.34-2.79,20.65,10.6,24.65,12.4,3.71,29.73-1.93,42.82-9.49a71.13,71.13,0,0,0,12.74-9.18c4-3.74,14.11-13.24,8.3-23.66-.94-1.68-5.36-8.87-18-12.44C3948.39,1679.86,3930.65,1681.48,3923.52,1685.6Z"/><path class="cls-11" d="M3606.1,1385.78a7.38,7.38,0,0,0-2.63,2.28c-3.88,6,14.25,12.38,9.78,18.18a5.39,5.39,0,0,1-1.63,1.38c-2.47,1.42-6.44,1.85-10.62,2.39s-8.58,1.2-11.89,3.11a12,12,0,0,0-1.26.84c-8.37,6.34-2.79,20.64,10.6,24.64,12.39,3.71,29.72-1.93,42.82-9.49a69.7,69.7,0,0,0,12.73-9.18c4-3.74,14.12-13.24,8.31-23.65-.94-1.69-5.36-8.87-18-12.45C3631,1380.05,3613.22,1381.67,3606.1,1385.78Z"/><path class="cls-11" d="M3616.84,1587.58a2.92,2.92,0,0,0-1.05.91c-1.55,2.41,5.69,4.94,3.91,7.26a2.11,2.11,0,0,1-.66.55,12.5,12.5,0,0,1-4.24,1,13,13,0,0,0-4.74,1.25,4.45,4.45,0,0,0-.51.33c-3.34,2.53-1.11,8.24,4.24,9.84,4.94,1.48,11.87-.77,17.09-3.79a27.9,27.9,0,0,0,5.09-3.66c1.6-1.5,5.64-5.29,3.32-9.45-.38-.67-2.14-3.54-7.19-5C3626.77,1585.29,3619.69,1585.93,3616.84,1587.58Z"/><path class="cls-11" d="M3867.8,1738.29a3,3,0,0,0-1.05.92c-1.54,2.41,5.7,4.94,3.91,7.26a2.31,2.31,0,0,1-.65.54,12.78,12.78,0,0,1-4.24,1,13.25,13.25,0,0,0-4.75,1.24c-.18.11-.35.22-.51.34-3.34,2.53-1.11,8.24,4.24,9.84,4.95,1.48,11.87-.77,17.1-3.79a27.34,27.34,0,0,0,5.08-3.67c1.6-1.49,5.64-5.28,3.32-9.44-.38-.68-2.14-3.55-7.18-5C3877.74,1736,3870.65,1736.65,3867.8,1738.29Z"/><path class="cls-11" d="M3950.26,1552.41a3,3,0,0,0-1.05.91c-1.55,2.42,5.69,5,3.9,7.26a2,2,0,0,1-.65.55,12.72,12.72,0,0,1-4.24,1,13,13,0,0,0-4.74,1.24,4.45,4.45,0,0,0-.51.33c-3.34,2.54-1.11,8.25,4.23,9.85,5,1.48,11.87-.78,17.1-3.79a28.39,28.39,0,0,0,5.09-3.67c1.59-1.49,5.64-5.29,3.32-9.45-.38-.67-2.15-3.54-7.19-5C3960.19,1550.12,3953.1,1550.77,3950.26,1552.41Z"/><path class="cls-11" d="M2860.83,1837.36a7.56,7.56,0,0,1,2.63,2.28c3.87,6-14.26,12.38-9.79,18.18a5.66,5.66,0,0,0,1.63,1.38c2.47,1.42,6.44,1.84,10.63,2.39s8.57,1.2,11.88,3.11a12.13,12.13,0,0,1,1.27.84c8.36,6.34,2.78,20.64-10.61,24.64-12.39,3.71-29.72-1.93-42.81-9.49a69.46,69.46,0,0,1-12.74-9.18c-4-3.74-14.12-13.24-8.3-23.65.94-1.69,5.36-8.87,18-12.45C2836,1831.63,2853.7,1833.24,2860.83,1837.36Z"/><path class="cls-11" d="M2742.49,1905a3.39,3.39,0,0,1,1.23,1.06c1.81,2.82-6.65,5.78-4.56,8.48a2.43,2.43,0,0,0,.76.65,14.87,14.87,0,0,0,4.95,1.11,15.44,15.44,0,0,1,5.55,1.45,4.7,4.7,0,0,1,.59.4c3.9,2.95,1.3,9.63-5,11.5-5.78,1.73-13.87-.9-20-4.43a32.94,32.94,0,0,1-5.94-4.29c-1.86-1.74-6.59-6.18-3.88-11,.44-.79,2.51-4.14,8.4-5.81C2730.89,1902.32,2739.17,1903.08,2742.49,1905Z"/><path class="cls-11" d="M3178.59,2122.38a3.58,3.58,0,0,1,1.23,1.07c1.8,2.82-6.66,5.78-4.57,8.48a2.52,2.52,0,0,0,.76.64c1.15.67,3,.86,5,1.12a15.24,15.24,0,0,1,5.54,1.45,6.17,6.17,0,0,1,.6.39c3.9,3,1.3,9.63-5,11.5-5.79,1.73-13.87-.9-20-4.43a33,33,0,0,1-5.95-4.28c-1.86-1.75-6.58-6.18-3.87-11,.44-.79,2.5-4.14,8.39-5.81C3167,2119.71,3175.26,2120.46,3178.59,2122.38Z"/><path class="cls-11" d="M3066.09,2196.89a2.6,2.6,0,0,1,.93.8c1.36,2.13-5,4.35-3.44,6.39a1.92,1.92,0,0,0,.57.48,11.25,11.25,0,0,0,3.74.84,11.71,11.71,0,0,1,4.17,1.1,5,5,0,0,1,.45.29c2.94,2.23,1,7.26-3.73,8.66-4.35,1.31-10.44-.67-15.05-3.33a25.09,25.09,0,0,1-4.47-3.23c-1.41-1.31-5-4.65-2.92-8.31.33-.59,1.88-3.12,6.32-4.38C3057.35,2194.88,3063.59,2195.44,3066.09,2196.89Z"/><path class="cls-11" d="M2941,2173a7.66,7.66,0,0,1,2.63,2.28c3.87,6-14.26,12.38-9.79,18.18a5.51,5.51,0,0,0,1.63,1.38c2.47,1.42,6.44,1.85,10.63,2.39s8.57,1.2,11.88,3.11a14,14,0,0,1,1.27.84c8.36,6.34,2.78,20.64-10.61,24.64-12.39,3.71-29.72-1.92-42.81-9.48a69.94,69.94,0,0,1-12.74-9.19c-4-3.74-14.12-13.24-8.3-23.65.94-1.69,5.36-8.87,18-12.45C2916.12,2167.27,2933.87,2168.89,2941,2173Z"/><path class="cls-11" d="M2725.93,2044.76a7.38,7.38,0,0,0-2.63,2.28c-3.88,6.05,14.25,12.38,9.78,18.18a5.53,5.53,0,0,1-1.63,1.38c-2.47,1.42-6.44,1.84-10.62,2.39s-8.58,1.2-11.89,3.11a10.61,10.61,0,0,0-1.26.84c-8.37,6.34-2.79,20.64,10.6,24.64,12.39,3.71,29.72-1.93,42.82-9.49a70.18,70.18,0,0,0,12.73-9.18c4-3.74,14.12-13.24,8.31-23.65-.94-1.69-5.36-8.88-18-12.45C2750.8,2039,2733.05,2040.64,2725.93,2044.76Z"/><path class="cls-11" d="M2676,1982.13a3,3,0,0,0-1.05.91c-1.54,2.42,5.7,5,3.91,7.26a2.19,2.19,0,0,1-.65.55,12.78,12.78,0,0,1-4.24,1,13,13,0,0,0-4.75,1.24,4.32,4.32,0,0,0-.5.33c-3.35,2.53-1.12,8.25,4.23,9.84,5,1.48,11.87-.77,17.1-3.79a28.25,28.25,0,0,0,5.09-3.66c1.59-1.5,5.63-5.29,3.31-9.45-.37-.67-2.14-3.54-7.18-5C2685.9,1979.84,2678.81,1980.49,2676,1982.13Z"/><path class="cls-11" d="M2791.27,2159a3.12,3.12,0,0,0-1.05.91c-1.55,2.42,5.69,4.95,3.9,7.26a2.19,2.19,0,0,1-.65.55,12.72,12.72,0,0,1-4.24,1,13,13,0,0,0-4.75,1.24,4,4,0,0,0-.5.34c-3.34,2.53-1.11,8.24,4.23,9.84,4.95,1.48,11.87-.77,17.1-3.79a28.76,28.76,0,0,0,5.09-3.67c1.59-1.49,5.64-5.29,3.31-9.45-.37-.67-2.14-3.54-7.18-5C2801.2,2156.66,2794.11,2157.31,2791.27,2159Z"/><path class="cls-11" d="M2802.22,2098.92a2.92,2.92,0,0,0-1,.91c-1.54,2.41,5.7,4.94,3.91,7.26a2.52,2.52,0,0,1-.65.55,12.8,12.8,0,0,1-4.24,1,13.25,13.25,0,0,0-4.75,1.24l-.51.34c-3.34,2.53-1.11,8.24,4.24,9.84,4.95,1.48,11.87-.77,17.1-3.79a27.34,27.34,0,0,0,5.08-3.67c1.6-1.49,5.64-5.28,3.32-9.44-.37-.68-2.14-3.54-7.18-5C2812.16,2096.63,2805.07,2097.27,2802.22,2098.92Z"/><path class="cls-11" d="M3010.92,2159a3.12,3.12,0,0,0-1.05.91c-1.55,2.42,5.69,4.95,3.91,7.26a2.11,2.11,0,0,1-.66.55,12.72,12.72,0,0,1-4.24,1,13,13,0,0,0-4.74,1.24,3.48,3.48,0,0,0-.51.34c-3.34,2.53-1.11,8.24,4.24,9.84,4.94,1.48,11.86-.77,17.09-3.79a28.39,28.39,0,0,0,5.09-3.67c1.59-1.49,5.64-5.29,3.32-9.45-.38-.67-2.14-3.54-7.19-5C3020.85,2156.66,3013.77,2157.31,3010.92,2159Z"/><path class="cls-11" d="M3140.48,2170.55a3,3,0,0,0-1.05.91c-1.54,2.41,5.7,4.94,3.91,7.26a2.19,2.19,0,0,1-.65.55,12.56,12.56,0,0,1-4.24.95,13.06,13.06,0,0,0-4.75,1.25,4.32,4.32,0,0,0-.5.33c-3.35,2.53-1.12,8.25,4.23,9.84,5,1.48,11.87-.77,17.1-3.79a28.25,28.25,0,0,0,5.09-3.66c1.59-1.5,5.63-5.29,3.31-9.45-.37-.67-2.14-3.54-7.18-5C3150.42,2168.26,3143.33,2168.91,3140.48,2170.55Z"/><path class="cls-11" d="M2660,2048.15a3,3,0,0,0-1.05.91c-1.55,2.42,5.69,5,3.9,7.26a2.19,2.19,0,0,1-.65.55,12.72,12.72,0,0,1-4.24,1,13,13,0,0,0-4.75,1.24,5.39,5.39,0,0,0-.5.33c-3.34,2.54-1.11,8.25,4.23,9.85,4.95,1.48,11.87-.77,17.1-3.79a28.76,28.76,0,0,0,5.09-3.67c1.59-1.49,5.64-5.29,3.31-9.45-.37-.67-2.14-3.54-7.18-5C2669.89,2045.86,2662.8,2046.51,2660,2048.15Z"/><path class="cls-11" d="M3229.4,2078.67a7.66,7.66,0,0,0-2.63,2.28c-3.87,6.05,14.26,12.39,9.79,18.18a5.51,5.51,0,0,1-1.63,1.38c-2.47,1.42-6.44,1.85-10.62,2.39s-8.58,1.2-11.89,3.11a14,14,0,0,0-1.27.84c-8.36,6.34-2.78,20.64,10.61,24.65,12.39,3.7,29.72-1.93,42.81-9.49a69.94,69.94,0,0,0,12.74-9.19c4-3.73,14.12-13.24,8.31-23.65-.95-1.69-5.37-8.87-18-12.45C3254.28,2072.94,3236.53,2074.56,3229.4,2078.67Z"/></g></svg>